<svg xmlns="http://www.w3.org/2000/svg" xmlns:xlink="http://www.w3.org/1999/xlink" width="1920" zoomAndPan="magnify" viewBox="0 0 1440 809.999993" height="1080" preserveAspectRatio="xMidYMid meet" version="1.0"><defs><g/><clipPath id="57a2e3aea1"><path d="M 310.363281 477.128906 L 514.308594 477.128906 L 514.308594 595 L 310.363281 595 Z M 310.363281 477.128906 " clip-rule="nonzero"/></clipPath><clipPath id="2f5b475366"><path d="M 411.515625 536 L 514 536 L 514 712.628906 L 411.515625 712.628906 Z M 411.515625 536 " clip-rule="nonzero"/></clipPath><clipPath id="b1ee1d05d0"><path d="M 310.363281 536 L 412.53125 536 L 412.53125 712.628906 L 310.363281 712.628906 Z M 310.363281 536 " clip-rule="nonzero"/></clipPath><clipPath id="5271964cda"><path d="M 168.546875 429.660156 L 656.042969 429.660156 L 656.042969 745.410156 L 168.546875 745.410156 Z M 168.546875 429.660156 " clip-rule="nonzero"/></clipPath><clipPath id="af5a97f433"><path d="M 206.800781 429.660156 L 617.789062 429.660156 C 638.917969 429.660156 656.046875 446.789062 656.046875 467.914062 L 656.046875 707.15625 C 656.046875 728.28125 638.917969 745.410156 617.789062 745.410156 L 206.800781 745.410156 C 185.671875 745.410156 168.546875 728.28125 168.546875 707.15625 L 168.546875 467.914062 C 168.546875 446.789062 185.671875 429.660156 206.800781 429.660156 " clip-rule="nonzero"/></clipPath><clipPath id="78ab3ecc5e"><path d="M 476.285156 61.554688 L 963.785156 61.554688 L 963.785156 229.554688 L 476.285156 229.554688 Z M 476.285156 61.554688 " clip-rule="nonzero"/></clipPath><clipPath id="4215263f9d"><path d="M 514.542969 61.554688 L 925.527344 61.554688 C 946.65625 61.554688 963.785156 78.707031 963.785156 99.863281 L 963.785156 191.25 C 963.785156 212.40625 946.65625 229.554688 925.527344 229.554688 L 514.542969 229.554688 C 493.414062 229.554688 476.285156 212.40625 476.285156 191.25 L 476.285156 99.863281 C 476.285156 78.707031 493.414062 61.554688 514.542969 61.554688 " clip-rule="nonzero"/></clipPath></defs><g clip-path="url(#57a2e3aea1)"><path fill="#e8d6a2" d="M 412.335938 594.878906 L 514.308594 536.003906 L 412.335938 477.128906 L 310.363281 536.003906 L 412.335938 594.878906 " fill-opacity="1" fill-rule="nonzero"/></g><path fill="#b58850" d="M 454.007812 570.820312 L 472.636719 560.0625 L 370.667969 501.1875 L 352.035156 511.945312 L 454.007812 570.820312 " fill-opacity="1" fill-rule="nonzero"/><g clip-path="url(#2f5b475366)"><path fill="#b58850" d="M 513.703125 653.753906 L 411.730469 712.632812 L 411.730469 594.878906 L 513.703125 536.003906 L 513.703125 653.753906 " fill-opacity="1" fill-rule="nonzero"/></g><path fill="#815300" d="M 472.03125 677.816406 L 453.402344 688.570312 L 453.402344 672.136719 L 472.03125 661.378906 L 472.03125 677.816406 " fill-opacity="1" fill-rule="nonzero"/><path fill="#815300" d="M 472.03125 576.5 L 453.402344 587.253906 L 453.402344 570.820312 L 472.03125 560.0625 L 472.03125 576.5 " fill-opacity="1" fill-rule="nonzero"/><g clip-path="url(#b1ee1d05d0)"><path fill="#d6b477" d="M 412.335938 712.632812 L 310.363281 653.753906 L 310.363281 536.003906 L 412.335938 594.878906 L 412.335938 712.632812 " fill-opacity="1" fill-rule="nonzero"/></g><path fill="#815300" d="M 354.328125 667.449219 L 336.007812 656.871094 L 336.007812 635.714844 L 354.328125 646.292969 Z M 335.066406 634.085938 L 335.066406 657.414062 L 355.269531 669.078125 L 355.269531 645.75 L 335.066406 634.085938 " fill-opacity="1" fill-rule="nonzero"/><path fill="#815300" d="M 340.339844 654.710938 L 342.929688 656.207031 L 342.929688 646.363281 L 344.402344 647.210938 L 341.636719 641.136719 L 338.867188 644.015625 L 340.339844 644.867188 L 340.339844 654.710938 " fill-opacity="1" fill-rule="nonzero"/><path fill="#815300" d="M 347.402344 658.789062 L 349.992188 660.285156 L 349.992188 650.441406 L 351.464844 651.289062 L 348.699219 645.210938 L 345.933594 648.09375 L 347.402344 648.945312 L 347.402344 658.789062 " fill-opacity="1" fill-rule="nonzero"/><path fill="#815300" d="M 352.53125 662.886719 L 337.800781 654.382812 L 337.800781 656.308594 L 352.53125 664.8125 L 352.53125 662.886719 " fill-opacity="1" fill-rule="nonzero"/><path fill="#815300" d="M 377.867188 681.039062 L 359.550781 670.460938 L 359.550781 649.308594 L 377.867188 659.886719 Z M 358.605469 647.679688 L 358.605469 671.007812 L 378.808594 682.671875 L 378.808594 659.339844 L 358.605469 647.679688 " fill-opacity="1" fill-rule="nonzero"/><path fill="#815300" d="M 368.011719 667.1875 L 368.011719 671.828125 L 365.875 670.59375 C 365.507812 670.378906 365.207031 670.550781 365.207031 670.976562 L 365.207031 671.546875 L 372.207031 675.585938 L 372.207031 675.015625 C 372.207031 674.59375 371.910156 674.078125 371.542969 673.867188 L 369.402344 672.628906 L 369.402344 667.992188 C 371.683594 668.921875 373.4375 667.667969 373.4375 664.925781 L 373.4375 660.09375 L 370.792969 658.566406 L 369.839844 660.453125 L 372.054688 661.730469 L 368.070312 664.804688 L 369.363281 661.613281 L 367.3125 660.429688 L 368.683594 657.347656 L 363.980469 654.632812 L 363.980469 659.464844 C 363.980469 662.207031 365.730469 665.484375 368.011719 667.1875 " fill-opacity="1" fill-rule="nonzero"/><path fill="#815300" d="M 401.507812 694.6875 L 383.1875 684.109375 L 383.1875 662.957031 L 401.507812 673.535156 Z M 382.246094 661.324219 L 382.246094 684.65625 L 402.449219 696.316406 L 402.449219 672.992188 L 382.246094 661.324219 " fill-opacity="1" fill-rule="nonzero"/><path fill="#815300" d="M 389.460938 677.542969 C 390.199219 677.578125 391.042969 677.597656 391.941406 678 C 391.914062 678.050781 391.898438 678.113281 391.898438 678.1875 L 391.898438 684.78125 C 391.898438 685.410156 391.453125 685.667969 390.90625 685.351562 C 390.359375 685.035156 389.914062 684.265625 389.914062 683.632812 C 389.914062 683.347656 389.714844 683.003906 389.46875 682.859375 C 389.222656 682.71875 389.023438 682.832031 389.023438 683.117188 C 389.023438 684.320312 389.867188 685.78125 390.90625 686.382812 C 391.949219 686.984375 392.792969 686.496094 392.792969 685.296875 L 392.792969 678.703125 C 392.792969 678.628906 392.777344 678.550781 392.753906 678.472656 C 393.652344 679.105469 394.492188 680.054688 395.234375 680.878906 C 396.085938 680.914062 396.765625 680.761719 397.816406 681.367188 C 398.394531 681.699219 399.246094 682.554688 399.769531 683.003906 C 399.4375 679.394531 396.476562 674.722656 392.792969 672.375 L 392.792969 670.773438 C 392.792969 670.488281 392.59375 670.144531 392.347656 670 C 392.101562 669.859375 391.898438 669.972656 391.898438 670.257812 L 391.898438 671.847656 C 388.21875 669.953125 385.253906 671.207031 384.921875 674.429688 C 385.445312 674.585938 386.300781 674.71875 386.875 675.050781 C 387.929688 675.65625 388.609375 676.597656 389.460938 677.542969 " fill-opacity="1" fill-rule="nonzero"/><g fill="#526479" fill-opacity="1"><g transform="translate(235.546797, 415.456084)"><g><path d="M 3.78125 0 L 3.78125 -27.546875 L 7.265625 -27.546875 L 7.265625 -13.734375 L 7.390625 -13.734375 L 18.859375 -27.546875 L 22.8125 -27.546875 L 14.203125 -17.046875 L 24.15625 0 L 20.25 0 L 12.015625 -14.328125 L 7.265625 -8.734375 L 7.265625 0 Z M 3.78125 0 "/></g></g></g><g fill="#526479" fill-opacity="1"><g transform="translate(259.85796, 415.456084)"><g><path d="M 3.4375 0 L 3.4375 -20.40625 L 6.296875 -20.40625 L 6.59375 -17.46875 L 6.71875 -17.46875 C 7.695312 -18.445312 8.722656 -19.265625 9.796875 -19.921875 C 10.878906 -20.585938 12.132812 -20.921875 13.5625 -20.921875 C 15.71875 -20.921875 17.289062 -20.25 18.28125 -18.90625 C 19.28125 -17.5625 19.78125 -15.570312 19.78125 -12.9375 L 19.78125 0 L 16.34375 0 L 16.34375 -12.46875 C 16.34375 -14.40625 16.03125 -15.800781 15.40625 -16.65625 C 14.789062 -17.507812 13.8125 -17.9375 12.46875 -17.9375 C 11.40625 -17.9375 10.46875 -17.671875 9.65625 -17.140625 C 8.84375 -16.609375 7.921875 -15.820312 6.890625 -14.78125 L 6.890625 0 Z M 3.4375 0 "/></g></g></g><g fill="#526479" fill-opacity="1"><g transform="translate(282.825496, 415.456084)"><g><path d="M 11.375 0.5 C 10.113281 0.5 8.914062 0.265625 7.78125 -0.203125 C 6.65625 -0.679688 5.65625 -1.375 4.78125 -2.28125 C 3.914062 -3.195312 3.222656 -4.316406 2.703125 -5.640625 C 2.191406 -6.972656 1.9375 -8.476562 1.9375 -10.15625 C 1.9375 -11.863281 2.191406 -13.382812 2.703125 -14.71875 C 3.222656 -16.050781 3.914062 -17.175781 4.78125 -18.09375 C 5.65625 -19.019531 6.65625 -19.722656 7.78125 -20.203125 C 8.914062 -20.679688 10.113281 -20.921875 11.375 -20.921875 C 12.632812 -20.921875 13.832031 -20.679688 14.96875 -20.203125 C 16.101562 -19.722656 17.101562 -19.019531 17.96875 -18.09375 C 18.84375 -17.175781 19.535156 -16.050781 20.046875 -14.71875 C 20.566406 -13.382812 20.828125 -11.863281 20.828125 -10.15625 C 20.828125 -8.476562 20.566406 -6.972656 20.046875 -5.640625 C 19.535156 -4.316406 18.84375 -3.195312 17.96875 -2.28125 C 17.101562 -1.375 16.101562 -0.679688 14.96875 -0.203125 C 13.832031 0.265625 12.632812 0.5 11.375 0.5 Z M 11.375 -2.359375 C 12.25 -2.359375 13.050781 -2.546875 13.78125 -2.921875 C 14.507812 -3.296875 15.128906 -3.828125 15.640625 -4.515625 C 16.160156 -5.203125 16.5625 -6.019531 16.84375 -6.96875 C 17.125 -7.925781 17.265625 -8.988281 17.265625 -10.15625 C 17.265625 -11.332031 17.125 -12.40625 16.84375 -13.375 C 16.5625 -14.34375 16.160156 -15.175781 15.640625 -15.875 C 15.128906 -16.570312 14.507812 -17.109375 13.78125 -17.484375 C 13.050781 -17.867188 12.25 -18.0625 11.375 -18.0625 C 10.507812 -18.0625 9.710938 -17.867188 8.984375 -17.484375 C 8.253906 -17.109375 7.628906 -16.570312 7.109375 -15.875 C 6.597656 -15.175781 6.203125 -14.34375 5.921875 -13.375 C 5.640625 -12.40625 5.5 -11.332031 5.5 -10.15625 C 5.5 -8.988281 5.640625 -7.925781 5.921875 -6.96875 C 6.203125 -6.019531 6.597656 -5.203125 7.109375 -4.515625 C 7.628906 -3.828125 8.253906 -3.296875 8.984375 -2.921875 C 9.710938 -2.546875 10.507812 -2.359375 11.375 -2.359375 Z M 11.375 -2.359375 "/></g></g></g><g fill="#526479" fill-opacity="1"><g transform="translate(305.583101, 415.456084)"><g><path d="M 6.671875 0 L 1.015625 -20.40625 L 4.53125 -20.40625 L 7.5625 -8.609375 C 7.78125 -7.628906 7.988281 -6.675781 8.1875 -5.75 C 8.382812 -4.832031 8.582031 -3.894531 8.78125 -2.9375 L 8.953125 -2.9375 C 9.171875 -3.894531 9.390625 -4.84375 9.609375 -5.78125 C 9.835938 -6.71875 10.078125 -7.660156 10.328125 -8.609375 L 13.484375 -20.40625 L 16.84375 -20.40625 L 20.03125 -8.609375 C 20.28125 -7.628906 20.523438 -6.675781 20.765625 -5.75 C 21.003906 -4.832031 21.238281 -3.894531 21.46875 -2.9375 L 21.625 -2.9375 C 21.851562 -3.894531 22.0625 -4.832031 22.25 -5.75 C 22.445312 -6.675781 22.660156 -7.628906 22.890625 -8.609375 L 25.875 -20.40625 L 29.140625 -20.40625 L 23.6875 0 L 19.484375 0 L 16.546875 -10.96875 C 16.296875 -11.945312 16.066406 -12.910156 15.859375 -13.859375 C 15.648438 -14.804688 15.414062 -15.800781 15.15625 -16.84375 L 15 -16.84375 C 14.769531 -15.800781 14.539062 -14.796875 14.3125 -13.828125 C 14.09375 -12.867188 13.84375 -11.898438 13.5625 -10.921875 L 10.703125 0 Z M 6.671875 0 "/></g></g></g><g fill="#526479" fill-opacity="1"><g transform="translate(335.730625, 415.456084)"><g><path d="M 7.09375 0.5 C 5.78125 0.5 4.84375 0.109375 4.28125 -0.671875 C 3.71875 -1.453125 3.4375 -2.597656 3.4375 -4.109375 L 3.4375 -29.90625 L 6.890625 -29.90625 L 6.890625 -3.859375 C 6.890625 -3.304688 6.984375 -2.914062 7.171875 -2.6875 C 7.367188 -2.46875 7.597656 -2.359375 7.859375 -2.359375 C 7.960938 -2.359375 8.0625 -2.359375 8.15625 -2.359375 C 8.257812 -2.359375 8.410156 -2.382812 8.609375 -2.4375 L 9.078125 0.171875 C 8.847656 0.285156 8.578125 0.367188 8.265625 0.421875 C 7.960938 0.472656 7.570312 0.5 7.09375 0.5 Z M 7.09375 0.5 "/></g></g></g><g fill="#526479" fill-opacity="1"><g transform="translate(346.437614, 415.456084)"><g><path d="M 11.71875 0.5 C 10.34375 0.5 9.0625 0.253906 7.875 -0.234375 C 6.6875 -0.722656 5.648438 -1.421875 4.765625 -2.328125 C 3.878906 -3.242188 3.1875 -4.359375 2.6875 -5.671875 C 2.1875 -6.984375 1.9375 -8.476562 1.9375 -10.15625 C 1.9375 -11.84375 2.191406 -13.347656 2.703125 -14.671875 C 3.222656 -16.003906 3.910156 -17.132812 4.765625 -18.0625 C 5.617188 -18.988281 6.59375 -19.695312 7.6875 -20.1875 C 8.78125 -20.675781 9.914062 -20.921875 11.09375 -20.921875 C 12.375 -20.921875 13.523438 -20.695312 14.546875 -20.25 C 15.578125 -19.800781 16.429688 -19.15625 17.109375 -18.3125 C 17.796875 -17.46875 18.320312 -16.457031 18.6875 -15.28125 C 19.050781 -14.113281 19.234375 -12.800781 19.234375 -11.34375 C 19.234375 -10.976562 19.222656 -10.617188 19.203125 -10.265625 C 19.191406 -9.921875 19.160156 -9.617188 19.109375 -9.359375 L 5.328125 -9.359375 C 5.472656 -7.179688 6.15625 -5.453125 7.375 -4.171875 C 8.59375 -2.898438 10.179688 -2.265625 12.140625 -2.265625 C 13.117188 -2.265625 14.019531 -2.410156 14.84375 -2.703125 C 15.675781 -3.003906 16.46875 -3.390625 17.21875 -3.859375 L 18.4375 -1.59375 C 17.539062 -1.03125 16.546875 -0.539062 15.453125 -0.125 C 14.359375 0.289062 13.113281 0.5 11.71875 0.5 Z M 5.296875 -11.84375 L 16.21875 -11.84375 C 16.21875 -13.914062 15.773438 -15.488281 14.890625 -16.5625 C 14.003906 -17.644531 12.765625 -18.1875 11.171875 -18.1875 C 10.441406 -18.1875 9.75 -18.046875 9.09375 -17.765625 C 8.4375 -17.484375 7.84375 -17.066406 7.3125 -16.515625 C 6.78125 -15.972656 6.335938 -15.3125 5.984375 -14.53125 C 5.628906 -13.75 5.398438 -12.851562 5.296875 -11.84375 Z M 5.296875 -11.84375 "/></g></g></g><g fill="#526479" fill-opacity="1"><g transform="translate(367.263754, 415.456084)"><g><path d="M 10.421875 0.5 C 7.835938 0.5 5.78125 -0.421875 4.25 -2.265625 C 2.726562 -4.117188 1.96875 -6.75 1.96875 -10.15625 C 1.96875 -11.8125 2.210938 -13.300781 2.703125 -14.625 C 3.191406 -15.957031 3.84375 -17.085938 4.65625 -18.015625 C 5.46875 -18.941406 6.40625 -19.65625 7.46875 -20.15625 C 8.539062 -20.664062 9.664062 -20.921875 10.84375 -20.921875 C 12.007812 -20.921875 13.023438 -20.707031 13.890625 -20.28125 C 14.765625 -19.863281 15.648438 -19.289062 16.546875 -18.5625 L 16.375 -22.046875 L 16.375 -29.90625 L 19.859375 -29.90625 L 19.859375 0 L 17.015625 0 L 16.71875 -2.390625 L 16.59375 -2.390625 C 15.78125 -1.609375 14.847656 -0.929688 13.796875 -0.359375 C 12.742188 0.210938 11.617188 0.5 10.421875 0.5 Z M 11.171875 -2.390625 C 12.117188 -2.390625 13.015625 -2.617188 13.859375 -3.078125 C 14.703125 -3.546875 15.539062 -4.253906 16.375 -5.203125 L 16.375 -15.875 C 15.507812 -16.65625 14.675781 -17.207031 13.875 -17.53125 C 13.082031 -17.851562 12.265625 -18.015625 11.421875 -18.015625 C 10.609375 -18.015625 9.84375 -17.828125 9.125 -17.453125 C 8.414062 -17.078125 7.796875 -16.546875 7.265625 -15.859375 C 6.734375 -15.171875 6.3125 -14.347656 6 -13.390625 C 5.695312 -12.441406 5.546875 -11.378906 5.546875 -10.203125 C 5.546875 -7.742188 6.035156 -5.828125 7.015625 -4.453125 C 7.992188 -3.078125 9.378906 -2.390625 11.171875 -2.390625 Z M 11.171875 -2.390625 "/></g></g></g><g fill="#526479" fill-opacity="1"><g transform="translate(390.567197, 415.456084)"><g><path d="M 10.328125 9.40625 C 9.066406 9.40625 7.914062 9.285156 6.875 9.046875 C 5.84375 8.804688 4.957031 8.445312 4.21875 7.96875 C 3.476562 7.5 2.90625 6.925781 2.5 6.25 C 2.09375 5.582031 1.890625 4.800781 1.890625 3.90625 C 1.890625 3.039062 2.15625 2.210938 2.6875 1.421875 C 3.21875 0.640625 3.945312 -0.0703125 4.875 -0.71875 L 4.875 -0.875 C 4.363281 -1.1875 3.929688 -1.613281 3.578125 -2.15625 C 3.234375 -2.707031 3.0625 -3.390625 3.0625 -4.203125 C 3.0625 -5.066406 3.300781 -5.820312 3.78125 -6.46875 C 4.257812 -7.113281 4.765625 -7.617188 5.296875 -7.984375 L 5.296875 -8.140625 C 4.617188 -8.703125 4.003906 -9.453125 3.453125 -10.390625 C 2.910156 -11.328125 2.640625 -12.414062 2.640625 -13.65625 C 2.640625 -14.769531 2.84375 -15.773438 3.25 -16.671875 C 3.65625 -17.566406 4.207031 -18.328125 4.90625 -18.953125 C 5.613281 -19.585938 6.4375 -20.070312 7.375 -20.40625 C 8.3125 -20.75 9.296875 -20.921875 10.328125 -20.921875 C 10.890625 -20.921875 11.414062 -20.867188 11.90625 -20.765625 C 12.394531 -20.671875 12.835938 -20.550781 13.234375 -20.40625 L 20.328125 -20.40625 L 20.328125 -17.765625 L 16.125 -17.765625 C 16.601562 -17.285156 17.003906 -16.679688 17.328125 -15.953125 C 17.648438 -15.234375 17.8125 -14.4375 17.8125 -13.5625 C 17.8125 -12.46875 17.613281 -11.476562 17.21875 -10.59375 C 16.820312 -9.71875 16.285156 -8.976562 15.609375 -8.375 C 14.941406 -7.769531 14.15625 -7.300781 13.25 -6.96875 C 12.34375 -6.632812 11.367188 -6.46875 10.328125 -6.46875 C 9.828125 -6.46875 9.3125 -6.53125 8.78125 -6.65625 C 8.25 -6.78125 7.742188 -6.957031 7.265625 -7.1875 C 6.898438 -6.875 6.59375 -6.53125 6.34375 -6.15625 C 6.09375 -5.78125 5.96875 -5.3125 5.96875 -4.75 C 5.96875 -4.101562 6.21875 -3.566406 6.71875 -3.140625 C 7.21875 -2.722656 8.171875 -2.515625 9.578125 -2.515625 L 13.53125 -2.515625 C 15.90625 -2.515625 17.6875 -2.128906 18.875 -1.359375 C 20.0625 -0.585938 20.65625 0.648438 20.65625 2.359375 C 20.65625 3.304688 20.414062 4.207031 19.9375 5.0625 C 19.46875 5.914062 18.785156 6.664062 17.890625 7.3125 C 16.992188 7.957031 15.90625 8.46875 14.625 8.84375 C 13.351562 9.21875 11.921875 9.40625 10.328125 9.40625 Z M 10.328125 -8.78125 C 10.921875 -8.78125 11.472656 -8.890625 11.984375 -9.109375 C 12.503906 -9.335938 12.96875 -9.660156 13.375 -10.078125 C 13.78125 -10.492188 14.09375 -11.003906 14.3125 -11.609375 C 14.539062 -12.210938 14.65625 -12.894531 14.65625 -13.65625 C 14.65625 -15.164062 14.234375 -16.332031 13.390625 -17.15625 C 12.554688 -17.976562 11.535156 -18.390625 10.328125 -18.390625 C 9.128906 -18.390625 8.109375 -17.976562 7.265625 -17.15625 C 6.421875 -16.332031 6 -15.164062 6 -13.65625 C 6 -12.894531 6.109375 -12.210938 6.328125 -11.609375 C 6.554688 -11.003906 6.875 -10.492188 7.28125 -10.078125 C 7.6875 -9.660156 8.148438 -9.335938 8.671875 -9.109375 C 9.191406 -8.890625 9.742188 -8.78125 10.328125 -8.78125 Z M 10.84375 7.015625 C 11.820312 7.015625 12.707031 6.894531 13.5 6.65625 C 14.300781 6.414062 14.976562 6.109375 15.53125 5.734375 C 16.09375 5.359375 16.523438 4.914062 16.828125 4.40625 C 17.140625 3.90625 17.296875 3.390625 17.296875 2.859375 C 17.296875 1.898438 16.945312 1.238281 16.25 0.875 C 15.550781 0.519531 14.53125 0.34375 13.1875 0.34375 L 9.65625 0.34375 C 9.269531 0.34375 8.84375 0.316406 8.375 0.265625 C 7.914062 0.222656 7.460938 0.132812 7.015625 0 C 6.285156 0.53125 5.75 1.085938 5.40625 1.671875 C 5.070312 2.265625 4.90625 2.851562 4.90625 3.4375 C 4.90625 4.53125 5.429688 5.398438 6.484375 6.046875 C 7.535156 6.691406 8.988281 7.015625 10.84375 7.015625 Z M 10.84375 7.015625 "/></g></g></g><g fill="#526479" fill-opacity="1"><g transform="translate(411.729244, 415.456084)"><g><path d="M 11.71875 0.5 C 10.34375 0.5 9.0625 0.253906 7.875 -0.234375 C 6.6875 -0.722656 5.648438 -1.421875 4.765625 -2.328125 C 3.878906 -3.242188 3.1875 -4.359375 2.6875 -5.671875 C 2.1875 -6.984375 1.9375 -8.476562 1.9375 -10.15625 C 1.9375 -11.84375 2.191406 -13.347656 2.703125 -14.671875 C 3.222656 -16.003906 3.910156 -17.132812 4.765625 -18.0625 C 5.617188 -18.988281 6.59375 -19.695312 7.6875 -20.1875 C 8.78125 -20.675781 9.914062 -20.921875 11.09375 -20.921875 C 12.375 -20.921875 13.523438 -20.695312 14.546875 -20.25 C 15.578125 -19.800781 16.429688 -19.15625 17.109375 -18.3125 C 17.796875 -17.46875 18.320312 -16.457031 18.6875 -15.28125 C 19.050781 -14.113281 19.234375 -12.800781 19.234375 -11.34375 C 19.234375 -10.976562 19.222656 -10.617188 19.203125 -10.265625 C 19.191406 -9.921875 19.160156 -9.617188 19.109375 -9.359375 L 5.328125 -9.359375 C 5.472656 -7.179688 6.15625 -5.453125 7.375 -4.171875 C 8.59375 -2.898438 10.179688 -2.265625 12.140625 -2.265625 C 13.117188 -2.265625 14.019531 -2.410156 14.84375 -2.703125 C 15.675781 -3.003906 16.46875 -3.390625 17.21875 -3.859375 L 18.4375 -1.59375 C 17.539062 -1.03125 16.546875 -0.539062 15.453125 -0.125 C 14.359375 0.289062 13.113281 0.5 11.71875 0.5 Z M 5.296875 -11.84375 L 16.21875 -11.84375 C 16.21875 -13.914062 15.773438 -15.488281 14.890625 -16.5625 C 14.003906 -17.644531 12.765625 -18.1875 11.171875 -18.1875 C 10.441406 -18.1875 9.75 -18.046875 9.09375 -17.765625 C 8.4375 -17.484375 7.84375 -17.066406 7.3125 -16.515625 C 6.78125 -15.972656 6.335938 -15.3125 5.984375 -14.53125 C 5.628906 -13.75 5.398438 -12.851562 5.296875 -11.84375 Z M 5.296875 -11.84375 "/></g></g></g><g fill="#526479" fill-opacity="1"><g transform="translate(432.555384, 415.456084)"><g/></g></g><g fill="#526479" fill-opacity="1"><g transform="translate(440.953035, 415.456084)"><g><path d="M 3.78125 0 L 3.78125 -27.546875 L 11.640625 -27.546875 C 13.171875 -27.546875 14.570312 -27.40625 15.84375 -27.125 C 17.125 -26.851562 18.210938 -26.398438 19.109375 -25.765625 C 20.003906 -25.140625 20.703125 -24.304688 21.203125 -23.265625 C 21.710938 -22.234375 21.96875 -20.960938 21.96875 -19.453125 C 21.96875 -17.992188 21.722656 -16.726562 21.234375 -15.65625 C 20.742188 -14.59375 20.050781 -13.710938 19.15625 -13.015625 C 18.257812 -12.316406 17.1875 -11.789062 15.9375 -11.4375 C 14.6875 -11.09375 13.304688 -10.921875 11.796875 -10.921875 L 7.265625 -10.921875 L 7.265625 0 Z M 7.265625 -13.78125 L 11.375 -13.78125 C 13.789062 -13.78125 15.578125 -14.234375 16.734375 -15.140625 C 17.898438 -16.046875 18.484375 -17.484375 18.484375 -19.453125 C 18.484375 -21.429688 17.875 -22.804688 16.65625 -23.578125 C 15.4375 -24.347656 13.625 -24.734375 11.21875 -24.734375 L 7.265625 -24.734375 Z M 7.265625 -13.78125 "/></g></g></g><g fill="#526479" fill-opacity="1"><g transform="translate(464.718339, 415.456084)"><g><path d="M 8.140625 0.5 C 6.441406 0.5 5.023438 0 3.890625 -1 C 2.753906 -2.007812 2.1875 -3.441406 2.1875 -5.296875 C 2.1875 -7.535156 3.175781 -9.25 5.15625 -10.4375 C 7.144531 -11.625 10.328125 -12.457031 14.703125 -12.9375 C 14.703125 -13.582031 14.640625 -14.210938 14.515625 -14.828125 C 14.390625 -15.441406 14.171875 -15.984375 13.859375 -16.453125 C 13.546875 -16.929688 13.117188 -17.316406 12.578125 -17.609375 C 12.035156 -17.910156 11.34375 -18.0625 10.5 -18.0625 C 9.320312 -18.0625 8.210938 -17.835938 7.171875 -17.390625 C 6.140625 -16.941406 5.21875 -16.4375 4.40625 -15.875 L 3.0625 -18.265625 C 4.019531 -18.878906 5.179688 -19.472656 6.546875 -20.046875 C 7.921875 -20.628906 9.4375 -20.921875 11.09375 -20.921875 C 13.582031 -20.921875 15.382812 -20.15625 16.5 -18.625 C 17.625 -17.101562 18.1875 -15.066406 18.1875 -12.515625 L 18.1875 0 L 15.328125 0 L 15.03125 -2.4375 L 14.90625 -2.4375 C 13.925781 -1.625 12.875 -0.929688 11.75 -0.359375 C 10.632812 0.210938 9.429688 0.5 8.140625 0.5 Z M 9.15625 -2.265625 C 10.132812 -2.265625 11.054688 -2.492188 11.921875 -2.953125 C 12.796875 -3.421875 13.722656 -4.101562 14.703125 -5 L 14.703125 -10.671875 C 12.992188 -10.441406 11.554688 -10.171875 10.390625 -9.859375 C 9.234375 -9.554688 8.296875 -9.191406 7.578125 -8.765625 C 6.867188 -8.347656 6.351562 -7.867188 6.03125 -7.328125 C 5.707031 -6.785156 5.546875 -6.191406 5.546875 -5.546875 C 5.546875 -4.367188 5.894531 -3.523438 6.59375 -3.015625 C 7.289062 -2.515625 8.144531 -2.265625 9.15625 -2.265625 Z M 9.15625 -2.265625 "/></g></g></g><g fill="#526479" fill-opacity="1"><g transform="translate(485.880386, 415.456084)"><g><path d="M 11.515625 0.5 C 10.160156 0.5 8.894531 0.265625 7.71875 -0.203125 C 6.550781 -0.679688 5.539062 -1.375 4.6875 -2.28125 C 3.832031 -3.195312 3.160156 -4.316406 2.671875 -5.640625 C 2.179688 -6.972656 1.9375 -8.476562 1.9375 -10.15625 C 1.9375 -11.863281 2.203125 -13.382812 2.734375 -14.71875 C 3.265625 -16.050781 3.976562 -17.175781 4.875 -18.09375 C 5.769531 -19.019531 6.8125 -19.722656 8 -20.203125 C 9.1875 -20.679688 10.441406 -20.921875 11.765625 -20.921875 C 13.109375 -20.921875 14.253906 -20.679688 15.203125 -20.203125 C 16.148438 -19.722656 16.988281 -19.160156 17.71875 -18.515625 L 15.953125 -16.25 C 15.367188 -16.78125 14.75 -17.210938 14.09375 -17.546875 C 13.4375 -17.890625 12.703125 -18.0625 11.890625 -18.0625 C 10.960938 -18.0625 10.101562 -17.867188 9.3125 -17.484375 C 8.53125 -17.109375 7.859375 -16.570312 7.296875 -15.875 C 6.742188 -15.175781 6.304688 -14.34375 5.984375 -13.375 C 5.660156 -12.40625 5.5 -11.332031 5.5 -10.15625 C 5.5 -8.988281 5.648438 -7.925781 5.953125 -6.96875 C 6.265625 -6.019531 6.691406 -5.203125 7.234375 -4.515625 C 7.785156 -3.828125 8.453125 -3.296875 9.234375 -2.921875 C 10.023438 -2.546875 10.878906 -2.359375 11.796875 -2.359375 C 12.753906 -2.359375 13.628906 -2.554688 14.421875 -2.953125 C 15.222656 -3.359375 15.945312 -3.84375 16.59375 -4.40625 L 18.109375 -2.09375 C 17.179688 -1.28125 16.15625 -0.644531 15.03125 -0.1875 C 13.914062 0.269531 12.742188 0.5 11.515625 0.5 Z M 11.515625 0.5 "/></g></g></g><g fill="#526479" fill-opacity="1"><g transform="translate(505.026992, 415.456084)"><g><path d="M 3.4375 0 L 3.4375 -29.90625 L 6.84375 -29.90625 L 6.84375 -9.65625 L 6.96875 -9.65625 L 15.671875 -20.40625 L 19.484375 -20.40625 L 12.640625 -12.21875 L 20.40625 0 L 16.625 0 L 10.671875 -9.828125 L 6.84375 -5.375 L 6.84375 0 Z M 3.4375 0 "/></g></g></g><g fill="#526479" fill-opacity="1"><g transform="translate(525.811155, 415.456084)"><g><path d="M 8.140625 0.5 C 6.441406 0.5 5.023438 0 3.890625 -1 C 2.753906 -2.007812 2.1875 -3.441406 2.1875 -5.296875 C 2.1875 -7.535156 3.175781 -9.25 5.15625 -10.4375 C 7.144531 -11.625 10.328125 -12.457031 14.703125 -12.9375 C 14.703125 -13.582031 14.640625 -14.210938 14.515625 -14.828125 C 14.390625 -15.441406 14.171875 -15.984375 13.859375 -16.453125 C 13.546875 -16.929688 13.117188 -17.316406 12.578125 -17.609375 C 12.035156 -17.910156 11.34375 -18.0625 10.5 -18.0625 C 9.320312 -18.0625 8.210938 -17.835938 7.171875 -17.390625 C 6.140625 -16.941406 5.21875 -16.4375 4.40625 -15.875 L 3.0625 -18.265625 C 4.019531 -18.878906 5.179688 -19.472656 6.546875 -20.046875 C 7.921875 -20.628906 9.4375 -20.921875 11.09375 -20.921875 C 13.582031 -20.921875 15.382812 -20.15625 16.5 -18.625 C 17.625 -17.101562 18.1875 -15.066406 18.1875 -12.515625 L 18.1875 0 L 15.328125 0 L 15.03125 -2.4375 L 14.90625 -2.4375 C 13.925781 -1.625 12.875 -0.929688 11.75 -0.359375 C 10.632812 0.210938 9.429688 0.5 8.140625 0.5 Z M 9.15625 -2.265625 C 10.132812 -2.265625 11.054688 -2.492188 11.921875 -2.953125 C 12.796875 -3.421875 13.722656 -4.101562 14.703125 -5 L 14.703125 -10.671875 C 12.992188 -10.441406 11.554688 -10.171875 10.390625 -9.859375 C 9.234375 -9.554688 8.296875 -9.191406 7.578125 -8.765625 C 6.867188 -8.347656 6.351562 -7.867188 6.03125 -7.328125 C 5.707031 -6.785156 5.546875 -6.191406 5.546875 -5.546875 C 5.546875 -4.367188 5.894531 -3.523438 6.59375 -3.015625 C 7.289062 -2.515625 8.144531 -2.265625 9.15625 -2.265625 Z M 9.15625 -2.265625 "/></g></g></g><g fill="#526479" fill-opacity="1"><g transform="translate(546.973202, 415.456084)"><g><path d="M 10.328125 9.40625 C 9.066406 9.40625 7.914062 9.285156 6.875 9.046875 C 5.84375 8.804688 4.957031 8.445312 4.21875 7.96875 C 3.476562 7.5 2.90625 6.925781 2.5 6.25 C 2.09375 5.582031 1.890625 4.800781 1.890625 3.90625 C 1.890625 3.039062 2.15625 2.210938 2.6875 1.421875 C 3.21875 0.640625 3.945312 -0.0703125 4.875 -0.71875 L 4.875 -0.875 C 4.363281 -1.1875 3.929688 -1.613281 3.578125 -2.15625 C 3.234375 -2.707031 3.0625 -3.390625 3.0625 -4.203125 C 3.0625 -5.066406 3.300781 -5.820312 3.78125 -6.46875 C 4.257812 -7.113281 4.765625 -7.617188 5.296875 -7.984375 L 5.296875 -8.140625 C 4.617188 -8.703125 4.003906 -9.453125 3.453125 -10.390625 C 2.910156 -11.328125 2.640625 -12.414062 2.640625 -13.65625 C 2.640625 -14.769531 2.84375 -15.773438 3.25 -16.671875 C 3.65625 -17.566406 4.207031 -18.328125 4.90625 -18.953125 C 5.613281 -19.585938 6.4375 -20.070312 7.375 -20.40625 C 8.3125 -20.75 9.296875 -20.921875 10.328125 -20.921875 C 10.890625 -20.921875 11.414062 -20.867188 11.90625 -20.765625 C 12.394531 -20.671875 12.835938 -20.550781 13.234375 -20.40625 L 20.328125 -20.40625 L 20.328125 -17.765625 L 16.125 -17.765625 C 16.601562 -17.285156 17.003906 -16.679688 17.328125 -15.953125 C 17.648438 -15.234375 17.8125 -14.4375 17.8125 -13.5625 C 17.8125 -12.46875 17.613281 -11.476562 17.21875 -10.59375 C 16.820312 -9.71875 16.285156 -8.976562 15.609375 -8.375 C 14.941406 -7.769531 14.15625 -7.300781 13.25 -6.96875 C 12.34375 -6.632812 11.367188 -6.46875 10.328125 -6.46875 C 9.828125 -6.46875 9.3125 -6.53125 8.78125 -6.65625 C 8.25 -6.78125 7.742188 -6.957031 7.265625 -7.1875 C 6.898438 -6.875 6.59375 -6.53125 6.34375 -6.15625 C 6.09375 -5.78125 5.96875 -5.3125 5.96875 -4.75 C 5.96875 -4.101562 6.21875 -3.566406 6.71875 -3.140625 C 7.21875 -2.722656 8.171875 -2.515625 9.578125 -2.515625 L 13.53125 -2.515625 C 15.90625 -2.515625 17.6875 -2.128906 18.875 -1.359375 C 20.0625 -0.585938 20.65625 0.648438 20.65625 2.359375 C 20.65625 3.304688 20.414062 4.207031 19.9375 5.0625 C 19.46875 5.914062 18.785156 6.664062 17.890625 7.3125 C 16.992188 7.957031 15.90625 8.46875 14.625 8.84375 C 13.351562 9.21875 11.921875 9.40625 10.328125 9.40625 Z M 10.328125 -8.78125 C 10.921875 -8.78125 11.472656 -8.890625 11.984375 -9.109375 C 12.503906 -9.335938 12.96875 -9.660156 13.375 -10.078125 C 13.78125 -10.492188 14.09375 -11.003906 14.3125 -11.609375 C 14.539062 -12.210938 14.65625 -12.894531 14.65625 -13.65625 C 14.65625 -15.164062 14.234375 -16.332031 13.390625 -17.15625 C 12.554688 -17.976562 11.535156 -18.390625 10.328125 -18.390625 C 9.128906 -18.390625 8.109375 -17.976562 7.265625 -17.15625 C 6.421875 -16.332031 6 -15.164062 6 -13.65625 C 6 -12.894531 6.109375 -12.210938 6.328125 -11.609375 C 6.554688 -11.003906 6.875 -10.492188 7.28125 -10.078125 C 7.6875 -9.660156 8.148438 -9.335938 8.671875 -9.109375 C 9.191406 -8.890625 9.742188 -8.78125 10.328125 -8.78125 Z M 10.84375 7.015625 C 11.820312 7.015625 12.707031 6.894531 13.5 6.65625 C 14.300781 6.414062 14.976562 6.109375 15.53125 5.734375 C 16.09375 5.359375 16.523438 4.914062 16.828125 4.40625 C 17.140625 3.90625 17.296875 3.390625 17.296875 2.859375 C 17.296875 1.898438 16.945312 1.238281 16.25 0.875 C 15.550781 0.519531 14.53125 0.34375 13.1875 0.34375 L 9.65625 0.34375 C 9.269531 0.34375 8.84375 0.316406 8.375 0.265625 C 7.914062 0.222656 7.460938 0.132812 7.015625 0 C 6.285156 0.53125 5.75 1.085938 5.40625 1.671875 C 5.070312 2.265625 4.90625 2.851562 4.90625 3.4375 C 4.90625 4.53125 5.429688 5.398438 6.484375 6.046875 C 7.535156 6.691406 8.988281 7.015625 10.84375 7.015625 Z M 10.84375 7.015625 "/></g></g></g><g fill="#526479" fill-opacity="1"><g transform="translate(568.135249, 415.456084)"><g><path d="M 11.71875 0.5 C 10.34375 0.5 9.0625 0.253906 7.875 -0.234375 C 6.6875 -0.722656 5.648438 -1.421875 4.765625 -2.328125 C 3.878906 -3.242188 3.1875 -4.359375 2.6875 -5.671875 C 2.1875 -6.984375 1.9375 -8.476562 1.9375 -10.15625 C 1.9375 -11.84375 2.191406 -13.347656 2.703125 -14.671875 C 3.222656 -16.003906 3.910156 -17.132812 4.765625 -18.0625 C 5.617188 -18.988281 6.59375 -19.695312 7.6875 -20.1875 C 8.78125 -20.675781 9.914062 -20.921875 11.09375 -20.921875 C 12.375 -20.921875 13.523438 -20.695312 14.546875 -20.25 C 15.578125 -19.800781 16.429688 -19.15625 17.109375 -18.3125 C 17.796875 -17.46875 18.320312 -16.457031 18.6875 -15.28125 C 19.050781 -14.113281 19.234375 -12.800781 19.234375 -11.34375 C 19.234375 -10.976562 19.222656 -10.617188 19.203125 -10.265625 C 19.191406 -9.921875 19.160156 -9.617188 19.109375 -9.359375 L 5.328125 -9.359375 C 5.472656 -7.179688 6.15625 -5.453125 7.375 -4.171875 C 8.59375 -2.898438 10.179688 -2.265625 12.140625 -2.265625 C 13.117188 -2.265625 14.019531 -2.410156 14.84375 -2.703125 C 15.675781 -3.003906 16.46875 -3.390625 17.21875 -3.859375 L 18.4375 -1.59375 C 17.539062 -1.03125 16.546875 -0.539062 15.453125 -0.125 C 14.359375 0.289062 13.113281 0.5 11.71875 0.5 Z M 5.296875 -11.84375 L 16.21875 -11.84375 C 16.21875 -13.914062 15.773438 -15.488281 14.890625 -16.5625 C 14.003906 -17.644531 12.765625 -18.1875 11.171875 -18.1875 C 10.441406 -18.1875 9.75 -18.046875 9.09375 -17.765625 C 8.4375 -17.484375 7.84375 -17.066406 7.3125 -16.515625 C 6.78125 -15.972656 6.335938 -15.3125 5.984375 -14.53125 C 5.628906 -13.75 5.398438 -12.851562 5.296875 -11.84375 Z M 5.296875 -11.84375 "/></g></g></g><g clip-path="url(#5271964cda)"><g clip-path="url(#af5a97f433)"><path stroke-linecap="butt" transform="matrix(0.750126, 0, 0, 0.750111, 168.544949, 429.66067)" fill="none" stroke-linejoin="miter" d="M 50.999192 -0.000685411 L 598.891338 -0.000685411 C 627.058471 -0.000685411 649.893169 22.834467 649.893169 50.996953 L 649.893169 369.939196 C 649.893169 398.101683 627.058471 420.936835 598.891338 420.936835 L 50.999192 420.936835 C 22.832058 420.936835 0.00256764 398.101683 0.00256764 369.939196 L 0.00256764 50.996953 C 0.00256764 22.834467 22.832058 -0.000685411 50.999192 -0.000685411 " stroke="#526479" stroke-width="2" stroke-opacity="1" stroke-miterlimit="4"/></g></g><g clip-path="url(#78ab3ecc5e)"><g clip-path="url(#4215263f9d)"><path fill="#526479" d="M 514.542969 58.550781 L 523.542969 58.550781 L 523.542969 64.558594 L 514.542969 64.558594 Z M 526.542969 58.550781 L 535.546875 58.550781 L 535.546875 64.558594 L 526.542969 64.558594 Z M 538.546875 58.550781 L 547.546875 58.550781 L 547.546875 64.558594 L 538.546875 64.558594 Z M 550.546875 58.550781 L 559.550781 58.550781 L 559.550781 64.558594 L 550.546875 64.558594 Z M 562.550781 58.550781 L 571.550781 58.550781 L 571.550781 64.558594 L 562.550781 64.558594 Z M 574.550781 58.550781 L 583.554688 58.550781 L 583.554688 64.558594 L 574.550781 64.558594 Z M 586.554688 58.550781 L 595.554688 58.550781 L 595.554688 64.558594 L 586.554688 64.558594 Z M 598.554688 58.550781 L 607.558594 58.550781 L 607.558594 64.558594 L 598.554688 64.558594 Z M 610.558594 58.550781 L 619.558594 58.550781 L 619.558594 64.558594 L 610.558594 64.558594 Z M 622.558594 58.550781 L 631.5625 58.550781 L 631.5625 64.558594 L 622.558594 64.558594 Z M 634.5625 58.550781 L 643.5625 58.550781 L 643.5625 64.558594 L 634.5625 64.558594 Z M 646.5625 58.550781 L 655.566406 58.550781 L 655.566406 64.558594 L 646.5625 64.558594 Z M 658.566406 58.550781 L 667.566406 58.550781 L 667.566406 64.558594 L 658.566406 64.558594 Z M 670.570312 58.550781 L 679.570312 58.550781 L 679.570312 64.558594 L 670.570312 64.558594 Z M 682.570312 58.550781 L 691.570312 58.550781 L 691.570312 64.558594 L 682.570312 64.558594 Z M 694.574219 58.550781 L 703.574219 58.550781 L 703.574219 64.558594 L 694.574219 64.558594 Z M 706.574219 58.550781 L 715.574219 58.550781 L 715.574219 64.558594 L 706.574219 64.558594 Z M 718.578125 58.550781 L 727.578125 58.550781 L 727.578125 64.558594 L 718.578125 64.558594 Z M 730.578125 58.550781 L 739.578125 58.550781 L 739.578125 64.558594 L 730.578125 64.558594 Z M 742.582031 58.550781 L 751.582031 58.550781 L 751.582031 64.558594 L 742.582031 64.558594 Z M 754.582031 58.550781 L 763.585938 58.550781 L 763.585938 64.558594 L 754.582031 64.558594 Z M 766.585938 58.550781 L 775.585938 58.550781 L 775.585938 64.558594 L 766.585938 64.558594 Z M 778.585938 58.550781 L 787.589844 58.550781 L 787.589844 64.558594 L 778.585938 64.558594 Z M 790.589844 58.550781 L 799.589844 58.550781 L 799.589844 64.558594 L 790.589844 64.558594 Z M 802.589844 58.550781 L 811.59375 58.550781 L 811.59375 64.558594 L 802.589844 64.558594 Z M 814.59375 58.550781 L 823.59375 58.550781 L 823.59375 64.558594 L 814.59375 64.558594 Z M 826.59375 58.550781 L 835.597656 58.550781 L 835.597656 64.558594 L 826.59375 64.558594 Z M 838.597656 58.550781 L 847.597656 58.550781 L 847.597656 64.558594 L 838.597656 64.558594 Z M 850.597656 58.550781 L 859.601562 58.550781 L 859.601562 64.558594 L 850.597656 64.558594 Z M 862.601562 58.550781 L 871.601562 58.550781 L 871.601562 64.558594 L 862.601562 64.558594 Z M 874.601562 58.550781 L 883.605469 58.550781 L 883.605469 64.558594 L 874.601562 64.558594 Z M 886.605469 58.550781 L 895.605469 58.550781 L 895.605469 64.558594 L 886.605469 64.558594 Z M 898.605469 58.550781 L 907.609375 58.550781 L 907.609375 64.558594 L 898.605469 64.558594 Z M 910.609375 58.550781 L 919.609375 58.550781 L 919.609375 64.558594 L 910.609375 64.558594 Z M 922.609375 58.550781 L 925.527344 58.550781 C 927.738281 58.550781 929.929688 58.726562 932.09375 59.070312 L 931.148438 65.003906 C 929.292969 64.707031 927.421875 64.558594 925.527344 64.558594 L 922.609375 64.558594 Z M 935.261719 59.707031 C 938.425781 60.476562 941.457031 61.605469 944.355469 63.09375 L 941.613281 68.441406 C 939.140625 67.167969 936.550781 66.203125 933.851562 65.550781 Z M 947.175781 64.6875 C 949.9375 66.398438 952.46875 68.40625 954.765625 70.71875 L 950.511719 74.957031 C 948.550781 72.980469 946.386719 71.261719 944.023438 69.800781 Z M 956.957031 73.101562 C 959.070312 75.585938 960.859375 78.277344 962.332031 81.175781 L 956.980469 83.898438 C 955.722656 81.421875 954.191406 79.121094 952.386719 76.996094 Z M 963.6875 84.132812 C 964.925781 87.140625 965.792969 90.253906 966.292969 93.46875 L 960.363281 94.394531 C 959.9375 91.648438 959.195312 88.988281 958.140625 86.421875 Z M 966.664062 96.683594 C 966.742188 97.738281 966.785156 98.800781 966.785156 99.863281 L 966.785156 105.960938 L 960.78125 105.960938 L 960.78125 99.863281 C 960.78125 98.953125 960.75 98.042969 960.679688 97.140625 Z M 966.785156 108.96875 L 966.785156 117.980469 L 960.78125 117.980469 L 960.78125 108.96875 Z M 966.785156 120.984375 L 966.785156 130 L 960.78125 130 L 960.78125 120.984375 Z M 966.785156 133.003906 L 966.785156 142.019531 L 960.78125 142.019531 L 960.78125 133.003906 Z M 966.785156 145.023438 L 966.785156 154.035156 L 960.78125 154.035156 L 960.78125 145.023438 Z M 966.785156 157.042969 L 966.785156 166.054688 L 960.78125 166.054688 L 960.78125 157.042969 Z M 966.785156 169.058594 L 966.785156 178.074219 L 960.78125 178.074219 L 960.78125 169.058594 Z M 966.785156 181.078125 L 966.785156 190.09375 L 960.78125 190.09375 L 960.78125 181.078125 Z M 966.734375 193.273438 C 966.578125 196.535156 966.042969 199.726562 965.136719 202.847656 L 959.375 201.164062 C 960.152344 198.5 960.605469 195.773438 960.742188 192.980469 Z M 964.105469 205.914062 C 962.953125 208.957031 961.457031 211.824219 959.621094 214.515625 L 954.667969 211.128906 C 956.234375 208.828125 957.511719 206.378906 958.496094 203.78125 Z M 957.691406 217.125 C 955.652344 219.660156 953.347656 221.929688 950.777344 223.921875 L 947.101562 219.171875 C 949.300781 217.464844 951.269531 215.527344 953.015625 213.359375 Z M 948.140625 225.808594 C 945.417969 227.597656 942.527344 229.042969 939.472656 230.140625 L 937.445312 224.484375 C 940.054688 223.546875 942.519531 222.3125 944.847656 220.785156 Z M 936.382812 231.113281 C 933.25 231.96875 930.054688 232.441406 926.789062 232.542969 L 926.605469 226.535156 C 929.398438 226.449219 932.132812 226.042969 934.808594 225.316406 Z M 923.675781 232.558594 L 914.671875 232.558594 L 914.671875 226.550781 L 923.675781 226.550781 Z M 911.671875 232.558594 L 902.671875 232.558594 L 902.671875 226.550781 L 911.671875 226.550781 Z M 899.671875 232.558594 L 890.667969 232.558594 L 890.667969 226.550781 L 899.671875 226.550781 Z M 887.667969 232.558594 L 878.667969 232.558594 L 878.667969 226.550781 L 887.667969 226.550781 Z M 875.667969 232.558594 L 866.664062 232.558594 L 866.664062 226.550781 L 875.667969 226.550781 Z M 863.664062 232.558594 L 854.664062 232.558594 L 854.664062 226.550781 L 863.664062 226.550781 Z M 851.664062 232.558594 L 842.660156 232.558594 L 842.660156 226.550781 L 851.664062 226.550781 Z M 839.660156 232.558594 L 830.660156 232.558594 L 830.660156 226.550781 L 839.660156 226.550781 Z M 827.660156 232.558594 L 818.65625 232.558594 L 818.65625 226.550781 L 827.660156 226.550781 Z M 815.65625 232.558594 L 806.65625 232.558594 L 806.65625 226.550781 L 815.65625 226.550781 Z M 803.65625 232.558594 L 794.652344 232.558594 L 794.652344 226.550781 L 803.65625 226.550781 Z M 791.652344 232.558594 L 782.652344 232.558594 L 782.652344 226.550781 L 791.652344 226.550781 Z M 779.652344 232.558594 L 770.648438 232.558594 L 770.648438 226.550781 L 779.652344 226.550781 Z M 767.648438 232.558594 L 758.648438 232.558594 L 758.648438 226.550781 L 767.648438 226.550781 Z M 755.648438 232.558594 L 746.644531 232.558594 L 746.644531 226.550781 L 755.648438 226.550781 Z M 743.644531 232.558594 L 734.644531 232.558594 L 734.644531 226.550781 L 743.644531 226.550781 Z M 731.644531 232.558594 L 722.640625 232.558594 L 722.640625 226.550781 L 731.644531 226.550781 Z M 719.640625 232.558594 L 710.640625 232.558594 L 710.640625 226.550781 L 719.640625 226.550781 Z M 707.640625 232.558594 L 698.636719 232.558594 L 698.636719 226.550781 L 707.640625 226.550781 Z M 695.636719 232.558594 L 686.636719 232.558594 L 686.636719 226.550781 L 695.636719 226.550781 Z M 683.636719 232.558594 L 674.632812 232.558594 L 674.632812 226.550781 L 683.636719 226.550781 Z M 671.632812 232.558594 L 662.632812 232.558594 L 662.632812 226.550781 L 671.632812 226.550781 Z M 659.628906 232.558594 L 650.628906 232.558594 L 650.628906 226.550781 L 659.628906 226.550781 Z M 647.628906 232.558594 L 638.628906 232.558594 L 638.628906 226.550781 L 647.628906 226.550781 Z M 635.625 232.558594 L 626.625 232.558594 L 626.625 226.550781 L 635.625 226.550781 Z M 623.625 232.558594 L 614.625 232.558594 L 614.625 226.550781 L 623.625 226.550781 Z M 611.621094 232.558594 L 602.621094 232.558594 L 602.621094 226.550781 L 611.621094 226.550781 Z M 599.621094 232.558594 L 590.621094 232.558594 L 590.621094 226.550781 L 599.621094 226.550781 Z M 587.617188 232.558594 L 578.617188 232.558594 L 578.617188 226.550781 L 587.617188 226.550781 Z M 575.617188 232.558594 L 566.613281 232.558594 L 566.613281 226.550781 L 575.617188 226.550781 Z M 563.613281 232.558594 L 554.613281 232.558594 L 554.613281 226.550781 L 563.613281 226.550781 Z M 551.613281 232.558594 L 542.609375 232.558594 L 542.609375 226.550781 L 551.613281 226.550781 Z M 539.609375 232.558594 L 530.609375 232.558594 L 530.609375 226.550781 L 539.609375 226.550781 Z M 527.609375 232.558594 L 518.605469 232.558594 L 518.605469 226.550781 L 527.609375 226.550781 Z M 515.605469 232.558594 L 514.542969 232.558594 C 511.664062 232.558594 508.824219 232.265625 506.027344 231.679688 L 507.261719 225.796875 C 509.652344 226.300781 512.078125 226.550781 514.542969 226.550781 L 515.605469 226.550781 Z M 502.867188 230.882812 C 499.75 229.960938 496.777344 228.6875 493.957031 227.058594 L 496.957031 221.851562 C 499.367188 223.242188 501.902344 224.332031 504.5625 225.117188 Z M 491.226562 225.332031 C 488.542969 223.492188 486.113281 221.359375 483.929688 218.941406 L 488.378906 214.914062 C 490.246094 216.980469 492.328125 218.804688 494.621094 220.378906 Z M 481.851562 216.453125 C 479.863281 213.867188 478.203125 211.089844 476.875 208.121094 L 482.351562 205.664062 C 483.484375 208.199219 484.902344 210.574219 486.605469 212.785156 Z M 475.671875 205.121094 C 474.582031 202.058594 473.863281 198.90625 473.519531 195.664062 L 479.488281 195.03125 C 479.78125 197.796875 480.394531 200.488281 481.324219 203.101562 Z M 473.300781 192.410156 C 473.292969 192.023438 473.285156 191.636719 473.285156 191.25 L 473.285156 183.292969 L 479.289062 183.292969 L 479.289062 191.25 C 479.289062 191.582031 479.292969 191.914062 479.300781 192.242188 Z M 473.285156 180.289062 L 473.285156 171.273438 L 479.289062 171.273438 L 479.289062 180.289062 Z M 473.285156 168.269531 L 473.285156 159.257812 L 479.289062 159.257812 L 479.289062 168.269531 Z M 473.285156 156.25 L 473.285156 147.238281 L 479.289062 147.238281 L 479.289062 156.25 Z M 473.285156 144.234375 L 473.285156 135.21875 L 479.289062 135.21875 L 479.289062 144.234375 Z M 473.285156 132.214844 L 473.285156 123.199219 L 479.289062 123.199219 L 479.289062 132.214844 Z M 473.285156 120.195312 L 473.285156 111.183594 L 479.289062 111.183594 L 479.289062 120.195312 Z M 473.285156 108.179688 L 473.285156 99.863281 L 473.292969 99.121094 L 479.292969 99.175781 L 479.289062 99.863281 L 479.289062 108.179688 Z M 473.480469 95.832031 C 473.792969 92.585938 474.480469 89.425781 475.542969 86.355469 L 481.214844 88.320312 C 480.308594 90.941406 479.722656 93.640625 479.453125 96.410156 Z M 476.714844 83.347656 C 478.015625 80.363281 479.652344 77.570312 481.617188 74.964844 L 486.402344 78.589844 C 484.722656 80.816406 483.328125 83.203125 482.214844 85.753906 Z M 483.671875 72.457031 C 485.832031 70.019531 488.242188 67.867188 490.90625 66 L 494.347656 70.921875 C 492.070312 72.519531 490.007812 74.359375 488.160156 76.445312 Z M 493.625 64.25 C 496.429688 62.59375 499.386719 61.289062 502.492188 60.339844 L 504.242188 66.089844 C 501.589844 66.898438 499.066406 68.011719 496.671875 69.425781 Z M 505.644531 59.515625 C 508.5625 58.871094 511.527344 58.550781 514.542969 58.550781 L 514.542969 64.558594 C 511.964844 64.558594 509.425781 64.835938 506.933594 65.382812 Z M 505.644531 59.515625 " fill-opacity="1" fill-rule="nonzero"/></g></g><g fill="#526479" fill-opacity="1"><g transform="translate(654.773514, 160.555714)"><g><path d="M 3.953125 0 L 3.953125 -28.859375 L 12.984375 -28.859375 C 14.453125 -28.859375 15.804688 -28.71875 17.046875 -28.4375 C 18.296875 -28.164062 19.367188 -27.707031 20.265625 -27.0625 C 21.160156 -26.414062 21.851562 -25.578125 22.34375 -24.546875 C 22.84375 -23.523438 23.09375 -22.265625 23.09375 -20.765625 C 23.09375 -18.503906 22.503906 -16.695312 21.328125 -15.34375 C 20.160156 -14 18.582031 -13.078125 16.59375 -12.578125 L 23.9375 0 L 19.796875 0 L 12.84375 -12.1875 L 7.609375 -12.1875 L 7.609375 0 Z M 7.609375 -15.1875 L 12.453125 -15.1875 C 14.710938 -15.1875 16.441406 -15.644531 17.640625 -16.5625 C 18.847656 -17.488281 19.453125 -18.890625 19.453125 -20.765625 C 19.453125 -22.671875 18.847656 -24.003906 17.640625 -24.765625 C 16.441406 -25.535156 14.710938 -25.921875 12.453125 -25.921875 L 7.609375 -25.921875 Z M 7.609375 -15.1875 "/></g></g></g><g fill="#526479" fill-opacity="1"><g transform="translate(679.805049, 160.555714)"><g><path d="M 12.28125 0.53125 C 10.84375 0.53125 9.5 0.273438 8.25 -0.234375 C 7 -0.753906 5.910156 -1.488281 4.984375 -2.4375 C 4.066406 -3.394531 3.34375 -4.5625 2.8125 -5.9375 C 2.289062 -7.320312 2.03125 -8.890625 2.03125 -10.640625 C 2.03125 -12.398438 2.300781 -13.976562 2.84375 -15.375 C 3.382812 -16.769531 4.101562 -17.953125 5 -18.921875 C 5.894531 -19.890625 6.910156 -20.628906 8.046875 -21.140625 C 9.191406 -21.648438 10.378906 -21.90625 11.609375 -21.90625 C 12.960938 -21.90625 14.175781 -21.671875 15.25 -21.203125 C 16.320312 -20.734375 17.21875 -20.054688 17.9375 -19.171875 C 18.65625 -18.296875 19.203125 -17.242188 19.578125 -16.015625 C 19.960938 -14.785156 20.15625 -13.40625 20.15625 -11.875 C 20.15625 -11.5 20.144531 -11.125 20.125 -10.75 C 20.113281 -10.382812 20.078125 -10.070312 20.015625 -9.8125 L 5.59375 -9.8125 C 5.738281 -7.519531 6.445312 -5.707031 7.71875 -4.375 C 9 -3.039062 10.664062 -2.375 12.71875 -2.375 C 13.738281 -2.375 14.679688 -2.523438 15.546875 -2.828125 C 16.421875 -3.140625 17.253906 -3.546875 18.046875 -4.046875 L 19.3125 -1.671875 C 18.375 -1.085938 17.332031 -0.570312 16.1875 -0.125 C 15.039062 0.3125 13.738281 0.53125 12.28125 0.53125 Z M 5.546875 -12.40625 L 16.984375 -12.40625 C 16.984375 -14.570312 16.519531 -16.21875 15.59375 -17.34375 C 14.675781 -18.476562 13.378906 -19.046875 11.703125 -19.046875 C 10.941406 -19.046875 10.210938 -18.898438 9.515625 -18.609375 C 8.828125 -18.316406 8.203125 -17.882812 7.640625 -17.3125 C 7.085938 -16.738281 6.628906 -16.039062 6.265625 -15.21875 C 5.898438 -14.394531 5.660156 -13.457031 5.546875 -12.40625 Z M 5.546875 -12.40625 "/></g></g></g><g fill="#526479" fill-opacity="1"><g transform="translate(701.625166, 160.555714)"><g><path d="M 12.0625 0.53125 C 10.644531 0.53125 9.320312 0.28125 8.09375 -0.21875 C 6.863281 -0.71875 5.800781 -1.441406 4.90625 -2.390625 C 4.007812 -3.347656 3.304688 -4.523438 2.796875 -5.921875 C 2.285156 -7.316406 2.03125 -8.890625 2.03125 -10.640625 C 2.03125 -12.429688 2.304688 -14.023438 2.859375 -15.421875 C 3.421875 -16.816406 4.171875 -18 5.109375 -18.96875 C 6.046875 -19.9375 7.132812 -20.664062 8.375 -21.15625 C 9.625 -21.65625 10.9375 -21.90625 12.3125 -21.90625 C 13.726562 -21.90625 14.929688 -21.65625 15.921875 -21.15625 C 16.921875 -20.664062 17.800781 -20.082031 18.5625 -19.40625 L 16.71875 -17.03125 C 16.101562 -17.582031 15.453125 -18.035156 14.765625 -18.390625 C 14.078125 -18.742188 13.304688 -18.921875 12.453125 -18.921875 C 11.484375 -18.921875 10.585938 -18.722656 9.765625 -18.328125 C 8.941406 -17.929688 8.238281 -17.363281 7.65625 -16.625 C 7.070312 -15.894531 6.609375 -15.023438 6.265625 -14.015625 C 5.929688 -13.003906 5.765625 -11.878906 5.765625 -10.640625 C 5.765625 -9.410156 5.925781 -8.296875 6.25 -7.296875 C 6.570312 -6.304688 7.019531 -5.453125 7.59375 -4.734375 C 8.164062 -4.015625 8.859375 -3.457031 9.671875 -3.0625 C 10.492188 -2.664062 11.390625 -2.46875 12.359375 -2.46875 C 13.359375 -2.46875 14.273438 -2.675781 15.109375 -3.09375 C 15.953125 -3.519531 16.707031 -4.03125 17.375 -4.625 L 18.96875 -2.203125 C 18 -1.347656 16.925781 -0.675781 15.75 -0.1875 C 14.570312 0.289062 13.34375 0.53125 12.0625 0.53125 Z M 12.0625 0.53125 "/></g></g></g><g fill="#526479" fill-opacity="1"><g transform="translate(721.685593, 160.555714)"><g><path d="M 11.921875 0.53125 C 10.597656 0.53125 9.34375 0.28125 8.15625 -0.21875 C 6.96875 -0.71875 5.921875 -1.441406 5.015625 -2.390625 C 4.109375 -3.347656 3.382812 -4.523438 2.84375 -5.921875 C 2.300781 -7.316406 2.03125 -8.890625 2.03125 -10.640625 C 2.03125 -12.429688 2.300781 -14.023438 2.84375 -15.421875 C 3.382812 -16.816406 4.109375 -18 5.015625 -18.96875 C 5.921875 -19.9375 6.96875 -20.664062 8.15625 -21.15625 C 9.34375 -21.65625 10.597656 -21.90625 11.921875 -21.90625 C 13.242188 -21.90625 14.5 -21.65625 15.6875 -21.15625 C 16.875 -20.664062 17.921875 -19.9375 18.828125 -18.96875 C 19.742188 -18 20.472656 -16.816406 21.015625 -15.421875 C 21.554688 -14.023438 21.828125 -12.429688 21.828125 -10.640625 C 21.828125 -8.890625 21.554688 -7.316406 21.015625 -5.921875 C 20.472656 -4.523438 19.742188 -3.347656 18.828125 -2.390625 C 17.921875 -1.441406 16.875 -0.71875 15.6875 -0.21875 C 14.5 0.28125 13.242188 0.53125 11.921875 0.53125 Z M 11.921875 -2.46875 C 12.828125 -2.46875 13.660156 -2.664062 14.421875 -3.0625 C 15.191406 -3.457031 15.847656 -4.015625 16.390625 -4.734375 C 16.929688 -5.453125 17.347656 -6.304688 17.640625 -7.296875 C 17.929688 -8.296875 18.078125 -9.410156 18.078125 -10.640625 C 18.078125 -11.878906 17.929688 -13.003906 17.640625 -14.015625 C 17.347656 -15.023438 16.929688 -15.894531 16.390625 -16.625 C 15.847656 -17.363281 15.191406 -17.929688 14.421875 -18.328125 C 13.660156 -18.722656 12.828125 -18.921875 11.921875 -18.921875 C 11.015625 -18.921875 10.175781 -18.722656 9.40625 -18.328125 C 8.644531 -17.929688 7.992188 -17.363281 7.453125 -16.625 C 6.910156 -15.894531 6.492188 -15.023438 6.203125 -14.015625 C 5.910156 -13.003906 5.765625 -11.878906 5.765625 -10.640625 C 5.765625 -9.410156 5.910156 -8.296875 6.203125 -7.296875 C 6.492188 -6.304688 6.910156 -5.453125 7.453125 -4.734375 C 7.992188 -4.015625 8.644531 -3.457031 9.40625 -3.0625 C 10.175781 -2.664062 11.015625 -2.46875 11.921875 -2.46875 Z M 11.921875 -2.46875 "/></g></g></g><g fill="#526479" fill-opacity="1"><g transform="translate(745.529346, 160.555714)"><g><path d="M 3.609375 0 L 3.609375 -21.390625 L 6.59375 -21.390625 L 6.90625 -17.515625 L 7.046875 -17.515625 C 7.773438 -18.859375 8.660156 -19.925781 9.703125 -20.71875 C 10.742188 -21.507812 11.878906 -21.90625 13.109375 -21.90625 C 13.960938 -21.90625 14.726562 -21.757812 15.40625 -21.46875 L 14.703125 -18.296875 C 14.347656 -18.421875 14.019531 -18.507812 13.71875 -18.5625 C 13.425781 -18.625 13.0625 -18.65625 12.625 -18.65625 C 11.71875 -18.65625 10.769531 -18.285156 9.78125 -17.546875 C 8.800781 -16.816406 7.945312 -15.546875 7.21875 -13.734375 L 7.21875 0 Z M 3.609375 0 "/></g></g></g><g fill="#526479" fill-opacity="1"><g transform="translate(760.794631, 160.555714)"><g><path d="M 10.90625 0.53125 C 8.207031 0.53125 6.054688 -0.4375 4.453125 -2.375 C 2.859375 -4.3125 2.0625 -7.066406 2.0625 -10.640625 C 2.0625 -12.378906 2.316406 -13.941406 2.828125 -15.328125 C 3.347656 -16.722656 4.03125 -17.90625 4.875 -18.875 C 5.726562 -19.84375 6.710938 -20.585938 7.828125 -21.109375 C 8.941406 -21.640625 10.117188 -21.90625 11.359375 -21.90625 C 12.585938 -21.90625 13.65625 -21.6875 14.5625 -21.25 C 15.46875 -20.8125 16.394531 -20.210938 17.34375 -19.453125 L 17.15625 -23.09375 L 17.15625 -31.328125 L 20.8125 -31.328125 L 20.8125 0 L 17.8125 0 L 17.515625 -2.515625 L 17.375 -2.515625 C 16.53125 -1.691406 15.554688 -0.976562 14.453125 -0.375 C 13.347656 0.226562 12.164062 0.53125 10.90625 0.53125 Z M 11.703125 -2.515625 C 12.703125 -2.515625 13.640625 -2.753906 14.515625 -3.234375 C 15.398438 -3.710938 16.28125 -4.453125 17.15625 -5.453125 L 17.15625 -16.625 C 16.25 -17.445312 15.375 -18.023438 14.53125 -18.359375 C 13.695312 -18.703125 12.84375 -18.875 11.96875 -18.875 C 11.113281 -18.875 10.3125 -18.675781 9.5625 -18.28125 C 8.820312 -17.882812 8.171875 -17.328125 7.609375 -16.609375 C 7.054688 -15.890625 6.617188 -15.03125 6.296875 -14.03125 C 5.972656 -13.039062 5.8125 -11.925781 5.8125 -10.6875 C 5.8125 -8.101562 6.320312 -6.09375 7.34375 -4.65625 C 8.375 -3.226562 9.828125 -2.515625 11.703125 -2.515625 Z M 11.703125 -2.515625 "/></g></g></g></svg>