<svg xmlns="http://www.w3.org/2000/svg" xmlns:xlink="http://www.w3.org/1999/xlink" width="1920" zoomAndPan="magnify" viewBox="0 0 1440 809.999993" height="1080" preserveAspectRatio="xMidYMid meet" version="1.0"><defs><g/><clipPath id="dc7e101fc1"><path d="M 587.734375 200.777344 L 852.390625 200.777344 L 852.390625 353.910156 L 587.734375 353.910156 Z M 587.734375 200.777344 " clip-rule="nonzero"/></clipPath><clipPath id="963bc77ac4"><path d="M 719 277.125 L 852 277.125 L 852 506.210938 L 719 506.210938 Z M 719 277.125 " clip-rule="nonzero"/></clipPath><clipPath id="3b11b36ab5"><path d="M 587.734375 277.125 L 720.316406 277.125 L 720.316406 506.210938 L 587.734375 506.210938 Z M 587.734375 277.125 " clip-rule="nonzero"/></clipPath></defs><g clip-path="url(#dc7e101fc1)"><path fill="#e8d6a2" d="M 720.0625 353.496094 L 852.390625 277.136719 L 720.0625 200.777344 L 587.734375 277.136719 L 720.0625 353.496094 " fill-opacity="1" fill-rule="nonzero"/></g><path fill="#b58850" d="M 774.140625 322.289062 L 798.3125 308.339844 L 665.988281 231.980469 L 641.8125 245.929688 L 774.140625 322.289062 " fill-opacity="1" fill-rule="nonzero"/><g clip-path="url(#963bc77ac4)"><path fill="#b58850" d="M 851.601562 429.855469 L 719.273438 506.214844 L 719.273438 353.496094 L 851.601562 277.136719 L 851.601562 429.855469 " fill-opacity="1" fill-rule="nonzero"/></g><path fill="#815300" d="M 797.523438 461.058594 L 773.351562 475.011719 L 773.351562 453.691406 L 797.523438 439.742188 L 797.523438 461.058594 " fill-opacity="1" fill-rule="nonzero"/><path fill="#815300" d="M 797.523438 329.65625 L 773.351562 343.605469 L 773.351562 322.289062 L 797.523438 308.339844 L 797.523438 329.65625 " fill-opacity="1" fill-rule="nonzero"/><g clip-path="url(#3b11b36ab5)"><path fill="#d6b477" d="M 720.0625 506.214844 L 587.734375 429.855469 L 587.734375 277.136719 L 720.0625 353.496094 L 720.0625 506.214844 " fill-opacity="1" fill-rule="nonzero"/></g><path fill="#815300" d="M 644.785156 447.613281 L 621.011719 433.894531 L 621.011719 406.460938 L 644.785156 420.175781 Z M 619.789062 404.34375 L 619.789062 434.597656 L 646.007812 449.730469 L 646.007812 419.472656 L 619.789062 404.34375 " fill-opacity="1" fill-rule="nonzero"/><path fill="#815300" d="M 626.636719 431.09375 L 629.996094 433.035156 L 629.996094 420.265625 L 631.90625 421.367188 L 628.316406 413.488281 L 624.726562 417.226562 L 626.636719 418.328125 L 626.636719 431.09375 " fill-opacity="1" fill-rule="nonzero"/><path fill="#815300" d="M 635.800781 436.382812 L 639.160156 438.320312 L 639.160156 425.554688 L 641.070312 426.65625 L 637.480469 418.773438 L 633.890625 422.515625 L 635.800781 423.613281 L 635.800781 436.382812 " fill-opacity="1" fill-rule="nonzero"/><path fill="#815300" d="M 642.453125 441.699219 L 623.339844 430.671875 L 623.339844 433.164062 L 642.453125 444.195312 L 642.453125 441.699219 " fill-opacity="1" fill-rule="nonzero"/><path fill="#815300" d="M 675.332031 465.242188 L 651.5625 451.523438 L 651.5625 424.085938 L 675.332031 437.804688 Z M 650.339844 421.972656 L 650.339844 452.230469 L 676.554688 467.355469 L 676.554688 437.101562 L 650.339844 421.972656 " fill-opacity="1" fill-rule="nonzero"/><path fill="#815300" d="M 662.542969 447.277344 L 662.542969 453.292969 L 659.769531 451.691406 C 659.292969 451.417969 658.90625 451.640625 658.90625 452.1875 L 658.90625 452.929688 L 667.988281 458.171875 L 667.988281 457.429688 C 667.988281 456.878906 667.601562 456.210938 667.125 455.9375 L 664.347656 454.335938 L 664.347656 448.316406 C 667.308594 449.523438 669.582031 447.898438 669.582031 444.339844 L 669.582031 438.074219 L 666.152344 436.09375 L 664.917969 438.542969 L 667.785156 440.199219 L 662.617188 444.1875 L 664.296875 440.046875 L 661.632812 438.507812 L 663.410156 434.511719 L 657.3125 430.992188 L 657.3125 437.257812 C 657.3125 440.816406 659.585938 445.066406 662.542969 447.277344 " fill-opacity="1" fill-rule="nonzero"/><path fill="#815300" d="M 706.007812 482.941406 L 682.234375 469.226562 L 682.234375 441.789062 L 706.007812 455.507812 Z M 681.011719 439.671875 L 681.011719 469.929688 L 707.230469 485.058594 L 707.230469 454.800781 L 681.011719 439.671875 " fill-opacity="1" fill-rule="nonzero"/><path fill="#815300" d="M 690.375 460.707031 C 691.335938 460.75 692.425781 460.777344 693.59375 461.300781 C 693.5625 461.363281 693.542969 461.445312 693.542969 461.542969 L 693.542969 470.09375 C 693.542969 470.910156 692.964844 471.246094 692.253906 470.835938 C 691.542969 470.425781 690.964844 469.425781 690.964844 468.605469 C 690.964844 468.238281 690.707031 467.789062 690.386719 467.601562 C 690.066406 467.417969 689.808594 467.566406 689.808594 467.9375 C 689.808594 469.496094 690.90625 471.394531 692.253906 472.171875 C 693.605469 472.953125 694.703125 472.320312 694.703125 470.761719 L 694.703125 462.210938 C 694.703125 462.113281 694.683594 462.011719 694.648438 461.910156 C 695.816406 462.730469 696.90625 463.964844 697.867188 465.03125 C 698.972656 465.078125 699.855469 464.878906 701.222656 465.664062 C 701.96875 466.09375 703.078125 467.207031 703.753906 467.789062 C 703.324219 463.109375 699.480469 457.050781 694.699219 454 L 694.703125 451.929688 C 694.703125 451.558594 694.441406 451.109375 694.121094 450.925781 C 693.800781 450.738281 693.542969 450.890625 693.542969 451.257812 L 693.542969 453.320312 C 688.761719 450.863281 684.917969 452.488281 684.484375 456.667969 C 685.167969 456.871094 686.277344 457.042969 687.023438 457.472656 C 688.386719 458.257812 689.269531 459.480469 690.375 460.707031 " fill-opacity="1" fill-rule="nonzero"/><g fill="#526479" fill-opacity="1"><g transform="translate(521.003111, 553.210099)"><g><path d="M 3.453125 0 L 3.453125 -29.28125 L 10.0625 -29.28125 L 10.0625 -17.28125 L 10.234375 -17.28125 L 18.953125 -29.28125 L 26.21875 -29.28125 L 17.375 -17.609375 L 27.84375 0 L 20.609375 0 L 13.46875 -12.34375 L 10.0625 -7.859375 L 10.0625 0 Z M 3.453125 0 "/></g></g></g><g fill="#526479" fill-opacity="1"><g transform="translate(548.574598, 553.210099)"><g><path d="M 2.921875 0 L 2.921875 -22.28125 L 8.3125 -22.28125 L 8.75 -19.4375 L 8.9375 -19.4375 C 9.894531 -20.34375 10.941406 -21.128906 12.078125 -21.796875 C 13.210938 -22.472656 14.546875 -22.8125 16.078125 -22.8125 C 18.503906 -22.8125 20.257812 -22.015625 21.34375 -20.421875 C 22.4375 -18.835938 22.984375 -16.640625 22.984375 -13.828125 L 22.984375 0 L 16.390625 0 L 16.390625 -12.984375 C 16.390625 -14.597656 16.171875 -15.703125 15.734375 -16.296875 C 15.304688 -16.898438 14.613281 -17.203125 13.65625 -17.203125 C 12.8125 -17.203125 12.085938 -17.015625 11.484375 -16.640625 C 10.890625 -16.265625 10.234375 -15.734375 9.515625 -15.046875 L 9.515625 0 Z M 2.921875 0 "/></g></g></g><g fill="#526479" fill-opacity="1"><g transform="translate(574.260086, 553.210099)"><g><path d="M 12.484375 0.53125 C 11.078125 0.53125 9.710938 0.269531 8.390625 -0.25 C 7.078125 -0.769531 5.914062 -1.523438 4.90625 -2.515625 C 3.90625 -3.503906 3.101562 -4.722656 2.5 -6.171875 C 1.90625 -7.628906 1.609375 -9.285156 1.609375 -11.140625 C 1.609375 -12.992188 1.90625 -14.644531 2.5 -16.09375 C 3.101562 -17.550781 3.90625 -18.769531 4.90625 -19.75 C 5.914062 -20.738281 7.078125 -21.492188 8.390625 -22.015625 C 9.710938 -22.546875 11.078125 -22.8125 12.484375 -22.8125 C 13.890625 -22.8125 15.242188 -22.546875 16.546875 -22.015625 C 17.847656 -21.492188 19 -20.738281 20 -19.75 C 21.007812 -18.769531 21.8125 -17.550781 22.40625 -16.09375 C 23.007812 -14.644531 23.3125 -12.992188 23.3125 -11.140625 C 23.3125 -9.285156 23.007812 -7.628906 22.40625 -6.171875 C 21.8125 -4.722656 21.007812 -3.503906 20 -2.515625 C 19 -1.523438 17.847656 -0.769531 16.546875 -0.25 C 15.242188 0.269531 13.890625 0.53125 12.484375 0.53125 Z M 12.484375 -4.8125 C 13.828125 -4.8125 14.84375 -5.378906 15.53125 -6.515625 C 16.226562 -7.648438 16.578125 -9.191406 16.578125 -11.140625 C 16.578125 -13.085938 16.226562 -14.628906 15.53125 -15.765625 C 14.84375 -16.898438 13.828125 -17.46875 12.484375 -17.46875 C 11.109375 -17.46875 10.082031 -16.898438 9.40625 -15.765625 C 8.726562 -14.628906 8.390625 -13.085938 8.390625 -11.140625 C 8.390625 -9.191406 8.726562 -7.648438 9.40625 -6.515625 C 10.082031 -5.378906 11.109375 -4.8125 12.484375 -4.8125 Z M 12.484375 -4.8125 "/></g></g></g><g fill="#526479" fill-opacity="1"><g transform="translate(599.182194, 553.210099)"><g><path d="M 6.640625 0 L 1.078125 -22.28125 L 7.640625 -22.28125 L 9.796875 -11.9375 C 9.972656 -10.832031 10.132812 -9.738281 10.28125 -8.65625 C 10.4375 -7.582031 10.601562 -6.476562 10.78125 -5.34375 L 10.953125 -5.34375 C 11.160156 -6.476562 11.363281 -7.597656 11.5625 -8.703125 C 11.757812 -9.816406 11.992188 -10.894531 12.265625 -11.9375 L 14.734375 -22.28125 L 20.4375 -22.28125 L 22.953125 -11.9375 C 23.210938 -10.832031 23.445312 -9.738281 23.65625 -8.65625 C 23.875 -7.582031 24.101562 -6.476562 24.34375 -5.34375 L 24.515625 -5.34375 C 24.722656 -6.476562 24.894531 -7.582031 25.03125 -8.65625 C 25.164062 -9.738281 25.335938 -10.832031 25.546875 -11.9375 L 27.65625 -22.28125 L 33.765625 -22.28125 L 28.421875 0 L 20.703125 0 L 18.6875 -8.890625 C 18.445312 -9.941406 18.234375 -10.988281 18.046875 -12.03125 C 17.867188 -13.082031 17.675781 -14.207031 17.46875 -15.40625 L 17.28125 -15.40625 C 17.070312 -14.207031 16.882812 -13.082031 16.71875 -12.03125 C 16.5625 -10.988281 16.378906 -9.941406 16.171875 -8.890625 L 14.1875 0 Z M 6.640625 0 "/></g></g></g><g fill="#526479" fill-opacity="1"><g transform="translate(634.028243, 553.210099)"><g><path d="M 8.984375 0.53125 C 7.847656 0.53125 6.890625 0.351562 6.109375 0 C 5.328125 -0.351562 4.703125 -0.851562 4.234375 -1.5 C 3.773438 -2.144531 3.441406 -2.921875 3.234375 -3.828125 C 3.023438 -4.742188 2.921875 -5.773438 2.921875 -6.921875 L 2.921875 -31.484375 L 9.515625 -31.484375 L 9.515625 -6.640625 C 9.515625 -5.953125 9.640625 -5.472656 9.890625 -5.203125 C 10.148438 -4.941406 10.414062 -4.8125 10.6875 -4.8125 C 10.832031 -4.8125 10.957031 -4.8125 11.0625 -4.8125 C 11.164062 -4.8125 11.3125 -4.835938 11.5 -4.890625 L 12.296875 0 C 11.941406 0.144531 11.488281 0.269531 10.9375 0.375 C 10.382812 0.476562 9.734375 0.53125 8.984375 0.53125 Z M 8.984375 0.53125 "/></g></g></g><g fill="#526479" fill-opacity="1"><g transform="translate(646.870987, 553.210099)"><g><path d="M 12.890625 0.53125 C 11.304688 0.53125 9.820312 0.269531 8.4375 -0.25 C 7.0625 -0.769531 5.863281 -1.53125 4.84375 -2.53125 C 3.832031 -3.539062 3.039062 -4.765625 2.46875 -6.203125 C 1.894531 -7.640625 1.609375 -9.285156 1.609375 -11.140625 C 1.609375 -12.929688 1.90625 -14.550781 2.5 -16 C 3.101562 -17.457031 3.890625 -18.6875 4.859375 -19.6875 C 5.835938 -20.695312 6.957031 -21.46875 8.21875 -22 C 9.476562 -22.539062 10.78125 -22.8125 12.125 -22.8125 C 13.707031 -22.8125 15.085938 -22.539062 16.265625 -22 C 17.453125 -21.46875 18.441406 -20.722656 19.234375 -19.765625 C 20.035156 -18.804688 20.628906 -17.675781 21.015625 -16.375 C 21.398438 -15.070312 21.59375 -13.65625 21.59375 -12.125 C 21.59375 -11.519531 21.5625 -10.945312 21.5 -10.40625 C 21.445312 -9.875 21.390625 -9.472656 21.328125 -9.203125 L 8 -9.203125 C 8.289062 -7.585938 8.953125 -6.394531 9.984375 -5.625 C 11.023438 -4.863281 12.289062 -4.484375 13.78125 -4.484375 C 15.375 -4.484375 16.976562 -4.976562 18.59375 -5.96875 L 20.796875 -1.96875 C 19.648438 -1.195312 18.378906 -0.585938 16.984375 -0.140625 C 15.597656 0.304688 14.234375 0.53125 12.890625 0.53125 Z M 7.953125 -13.5625 L 15.984375 -13.5625 C 15.984375 -14.820312 15.695312 -15.835938 15.125 -16.609375 C 14.5625 -17.390625 13.609375 -17.78125 12.265625 -17.78125 C 11.210938 -17.78125 10.289062 -17.4375 9.5 -16.75 C 8.707031 -16.0625 8.191406 -15 7.953125 -13.5625 Z M 7.953125 -13.5625 "/></g></g></g><g fill="#526479" fill-opacity="1"><g transform="translate(670.131618, 553.210099)"><g><path d="M 10.875 0.53125 C 9.488281 0.53125 8.234375 0.265625 7.109375 -0.265625 C 5.992188 -0.804688 5.035156 -1.578125 4.234375 -2.578125 C 3.441406 -3.585938 2.828125 -4.804688 2.390625 -6.234375 C 1.960938 -7.671875 1.75 -9.304688 1.75 -11.140625 C 1.75 -12.960938 2.007812 -14.59375 2.53125 -16.03125 C 3.0625 -17.46875 3.75 -18.6875 4.59375 -19.6875 C 5.445312 -20.695312 6.4375 -21.46875 7.5625 -22 C 8.6875 -22.539062 9.832031 -22.8125 11 -22.8125 C 12.257812 -22.8125 13.289062 -22.601562 14.09375 -22.1875 C 14.90625 -21.769531 15.703125 -21.203125 16.484375 -20.484375 L 16.21875 -23.890625 L 16.21875 -31.484375 L 22.8125 -31.484375 L 22.8125 0 L 17.421875 0 L 16.96875 -2.203125 L 16.796875 -2.203125 C 16.015625 -1.421875 15.097656 -0.769531 14.046875 -0.25 C 13.003906 0.269531 11.945312 0.53125 10.875 0.53125 Z M 12.578125 -4.84375 C 13.296875 -4.84375 13.945312 -4.992188 14.53125 -5.296875 C 15.113281 -5.597656 15.675781 -6.125 16.21875 -6.875 L 16.21875 -15.984375 C 15.613281 -16.523438 14.992188 -16.898438 14.359375 -17.109375 C 13.734375 -17.316406 13.125 -17.421875 12.53125 -17.421875 C 11.476562 -17.421875 10.546875 -16.921875 9.734375 -15.921875 C 8.929688 -14.921875 8.53125 -13.351562 8.53125 -11.21875 C 8.53125 -9.007812 8.878906 -7.394531 9.578125 -6.375 C 10.285156 -5.351562 11.285156 -4.84375 12.578125 -4.84375 Z M 12.578125 -4.84375 "/></g></g></g><g fill="#526479" fill-opacity="1"><g transform="translate(695.862008, 553.210099)"><g><path d="M 10.875 9.46875 C 9.550781 9.46875 8.328125 9.351562 7.203125 9.125 C 6.085938 8.90625 5.101562 8.570312 4.25 8.125 C 3.394531 7.675781 2.726562 7.09375 2.25 6.375 C 1.769531 5.65625 1.53125 4.800781 1.53125 3.8125 C 1.53125 2.019531 2.59375 0.523438 4.71875 -0.671875 L 4.71875 -0.859375 C 4.113281 -1.242188 3.617188 -1.734375 3.234375 -2.328125 C 2.847656 -2.929688 2.65625 -3.695312 2.65625 -4.625 C 2.65625 -5.4375 2.894531 -6.207031 3.375 -6.9375 C 3.851562 -7.664062 4.453125 -8.285156 5.171875 -8.796875 L 5.171875 -8.984375 C 4.390625 -9.523438 3.691406 -10.296875 3.078125 -11.296875 C 2.460938 -12.296875 2.15625 -13.457031 2.15625 -14.78125 C 2.15625 -16.125 2.410156 -17.296875 2.921875 -18.296875 C 3.429688 -19.296875 4.109375 -20.132812 4.953125 -20.8125 C 5.804688 -21.488281 6.785156 -21.988281 7.890625 -22.3125 C 9.003906 -22.644531 10.160156 -22.8125 11.359375 -22.8125 C 12.679688 -22.8125 13.832031 -22.632812 14.8125 -22.28125 L 22.953125 -22.28125 L 22.953125 -17.46875 L 19.40625 -17.46875 C 19.613281 -17.132812 19.785156 -16.710938 19.921875 -16.203125 C 20.054688 -15.703125 20.125 -15.148438 20.125 -14.546875 C 20.125 -13.265625 19.894531 -12.148438 19.4375 -11.203125 C 18.988281 -10.265625 18.367188 -9.488281 17.578125 -8.875 C 16.785156 -8.257812 15.859375 -7.800781 14.796875 -7.5 C 13.734375 -7.195312 12.585938 -7.046875 11.359375 -7.046875 C 10.492188 -7.046875 9.597656 -7.195312 8.671875 -7.5 C 8.367188 -7.257812 8.15625 -7.019531 8.03125 -6.78125 C 7.914062 -6.539062 7.859375 -6.226562 7.859375 -5.84375 C 7.859375 -5.269531 8.101562 -4.847656 8.59375 -4.578125 C 9.09375 -4.304688 9.96875 -4.171875 11.21875 -4.171875 L 14.8125 -4.171875 C 17.570312 -4.171875 19.675781 -3.726562 21.125 -2.84375 C 22.582031 -1.96875 23.3125 -0.523438 23.3125 1.484375 C 23.3125 2.648438 23.019531 3.71875 22.4375 4.6875 C 21.851562 5.664062 21.019531 6.503906 19.9375 7.203125 C 18.863281 7.910156 17.5625 8.460938 16.03125 8.859375 C 14.5 9.265625 12.78125 9.46875 10.875 9.46875 Z M 11.359375 -11.046875 C 12.222656 -11.046875 12.945312 -11.351562 13.53125 -11.96875 C 14.125 -12.582031 14.421875 -13.519531 14.421875 -14.78125 C 14.421875 -15.945312 14.125 -16.832031 13.53125 -17.4375 C 12.945312 -18.050781 12.222656 -18.359375 11.359375 -18.359375 C 10.492188 -18.359375 9.769531 -18.0625 9.1875 -17.46875 C 8.601562 -16.875 8.3125 -15.976562 8.3125 -14.78125 C 8.3125 -13.519531 8.601562 -12.582031 9.1875 -11.96875 C 9.769531 -11.351562 10.492188 -11.046875 11.359375 -11.046875 Z M 11.90625 5.34375 C 13.394531 5.34375 14.617188 5.078125 15.578125 4.546875 C 16.535156 4.023438 17.015625 3.378906 17.015625 2.609375 C 17.015625 1.921875 16.722656 1.457031 16.140625 1.21875 C 15.554688 0.976562 14.710938 0.859375 13.609375 0.859375 L 11.3125 0.859375 C 10.539062 0.859375 9.914062 0.832031 9.4375 0.78125 C 8.957031 0.738281 8.535156 0.671875 8.171875 0.578125 C 7.359375 1.296875 6.953125 2.03125 6.953125 2.78125 C 6.953125 3.625 7.398438 4.257812 8.296875 4.6875 C 9.203125 5.125 10.40625 5.34375 11.90625 5.34375 Z M 11.90625 5.34375 "/></g></g></g><g fill="#526479" fill-opacity="1"><g transform="translate(719.841106, 553.210099)"><g><path d="M 12.890625 0.53125 C 11.304688 0.53125 9.820312 0.269531 8.4375 -0.25 C 7.0625 -0.769531 5.863281 -1.53125 4.84375 -2.53125 C 3.832031 -3.539062 3.039062 -4.765625 2.46875 -6.203125 C 1.894531 -7.640625 1.609375 -9.285156 1.609375 -11.140625 C 1.609375 -12.929688 1.90625 -14.550781 2.5 -16 C 3.101562 -17.457031 3.890625 -18.6875 4.859375 -19.6875 C 5.835938 -20.695312 6.957031 -21.46875 8.21875 -22 C 9.476562 -22.539062 10.78125 -22.8125 12.125 -22.8125 C 13.707031 -22.8125 15.085938 -22.539062 16.265625 -22 C 17.453125 -21.46875 18.441406 -20.722656 19.234375 -19.765625 C 20.035156 -18.804688 20.628906 -17.675781 21.015625 -16.375 C 21.398438 -15.070312 21.59375 -13.65625 21.59375 -12.125 C 21.59375 -11.519531 21.5625 -10.945312 21.5 -10.40625 C 21.445312 -9.875 21.390625 -9.472656 21.328125 -9.203125 L 8 -9.203125 C 8.289062 -7.585938 8.953125 -6.394531 9.984375 -5.625 C 11.023438 -4.863281 12.289062 -4.484375 13.78125 -4.484375 C 15.375 -4.484375 16.976562 -4.976562 18.59375 -5.96875 L 20.796875 -1.96875 C 19.648438 -1.195312 18.378906 -0.585938 16.984375 -0.140625 C 15.597656 0.304688 14.234375 0.53125 12.890625 0.53125 Z M 7.953125 -13.5625 L 15.984375 -13.5625 C 15.984375 -14.820312 15.695312 -15.835938 15.125 -16.609375 C 14.5625 -17.390625 13.609375 -17.78125 12.265625 -17.78125 C 11.210938 -17.78125 10.289062 -17.4375 9.5 -16.75 C 8.707031 -16.0625 8.191406 -15 7.953125 -13.5625 Z M 7.953125 -13.5625 "/></g></g></g><g fill="#526479" fill-opacity="1"><g transform="translate(743.101747, 553.210099)"><g/></g></g><g fill="#526479" fill-opacity="1"><g transform="translate(752.0827, 553.210099)"><g><path d="M 3.453125 0 L 3.453125 -29.28125 L 13.515625 -29.28125 C 15.128906 -29.28125 16.640625 -29.117188 18.046875 -28.796875 C 19.453125 -28.484375 20.679688 -27.960938 21.734375 -27.234375 C 22.785156 -26.503906 23.613281 -25.53125 24.21875 -24.3125 C 24.832031 -23.101562 25.140625 -21.613281 25.140625 -19.84375 C 25.140625 -18.132812 24.832031 -16.648438 24.21875 -15.390625 C 23.613281 -14.140625 22.785156 -13.109375 21.734375 -12.296875 C 20.679688 -11.492188 19.46875 -10.894531 18.09375 -10.5 C 16.71875 -10.113281 15.253906 -9.921875 13.703125 -9.921875 L 10.0625 -9.921875 L 10.0625 0 Z M 10.0625 -15.171875 L 13.296875 -15.171875 C 16.890625 -15.171875 18.6875 -16.726562 18.6875 -19.84375 C 18.6875 -21.375 18.207031 -22.453125 17.25 -23.078125 C 16.289062 -23.710938 14.910156 -24.03125 13.109375 -24.03125 L 10.0625 -24.03125 Z M 10.0625 -15.171875 "/></g></g></g><g fill="#526479" fill-opacity="1"><g transform="translate(778.845905, 553.210099)"><g><path d="M 8.53125 0.53125 C 7.507812 0.53125 6.585938 0.359375 5.765625 0.015625 C 4.941406 -0.328125 4.242188 -0.800781 3.671875 -1.40625 C 3.109375 -2.019531 2.671875 -2.734375 2.359375 -3.546875 C 2.046875 -4.359375 1.890625 -5.242188 1.890625 -6.203125 C 1.890625 -8.535156 2.875 -10.359375 4.84375 -11.671875 C 6.820312 -12.992188 10.015625 -13.878906 14.421875 -14.328125 C 14.359375 -15.316406 14.0625 -16.101562 13.53125 -16.6875 C 13.007812 -17.269531 12.132812 -17.5625 10.90625 -17.5625 C 9.945312 -17.5625 8.992188 -17.378906 8.046875 -17.015625 C 7.109375 -16.660156 6.101562 -16.164062 5.03125 -15.53125 L 2.65625 -19.890625 C 4.09375 -20.765625 5.59375 -21.46875 7.15625 -22 C 8.726562 -22.539062 10.398438 -22.8125 12.171875 -22.8125 C 15.046875 -22.8125 17.238281 -21.992188 18.75 -20.359375 C 20.257812 -18.734375 21.015625 -16.195312 21.015625 -12.75 L 21.015625 0 L 15.625 0 L 15.171875 -2.296875 L 15 -2.296875 C 14.039062 -1.453125 13.035156 -0.769531 11.984375 -0.25 C 10.941406 0.269531 9.789062 0.53125 8.53125 0.53125 Z M 10.78125 -4.578125 C 11.53125 -4.578125 12.171875 -4.738281 12.703125 -5.0625 C 13.242188 -5.394531 13.816406 -5.863281 14.421875 -6.46875 L 14.421875 -10.375 C 12.078125 -10.039062 10.457031 -9.5625 9.5625 -8.9375 C 8.664062 -8.3125 8.21875 -7.5625 8.21875 -6.6875 C 8.21875 -5.96875 8.445312 -5.4375 8.90625 -5.09375 C 9.375 -4.75 10 -4.578125 10.78125 -4.578125 Z M 10.78125 -4.578125 "/></g></g></g><g fill="#526479" fill-opacity="1"><g transform="translate(802.510676, 553.210099)"><g><path d="M 12.625 0.53125 C 11.0625 0.53125 9.613281 0.269531 8.28125 -0.25 C 6.945312 -0.769531 5.785156 -1.523438 4.796875 -2.515625 C 3.816406 -3.503906 3.039062 -4.722656 2.46875 -6.171875 C 1.894531 -7.628906 1.609375 -9.285156 1.609375 -11.140625 C 1.609375 -12.992188 1.921875 -14.644531 2.546875 -16.09375 C 3.179688 -17.550781 4.03125 -18.769531 5.09375 -19.75 C 6.15625 -20.738281 7.390625 -21.492188 8.796875 -22.015625 C 10.203125 -22.546875 11.671875 -22.8125 13.203125 -22.8125 C 14.578125 -22.8125 15.796875 -22.585938 16.859375 -22.140625 C 17.921875 -21.691406 18.875 -21.125 19.71875 -20.4375 L 16.609375 -16.171875 C 15.566406 -17.035156 14.566406 -17.46875 13.609375 -17.46875 C 11.992188 -17.46875 10.71875 -16.898438 9.78125 -15.765625 C 8.851562 -14.628906 8.390625 -13.085938 8.390625 -11.140625 C 8.390625 -9.191406 8.859375 -7.648438 9.796875 -6.515625 C 10.742188 -5.378906 11.9375 -4.8125 13.375 -4.8125 C 14.09375 -4.8125 14.789062 -4.96875 15.46875 -5.28125 C 16.144531 -5.59375 16.78125 -5.972656 17.375 -6.421875 L 19.984375 -2.109375 C 18.878906 -1.148438 17.679688 -0.46875 16.390625 -0.0625 C 15.097656 0.332031 13.84375 0.53125 12.625 0.53125 Z M 12.625 0.53125 "/></g></g></g><g fill="#526479" fill-opacity="1"><g transform="translate(823.481166, 553.210099)"><g><path d="M 2.921875 0 L 2.921875 -31.484375 L 9.34375 -31.484375 L 9.34375 -13.421875 L 9.515625 -13.421875 L 16.578125 -22.28125 L 23.75 -22.28125 L 15.9375 -13.109375 L 24.34375 0 L 17.203125 0 L 12.171875 -8.671875 L 9.34375 -5.484375 L 9.34375 0 Z M 2.921875 0 "/></g></g></g><g fill="#526479" fill-opacity="1"><g transform="translate(848.088938, 553.210099)"><g><path d="M 8.53125 0.53125 C 7.507812 0.53125 6.585938 0.359375 5.765625 0.015625 C 4.941406 -0.328125 4.242188 -0.800781 3.671875 -1.40625 C 3.109375 -2.019531 2.671875 -2.734375 2.359375 -3.546875 C 2.046875 -4.359375 1.890625 -5.242188 1.890625 -6.203125 C 1.890625 -8.535156 2.875 -10.359375 4.84375 -11.671875 C 6.820312 -12.992188 10.015625 -13.878906 14.421875 -14.328125 C 14.359375 -15.316406 14.0625 -16.101562 13.53125 -16.6875 C 13.007812 -17.269531 12.132812 -17.5625 10.90625 -17.5625 C 9.945312 -17.5625 8.992188 -17.378906 8.046875 -17.015625 C 7.109375 -16.660156 6.101562 -16.164062 5.03125 -15.53125 L 2.65625 -19.890625 C 4.09375 -20.765625 5.59375 -21.46875 7.15625 -22 C 8.726562 -22.539062 10.398438 -22.8125 12.171875 -22.8125 C 15.046875 -22.8125 17.238281 -21.992188 18.75 -20.359375 C 20.257812 -18.734375 21.015625 -16.195312 21.015625 -12.75 L 21.015625 0 L 15.625 0 L 15.171875 -2.296875 L 15 -2.296875 C 14.039062 -1.453125 13.035156 -0.769531 11.984375 -0.25 C 10.941406 0.269531 9.789062 0.53125 8.53125 0.53125 Z M 10.78125 -4.578125 C 11.53125 -4.578125 12.171875 -4.738281 12.703125 -5.0625 C 13.242188 -5.394531 13.816406 -5.863281 14.421875 -6.46875 L 14.421875 -10.375 C 12.078125 -10.039062 10.457031 -9.5625 9.5625 -8.9375 C 8.664062 -8.3125 8.21875 -7.5625 8.21875 -6.6875 C 8.21875 -5.96875 8.445312 -5.4375 8.90625 -5.09375 C 9.375 -4.75 10 -4.578125 10.78125 -4.578125 Z M 10.78125 -4.578125 "/></g></g></g><g fill="#526479" fill-opacity="1"><g transform="translate(871.753731, 553.210099)"><g><path d="M 10.875 9.46875 C 9.550781 9.46875 8.328125 9.351562 7.203125 9.125 C 6.085938 8.90625 5.101562 8.570312 4.25 8.125 C 3.394531 7.675781 2.726562 7.09375 2.25 6.375 C 1.769531 5.65625 1.53125 4.800781 1.53125 3.8125 C 1.53125 2.019531 2.59375 0.523438 4.71875 -0.671875 L 4.71875 -0.859375 C 4.113281 -1.242188 3.617188 -1.734375 3.234375 -2.328125 C 2.847656 -2.929688 2.65625 -3.695312 2.65625 -4.625 C 2.65625 -5.4375 2.894531 -6.207031 3.375 -6.9375 C 3.851562 -7.664062 4.453125 -8.285156 5.171875 -8.796875 L 5.171875 -8.984375 C 4.390625 -9.523438 3.691406 -10.296875 3.078125 -11.296875 C 2.460938 -12.296875 2.15625 -13.457031 2.15625 -14.78125 C 2.15625 -16.125 2.410156 -17.296875 2.921875 -18.296875 C 3.429688 -19.296875 4.109375 -20.132812 4.953125 -20.8125 C 5.804688 -21.488281 6.785156 -21.988281 7.890625 -22.3125 C 9.003906 -22.644531 10.160156 -22.8125 11.359375 -22.8125 C 12.679688 -22.8125 13.832031 -22.632812 14.8125 -22.28125 L 22.953125 -22.28125 L 22.953125 -17.46875 L 19.40625 -17.46875 C 19.613281 -17.132812 19.785156 -16.710938 19.921875 -16.203125 C 20.054688 -15.703125 20.125 -15.148438 20.125 -14.546875 C 20.125 -13.265625 19.894531 -12.148438 19.4375 -11.203125 C 18.988281 -10.265625 18.367188 -9.488281 17.578125 -8.875 C 16.785156 -8.257812 15.859375 -7.800781 14.796875 -7.5 C 13.734375 -7.195312 12.585938 -7.046875 11.359375 -7.046875 C 10.492188 -7.046875 9.597656 -7.195312 8.671875 -7.5 C 8.367188 -7.257812 8.15625 -7.019531 8.03125 -6.78125 C 7.914062 -6.539062 7.859375 -6.226562 7.859375 -5.84375 C 7.859375 -5.269531 8.101562 -4.847656 8.59375 -4.578125 C 9.09375 -4.304688 9.96875 -4.171875 11.21875 -4.171875 L 14.8125 -4.171875 C 17.570312 -4.171875 19.675781 -3.726562 21.125 -2.84375 C 22.582031 -1.96875 23.3125 -0.523438 23.3125 1.484375 C 23.3125 2.648438 23.019531 3.71875 22.4375 4.6875 C 21.851562 5.664062 21.019531 6.503906 19.9375 7.203125 C 18.863281 7.910156 17.5625 8.460938 16.03125 8.859375 C 14.5 9.265625 12.78125 9.46875 10.875 9.46875 Z M 11.359375 -11.046875 C 12.222656 -11.046875 12.945312 -11.351562 13.53125 -11.96875 C 14.125 -12.582031 14.421875 -13.519531 14.421875 -14.78125 C 14.421875 -15.945312 14.125 -16.832031 13.53125 -17.4375 C 12.945312 -18.050781 12.222656 -18.359375 11.359375 -18.359375 C 10.492188 -18.359375 9.769531 -18.0625 9.1875 -17.46875 C 8.601562 -16.875 8.3125 -15.976562 8.3125 -14.78125 C 8.3125 -13.519531 8.601562 -12.582031 9.1875 -11.96875 C 9.769531 -11.351562 10.492188 -11.046875 11.359375 -11.046875 Z M 11.90625 5.34375 C 13.394531 5.34375 14.617188 5.078125 15.578125 4.546875 C 16.535156 4.023438 17.015625 3.378906 17.015625 2.609375 C 17.015625 1.921875 16.722656 1.457031 16.140625 1.21875 C 15.554688 0.976562 14.710938 0.859375 13.609375 0.859375 L 11.3125 0.859375 C 10.539062 0.859375 9.914062 0.832031 9.4375 0.78125 C 8.957031 0.738281 8.535156 0.671875 8.171875 0.578125 C 7.359375 1.296875 6.953125 2.03125 6.953125 2.78125 C 6.953125 3.625 7.398438 4.257812 8.296875 4.6875 C 9.203125 5.125 10.40625 5.34375 11.90625 5.34375 Z M 11.90625 5.34375 "/></g></g></g><g fill="#526479" fill-opacity="1"><g transform="translate(895.732851, 553.210099)"><g><path d="M 12.890625 0.53125 C 11.304688 0.53125 9.820312 0.269531 8.4375 -0.25 C 7.0625 -0.769531 5.863281 -1.53125 4.84375 -2.53125 C 3.832031 -3.539062 3.039062 -4.765625 2.46875 -6.203125 C 1.894531 -7.640625 1.609375 -9.285156 1.609375 -11.140625 C 1.609375 -12.929688 1.90625 -14.550781 2.5 -16 C 3.101562 -17.457031 3.890625 -18.6875 4.859375 -19.6875 C 5.835938 -20.695312 6.957031 -21.46875 8.21875 -22 C 9.476562 -22.539062 10.78125 -22.8125 12.125 -22.8125 C 13.707031 -22.8125 15.085938 -22.539062 16.265625 -22 C 17.453125 -21.46875 18.441406 -20.722656 19.234375 -19.765625 C 20.035156 -18.804688 20.628906 -17.675781 21.015625 -16.375 C 21.398438 -15.070312 21.59375 -13.65625 21.59375 -12.125 C 21.59375 -11.519531 21.5625 -10.945312 21.5 -10.40625 C 21.445312 -9.875 21.390625 -9.472656 21.328125 -9.203125 L 8 -9.203125 C 8.289062 -7.585938 8.953125 -6.394531 9.984375 -5.625 C 11.023438 -4.863281 12.289062 -4.484375 13.78125 -4.484375 C 15.375 -4.484375 16.976562 -4.976562 18.59375 -5.96875 L 20.796875 -1.96875 C 19.648438 -1.195312 18.378906 -0.585938 16.984375 -0.140625 C 15.597656 0.304688 14.234375 0.53125 12.890625 0.53125 Z M 7.953125 -13.5625 L 15.984375 -13.5625 C 15.984375 -14.820312 15.695312 -15.835938 15.125 -16.609375 C 14.5625 -17.390625 13.609375 -17.78125 12.265625 -17.78125 C 11.210938 -17.78125 10.289062 -17.4375 9.5 -16.75 C 8.707031 -16.0625 8.191406 -15 7.953125 -13.5625 Z M 7.953125 -13.5625 "/></g></g></g><g fill="#ffbd59" fill-opacity="1"><g transform="translate(659.648517, 599.421446)"><g><path d="M 7.546875 6.625 C 5.992188 4.082031 4.789062 1.445312 3.9375 -1.28125 C 3.082031 -4.019531 2.65625 -7.019531 2.65625 -10.28125 C 2.65625 -13.53125 3.082031 -16.519531 3.9375 -19.25 C 4.789062 -21.988281 5.992188 -24.628906 7.546875 -27.171875 L 10.9375 -25.765625 C 9.582031 -23.347656 8.597656 -20.820312 7.984375 -18.1875 C 7.367188 -15.550781 7.0625 -12.914062 7.0625 -10.28125 C 7.0625 -7.644531 7.367188 -5.003906 7.984375 -2.359375 C 8.597656 0.273438 9.582031 2.800781 10.9375 5.21875 Z M 7.546875 6.625 "/></g></g></g><g fill="#ffbd59" fill-opacity="1"><g transform="translate(672.363108, 599.421446)"><g><path d="M 2.84375 0 L 2.84375 -24.109375 L 9.65625 -24.109375 C 11.5 -24.109375 13.160156 -23.875 14.640625 -23.40625 C 16.117188 -22.9375 17.382812 -22.210938 18.4375 -21.234375 C 19.5 -20.265625 20.3125 -19.023438 20.875 -17.515625 C 21.445312 -16.015625 21.734375 -14.226562 21.734375 -12.15625 C 21.734375 -10.09375 21.445312 -8.296875 20.875 -6.765625 C 20.3125 -5.234375 19.515625 -3.96875 18.484375 -2.96875 C 17.453125 -1.976562 16.210938 -1.234375 14.765625 -0.734375 C 13.328125 -0.242188 11.71875 0 9.9375 0 Z M 8.28125 -4.40625 L 9.3125 -4.40625 C 10.351562 -4.40625 11.289062 -4.539062 12.125 -4.8125 C 12.957031 -5.082031 13.671875 -5.519531 14.265625 -6.125 C 14.859375 -6.726562 15.320312 -7.519531 15.65625 -8.5 C 15.988281 -9.488281 16.15625 -10.707031 16.15625 -12.15625 C 16.15625 -13.59375 15.988281 -14.796875 15.65625 -15.765625 C 15.320312 -16.742188 14.859375 -17.519531 14.265625 -18.09375 C 13.671875 -18.675781 12.957031 -19.085938 12.125 -19.328125 C 11.289062 -19.578125 10.351562 -19.703125 9.3125 -19.703125 L 8.28125 -19.703125 Z M 8.28125 -4.40625 "/></g></g></g><g fill="#ffbd59" fill-opacity="1"><g transform="translate(695.833348, 599.421446)"><g><path d="M 2.40625 0 L 2.40625 -18.34375 L 6.84375 -18.34375 L 7.203125 -15.125 L 7.359375 -15.125 C 8.023438 -16.375 8.828125 -17.296875 9.765625 -17.890625 C 10.703125 -18.484375 11.632812 -18.78125 12.5625 -18.78125 C 13.082031 -18.78125 13.507812 -18.75 13.84375 -18.6875 C 14.175781 -18.625 14.476562 -18.53125 14.75 -18.40625 L 13.859375 -13.71875 C 13.515625 -13.8125 13.191406 -13.882812 12.890625 -13.9375 C 12.597656 -13.988281 12.253906 -14.015625 11.859375 -14.015625 C 11.171875 -14.015625 10.453125 -13.765625 9.703125 -13.265625 C 8.953125 -12.773438 8.332031 -11.898438 7.84375 -10.640625 L 7.84375 0 Z M 2.40625 0 "/></g></g></g><g fill="#ffbd59" fill-opacity="1"><g transform="translate(710.543835, 599.421446)"><g><path d="M 7.03125 0.4375 C 6.1875 0.4375 5.425781 0.296875 4.75 0.015625 C 4.070312 -0.265625 3.5 -0.65625 3.03125 -1.15625 C 2.5625 -1.664062 2.195312 -2.253906 1.9375 -2.921875 C 1.675781 -3.585938 1.546875 -4.316406 1.546875 -5.109375 C 1.546875 -7.023438 2.359375 -8.523438 3.984375 -9.609375 C 5.617188 -10.691406 8.242188 -11.421875 11.859375 -11.796875 C 11.816406 -12.609375 11.578125 -13.253906 11.140625 -13.734375 C 10.710938 -14.210938 9.992188 -14.453125 8.984375 -14.453125 C 8.191406 -14.453125 7.40625 -14.300781 6.625 -14 C 5.851562 -13.707031 5.023438 -13.304688 4.140625 -12.796875 L 2.1875 -16.375 C 3.363281 -17.09375 4.597656 -17.671875 5.890625 -18.109375 C 7.191406 -18.554688 8.566406 -18.78125 10.015625 -18.78125 C 12.378906 -18.78125 14.179688 -18.109375 15.421875 -16.765625 C 16.671875 -15.421875 17.296875 -13.332031 17.296875 -10.5 L 17.296875 0 L 12.859375 0 L 12.5 -1.890625 L 12.34375 -1.890625 C 11.5625 -1.191406 10.738281 -0.628906 9.875 -0.203125 C 9.007812 0.222656 8.0625 0.4375 7.03125 0.4375 Z M 8.875 -3.765625 C 9.488281 -3.765625 10.015625 -3.898438 10.453125 -4.171875 C 10.898438 -4.441406 11.367188 -4.828125 11.859375 -5.328125 L 11.859375 -8.546875 C 9.941406 -8.273438 8.613281 -7.878906 7.875 -7.359375 C 7.132812 -6.835938 6.765625 -6.222656 6.765625 -5.515625 C 6.765625 -4.921875 6.953125 -4.476562 7.328125 -4.1875 C 7.710938 -3.90625 8.226562 -3.765625 8.875 -3.765625 Z M 8.875 -3.765625 "/></g></g></g><g fill="#ffbd59" fill-opacity="1"><g transform="translate(730.022296, 599.421446)"><g><path d="M 3.328125 0 L 3.328125 -14.078125 L 0.890625 -14.078125 L 0.890625 -18.109375 L 3.328125 -18.296875 L 3.328125 -19.296875 C 3.328125 -20.253906 3.441406 -21.164062 3.671875 -22.03125 C 3.910156 -22.894531 4.300781 -23.644531 4.84375 -24.28125 C 5.382812 -24.925781 6.085938 -25.429688 6.953125 -25.796875 C 7.816406 -26.171875 8.863281 -26.359375 10.09375 -26.359375 C 10.851562 -26.359375 11.546875 -26.285156 12.171875 -26.140625 C 12.804688 -25.992188 13.332031 -25.84375 13.75 -25.6875 L 12.75 -21.703125 C 12.0625 -21.953125 11.4375 -22.078125 10.875 -22.078125 C 10.207031 -22.078125 9.6875 -21.867188 9.3125 -21.453125 C 8.945312 -21.046875 8.765625 -20.378906 8.765625 -19.453125 L 8.765625 -18.34375 L 12.046875 -18.34375 L 12.046875 -14.078125 L 8.765625 -14.078125 L 8.765625 0 Z M 3.328125 0 "/></g></g></g><g fill="#ffbd59" fill-opacity="1"><g transform="translate(742.626006, 599.421446)"><g><path d="M 9.46875 0.4375 C 8.332031 0.4375 7.363281 0.265625 6.5625 -0.078125 C 5.757812 -0.421875 5.101562 -0.898438 4.59375 -1.515625 C 4.09375 -2.128906 3.722656 -2.875 3.484375 -3.75 C 3.253906 -4.625 3.140625 -5.59375 3.140625 -6.65625 L 3.140625 -14.078125 L 0.625 -14.078125 L 0.625 -18.109375 L 3.4375 -18.34375 L 4.0625 -23.21875 L 8.578125 -23.21875 L 8.578125 -18.34375 L 12.96875 -18.34375 L 12.96875 -14.078125 L 8.578125 -14.078125 L 8.578125 -6.734375 C 8.578125 -5.691406 8.789062 -4.941406 9.21875 -4.484375 C 9.65625 -4.035156 10.226562 -3.8125 10.9375 -3.8125 C 11.238281 -3.8125 11.539062 -3.847656 11.84375 -3.921875 C 12.15625 -3.992188 12.4375 -4.078125 12.6875 -4.171875 L 13.53125 -0.21875 C 13.039062 -0.0703125 12.460938 0.0703125 11.796875 0.21875 C 11.128906 0.363281 10.351562 0.4375 9.46875 0.4375 Z M 9.46875 0.4375 "/></g></g></g><g fill="#ffbd59" fill-opacity="1"><g transform="translate(756.782072, 599.421446)"><g><path d="M 5.171875 6.625 L 1.78125 5.21875 C 3.15625 2.800781 4.148438 0.273438 4.765625 -2.359375 C 5.378906 -5.003906 5.6875 -7.644531 5.6875 -10.28125 C 5.6875 -12.914062 5.378906 -15.550781 4.765625 -18.1875 C 4.148438 -20.820312 3.15625 -23.347656 1.78125 -25.765625 L 5.171875 -27.171875 C 6.722656 -24.628906 7.925781 -21.988281 8.78125 -19.25 C 9.632812 -16.519531 10.0625 -13.53125 10.0625 -10.28125 C 10.0625 -7.019531 9.632812 -4.019531 8.78125 -1.28125 C 7.925781 1.445312 6.722656 4.082031 5.171875 6.625 Z M 5.171875 6.625 "/></g></g></g></svg>