<svg xmlns="http://www.w3.org/2000/svg" xmlns:xlink="http://www.w3.org/1999/xlink" width="1920" zoomAndPan="magnify" viewBox="0 0 1440 809.999993" height="1080" preserveAspectRatio="xMidYMid meet" version="1.0"><defs><g/><clipPath id="e74281e9ae"><path d="M 208 49.542969 L 465.949219 49.542969 L 465.949219 198.824219 L 208 198.824219 Z M 208 49.542969 " clip-rule="nonzero"/></clipPath><clipPath id="4407f9d501"><path d="M 336 123.96875 L 465.585938 123.96875 L 465.585938 347.292969 L 336 347.292969 Z M 336 123.96875 " clip-rule="nonzero"/></clipPath><clipPath id="4653c0cc3e"><path d="M 208 123.96875 L 337 123.96875 L 337 347.292969 L 208 347.292969 Z M 208 123.96875 " clip-rule="nonzero"/></clipPath><clipPath id="440be1a507"><path d="M 131.105469 392.511719 L 542.839844 392.511719 L 542.839844 497.511719 L 131.105469 497.511719 Z M 131.105469 392.511719 " clip-rule="nonzero"/></clipPath><clipPath id="2aa7bf230f"><path d="M 169.371094 392.511719 L 504.5625 392.511719 C 525.695312 392.511719 542.828125 409.613281 542.828125 430.710938 L 542.828125 459.316406 C 542.828125 480.414062 525.695312 497.511719 504.5625 497.511719 L 169.371094 497.511719 C 148.238281 497.511719 131.105469 480.414062 131.105469 459.316406 L 131.105469 430.710938 C 131.105469 409.613281 148.238281 392.511719 169.371094 392.511719 " clip-rule="nonzero"/></clipPath><clipPath id="bb61d95830"><path d="M 131.089844 523.910156 L 543 523.910156 L 543 629.75 L 131.089844 629.75 Z M 131.089844 523.910156 " clip-rule="nonzero"/></clipPath><clipPath id="f7183a42fa"><path d="M 169.339844 523.910156 L 504.394531 523.910156 C 525.519531 523.910156 542.644531 541.035156 542.644531 562.160156 L 542.644531 590.808594 C 542.644531 611.933594 525.519531 629.058594 504.394531 629.058594 L 169.339844 629.058594 C 148.21875 629.058594 131.089844 611.933594 131.089844 590.808594 L 131.089844 562.160156 C 131.089844 541.035156 148.21875 523.910156 169.339844 523.910156 " clip-rule="nonzero"/></clipPath><clipPath id="c7c2c81687"><path d="M 131.105469 523.910156 L 542.839844 523.910156 L 542.839844 628.910156 L 131.105469 628.910156 Z M 131.105469 523.910156 " clip-rule="nonzero"/></clipPath><clipPath id="14976feae0"><path d="M 169.371094 523.910156 L 504.5625 523.910156 C 525.695312 523.910156 542.828125 541.011719 542.828125 562.105469 L 542.828125 590.714844 C 542.828125 611.808594 525.695312 628.910156 504.5625 628.910156 L 169.371094 628.910156 C 148.238281 628.910156 131.105469 611.808594 131.105469 590.714844 L 131.105469 562.105469 C 131.105469 541.011719 148.238281 523.910156 169.371094 523.910156 " clip-rule="nonzero"/></clipPath></defs><g clip-path="url(#e74281e9ae)"><path fill="#e8d6a2" d="M 336.976562 198.421875 L 465.949219 123.980469 L 336.976562 49.542969 L 208 123.984375 L 336.976562 198.421875 " fill-opacity="1" fill-rule="nonzero"/></g><path fill="#b58850" d="M 389.679688 168 L 413.242188 154.402344 L 284.269531 79.964844 L 260.707031 93.5625 L 389.679688 168 " fill-opacity="1" fill-rule="nonzero"/><g clip-path="url(#4407f9d501)"><path fill="#b58850" d="M 465.179688 272.859375 L 336.207031 347.296875 L 336.207031 198.421875 L 465.179688 123.980469 L 465.179688 272.859375 " fill-opacity="1" fill-rule="nonzero"/></g><path fill="#815300" d="M 412.472656 303.277344 L 388.910156 316.878906 L 388.910156 296.097656 L 412.472656 282.5 L 412.472656 303.277344 " fill-opacity="1" fill-rule="nonzero"/><path fill="#815300" d="M 412.472656 175.183594 L 388.910156 188.78125 L 388.910156 168 L 412.472656 154.402344 L 412.472656 175.183594 " fill-opacity="1" fill-rule="nonzero"/><g clip-path="url(#4653c0cc3e)"><path fill="#d6b477" d="M 336.976562 347.296875 L 208 272.859375 L 208 123.980469 L 336.976562 198.421875 L 336.976562 347.296875 " fill-opacity="1" fill-rule="nonzero"/></g><path fill="#815300" d="M 263.605469 290.171875 L 240.433594 276.796875 L 240.433594 250.050781 L 263.605469 263.425781 Z M 239.242188 247.988281 L 239.242188 277.484375 L 264.796875 292.234375 L 264.796875 262.738281 L 239.242188 247.988281 " fill-opacity="1" fill-rule="nonzero"/><path fill="#815300" d="M 245.914062 274.066406 L 249.1875 275.957031 L 249.1875 263.511719 L 251.050781 264.585938 L 247.554688 256.902344 L 244.054688 260.546875 L 245.914062 261.621094 L 245.914062 274.066406 " fill-opacity="1" fill-rule="nonzero"/><path fill="#815300" d="M 254.847656 279.222656 L 258.121094 281.113281 L 258.121094 268.667969 L 259.984375 269.742188 L 256.484375 262.058594 L 252.988281 265.703125 L 254.847656 266.777344 L 254.847656 279.222656 " fill-opacity="1" fill-rule="nonzero"/><path fill="#815300" d="M 261.332031 284.40625 L 242.703125 273.65625 L 242.703125 276.085938 L 261.332031 286.835938 L 261.332031 284.40625 " fill-opacity="1" fill-rule="nonzero"/><path fill="#815300" d="M 293.378906 307.355469 L 270.207031 293.980469 L 270.207031 267.238281 L 293.378906 280.609375 Z M 269.015625 265.175781 L 269.015625 294.671875 L 294.570312 309.417969 L 294.570312 279.921875 L 269.015625 265.175781 " fill-opacity="1" fill-rule="nonzero"/><path fill="#815300" d="M 280.914062 289.84375 L 280.914062 295.707031 L 278.207031 294.144531 C 277.746094 293.878906 277.367188 294.097656 277.367188 294.628906 L 277.367188 295.355469 L 286.21875 300.460938 L 286.21875 299.738281 C 286.21875 299.203125 285.84375 298.550781 285.378906 298.285156 L 282.671875 296.722656 L 282.671875 290.859375 C 285.558594 292.03125 287.773438 290.449219 287.773438 286.980469 L 287.773438 280.871094 L 284.429688 278.941406 L 283.226562 281.328125 L 286.023438 282.941406 L 280.984375 286.828125 L 282.625 282.792969 L 280.027344 281.296875 L 281.761719 277.398438 L 275.8125 273.96875 L 275.8125 280.078125 C 275.8125 283.542969 278.03125 287.6875 280.914062 289.84375 " fill-opacity="1" fill-rule="nonzero"/><path fill="#815300" d="M 323.277344 324.609375 L 300.105469 311.238281 L 300.105469 284.492188 L 323.277344 297.867188 Z M 298.914062 282.429688 L 298.914062 311.925781 L 324.46875 326.671875 L 324.46875 297.179688 L 298.914062 282.429688 " fill-opacity="1" fill-rule="nonzero"/><path fill="#815300" d="M 308.039062 302.9375 C 308.976562 302.976562 310.039062 303 311.175781 303.511719 C 311.144531 303.574219 311.125 303.652344 311.125 303.75 L 311.125 312.085938 C 311.125 312.882812 310.5625 313.207031 309.871094 312.808594 C 309.179688 312.410156 308.617188 311.433594 308.617188 310.632812 C 308.617188 310.273438 308.363281 309.835938 308.050781 309.65625 C 307.738281 309.476562 307.484375 309.625 307.484375 309.984375 C 307.484375 311.5 308.554688 313.351562 309.871094 314.113281 C 311.1875 314.871094 312.257812 314.253906 312.257812 312.734375 L 312.257812 304.398438 C 312.257812 304.304688 312.238281 304.207031 312.207031 304.109375 C 313.34375 304.90625 314.40625 306.109375 315.34375 307.148438 C 316.417969 307.195312 317.28125 307 318.609375 307.769531 C 319.339844 308.1875 320.417969 309.273438 321.082031 309.835938 C 320.660156 305.277344 316.914062 299.367188 312.253906 296.398438 L 312.257812 294.375 C 312.257812 294.015625 312.003906 293.578125 311.691406 293.398438 C 311.378906 293.21875 311.125 293.363281 311.125 293.726562 L 311.125 295.734375 C 306.46875 293.339844 302.722656 294.925781 302.300781 298.996094 C 302.964844 299.195312 304.042969 299.363281 304.773438 299.78125 C 306.101562 300.546875 306.964844 301.738281 308.039062 302.9375 " fill-opacity="1" fill-rule="nonzero"/><g clip-path="url(#440be1a507)"><g clip-path="url(#2aa7bf230f)"><path stroke-linecap="butt" transform="matrix(0.750363, 0, 0, 0.748997, 131.105318, 392.51335)" fill="none" stroke-linejoin="miter" d="M 50.996346 -0.00217772 L 497.701967 -0.00217772 C 525.865416 -0.00217772 548.698113 22.830445 548.698113 50.99833 L 548.698113 89.190038 C 548.698113 117.357923 525.865416 140.185331 497.701967 140.185331 L 50.996346 140.185331 C 22.832897 140.185331 0.000200867 117.357923 0.000200867 89.190038 L 0.000200867 50.99833 C 0.000200867 22.830445 22.832897 -0.00217772 50.996346 -0.00217772 " stroke="#526479" stroke-width="6" stroke-opacity="1" stroke-miterlimit="4"/></g></g><g fill="#526479" fill-opacity="1"><g transform="translate(249.626889, 460.013346)"><g><path d="M 3.953125 0 L 3.953125 -28.859375 L 8.359375 -28.859375 L 13.90625 -13.46875 C 14.257812 -12.46875 14.601562 -11.460938 14.9375 -10.453125 C 15.269531 -9.441406 15.613281 -8.4375 15.96875 -7.4375 L 16.140625 -7.4375 C 16.492188 -8.4375 16.820312 -9.441406 17.125 -10.453125 C 17.4375 -11.460938 17.769531 -12.46875 18.125 -13.46875 L 23.578125 -28.859375 L 28.03125 -28.859375 L 28.03125 0 L 24.59375 0 L 24.59375 -15.890625 C 24.59375 -17.171875 24.648438 -18.585938 24.765625 -20.140625 C 24.890625 -21.703125 24.992188 -23.128906 25.078125 -24.421875 L 24.90625 -24.421875 L 22.609375 -17.859375 L 17.15625 -2.90625 L 14.734375 -2.90625 L 9.28125 -17.859375 L 7 -24.421875 L 6.8125 -24.421875 C 6.90625 -23.128906 7.003906 -21.703125 7.109375 -20.140625 C 7.210938 -18.585938 7.265625 -17.171875 7.265625 -15.890625 L 7.265625 0 Z M 3.953125 0 "/></g></g></g><g fill="#526479" fill-opacity="1"><g transform="translate(281.609187, 460.013346)"><g><path d="M 12.28125 0.53125 C 10.84375 0.53125 9.5 0.273438 8.25 -0.234375 C 7 -0.753906 5.910156 -1.488281 4.984375 -2.4375 C 4.066406 -3.394531 3.34375 -4.5625 2.8125 -5.9375 C 2.289062 -7.320312 2.03125 -8.890625 2.03125 -10.640625 C 2.03125 -12.398438 2.300781 -13.976562 2.84375 -15.375 C 3.382812 -16.769531 4.101562 -17.953125 5 -18.921875 C 5.894531 -19.890625 6.910156 -20.628906 8.046875 -21.140625 C 9.191406 -21.648438 10.378906 -21.90625 11.609375 -21.90625 C 12.960938 -21.90625 14.175781 -21.671875 15.25 -21.203125 C 16.320312 -20.734375 17.21875 -20.054688 17.9375 -19.171875 C 18.65625 -18.296875 19.203125 -17.242188 19.578125 -16.015625 C 19.960938 -14.785156 20.15625 -13.40625 20.15625 -11.875 C 20.15625 -11.5 20.144531 -11.125 20.125 -10.75 C 20.113281 -10.382812 20.078125 -10.070312 20.015625 -9.8125 L 5.59375 -9.8125 C 5.738281 -7.519531 6.445312 -5.707031 7.71875 -4.375 C 9 -3.039062 10.664062 -2.375 12.71875 -2.375 C 13.738281 -2.375 14.679688 -2.523438 15.546875 -2.828125 C 16.421875 -3.140625 17.253906 -3.546875 18.046875 -4.046875 L 19.3125 -1.671875 C 18.375 -1.085938 17.332031 -0.570312 16.1875 -0.125 C 15.039062 0.3125 13.738281 0.53125 12.28125 0.53125 Z M 5.546875 -12.40625 L 16.984375 -12.40625 C 16.984375 -14.570312 16.519531 -16.21875 15.59375 -17.34375 C 14.675781 -18.476562 13.378906 -19.046875 11.703125 -19.046875 C 10.941406 -19.046875 10.210938 -18.898438 9.515625 -18.609375 C 8.828125 -18.316406 8.203125 -17.882812 7.640625 -17.3125 C 7.085938 -16.738281 6.628906 -16.039062 6.265625 -15.21875 C 5.898438 -14.394531 5.660156 -13.457031 5.546875 -12.40625 Z M 5.546875 -12.40625 "/></g></g></g><g fill="#526479" fill-opacity="1"><g transform="translate(303.429304, 460.013346)"><g><path d="M 10.34375 0.53125 C 9.195312 0.53125 8.234375 0.351562 7.453125 0 C 6.679688 -0.351562 6.050781 -0.835938 5.5625 -1.453125 C 5.082031 -2.066406 4.738281 -2.8125 4.53125 -3.6875 C 4.320312 -4.570312 4.21875 -5.539062 4.21875 -6.59375 L 4.21875 -18.4375 L 1.0625 -18.4375 L 1.0625 -21.15625 L 4.40625 -21.390625 L 4.84375 -27.375 L 7.875 -27.375 L 7.875 -21.390625 L 13.640625 -21.390625 L 13.640625 -18.4375 L 7.875 -18.4375 L 7.875 -6.5625 C 7.875 -5.238281 8.113281 -4.21875 8.59375 -3.5 C 9.082031 -2.78125 9.941406 -2.421875 11.171875 -2.421875 C 11.554688 -2.421875 11.96875 -2.476562 12.40625 -2.59375 C 12.84375 -2.707031 13.238281 -2.835938 13.59375 -2.984375 L 14.296875 -0.265625 C 13.710938 -0.0546875 13.078125 0.125 12.390625 0.28125 C 11.703125 0.445312 11.019531 0.53125 10.34375 0.53125 Z M 10.34375 0.53125 "/></g></g></g><g fill="#526479" fill-opacity="1"><g transform="translate(318.298658, 460.013346)"><g><path d="M 8.53125 0.53125 C 6.75 0.53125 5.257812 0.00390625 4.0625 -1.046875 C 2.875 -2.109375 2.28125 -3.609375 2.28125 -5.546875 C 2.28125 -7.890625 3.320312 -9.679688 5.40625 -10.921875 C 7.488281 -12.171875 10.820312 -13.046875 15.40625 -13.546875 C 15.40625 -14.222656 15.335938 -14.882812 15.203125 -15.53125 C 15.066406 -16.175781 14.835938 -16.75 14.515625 -17.25 C 14.191406 -17.75 13.742188 -18.148438 13.171875 -18.453125 C 12.597656 -18.765625 11.875 -18.921875 11 -18.921875 C 9.769531 -18.921875 8.609375 -18.6875 7.515625 -18.21875 C 6.429688 -17.75 5.46875 -17.21875 4.625 -16.625 L 3.21875 -19.140625 C 4.207031 -19.785156 5.421875 -20.40625 6.859375 -21 C 8.296875 -21.601562 9.878906 -21.90625 11.609375 -21.90625 C 14.222656 -21.90625 16.113281 -21.101562 17.28125 -19.5 C 18.457031 -17.90625 19.046875 -15.773438 19.046875 -13.109375 L 19.046875 0 L 16.0625 0 L 15.75 -2.546875 L 15.625 -2.546875 C 14.59375 -1.703125 13.488281 -0.976562 12.3125 -0.375 C 11.144531 0.226562 9.882812 0.53125 8.53125 0.53125 Z M 9.59375 -2.375 C 10.613281 -2.375 11.578125 -2.613281 12.484375 -3.09375 C 13.398438 -3.582031 14.375 -4.296875 15.40625 -5.234375 L 15.40625 -11.171875 C 13.613281 -10.941406 12.109375 -10.664062 10.890625 -10.34375 C 9.671875 -10.019531 8.6875 -9.632812 7.9375 -9.1875 C 7.1875 -8.75 6.644531 -8.242188 6.3125 -7.671875 C 5.976562 -7.097656 5.8125 -6.476562 5.8125 -5.8125 C 5.8125 -4.570312 6.175781 -3.6875 6.90625 -3.15625 C 7.644531 -2.632812 8.539062 -2.375 9.59375 -2.375 Z M 9.59375 -2.375 "/></g></g></g><g fill="#526479" fill-opacity="1"><g transform="translate(340.470704, 460.013346)"><g><path d="M 10.90625 0.53125 C 8.207031 0.53125 6.054688 -0.4375 4.453125 -2.375 C 2.859375 -4.3125 2.0625 -7.066406 2.0625 -10.640625 C 2.0625 -12.378906 2.316406 -13.941406 2.828125 -15.328125 C 3.347656 -16.722656 4.03125 -17.90625 4.875 -18.875 C 5.726562 -19.84375 6.710938 -20.585938 7.828125 -21.109375 C 8.941406 -21.640625 10.117188 -21.90625 11.359375 -21.90625 C 12.585938 -21.90625 13.65625 -21.6875 14.5625 -21.25 C 15.46875 -20.8125 16.394531 -20.210938 17.34375 -19.453125 L 17.15625 -23.09375 L 17.15625 -31.328125 L 20.8125 -31.328125 L 20.8125 0 L 17.8125 0 L 17.515625 -2.515625 L 17.375 -2.515625 C 16.53125 -1.691406 15.554688 -0.976562 14.453125 -0.375 C 13.347656 0.226562 12.164062 0.53125 10.90625 0.53125 Z M 11.703125 -2.515625 C 12.703125 -2.515625 13.640625 -2.753906 14.515625 -3.234375 C 15.398438 -3.710938 16.28125 -4.453125 17.15625 -5.453125 L 17.15625 -16.625 C 16.25 -17.445312 15.375 -18.023438 14.53125 -18.359375 C 13.695312 -18.703125 12.84375 -18.875 11.96875 -18.875 C 11.113281 -18.875 10.3125 -18.675781 9.5625 -18.28125 C 8.820312 -17.882812 8.171875 -17.328125 7.609375 -16.609375 C 7.054688 -15.890625 6.617188 -15.03125 6.296875 -14.03125 C 5.972656 -13.039062 5.8125 -11.925781 5.8125 -10.6875 C 5.8125 -8.101562 6.320312 -6.09375 7.34375 -4.65625 C 8.375 -3.226562 9.828125 -2.515625 11.703125 -2.515625 Z M 11.703125 -2.515625 "/></g></g></g><g fill="#526479" fill-opacity="1"><g transform="translate(364.886352, 460.013346)"><g><path d="M 8.53125 0.53125 C 6.75 0.53125 5.257812 0.00390625 4.0625 -1.046875 C 2.875 -2.109375 2.28125 -3.609375 2.28125 -5.546875 C 2.28125 -7.890625 3.320312 -9.679688 5.40625 -10.921875 C 7.488281 -12.171875 10.820312 -13.046875 15.40625 -13.546875 C 15.40625 -14.222656 15.335938 -14.882812 15.203125 -15.53125 C 15.066406 -16.175781 14.835938 -16.75 14.515625 -17.25 C 14.191406 -17.75 13.742188 -18.148438 13.171875 -18.453125 C 12.597656 -18.765625 11.875 -18.921875 11 -18.921875 C 9.769531 -18.921875 8.609375 -18.6875 7.515625 -18.21875 C 6.429688 -17.75 5.46875 -17.21875 4.625 -16.625 L 3.21875 -19.140625 C 4.207031 -19.785156 5.421875 -20.40625 6.859375 -21 C 8.296875 -21.601562 9.878906 -21.90625 11.609375 -21.90625 C 14.222656 -21.90625 16.113281 -21.101562 17.28125 -19.5 C 18.457031 -17.90625 19.046875 -15.773438 19.046875 -13.109375 L 19.046875 0 L 16.0625 0 L 15.75 -2.546875 L 15.625 -2.546875 C 14.59375 -1.703125 13.488281 -0.976562 12.3125 -0.375 C 11.144531 0.226562 9.882812 0.53125 8.53125 0.53125 Z M 9.59375 -2.375 C 10.613281 -2.375 11.578125 -2.613281 12.484375 -3.09375 C 13.398438 -3.582031 14.375 -4.296875 15.40625 -5.234375 L 15.40625 -11.171875 C 13.613281 -10.941406 12.109375 -10.664062 10.890625 -10.34375 C 9.671875 -10.019531 8.6875 -9.632812 7.9375 -9.1875 C 7.1875 -8.75 6.644531 -8.242188 6.3125 -7.671875 C 5.976562 -7.097656 5.8125 -6.476562 5.8125 -5.8125 C 5.8125 -4.570312 6.175781 -3.6875 6.90625 -3.15625 C 7.644531 -2.632812 8.539062 -2.375 9.59375 -2.375 Z M 9.59375 -2.375 "/></g></g></g><g fill="#526479" fill-opacity="1"><g transform="translate(387.058397, 460.013346)"><g><path d="M 10.34375 0.53125 C 9.195312 0.53125 8.234375 0.351562 7.453125 0 C 6.679688 -0.351562 6.050781 -0.835938 5.5625 -1.453125 C 5.082031 -2.066406 4.738281 -2.8125 4.53125 -3.6875 C 4.320312 -4.570312 4.21875 -5.539062 4.21875 -6.59375 L 4.21875 -18.4375 L 1.0625 -18.4375 L 1.0625 -21.15625 L 4.40625 -21.390625 L 4.84375 -27.375 L 7.875 -27.375 L 7.875 -21.390625 L 13.640625 -21.390625 L 13.640625 -18.4375 L 7.875 -18.4375 L 7.875 -6.5625 C 7.875 -5.238281 8.113281 -4.21875 8.59375 -3.5 C 9.082031 -2.78125 9.941406 -2.421875 11.171875 -2.421875 C 11.554688 -2.421875 11.96875 -2.476562 12.40625 -2.59375 C 12.84375 -2.707031 13.238281 -2.835938 13.59375 -2.984375 L 14.296875 -0.265625 C 13.710938 -0.0546875 13.078125 0.125 12.390625 0.28125 C 11.703125 0.445312 11.019531 0.53125 10.34375 0.53125 Z M 10.34375 0.53125 "/></g></g></g><g fill="#526479" fill-opacity="1"><g transform="translate(401.927751, 460.013346)"><g><path d="M 8.53125 0.53125 C 6.75 0.53125 5.257812 0.00390625 4.0625 -1.046875 C 2.875 -2.109375 2.28125 -3.609375 2.28125 -5.546875 C 2.28125 -7.890625 3.320312 -9.679688 5.40625 -10.921875 C 7.488281 -12.171875 10.820312 -13.046875 15.40625 -13.546875 C 15.40625 -14.222656 15.335938 -14.882812 15.203125 -15.53125 C 15.066406 -16.175781 14.835938 -16.75 14.515625 -17.25 C 14.191406 -17.75 13.742188 -18.148438 13.171875 -18.453125 C 12.597656 -18.765625 11.875 -18.921875 11 -18.921875 C 9.769531 -18.921875 8.609375 -18.6875 7.515625 -18.21875 C 6.429688 -17.75 5.46875 -17.21875 4.625 -16.625 L 3.21875 -19.140625 C 4.207031 -19.785156 5.421875 -20.40625 6.859375 -21 C 8.296875 -21.601562 9.878906 -21.90625 11.609375 -21.90625 C 14.222656 -21.90625 16.113281 -21.101562 17.28125 -19.5 C 18.457031 -17.90625 19.046875 -15.773438 19.046875 -13.109375 L 19.046875 0 L 16.0625 0 L 15.75 -2.546875 L 15.625 -2.546875 C 14.59375 -1.703125 13.488281 -0.976562 12.3125 -0.375 C 11.144531 0.226562 9.882812 0.53125 8.53125 0.53125 Z M 9.59375 -2.375 C 10.613281 -2.375 11.578125 -2.613281 12.484375 -3.09375 C 13.398438 -3.582031 14.375 -4.296875 15.40625 -5.234375 L 15.40625 -11.171875 C 13.613281 -10.941406 12.109375 -10.664062 10.890625 -10.34375 C 9.671875 -10.019531 8.6875 -9.632812 7.9375 -9.1875 C 7.1875 -8.75 6.644531 -8.242188 6.3125 -7.671875 C 5.976562 -7.097656 5.8125 -6.476562 5.8125 -5.8125 C 5.8125 -4.570312 6.175781 -3.6875 6.90625 -3.15625 C 7.644531 -2.632812 8.539062 -2.375 9.59375 -2.375 Z M 9.59375 -2.375 "/></g></g></g><g clip-path="url(#bb61d95830)"><g clip-path="url(#f7183a42fa)"><path fill="#ececec" d="M 131.089844 523.910156 L 543.113281 523.910156 L 543.113281 629.75 L 131.089844 629.75 Z M 131.089844 523.910156 " fill-opacity="1" fill-rule="nonzero"/></g></g><g clip-path="url(#c7c2c81687)"><g clip-path="url(#14976feae0)"><path stroke-linecap="butt" transform="matrix(0.750363, 0, 0, 0.748997, 131.105318, 523.91097)" fill="none" stroke-linejoin="miter" d="M 50.996346 -0.00108598 L 497.701967 -0.00108598 C 525.865416 -0.00108598 548.698113 22.831537 548.698113 50.994206 L 548.698113 89.19113 C 548.698113 117.353799 525.865416 140.186422 497.701967 140.186422 L 50.996346 140.186422 C 22.832897 140.186422 0.000200867 117.353799 0.000200867 89.19113 L 0.000200867 50.994206 C 0.000200867 22.831537 22.832897 -0.00108598 50.996346 -0.00108598 " stroke="#526479" stroke-width="6" stroke-opacity="1" stroke-miterlimit="4"/></g></g><g fill="#526479" fill-opacity="1"><g transform="translate(294.849543, 591.410966)"><g><path d="M 3.953125 0 L 3.953125 -28.859375 L 20.59375 -28.859375 L 20.59375 -25.78125 L 7.609375 -25.78125 L 7.609375 -16.015625 L 18.609375 -16.015625 L 18.609375 -12.9375 L 7.609375 -12.9375 L 7.609375 0 Z M 3.953125 0 "/></g></g></g><g fill="#526479" fill-opacity="1"><g transform="translate(316.581666, 591.410966)"><g><path d="M 3.609375 0 L 3.609375 -21.390625 L 7.21875 -21.390625 L 7.21875 0 Z M 5.453125 -25.78125 C 4.753906 -25.78125 4.160156 -26 3.671875 -26.4375 C 3.191406 -26.882812 2.953125 -27.441406 2.953125 -28.109375 C 2.953125 -28.816406 3.191406 -29.382812 3.671875 -29.8125 C 4.160156 -30.238281 4.753906 -30.453125 5.453125 -30.453125 C 6.160156 -30.453125 6.753906 -30.238281 7.234375 -29.8125 C 7.722656 -29.382812 7.96875 -28.816406 7.96875 -28.109375 C 7.96875 -27.441406 7.722656 -26.882812 7.234375 -26.4375 C 6.753906 -26 6.160156 -25.78125 5.453125 -25.78125 Z M 5.453125 -25.78125 "/></g></g></g><g fill="#526479" fill-opacity="1"><g transform="translate(327.403737, 591.410966)"><g><path d="M 7.4375 0.53125 C 6.0625 0.53125 5.078125 0.117188 4.484375 -0.703125 C 3.898438 -1.523438 3.609375 -2.726562 3.609375 -4.3125 L 3.609375 -31.328125 L 7.21875 -31.328125 L 7.21875 -4.046875 C 7.21875 -3.460938 7.316406 -3.050781 7.515625 -2.8125 C 7.722656 -2.582031 7.960938 -2.46875 8.234375 -2.46875 C 8.347656 -2.46875 8.457031 -2.46875 8.5625 -2.46875 C 8.664062 -2.46875 8.816406 -2.492188 9.015625 -2.546875 L 9.5 0.171875 C 9.269531 0.296875 8.992188 0.382812 8.671875 0.4375 C 8.347656 0.5 7.9375 0.53125 7.4375 0.53125 Z M 7.4375 0.53125 "/></g></g></g><g fill="#526479" fill-opacity="1"><g transform="translate(338.621739, 591.410966)"><g><path d="M 12.28125 0.53125 C 10.84375 0.53125 9.5 0.273438 8.25 -0.234375 C 7 -0.753906 5.910156 -1.488281 4.984375 -2.4375 C 4.066406 -3.394531 3.34375 -4.5625 2.8125 -5.9375 C 2.289062 -7.320312 2.03125 -8.890625 2.03125 -10.640625 C 2.03125 -12.398438 2.300781 -13.976562 2.84375 -15.375 C 3.382812 -16.769531 4.101562 -17.953125 5 -18.921875 C 5.894531 -19.890625 6.910156 -20.628906 8.046875 -21.140625 C 9.191406 -21.648438 10.378906 -21.90625 11.609375 -21.90625 C 12.960938 -21.90625 14.175781 -21.671875 15.25 -21.203125 C 16.320312 -20.734375 17.21875 -20.054688 17.9375 -19.171875 C 18.65625 -18.296875 19.203125 -17.242188 19.578125 -16.015625 C 19.960938 -14.785156 20.15625 -13.40625 20.15625 -11.875 C 20.15625 -11.5 20.144531 -11.125 20.125 -10.75 C 20.113281 -10.382812 20.078125 -10.070312 20.015625 -9.8125 L 5.59375 -9.8125 C 5.738281 -7.519531 6.445312 -5.707031 7.71875 -4.375 C 9 -3.039062 10.664062 -2.375 12.71875 -2.375 C 13.738281 -2.375 14.679688 -2.523438 15.546875 -2.828125 C 16.421875 -3.140625 17.253906 -3.546875 18.046875 -4.046875 L 19.3125 -1.671875 C 18.375 -1.085938 17.332031 -0.570312 16.1875 -0.125 C 15.039062 0.3125 13.738281 0.53125 12.28125 0.53125 Z M 5.546875 -12.40625 L 16.984375 -12.40625 C 16.984375 -14.570312 16.519531 -16.21875 15.59375 -17.34375 C 14.675781 -18.476562 13.378906 -19.046875 11.703125 -19.046875 C 10.941406 -19.046875 10.210938 -18.898438 9.515625 -18.609375 C 8.828125 -18.316406 8.203125 -17.882812 7.640625 -17.3125 C 7.085938 -16.738281 6.628906 -16.039062 6.265625 -15.21875 C 5.898438 -14.394531 5.660156 -13.457031 5.546875 -12.40625 Z M 5.546875 -12.40625 "/></g></g></g><g fill="#526479" fill-opacity="1"><g transform="translate(360.441856, 591.410966)"><g><path d="M 9.203125 0.53125 C 7.671875 0.53125 6.210938 0.253906 4.828125 -0.296875 C 3.453125 -0.859375 2.253906 -1.566406 1.234375 -2.421875 L 3.03125 -4.84375 C 3.96875 -4.082031 4.925781 -3.460938 5.90625 -2.984375 C 6.894531 -2.515625 8.035156 -2.28125 9.328125 -2.28125 C 10.734375 -2.28125 11.785156 -2.601562 12.484375 -3.25 C 13.191406 -3.894531 13.546875 -4.6875 13.546875 -5.625 C 13.546875 -6.1875 13.398438 -6.671875 13.109375 -7.078125 C 12.816406 -7.492188 12.441406 -7.851562 11.984375 -8.15625 C 11.535156 -8.46875 11.015625 -8.738281 10.421875 -8.96875 C 9.835938 -9.207031 9.253906 -9.445312 8.671875 -9.6875 C 7.910156 -9.945312 7.144531 -10.242188 6.375 -10.578125 C 5.613281 -10.921875 4.929688 -11.332031 4.328125 -11.8125 C 3.734375 -12.300781 3.242188 -12.863281 2.859375 -13.5 C 2.472656 -14.144531 2.28125 -14.925781 2.28125 -15.84375 C 2.28125 -16.6875 2.445312 -17.484375 2.78125 -18.234375 C 3.125 -18.984375 3.609375 -19.628906 4.234375 -20.171875 C 4.867188 -20.710938 5.640625 -21.132812 6.546875 -21.4375 C 7.460938 -21.75 8.492188 -21.90625 9.640625 -21.90625 C 10.984375 -21.90625 12.21875 -21.671875 13.34375 -21.203125 C 14.476562 -20.734375 15.457031 -20.160156 16.28125 -19.484375 L 14.5625 -17.203125 C 13.832031 -17.765625 13.070312 -18.21875 12.28125 -18.5625 C 11.488281 -18.914062 10.625 -19.09375 9.6875 -19.09375 C 8.332031 -19.09375 7.335938 -18.785156 6.703125 -18.171875 C 6.078125 -17.554688 5.765625 -16.835938 5.765625 -16.015625 C 5.765625 -15.515625 5.894531 -15.082031 6.15625 -14.71875 C 6.425781 -14.351562 6.78125 -14.03125 7.21875 -13.75 C 7.65625 -13.46875 8.160156 -13.21875 8.734375 -13 C 9.304688 -12.78125 9.898438 -12.550781 10.515625 -12.3125 C 11.273438 -12.019531 12.039062 -11.710938 12.8125 -11.390625 C 13.59375 -11.066406 14.289062 -10.660156 14.90625 -10.171875 C 15.53125 -9.691406 16.039062 -9.097656 16.4375 -8.390625 C 16.832031 -7.691406 17.03125 -6.847656 17.03125 -5.859375 C 17.03125 -4.972656 16.859375 -4.148438 16.515625 -3.390625 C 16.179688 -2.628906 15.679688 -1.953125 15.015625 -1.359375 C 14.359375 -0.773438 13.539062 -0.316406 12.5625 0.015625 C 11.582031 0.359375 10.460938 0.53125 9.203125 0.53125 Z M 9.203125 0.53125 "/></g></g></g></svg>