<svg xmlns="http://www.w3.org/2000/svg" xmlns:xlink="http://www.w3.org/1999/xlink" width="1920" zoomAndPan="magnify" viewBox="0 0 1440 809.999993" height="1080" preserveAspectRatio="xMidYMid meet" version="1.0"><defs><g/><clipPath id="cdca48d920"><path d="M 181.398438 190.585938 L 318.648438 190.585938 L 318.648438 344.335938 L 181.398438 344.335938 Z M 181.398438 190.585938 " clip-rule="nonzero"/></clipPath><clipPath id="eb150c4a9c"><path d="M 44.28125 452.089844 L 456.015625 452.089844 L 456.015625 557.089844 L 44.28125 557.089844 Z M 44.28125 452.089844 " clip-rule="nonzero"/></clipPath><clipPath id="38b4f2ec8c"><path d="M 82.546875 452.089844 L 417.738281 452.089844 C 438.871094 452.089844 456.003906 469.191406 456.003906 490.289062 L 456.003906 518.894531 C 456.003906 539.988281 438.871094 557.089844 417.738281 557.089844 L 82.546875 557.089844 C 61.414062 557.089844 44.28125 539.988281 44.28125 518.894531 L 44.28125 490.289062 C 44.28125 469.191406 61.414062 452.089844 82.546875 452.089844 " clip-rule="nonzero"/></clipPath><clipPath id="f09996cd93"><path d="M 44.28125 583.488281 L 456.015625 583.488281 L 456.015625 688.488281 L 44.28125 688.488281 Z M 44.28125 583.488281 " clip-rule="nonzero"/></clipPath><clipPath id="b62211c7e3"><path d="M 82.546875 583.488281 L 417.738281 583.488281 C 438.871094 583.488281 456.003906 600.589844 456.003906 621.683594 L 456.003906 650.292969 C 456.003906 671.386719 438.871094 688.488281 417.738281 688.488281 L 82.546875 688.488281 C 61.414062 688.488281 44.28125 671.386719 44.28125 650.292969 L 44.28125 621.683594 C 44.28125 600.589844 61.414062 583.488281 82.546875 583.488281 " clip-rule="nonzero"/></clipPath></defs><path fill="#f9f9f9" d="M 250.023438 192.253906 L 183.191406 225.605469 L 250.023438 258.957031 L 316.855469 225.605469 Z M 250.023438 192.253906 " fill-opacity="1" fill-rule="nonzero"/><path fill="#ececec" d="M 250.023438 258.957031 L 250.023438 342.332031 L 316.855469 308.980469 L 316.855469 225.605469 Z M 250.023438 258.957031 " fill-opacity="1" fill-rule="nonzero"/><path fill="#cccccc" d="M 250.023438 258.957031 L 250.023438 342.332031 L 183.191406 308.980469 L 183.191406 225.605469 Z M 250.023438 258.957031 " fill-opacity="1" fill-rule="nonzero"/><g clip-path="url(#cdca48d920)"><path stroke-linecap="butt" transform="matrix(3.341657, 0, 0, 3.335141, 149.772918, 184.37481)" fill="none" stroke-linejoin="miter" d="M 30.000244 2.375332 L 10.000575 12.375378 L 10.000575 37.375494 L 30.000244 47.375541 L 49.999914 37.375494 L 49.999914 12.375378 Z M 30.000244 2.375332 " stroke="#4d4d4d" stroke-width="1" stroke-opacity="1" stroke-miterlimit="4"/></g><g fill="#526479" fill-opacity="1"><g transform="translate(178.363341, 394.19707)"><g><path d="M 3.234375 0 L 3.234375 -27.359375 L 10.953125 -27.359375 C 13.046875 -27.359375 14.929688 -27.09375 16.609375 -26.5625 C 18.296875 -26.03125 19.738281 -25.210938 20.9375 -24.109375 C 22.144531 -23.003906 23.066406 -21.597656 23.703125 -19.890625 C 24.347656 -18.179688 24.671875 -16.15625 24.671875 -13.8125 C 24.671875 -11.457031 24.347656 -9.410156 23.703125 -7.671875 C 23.066406 -5.941406 22.160156 -4.507812 20.984375 -3.375 C 19.804688 -2.238281 18.398438 -1.390625 16.765625 -0.828125 C 15.128906 -0.273438 13.304688 0 11.296875 0 Z M 9.40625 -5 L 10.578125 -5 C 11.753906 -5 12.816406 -5.148438 13.765625 -5.453125 C 14.710938 -5.765625 15.519531 -6.257812 16.1875 -6.9375 C 16.863281 -7.625 17.390625 -8.523438 17.765625 -9.640625 C 18.148438 -10.765625 18.34375 -12.15625 18.34375 -13.8125 C 18.34375 -15.425781 18.148438 -16.785156 17.765625 -17.890625 C 17.390625 -19.003906 16.863281 -19.890625 16.1875 -20.546875 C 15.519531 -21.203125 14.710938 -21.671875 13.765625 -21.953125 C 12.816406 -22.234375 11.753906 -22.375 10.578125 -22.375 L 9.40625 -22.375 Z M 9.40625 -5 "/></g></g></g><g fill="#526479" fill-opacity="1"><g transform="translate(205.010965, 394.19707)"><g><path d="M 7.96875 0.5 C 7.019531 0.5 6.160156 0.335938 5.390625 0.015625 C 4.617188 -0.304688 3.96875 -0.753906 3.4375 -1.328125 C 2.90625 -1.898438 2.492188 -2.5625 2.203125 -3.3125 C 1.910156 -4.070312 1.765625 -4.898438 1.765625 -5.796875 C 1.765625 -7.972656 2.6875 -9.675781 4.53125 -10.90625 C 6.375 -12.144531 9.351562 -12.972656 13.46875 -13.390625 C 13.414062 -14.304688 13.144531 -15.035156 12.65625 -15.578125 C 12.164062 -16.128906 11.347656 -16.40625 10.203125 -16.40625 C 9.304688 -16.40625 8.414062 -16.238281 7.53125 -15.90625 C 6.65625 -15.570312 5.710938 -15.109375 4.703125 -14.515625 L 2.46875 -18.59375 C 3.8125 -19.40625 5.21875 -20.0625 6.6875 -20.5625 C 8.15625 -21.0625 9.71875 -21.3125 11.375 -21.3125 C 14.0625 -21.3125 16.109375 -20.550781 17.515625 -19.03125 C 18.929688 -17.507812 19.640625 -15.140625 19.640625 -11.921875 L 19.640625 0 L 14.609375 0 L 14.1875 -2.140625 L 14.015625 -2.140625 C 13.117188 -1.359375 12.179688 -0.722656 11.203125 -0.234375 C 10.222656 0.253906 9.144531 0.5 7.96875 0.5 Z M 10.078125 -4.28125 C 10.773438 -4.28125 11.375 -4.429688 11.875 -4.734375 C 12.375 -5.046875 12.90625 -5.484375 13.46875 -6.046875 L 13.46875 -9.6875 C 11.289062 -9.382812 9.78125 -8.9375 8.9375 -8.34375 C 8.101562 -7.757812 7.6875 -7.0625 7.6875 -6.25 C 7.6875 -5.582031 7.898438 -5.085938 8.328125 -4.765625 C 8.765625 -4.441406 9.347656 -4.28125 10.078125 -4.28125 Z M 10.078125 -4.28125 "/></g></g></g><g fill="#526479" fill-opacity="1"><g transform="translate(227.126397, 394.19707)"><g><path d="M 10.75 0.5 C 9.457031 0.5 8.351562 0.304688 7.4375 -0.078125 C 6.53125 -0.472656 5.789062 -1.019531 5.21875 -1.71875 C 4.644531 -2.414062 4.222656 -3.257812 3.953125 -4.25 C 3.691406 -5.25 3.5625 -6.347656 3.5625 -7.546875 L 3.5625 -15.984375 L 0.71875 -15.984375 L 0.71875 -20.5625 L 3.90625 -20.8125 L 4.609375 -26.359375 L 9.734375 -26.359375 L 9.734375 -20.8125 L 14.734375 -20.8125 L 14.734375 -15.984375 L 9.734375 -15.984375 L 9.734375 -7.640625 C 9.734375 -6.460938 9.976562 -5.613281 10.46875 -5.09375 C 10.957031 -4.582031 11.609375 -4.328125 12.421875 -4.328125 C 12.753906 -4.328125 13.09375 -4.367188 13.4375 -4.453125 C 13.789062 -4.535156 14.109375 -4.632812 14.390625 -4.75 L 15.359375 -0.25 C 14.796875 -0.0820312 14.132812 0.0820312 13.375 0.25 C 12.625 0.414062 11.75 0.5 10.75 0.5 Z M 10.75 0.5 "/></g></g></g><g fill="#526479" fill-opacity="1"><g transform="translate(243.198902, 394.19707)"><g><path d="M 7.96875 0.5 C 7.019531 0.5 6.160156 0.335938 5.390625 0.015625 C 4.617188 -0.304688 3.96875 -0.753906 3.4375 -1.328125 C 2.90625 -1.898438 2.492188 -2.5625 2.203125 -3.3125 C 1.910156 -4.070312 1.765625 -4.898438 1.765625 -5.796875 C 1.765625 -7.972656 2.6875 -9.675781 4.53125 -10.90625 C 6.375 -12.144531 9.351562 -12.972656 13.46875 -13.390625 C 13.414062 -14.304688 13.144531 -15.035156 12.65625 -15.578125 C 12.164062 -16.128906 11.347656 -16.40625 10.203125 -16.40625 C 9.304688 -16.40625 8.414062 -16.238281 7.53125 -15.90625 C 6.65625 -15.570312 5.710938 -15.109375 4.703125 -14.515625 L 2.46875 -18.59375 C 3.8125 -19.40625 5.21875 -20.0625 6.6875 -20.5625 C 8.15625 -21.0625 9.71875 -21.3125 11.375 -21.3125 C 14.0625 -21.3125 16.109375 -20.550781 17.515625 -19.03125 C 18.929688 -17.507812 19.640625 -15.140625 19.640625 -11.921875 L 19.640625 0 L 14.609375 0 L 14.1875 -2.140625 L 14.015625 -2.140625 C 13.117188 -1.359375 12.179688 -0.722656 11.203125 -0.234375 C 10.222656 0.253906 9.144531 0.5 7.96875 0.5 Z M 10.078125 -4.28125 C 10.773438 -4.28125 11.375 -4.429688 11.875 -4.734375 C 12.375 -5.046875 12.90625 -5.484375 13.46875 -6.046875 L 13.46875 -9.6875 C 11.289062 -9.382812 9.78125 -8.9375 8.9375 -8.34375 C 8.101562 -7.757812 7.6875 -7.0625 7.6875 -6.25 C 7.6875 -5.582031 7.898438 -5.085938 8.328125 -4.765625 C 8.765625 -4.441406 9.347656 -4.28125 10.078125 -4.28125 Z M 10.078125 -4.28125 "/></g></g></g><g fill="#526479" fill-opacity="1"><g transform="translate(265.314334, 394.19707)"><g><path d="M 8.859375 0.5 C 7.484375 0.5 6.070312 0.234375 4.625 -0.296875 C 3.1875 -0.828125 1.9375 -1.523438 0.875 -2.390625 L 3.65625 -6.25 C 4.601562 -5.519531 5.507812 -4.972656 6.375 -4.609375 C 7.25 -4.253906 8.128906 -4.078125 9.015625 -4.078125 C 9.941406 -4.078125 10.613281 -4.226562 11.03125 -4.53125 C 11.457031 -4.84375 11.671875 -5.273438 11.671875 -5.828125 C 11.671875 -6.171875 11.550781 -6.472656 11.3125 -6.734375 C 11.070312 -7.003906 10.75 -7.25 10.34375 -7.46875 C 9.9375 -7.695312 9.476562 -7.898438 8.96875 -8.078125 C 8.46875 -8.265625 7.953125 -8.46875 7.421875 -8.6875 C 6.785156 -8.9375 6.144531 -9.226562 5.5 -9.5625 C 4.851562 -9.90625 4.265625 -10.320312 3.734375 -10.8125 C 3.203125 -11.300781 2.769531 -11.875 2.4375 -12.53125 C 2.101562 -13.1875 1.9375 -13.945312 1.9375 -14.8125 C 1.9375 -15.757812 2.125 -16.640625 2.5 -17.453125 C 2.875 -18.265625 3.410156 -18.953125 4.109375 -19.515625 C 4.804688 -20.078125 5.644531 -20.515625 6.625 -20.828125 C 7.601562 -21.148438 8.695312 -21.3125 9.90625 -21.3125 C 11.5 -21.3125 12.894531 -21.039062 14.09375 -20.5 C 15.300781 -19.957031 16.351562 -19.347656 17.25 -18.671875 L 14.484375 -14.984375 C 13.722656 -15.546875 12.976562 -15.976562 12.25 -16.28125 C 11.519531 -16.59375 10.796875 -16.75 10.078125 -16.75 C 8.503906 -16.75 7.71875 -16.203125 7.71875 -15.109375 C 7.71875 -14.773438 7.828125 -14.488281 8.046875 -14.25 C 8.273438 -14.007812 8.578125 -13.789062 8.953125 -13.59375 C 9.335938 -13.394531 9.773438 -13.207031 10.265625 -13.03125 C 10.753906 -12.851562 11.265625 -12.664062 11.796875 -12.46875 C 12.460938 -12.21875 13.125 -11.929688 13.78125 -11.609375 C 14.4375 -11.285156 15.035156 -10.882812 15.578125 -10.40625 C 16.128906 -9.925781 16.570312 -9.34375 16.90625 -8.65625 C 17.25 -7.976562 17.421875 -7.164062 17.421875 -6.21875 C 17.421875 -5.257812 17.238281 -4.375 16.875 -3.5625 C 16.507812 -2.75 15.960938 -2.039062 15.234375 -1.4375 C 14.503906 -0.84375 13.609375 -0.367188 12.546875 -0.015625 C 11.484375 0.328125 10.253906 0.5 8.859375 0.5 Z M 8.859375 0.5 "/></g></g></g><g fill="#526479" fill-opacity="1"><g transform="translate(283.904722, 394.19707)"><g><path d="M 12.046875 0.5 C 10.566406 0.5 9.179688 0.253906 7.890625 -0.234375 C 6.597656 -0.722656 5.476562 -1.4375 4.53125 -2.375 C 3.582031 -3.3125 2.84375 -4.453125 2.3125 -5.796875 C 1.78125 -7.140625 1.515625 -8.675781 1.515625 -10.40625 C 1.515625 -12.082031 1.789062 -13.597656 2.34375 -14.953125 C 2.90625 -16.316406 3.640625 -17.46875 4.546875 -18.40625 C 5.460938 -19.34375 6.503906 -20.0625 7.671875 -20.5625 C 8.847656 -21.0625 10.066406 -21.3125 11.328125 -21.3125 C 12.816406 -21.3125 14.113281 -21.0625 15.21875 -20.5625 C 16.320312 -20.0625 17.242188 -19.363281 17.984375 -18.46875 C 18.722656 -17.570312 19.273438 -16.515625 19.640625 -15.296875 C 20.003906 -14.078125 20.1875 -12.753906 20.1875 -11.328125 C 20.1875 -10.773438 20.15625 -10.242188 20.09375 -9.734375 C 20.039062 -9.234375 19.988281 -8.859375 19.9375 -8.609375 L 7.46875 -8.609375 C 7.75 -7.097656 8.367188 -5.984375 9.328125 -5.265625 C 10.296875 -4.554688 11.484375 -4.203125 12.890625 -4.203125 C 14.367188 -4.203125 15.863281 -4.660156 17.375 -5.578125 L 19.4375 -1.84375 C 18.375 -1.113281 17.191406 -0.539062 15.890625 -0.125 C 14.585938 0.289062 13.304688 0.5 12.046875 0.5 Z M 7.421875 -12.671875 L 14.9375 -12.671875 C 14.9375 -13.847656 14.671875 -14.800781 14.140625 -15.53125 C 13.609375 -16.257812 12.710938 -16.625 11.453125 -16.625 C 10.472656 -16.625 9.613281 -16.300781 8.875 -15.65625 C 8.132812 -15.007812 7.648438 -14.015625 7.421875 -12.671875 Z M 7.421875 -12.671875 "/></g></g></g><g fill="#526479" fill-opacity="1"><g transform="translate(305.642476, 394.19707)"><g><path d="M 10.75 0.5 C 9.457031 0.5 8.351562 0.304688 7.4375 -0.078125 C 6.53125 -0.472656 5.789062 -1.019531 5.21875 -1.71875 C 4.644531 -2.414062 4.222656 -3.257812 3.953125 -4.25 C 3.691406 -5.25 3.5625 -6.347656 3.5625 -7.546875 L 3.5625 -15.984375 L 0.71875 -15.984375 L 0.71875 -20.5625 L 3.90625 -20.8125 L 4.609375 -26.359375 L 9.734375 -26.359375 L 9.734375 -20.8125 L 14.734375 -20.8125 L 14.734375 -15.984375 L 9.734375 -15.984375 L 9.734375 -7.640625 C 9.734375 -6.460938 9.976562 -5.613281 10.46875 -5.09375 C 10.957031 -4.582031 11.609375 -4.328125 12.421875 -4.328125 C 12.753906 -4.328125 13.09375 -4.367188 13.4375 -4.453125 C 13.789062 -4.535156 14.109375 -4.632812 14.390625 -4.75 L 15.359375 -0.25 C 14.796875 -0.0820312 14.132812 0.0820312 13.375 0.25 C 12.625 0.414062 11.75 0.5 10.75 0.5 Z M 10.75 0.5 "/></g></g></g><g clip-path="url(#eb150c4a9c)"><g clip-path="url(#38b4f2ec8c)"><path stroke-linecap="butt" transform="matrix(0.750363, 0, 0, 0.748997, 44.28027, 452.091213)" fill="none" stroke-linejoin="miter" d="M 50.997451 -0.00182845 L 497.703072 -0.00182845 C 525.866521 -0.00182845 548.699217 22.830795 548.699217 50.998679 L 548.699217 89.190388 C 548.699217 117.353057 525.866521 140.18568 497.703072 140.18568 L 50.997451 140.18568 C 22.834002 140.18568 0.00130551 117.353057 0.00130551 89.190388 L 0.00130551 50.998679 C 0.00130551 22.830795 22.834002 -0.00182845 50.997451 -0.00182845 " stroke="#526479" stroke-width="6" stroke-opacity="1" stroke-miterlimit="4"/></g></g><g fill="#526479" fill-opacity="1"><g transform="translate(162.801846, 519.59121)"><g><path d="M 3.953125 0 L 3.953125 -28.859375 L 8.359375 -28.859375 L 13.90625 -13.46875 C 14.257812 -12.46875 14.601562 -11.460938 14.9375 -10.453125 C 15.269531 -9.441406 15.613281 -8.4375 15.96875 -7.4375 L 16.140625 -7.4375 C 16.492188 -8.4375 16.820312 -9.441406 17.125 -10.453125 C 17.4375 -11.460938 17.769531 -12.46875 18.125 -13.46875 L 23.578125 -28.859375 L 28.03125 -28.859375 L 28.03125 0 L 24.59375 0 L 24.59375 -15.890625 C 24.59375 -17.171875 24.648438 -18.585938 24.765625 -20.140625 C 24.890625 -21.703125 24.992188 -23.128906 25.078125 -24.421875 L 24.90625 -24.421875 L 22.609375 -17.859375 L 17.15625 -2.90625 L 14.734375 -2.90625 L 9.28125 -17.859375 L 7 -24.421875 L 6.8125 -24.421875 C 6.90625 -23.128906 7.003906 -21.703125 7.109375 -20.140625 C 7.210938 -18.585938 7.265625 -17.171875 7.265625 -15.890625 L 7.265625 0 Z M 3.953125 0 "/></g></g></g><g fill="#526479" fill-opacity="1"><g transform="translate(194.784144, 519.59121)"><g><path d="M 12.28125 0.53125 C 10.84375 0.53125 9.5 0.273438 8.25 -0.234375 C 7 -0.753906 5.910156 -1.488281 4.984375 -2.4375 C 4.066406 -3.394531 3.34375 -4.5625 2.8125 -5.9375 C 2.289062 -7.320312 2.03125 -8.890625 2.03125 -10.640625 C 2.03125 -12.398438 2.300781 -13.976562 2.84375 -15.375 C 3.382812 -16.769531 4.101562 -17.953125 5 -18.921875 C 5.894531 -19.890625 6.910156 -20.628906 8.046875 -21.140625 C 9.191406 -21.648438 10.378906 -21.90625 11.609375 -21.90625 C 12.960938 -21.90625 14.175781 -21.671875 15.25 -21.203125 C 16.320312 -20.734375 17.21875 -20.054688 17.9375 -19.171875 C 18.65625 -18.296875 19.203125 -17.242188 19.578125 -16.015625 C 19.960938 -14.785156 20.15625 -13.40625 20.15625 -11.875 C 20.15625 -11.5 20.144531 -11.125 20.125 -10.75 C 20.113281 -10.382812 20.078125 -10.070312 20.015625 -9.8125 L 5.59375 -9.8125 C 5.738281 -7.519531 6.445312 -5.707031 7.71875 -4.375 C 9 -3.039062 10.664062 -2.375 12.71875 -2.375 C 13.738281 -2.375 14.679688 -2.523438 15.546875 -2.828125 C 16.421875 -3.140625 17.253906 -3.546875 18.046875 -4.046875 L 19.3125 -1.671875 C 18.375 -1.085938 17.332031 -0.570312 16.1875 -0.125 C 15.039062 0.3125 13.738281 0.53125 12.28125 0.53125 Z M 5.546875 -12.40625 L 16.984375 -12.40625 C 16.984375 -14.570312 16.519531 -16.21875 15.59375 -17.34375 C 14.675781 -18.476562 13.378906 -19.046875 11.703125 -19.046875 C 10.941406 -19.046875 10.210938 -18.898438 9.515625 -18.609375 C 8.828125 -18.316406 8.203125 -17.882812 7.640625 -17.3125 C 7.085938 -16.738281 6.628906 -16.039062 6.265625 -15.21875 C 5.898438 -14.394531 5.660156 -13.457031 5.546875 -12.40625 Z M 5.546875 -12.40625 "/></g></g></g><g fill="#526479" fill-opacity="1"><g transform="translate(216.604261, 519.59121)"><g><path d="M 10.34375 0.53125 C 9.195312 0.53125 8.234375 0.351562 7.453125 0 C 6.679688 -0.351562 6.050781 -0.835938 5.5625 -1.453125 C 5.082031 -2.066406 4.738281 -2.8125 4.53125 -3.6875 C 4.320312 -4.570312 4.21875 -5.539062 4.21875 -6.59375 L 4.21875 -18.4375 L 1.0625 -18.4375 L 1.0625 -21.15625 L 4.40625 -21.390625 L 4.84375 -27.375 L 7.875 -27.375 L 7.875 -21.390625 L 13.640625 -21.390625 L 13.640625 -18.4375 L 7.875 -18.4375 L 7.875 -6.5625 C 7.875 -5.238281 8.113281 -4.21875 8.59375 -3.5 C 9.082031 -2.78125 9.941406 -2.421875 11.171875 -2.421875 C 11.554688 -2.421875 11.96875 -2.476562 12.40625 -2.59375 C 12.84375 -2.707031 13.238281 -2.835938 13.59375 -2.984375 L 14.296875 -0.265625 C 13.710938 -0.0546875 13.078125 0.125 12.390625 0.28125 C 11.703125 0.445312 11.019531 0.53125 10.34375 0.53125 Z M 10.34375 0.53125 "/></g></g></g><g fill="#526479" fill-opacity="1"><g transform="translate(231.473615, 519.59121)"><g><path d="M 8.53125 0.53125 C 6.75 0.53125 5.257812 0.00390625 4.0625 -1.046875 C 2.875 -2.109375 2.28125 -3.609375 2.28125 -5.546875 C 2.28125 -7.890625 3.320312 -9.679688 5.40625 -10.921875 C 7.488281 -12.171875 10.820312 -13.046875 15.40625 -13.546875 C 15.40625 -14.222656 15.335938 -14.882812 15.203125 -15.53125 C 15.066406 -16.175781 14.835938 -16.75 14.515625 -17.25 C 14.191406 -17.75 13.742188 -18.148438 13.171875 -18.453125 C 12.597656 -18.765625 11.875 -18.921875 11 -18.921875 C 9.769531 -18.921875 8.609375 -18.6875 7.515625 -18.21875 C 6.429688 -17.75 5.46875 -17.21875 4.625 -16.625 L 3.21875 -19.140625 C 4.207031 -19.785156 5.421875 -20.40625 6.859375 -21 C 8.296875 -21.601562 9.878906 -21.90625 11.609375 -21.90625 C 14.222656 -21.90625 16.113281 -21.101562 17.28125 -19.5 C 18.457031 -17.90625 19.046875 -15.773438 19.046875 -13.109375 L 19.046875 0 L 16.0625 0 L 15.75 -2.546875 L 15.625 -2.546875 C 14.59375 -1.703125 13.488281 -0.976562 12.3125 -0.375 C 11.144531 0.226562 9.882812 0.53125 8.53125 0.53125 Z M 9.59375 -2.375 C 10.613281 -2.375 11.578125 -2.613281 12.484375 -3.09375 C 13.398438 -3.582031 14.375 -4.296875 15.40625 -5.234375 L 15.40625 -11.171875 C 13.613281 -10.941406 12.109375 -10.664062 10.890625 -10.34375 C 9.671875 -10.019531 8.6875 -9.632812 7.9375 -9.1875 C 7.1875 -8.75 6.644531 -8.242188 6.3125 -7.671875 C 5.976562 -7.097656 5.8125 -6.476562 5.8125 -5.8125 C 5.8125 -4.570312 6.175781 -3.6875 6.90625 -3.15625 C 7.644531 -2.632812 8.539062 -2.375 9.59375 -2.375 Z M 9.59375 -2.375 "/></g></g></g><g fill="#526479" fill-opacity="1"><g transform="translate(253.645661, 519.59121)"><g><path d="M 10.90625 0.53125 C 8.207031 0.53125 6.054688 -0.4375 4.453125 -2.375 C 2.859375 -4.3125 2.0625 -7.066406 2.0625 -10.640625 C 2.0625 -12.378906 2.316406 -13.941406 2.828125 -15.328125 C 3.347656 -16.722656 4.03125 -17.90625 4.875 -18.875 C 5.726562 -19.84375 6.710938 -20.585938 7.828125 -21.109375 C 8.941406 -21.640625 10.117188 -21.90625 11.359375 -21.90625 C 12.585938 -21.90625 13.65625 -21.6875 14.5625 -21.25 C 15.46875 -20.8125 16.394531 -20.210938 17.34375 -19.453125 L 17.15625 -23.09375 L 17.15625 -31.328125 L 20.8125 -31.328125 L 20.8125 0 L 17.8125 0 L 17.515625 -2.515625 L 17.375 -2.515625 C 16.53125 -1.691406 15.554688 -0.976562 14.453125 -0.375 C 13.347656 0.226562 12.164062 0.53125 10.90625 0.53125 Z M 11.703125 -2.515625 C 12.703125 -2.515625 13.640625 -2.753906 14.515625 -3.234375 C 15.398438 -3.710938 16.28125 -4.453125 17.15625 -5.453125 L 17.15625 -16.625 C 16.25 -17.445312 15.375 -18.023438 14.53125 -18.359375 C 13.695312 -18.703125 12.84375 -18.875 11.96875 -18.875 C 11.113281 -18.875 10.3125 -18.675781 9.5625 -18.28125 C 8.820312 -17.882812 8.171875 -17.328125 7.609375 -16.609375 C 7.054688 -15.890625 6.617188 -15.03125 6.296875 -14.03125 C 5.972656 -13.039062 5.8125 -11.925781 5.8125 -10.6875 C 5.8125 -8.101562 6.320312 -6.09375 7.34375 -4.65625 C 8.375 -3.226562 9.828125 -2.515625 11.703125 -2.515625 Z M 11.703125 -2.515625 "/></g></g></g><g fill="#526479" fill-opacity="1"><g transform="translate(278.061309, 519.59121)"><g><path d="M 8.53125 0.53125 C 6.75 0.53125 5.257812 0.00390625 4.0625 -1.046875 C 2.875 -2.109375 2.28125 -3.609375 2.28125 -5.546875 C 2.28125 -7.890625 3.320312 -9.679688 5.40625 -10.921875 C 7.488281 -12.171875 10.820312 -13.046875 15.40625 -13.546875 C 15.40625 -14.222656 15.335938 -14.882812 15.203125 -15.53125 C 15.066406 -16.175781 14.835938 -16.75 14.515625 -17.25 C 14.191406 -17.75 13.742188 -18.148438 13.171875 -18.453125 C 12.597656 -18.765625 11.875 -18.921875 11 -18.921875 C 9.769531 -18.921875 8.609375 -18.6875 7.515625 -18.21875 C 6.429688 -17.75 5.46875 -17.21875 4.625 -16.625 L 3.21875 -19.140625 C 4.207031 -19.785156 5.421875 -20.40625 6.859375 -21 C 8.296875 -21.601562 9.878906 -21.90625 11.609375 -21.90625 C 14.222656 -21.90625 16.113281 -21.101562 17.28125 -19.5 C 18.457031 -17.90625 19.046875 -15.773438 19.046875 -13.109375 L 19.046875 0 L 16.0625 0 L 15.75 -2.546875 L 15.625 -2.546875 C 14.59375 -1.703125 13.488281 -0.976562 12.3125 -0.375 C 11.144531 0.226562 9.882812 0.53125 8.53125 0.53125 Z M 9.59375 -2.375 C 10.613281 -2.375 11.578125 -2.613281 12.484375 -3.09375 C 13.398438 -3.582031 14.375 -4.296875 15.40625 -5.234375 L 15.40625 -11.171875 C 13.613281 -10.941406 12.109375 -10.664062 10.890625 -10.34375 C 9.671875 -10.019531 8.6875 -9.632812 7.9375 -9.1875 C 7.1875 -8.75 6.644531 -8.242188 6.3125 -7.671875 C 5.976562 -7.097656 5.8125 -6.476562 5.8125 -5.8125 C 5.8125 -4.570312 6.175781 -3.6875 6.90625 -3.15625 C 7.644531 -2.632812 8.539062 -2.375 9.59375 -2.375 Z M 9.59375 -2.375 "/></g></g></g><g fill="#526479" fill-opacity="1"><g transform="translate(300.233354, 519.59121)"><g><path d="M 10.34375 0.53125 C 9.195312 0.53125 8.234375 0.351562 7.453125 0 C 6.679688 -0.351562 6.050781 -0.835938 5.5625 -1.453125 C 5.082031 -2.066406 4.738281 -2.8125 4.53125 -3.6875 C 4.320312 -4.570312 4.21875 -5.539062 4.21875 -6.59375 L 4.21875 -18.4375 L 1.0625 -18.4375 L 1.0625 -21.15625 L 4.40625 -21.390625 L 4.84375 -27.375 L 7.875 -27.375 L 7.875 -21.390625 L 13.640625 -21.390625 L 13.640625 -18.4375 L 7.875 -18.4375 L 7.875 -6.5625 C 7.875 -5.238281 8.113281 -4.21875 8.59375 -3.5 C 9.082031 -2.78125 9.941406 -2.421875 11.171875 -2.421875 C 11.554688 -2.421875 11.96875 -2.476562 12.40625 -2.59375 C 12.84375 -2.707031 13.238281 -2.835938 13.59375 -2.984375 L 14.296875 -0.265625 C 13.710938 -0.0546875 13.078125 0.125 12.390625 0.28125 C 11.703125 0.445312 11.019531 0.53125 10.34375 0.53125 Z M 10.34375 0.53125 "/></g></g></g><g fill="#526479" fill-opacity="1"><g transform="translate(315.102708, 519.59121)"><g><path d="M 8.53125 0.53125 C 6.75 0.53125 5.257812 0.00390625 4.0625 -1.046875 C 2.875 -2.109375 2.28125 -3.609375 2.28125 -5.546875 C 2.28125 -7.890625 3.320312 -9.679688 5.40625 -10.921875 C 7.488281 -12.171875 10.820312 -13.046875 15.40625 -13.546875 C 15.40625 -14.222656 15.335938 -14.882812 15.203125 -15.53125 C 15.066406 -16.175781 14.835938 -16.75 14.515625 -17.25 C 14.191406 -17.75 13.742188 -18.148438 13.171875 -18.453125 C 12.597656 -18.765625 11.875 -18.921875 11 -18.921875 C 9.769531 -18.921875 8.609375 -18.6875 7.515625 -18.21875 C 6.429688 -17.75 5.46875 -17.21875 4.625 -16.625 L 3.21875 -19.140625 C 4.207031 -19.785156 5.421875 -20.40625 6.859375 -21 C 8.296875 -21.601562 9.878906 -21.90625 11.609375 -21.90625 C 14.222656 -21.90625 16.113281 -21.101562 17.28125 -19.5 C 18.457031 -17.90625 19.046875 -15.773438 19.046875 -13.109375 L 19.046875 0 L 16.0625 0 L 15.75 -2.546875 L 15.625 -2.546875 C 14.59375 -1.703125 13.488281 -0.976562 12.3125 -0.375 C 11.144531 0.226562 9.882812 0.53125 8.53125 0.53125 Z M 9.59375 -2.375 C 10.613281 -2.375 11.578125 -2.613281 12.484375 -3.09375 C 13.398438 -3.582031 14.375 -4.296875 15.40625 -5.234375 L 15.40625 -11.171875 C 13.613281 -10.941406 12.109375 -10.664062 10.890625 -10.34375 C 9.671875 -10.019531 8.6875 -9.632812 7.9375 -9.1875 C 7.1875 -8.75 6.644531 -8.242188 6.3125 -7.671875 C 5.976562 -7.097656 5.8125 -6.476562 5.8125 -5.8125 C 5.8125 -4.570312 6.175781 -3.6875 6.90625 -3.15625 C 7.644531 -2.632812 8.539062 -2.375 9.59375 -2.375 Z M 9.59375 -2.375 "/></g></g></g><g clip-path="url(#f09996cd93)"><g clip-path="url(#b62211c7e3)"><path stroke-linecap="butt" transform="matrix(0.750363, 0, 0, 0.748997, 44.28027, 583.488807)" fill="none" stroke-linejoin="miter" d="M 50.997451 -0.000701466 L 497.703072 -0.000701466 C 525.866521 -0.000701466 548.699217 22.831922 548.699217 50.994591 L 548.699217 89.191515 C 548.699217 117.354184 525.866521 140.186807 497.703072 140.186807 L 50.997451 140.186807 C 22.834002 140.186807 0.00130551 117.354184 0.00130551 89.191515 L 0.00130551 50.994591 C 0.00130551 22.831922 22.834002 -0.000701466 50.997451 -0.000701466 " stroke="#526479" stroke-width="6" stroke-opacity="1" stroke-miterlimit="4"/></g></g><g fill="#526479" fill-opacity="1"><g transform="translate(208.0245, 650.988803)"><g><path d="M 3.953125 0 L 3.953125 -28.859375 L 20.59375 -28.859375 L 20.59375 -25.78125 L 7.609375 -25.78125 L 7.609375 -16.015625 L 18.609375 -16.015625 L 18.609375 -12.9375 L 7.609375 -12.9375 L 7.609375 0 Z M 3.953125 0 "/></g></g></g><g fill="#526479" fill-opacity="1"><g transform="translate(229.756624, 650.988803)"><g><path d="M 3.609375 0 L 3.609375 -21.390625 L 7.21875 -21.390625 L 7.21875 0 Z M 5.453125 -25.78125 C 4.753906 -25.78125 4.160156 -26 3.671875 -26.4375 C 3.191406 -26.882812 2.953125 -27.441406 2.953125 -28.109375 C 2.953125 -28.816406 3.191406 -29.382812 3.671875 -29.8125 C 4.160156 -30.238281 4.753906 -30.453125 5.453125 -30.453125 C 6.160156 -30.453125 6.753906 -30.238281 7.234375 -29.8125 C 7.722656 -29.382812 7.96875 -28.816406 7.96875 -28.109375 C 7.96875 -27.441406 7.722656 -26.882812 7.234375 -26.4375 C 6.753906 -26 6.160156 -25.78125 5.453125 -25.78125 Z M 5.453125 -25.78125 "/></g></g></g><g fill="#526479" fill-opacity="1"><g transform="translate(240.578694, 650.988803)"><g><path d="M 7.4375 0.53125 C 6.0625 0.53125 5.078125 0.117188 4.484375 -0.703125 C 3.898438 -1.523438 3.609375 -2.726562 3.609375 -4.3125 L 3.609375 -31.328125 L 7.21875 -31.328125 L 7.21875 -4.046875 C 7.21875 -3.460938 7.316406 -3.050781 7.515625 -2.8125 C 7.722656 -2.582031 7.960938 -2.46875 8.234375 -2.46875 C 8.347656 -2.46875 8.457031 -2.46875 8.5625 -2.46875 C 8.664062 -2.46875 8.816406 -2.492188 9.015625 -2.546875 L 9.5 0.171875 C 9.269531 0.296875 8.992188 0.382812 8.671875 0.4375 C 8.347656 0.5 7.9375 0.53125 7.4375 0.53125 Z M 7.4375 0.53125 "/></g></g></g><g fill="#526479" fill-opacity="1"><g transform="translate(251.796696, 650.988803)"><g><path d="M 12.28125 0.53125 C 10.84375 0.53125 9.5 0.273438 8.25 -0.234375 C 7 -0.753906 5.910156 -1.488281 4.984375 -2.4375 C 4.066406 -3.394531 3.34375 -4.5625 2.8125 -5.9375 C 2.289062 -7.320312 2.03125 -8.890625 2.03125 -10.640625 C 2.03125 -12.398438 2.300781 -13.976562 2.84375 -15.375 C 3.382812 -16.769531 4.101562 -17.953125 5 -18.921875 C 5.894531 -19.890625 6.910156 -20.628906 8.046875 -21.140625 C 9.191406 -21.648438 10.378906 -21.90625 11.609375 -21.90625 C 12.960938 -21.90625 14.175781 -21.671875 15.25 -21.203125 C 16.320312 -20.734375 17.21875 -20.054688 17.9375 -19.171875 C 18.65625 -18.296875 19.203125 -17.242188 19.578125 -16.015625 C 19.960938 -14.785156 20.15625 -13.40625 20.15625 -11.875 C 20.15625 -11.5 20.144531 -11.125 20.125 -10.75 C 20.113281 -10.382812 20.078125 -10.070312 20.015625 -9.8125 L 5.59375 -9.8125 C 5.738281 -7.519531 6.445312 -5.707031 7.71875 -4.375 C 9 -3.039062 10.664062 -2.375 12.71875 -2.375 C 13.738281 -2.375 14.679688 -2.523438 15.546875 -2.828125 C 16.421875 -3.140625 17.253906 -3.546875 18.046875 -4.046875 L 19.3125 -1.671875 C 18.375 -1.085938 17.332031 -0.570312 16.1875 -0.125 C 15.039062 0.3125 13.738281 0.53125 12.28125 0.53125 Z M 5.546875 -12.40625 L 16.984375 -12.40625 C 16.984375 -14.570312 16.519531 -16.21875 15.59375 -17.34375 C 14.675781 -18.476562 13.378906 -19.046875 11.703125 -19.046875 C 10.941406 -19.046875 10.210938 -18.898438 9.515625 -18.609375 C 8.828125 -18.316406 8.203125 -17.882812 7.640625 -17.3125 C 7.085938 -16.738281 6.628906 -16.039062 6.265625 -15.21875 C 5.898438 -14.394531 5.660156 -13.457031 5.546875 -12.40625 Z M 5.546875 -12.40625 "/></g></g></g><g fill="#526479" fill-opacity="1"><g transform="translate(273.616813, 650.988803)"><g><path d="M 9.203125 0.53125 C 7.671875 0.53125 6.210938 0.253906 4.828125 -0.296875 C 3.453125 -0.859375 2.253906 -1.566406 1.234375 -2.421875 L 3.03125 -4.84375 C 3.96875 -4.082031 4.925781 -3.460938 5.90625 -2.984375 C 6.894531 -2.515625 8.035156 -2.28125 9.328125 -2.28125 C 10.734375 -2.28125 11.785156 -2.601562 12.484375 -3.25 C 13.191406 -3.894531 13.546875 -4.6875 13.546875 -5.625 C 13.546875 -6.1875 13.398438 -6.671875 13.109375 -7.078125 C 12.816406 -7.492188 12.441406 -7.851562 11.984375 -8.15625 C 11.535156 -8.46875 11.015625 -8.738281 10.421875 -8.96875 C 9.835938 -9.207031 9.253906 -9.445312 8.671875 -9.6875 C 7.910156 -9.945312 7.144531 -10.242188 6.375 -10.578125 C 5.613281 -10.921875 4.929688 -11.332031 4.328125 -11.8125 C 3.734375 -12.300781 3.242188 -12.863281 2.859375 -13.5 C 2.472656 -14.144531 2.28125 -14.925781 2.28125 -15.84375 C 2.28125 -16.6875 2.445312 -17.484375 2.78125 -18.234375 C 3.125 -18.984375 3.609375 -19.628906 4.234375 -20.171875 C 4.867188 -20.710938 5.640625 -21.132812 6.546875 -21.4375 C 7.460938 -21.75 8.492188 -21.90625 9.640625 -21.90625 C 10.984375 -21.90625 12.21875 -21.671875 13.34375 -21.203125 C 14.476562 -20.734375 15.457031 -20.160156 16.28125 -19.484375 L 14.5625 -17.203125 C 13.832031 -17.765625 13.070312 -18.21875 12.28125 -18.5625 C 11.488281 -18.914062 10.625 -19.09375 9.6875 -19.09375 C 8.332031 -19.09375 7.335938 -18.785156 6.703125 -18.171875 C 6.078125 -17.554688 5.765625 -16.835938 5.765625 -16.015625 C 5.765625 -15.515625 5.894531 -15.082031 6.15625 -14.71875 C 6.425781 -14.351562 6.78125 -14.03125 7.21875 -13.75 C 7.65625 -13.46875 8.160156 -13.21875 8.734375 -13 C 9.304688 -12.78125 9.898438 -12.550781 10.515625 -12.3125 C 11.273438 -12.019531 12.039062 -11.710938 12.8125 -11.390625 C 13.59375 -11.066406 14.289062 -10.660156 14.90625 -10.171875 C 15.53125 -9.691406 16.039062 -9.097656 16.4375 -8.390625 C 16.832031 -7.691406 17.03125 -6.847656 17.03125 -5.859375 C 17.03125 -4.972656 16.859375 -4.148438 16.515625 -3.390625 C 16.179688 -2.628906 15.679688 -1.953125 15.015625 -1.359375 C 14.359375 -0.773438 13.539062 -0.316406 12.5625 0.015625 C 11.582031 0.359375 10.460938 0.53125 9.203125 0.53125 Z M 9.203125 0.53125 "/></g></g></g></svg>