<svg xmlns="http://www.w3.org/2000/svg" xmlns:xlink="http://www.w3.org/1999/xlink" width="1920" zoomAndPan="magnify" viewBox="0 0 1440 809.999993" height="1080" preserveAspectRatio="xMidYMid meet" version="1.0"><defs><g/><clipPath id="8dcc55bd79"><path d="M 476.285156 61.554688 L 963.785156 61.554688 L 963.785156 229.554688 L 476.285156 229.554688 Z M 476.285156 61.554688 " clip-rule="nonzero"/></clipPath><clipPath id="d2e3b9bb24"><path d="M 514.542969 61.554688 L 925.527344 61.554688 C 946.65625 61.554688 963.785156 78.707031 963.785156 99.863281 L 963.785156 191.25 C 963.785156 212.40625 946.65625 229.554688 925.527344 229.554688 L 514.542969 229.554688 C 493.414062 229.554688 476.285156 212.40625 476.285156 191.25 L 476.285156 99.863281 C 476.285156 78.707031 493.414062 61.554688 514.542969 61.554688 " clip-rule="nonzero"/></clipPath></defs><g clip-path="url(#8dcc55bd79)"><g clip-path="url(#d2e3b9bb24)"><path fill="#526479" d="M 514.542969 58.550781 L 523.542969 58.550781 L 523.542969 64.558594 L 514.542969 64.558594 Z M 526.542969 58.550781 L 535.546875 58.550781 L 535.546875 64.558594 L 526.542969 64.558594 Z M 538.546875 58.550781 L 547.546875 58.550781 L 547.546875 64.558594 L 538.546875 64.558594 Z M 550.546875 58.550781 L 559.550781 58.550781 L 559.550781 64.558594 L 550.546875 64.558594 Z M 562.550781 58.550781 L 571.550781 58.550781 L 571.550781 64.558594 L 562.550781 64.558594 Z M 574.550781 58.550781 L 583.554688 58.550781 L 583.554688 64.558594 L 574.550781 64.558594 Z M 586.554688 58.550781 L 595.554688 58.550781 L 595.554688 64.558594 L 586.554688 64.558594 Z M 598.554688 58.550781 L 607.558594 58.550781 L 607.558594 64.558594 L 598.554688 64.558594 Z M 610.558594 58.550781 L 619.558594 58.550781 L 619.558594 64.558594 L 610.558594 64.558594 Z M 622.558594 58.550781 L 631.5625 58.550781 L 631.5625 64.558594 L 622.558594 64.558594 Z M 634.5625 58.550781 L 643.5625 58.550781 L 643.5625 64.558594 L 634.5625 64.558594 Z M 646.5625 58.550781 L 655.566406 58.550781 L 655.566406 64.558594 L 646.5625 64.558594 Z M 658.566406 58.550781 L 667.566406 58.550781 L 667.566406 64.558594 L 658.566406 64.558594 Z M 670.570312 58.550781 L 679.570312 58.550781 L 679.570312 64.558594 L 670.570312 64.558594 Z M 682.570312 58.550781 L 691.570312 58.550781 L 691.570312 64.558594 L 682.570312 64.558594 Z M 694.574219 58.550781 L 703.574219 58.550781 L 703.574219 64.558594 L 694.574219 64.558594 Z M 706.574219 58.550781 L 715.574219 58.550781 L 715.574219 64.558594 L 706.574219 64.558594 Z M 718.578125 58.550781 L 727.578125 58.550781 L 727.578125 64.558594 L 718.578125 64.558594 Z M 730.578125 58.550781 L 739.578125 58.550781 L 739.578125 64.558594 L 730.578125 64.558594 Z M 742.582031 58.550781 L 751.582031 58.550781 L 751.582031 64.558594 L 742.582031 64.558594 Z M 754.582031 58.550781 L 763.585938 58.550781 L 763.585938 64.558594 L 754.582031 64.558594 Z M 766.585938 58.550781 L 775.585938 58.550781 L 775.585938 64.558594 L 766.585938 64.558594 Z M 778.585938 58.550781 L 787.589844 58.550781 L 787.589844 64.558594 L 778.585938 64.558594 Z M 790.589844 58.550781 L 799.589844 58.550781 L 799.589844 64.558594 L 790.589844 64.558594 Z M 802.589844 58.550781 L 811.59375 58.550781 L 811.59375 64.558594 L 802.589844 64.558594 Z M 814.59375 58.550781 L 823.59375 58.550781 L 823.59375 64.558594 L 814.59375 64.558594 Z M 826.59375 58.550781 L 835.597656 58.550781 L 835.597656 64.558594 L 826.59375 64.558594 Z M 838.597656 58.550781 L 847.597656 58.550781 L 847.597656 64.558594 L 838.597656 64.558594 Z M 850.597656 58.550781 L 859.601562 58.550781 L 859.601562 64.558594 L 850.597656 64.558594 Z M 862.601562 58.550781 L 871.601562 58.550781 L 871.601562 64.558594 L 862.601562 64.558594 Z M 874.601562 58.550781 L 883.605469 58.550781 L 883.605469 64.558594 L 874.601562 64.558594 Z M 886.605469 58.550781 L 895.605469 58.550781 L 895.605469 64.558594 L 886.605469 64.558594 Z M 898.605469 58.550781 L 907.609375 58.550781 L 907.609375 64.558594 L 898.605469 64.558594 Z M 910.609375 58.550781 L 919.609375 58.550781 L 919.609375 64.558594 L 910.609375 64.558594 Z M 922.609375 58.550781 L 925.527344 58.550781 C 927.738281 58.550781 929.929688 58.726562 932.09375 59.070312 L 931.148438 65.003906 C 929.292969 64.707031 927.421875 64.558594 925.527344 64.558594 L 922.609375 64.558594 Z M 935.261719 59.707031 C 938.425781 60.476562 941.457031 61.605469 944.355469 63.09375 L 941.613281 68.441406 C 939.140625 67.167969 936.550781 66.203125 933.851562 65.550781 Z M 947.175781 64.6875 C 949.9375 66.398438 952.46875 68.40625 954.765625 70.71875 L 950.511719 74.957031 C 948.550781 72.980469 946.386719 71.261719 944.023438 69.800781 Z M 956.957031 73.101562 C 959.070312 75.585938 960.859375 78.277344 962.332031 81.175781 L 956.980469 83.898438 C 955.722656 81.421875 954.191406 79.121094 952.386719 76.996094 Z M 963.6875 84.132812 C 964.925781 87.140625 965.792969 90.253906 966.292969 93.46875 L 960.363281 94.394531 C 959.9375 91.648438 959.195312 88.988281 958.140625 86.421875 Z M 966.664062 96.683594 C 966.742188 97.738281 966.785156 98.800781 966.785156 99.863281 L 966.785156 105.960938 L 960.78125 105.960938 L 960.78125 99.863281 C 960.78125 98.953125 960.75 98.042969 960.679688 97.140625 Z M 966.785156 108.96875 L 966.785156 117.980469 L 960.78125 117.980469 L 960.78125 108.96875 Z M 966.785156 120.984375 L 966.785156 130 L 960.78125 130 L 960.78125 120.984375 Z M 966.785156 133.003906 L 966.785156 142.019531 L 960.78125 142.019531 L 960.78125 133.003906 Z M 966.785156 145.023438 L 966.785156 154.035156 L 960.78125 154.035156 L 960.78125 145.023438 Z M 966.785156 157.042969 L 966.785156 166.054688 L 960.78125 166.054688 L 960.78125 157.042969 Z M 966.785156 169.058594 L 966.785156 178.074219 L 960.78125 178.074219 L 960.78125 169.058594 Z M 966.785156 181.078125 L 966.785156 190.09375 L 960.78125 190.09375 L 960.78125 181.078125 Z M 966.734375 193.273438 C 966.578125 196.535156 966.042969 199.726562 965.136719 202.847656 L 959.375 201.164062 C 960.152344 198.5 960.605469 195.773438 960.742188 192.980469 Z M 964.105469 205.914062 C 962.953125 208.957031 961.457031 211.824219 959.621094 214.515625 L 954.667969 211.128906 C 956.234375 208.828125 957.511719 206.378906 958.496094 203.78125 Z M 957.691406 217.125 C 955.652344 219.660156 953.347656 221.929688 950.777344 223.921875 L 947.101562 219.171875 C 949.300781 217.464844 951.269531 215.527344 953.015625 213.359375 Z M 948.140625 225.808594 C 945.417969 227.597656 942.527344 229.042969 939.472656 230.140625 L 937.445312 224.484375 C 940.054688 223.546875 942.519531 222.3125 944.847656 220.785156 Z M 936.382812 231.113281 C 933.25 231.96875 930.054688 232.441406 926.789062 232.542969 L 926.605469 226.535156 C 929.398438 226.449219 932.132812 226.042969 934.808594 225.316406 Z M 923.675781 232.558594 L 914.671875 232.558594 L 914.671875 226.550781 L 923.675781 226.550781 Z M 911.671875 232.558594 L 902.671875 232.558594 L 902.671875 226.550781 L 911.671875 226.550781 Z M 899.671875 232.558594 L 890.667969 232.558594 L 890.667969 226.550781 L 899.671875 226.550781 Z M 887.667969 232.558594 L 878.667969 232.558594 L 878.667969 226.550781 L 887.667969 226.550781 Z M 875.667969 232.558594 L 866.664062 232.558594 L 866.664062 226.550781 L 875.667969 226.550781 Z M 863.664062 232.558594 L 854.664062 232.558594 L 854.664062 226.550781 L 863.664062 226.550781 Z M 851.664062 232.558594 L 842.660156 232.558594 L 842.660156 226.550781 L 851.664062 226.550781 Z M 839.660156 232.558594 L 830.660156 232.558594 L 830.660156 226.550781 L 839.660156 226.550781 Z M 827.660156 232.558594 L 818.65625 232.558594 L 818.65625 226.550781 L 827.660156 226.550781 Z M 815.65625 232.558594 L 806.65625 232.558594 L 806.65625 226.550781 L 815.65625 226.550781 Z M 803.65625 232.558594 L 794.652344 232.558594 L 794.652344 226.550781 L 803.65625 226.550781 Z M 791.652344 232.558594 L 782.652344 232.558594 L 782.652344 226.550781 L 791.652344 226.550781 Z M 779.652344 232.558594 L 770.648438 232.558594 L 770.648438 226.550781 L 779.652344 226.550781 Z M 767.648438 232.558594 L 758.648438 232.558594 L 758.648438 226.550781 L 767.648438 226.550781 Z M 755.648438 232.558594 L 746.644531 232.558594 L 746.644531 226.550781 L 755.648438 226.550781 Z M 743.644531 232.558594 L 734.644531 232.558594 L 734.644531 226.550781 L 743.644531 226.550781 Z M 731.644531 232.558594 L 722.640625 232.558594 L 722.640625 226.550781 L 731.644531 226.550781 Z M 719.640625 232.558594 L 710.640625 232.558594 L 710.640625 226.550781 L 719.640625 226.550781 Z M 707.640625 232.558594 L 698.636719 232.558594 L 698.636719 226.550781 L 707.640625 226.550781 Z M 695.636719 232.558594 L 686.636719 232.558594 L 686.636719 226.550781 L 695.636719 226.550781 Z M 683.636719 232.558594 L 674.632812 232.558594 L 674.632812 226.550781 L 683.636719 226.550781 Z M 671.632812 232.558594 L 662.632812 232.558594 L 662.632812 226.550781 L 671.632812 226.550781 Z M 659.628906 232.558594 L 650.628906 232.558594 L 650.628906 226.550781 L 659.628906 226.550781 Z M 647.628906 232.558594 L 638.628906 232.558594 L 638.628906 226.550781 L 647.628906 226.550781 Z M 635.625 232.558594 L 626.625 232.558594 L 626.625 226.550781 L 635.625 226.550781 Z M 623.625 232.558594 L 614.625 232.558594 L 614.625 226.550781 L 623.625 226.550781 Z M 611.621094 232.558594 L 602.621094 232.558594 L 602.621094 226.550781 L 611.621094 226.550781 Z M 599.621094 232.558594 L 590.621094 232.558594 L 590.621094 226.550781 L 599.621094 226.550781 Z M 587.617188 232.558594 L 578.617188 232.558594 L 578.617188 226.550781 L 587.617188 226.550781 Z M 575.617188 232.558594 L 566.613281 232.558594 L 566.613281 226.550781 L 575.617188 226.550781 Z M 563.613281 232.558594 L 554.613281 232.558594 L 554.613281 226.550781 L 563.613281 226.550781 Z M 551.613281 232.558594 L 542.609375 232.558594 L 542.609375 226.550781 L 551.613281 226.550781 Z M 539.609375 232.558594 L 530.609375 232.558594 L 530.609375 226.550781 L 539.609375 226.550781 Z M 527.609375 232.558594 L 518.605469 232.558594 L 518.605469 226.550781 L 527.609375 226.550781 Z M 515.605469 232.558594 L 514.542969 232.558594 C 511.664062 232.558594 508.824219 232.265625 506.027344 231.679688 L 507.261719 225.796875 C 509.652344 226.300781 512.078125 226.550781 514.542969 226.550781 L 515.605469 226.550781 Z M 502.867188 230.882812 C 499.75 229.960938 496.777344 228.6875 493.957031 227.058594 L 496.957031 221.851562 C 499.367188 223.242188 501.902344 224.332031 504.5625 225.117188 Z M 491.226562 225.332031 C 488.542969 223.492188 486.113281 221.359375 483.929688 218.941406 L 488.378906 214.914062 C 490.246094 216.980469 492.328125 218.804688 494.621094 220.378906 Z M 481.851562 216.453125 C 479.863281 213.867188 478.203125 211.089844 476.875 208.121094 L 482.351562 205.664062 C 483.484375 208.199219 484.902344 210.574219 486.605469 212.785156 Z M 475.671875 205.121094 C 474.582031 202.058594 473.863281 198.90625 473.519531 195.664062 L 479.488281 195.03125 C 479.78125 197.796875 480.394531 200.488281 481.324219 203.101562 Z M 473.300781 192.410156 C 473.292969 192.023438 473.285156 191.636719 473.285156 191.25 L 473.285156 183.292969 L 479.289062 183.292969 L 479.289062 191.25 C 479.289062 191.582031 479.292969 191.914062 479.300781 192.242188 Z M 473.285156 180.289062 L 473.285156 171.273438 L 479.289062 171.273438 L 479.289062 180.289062 Z M 473.285156 168.269531 L 473.285156 159.257812 L 479.289062 159.257812 L 479.289062 168.269531 Z M 473.285156 156.25 L 473.285156 147.238281 L 479.289062 147.238281 L 479.289062 156.25 Z M 473.285156 144.234375 L 473.285156 135.21875 L 479.289062 135.21875 L 479.289062 144.234375 Z M 473.285156 132.214844 L 473.285156 123.199219 L 479.289062 123.199219 L 479.289062 132.214844 Z M 473.285156 120.195312 L 473.285156 111.183594 L 479.289062 111.183594 L 479.289062 120.195312 Z M 473.285156 108.179688 L 473.285156 99.863281 L 473.292969 99.121094 L 479.292969 99.175781 L 479.289062 99.863281 L 479.289062 108.179688 Z M 473.480469 95.832031 C 473.792969 92.585938 474.480469 89.425781 475.542969 86.355469 L 481.214844 88.320312 C 480.308594 90.941406 479.722656 93.640625 479.453125 96.410156 Z M 476.714844 83.347656 C 478.015625 80.363281 479.652344 77.570312 481.617188 74.964844 L 486.402344 78.589844 C 484.722656 80.816406 483.328125 83.203125 482.214844 85.753906 Z M 483.671875 72.457031 C 485.832031 70.019531 488.242188 67.867188 490.90625 66 L 494.347656 70.921875 C 492.070312 72.519531 490.007812 74.359375 488.160156 76.445312 Z M 493.625 64.25 C 496.429688 62.59375 499.386719 61.289062 502.492188 60.339844 L 504.242188 66.089844 C 501.589844 66.898438 499.066406 68.011719 496.671875 69.425781 Z M 505.644531 59.515625 C 508.5625 58.871094 511.527344 58.550781 514.542969 58.550781 L 514.542969 64.558594 C 511.964844 64.558594 509.425781 64.835938 506.933594 65.382812 Z M 505.644531 59.515625 " fill-opacity="1" fill-rule="nonzero"/></g></g><g fill="#526479" fill-opacity="1"><g transform="translate(654.773514, 160.555714)"><g><path d="M 3.953125 0 L 3.953125 -28.859375 L 12.984375 -28.859375 C 14.453125 -28.859375 15.804688 -28.71875 17.046875 -28.4375 C 18.296875 -28.164062 19.367188 -27.707031 20.265625 -27.0625 C 21.160156 -26.414062 21.851562 -25.578125 22.34375 -24.546875 C 22.84375 -23.523438 23.09375 -22.265625 23.09375 -20.765625 C 23.09375 -18.503906 22.503906 -16.695312 21.328125 -15.34375 C 20.160156 -14 18.582031 -13.078125 16.59375 -12.578125 L 23.9375 0 L 19.796875 0 L 12.84375 -12.1875 L 7.609375 -12.1875 L 7.609375 0 Z M 7.609375 -15.1875 L 12.453125 -15.1875 C 14.710938 -15.1875 16.441406 -15.644531 17.640625 -16.5625 C 18.847656 -17.488281 19.453125 -18.890625 19.453125 -20.765625 C 19.453125 -22.671875 18.847656 -24.003906 17.640625 -24.765625 C 16.441406 -25.535156 14.710938 -25.921875 12.453125 -25.921875 L 7.609375 -25.921875 Z M 7.609375 -15.1875 "/></g></g></g><g fill="#526479" fill-opacity="1"><g transform="translate(679.805049, 160.555714)"><g><path d="M 12.28125 0.53125 C 10.84375 0.53125 9.5 0.273438 8.25 -0.234375 C 7 -0.753906 5.910156 -1.488281 4.984375 -2.4375 C 4.066406 -3.394531 3.34375 -4.5625 2.8125 -5.9375 C 2.289062 -7.320312 2.03125 -8.890625 2.03125 -10.640625 C 2.03125 -12.398438 2.300781 -13.976562 2.84375 -15.375 C 3.382812 -16.769531 4.101562 -17.953125 5 -18.921875 C 5.894531 -19.890625 6.910156 -20.628906 8.046875 -21.140625 C 9.191406 -21.648438 10.378906 -21.90625 11.609375 -21.90625 C 12.960938 -21.90625 14.175781 -21.671875 15.25 -21.203125 C 16.320312 -20.734375 17.21875 -20.054688 17.9375 -19.171875 C 18.65625 -18.296875 19.203125 -17.242188 19.578125 -16.015625 C 19.960938 -14.785156 20.15625 -13.40625 20.15625 -11.875 C 20.15625 -11.5 20.144531 -11.125 20.125 -10.75 C 20.113281 -10.382812 20.078125 -10.070312 20.015625 -9.8125 L 5.59375 -9.8125 C 5.738281 -7.519531 6.445312 -5.707031 7.71875 -4.375 C 9 -3.039062 10.664062 -2.375 12.71875 -2.375 C 13.738281 -2.375 14.679688 -2.523438 15.546875 -2.828125 C 16.421875 -3.140625 17.253906 -3.546875 18.046875 -4.046875 L 19.3125 -1.671875 C 18.375 -1.085938 17.332031 -0.570312 16.1875 -0.125 C 15.039062 0.3125 13.738281 0.53125 12.28125 0.53125 Z M 5.546875 -12.40625 L 16.984375 -12.40625 C 16.984375 -14.570312 16.519531 -16.21875 15.59375 -17.34375 C 14.675781 -18.476562 13.378906 -19.046875 11.703125 -19.046875 C 10.941406 -19.046875 10.210938 -18.898438 9.515625 -18.609375 C 8.828125 -18.316406 8.203125 -17.882812 7.640625 -17.3125 C 7.085938 -16.738281 6.628906 -16.039062 6.265625 -15.21875 C 5.898438 -14.394531 5.660156 -13.457031 5.546875 -12.40625 Z M 5.546875 -12.40625 "/></g></g></g><g fill="#526479" fill-opacity="1"><g transform="translate(701.625166, 160.555714)"><g><path d="M 12.0625 0.53125 C 10.644531 0.53125 9.320312 0.28125 8.09375 -0.21875 C 6.863281 -0.71875 5.800781 -1.441406 4.90625 -2.390625 C 4.007812 -3.347656 3.304688 -4.523438 2.796875 -5.921875 C 2.285156 -7.316406 2.03125 -8.890625 2.03125 -10.640625 C 2.03125 -12.429688 2.304688 -14.023438 2.859375 -15.421875 C 3.421875 -16.816406 4.171875 -18 5.109375 -18.96875 C 6.046875 -19.9375 7.132812 -20.664062 8.375 -21.15625 C 9.625 -21.65625 10.9375 -21.90625 12.3125 -21.90625 C 13.726562 -21.90625 14.929688 -21.65625 15.921875 -21.15625 C 16.921875 -20.664062 17.800781 -20.082031 18.5625 -19.40625 L 16.71875 -17.03125 C 16.101562 -17.582031 15.453125 -18.035156 14.765625 -18.390625 C 14.078125 -18.742188 13.304688 -18.921875 12.453125 -18.921875 C 11.484375 -18.921875 10.585938 -18.722656 9.765625 -18.328125 C 8.941406 -17.929688 8.238281 -17.363281 7.65625 -16.625 C 7.070312 -15.894531 6.609375 -15.023438 6.265625 -14.015625 C 5.929688 -13.003906 5.765625 -11.878906 5.765625 -10.640625 C 5.765625 -9.410156 5.925781 -8.296875 6.25 -7.296875 C 6.570312 -6.304688 7.019531 -5.453125 7.59375 -4.734375 C 8.164062 -4.015625 8.859375 -3.457031 9.671875 -3.0625 C 10.492188 -2.664062 11.390625 -2.46875 12.359375 -2.46875 C 13.359375 -2.46875 14.273438 -2.675781 15.109375 -3.09375 C 15.953125 -3.519531 16.707031 -4.03125 17.375 -4.625 L 18.96875 -2.203125 C 18 -1.347656 16.925781 -0.675781 15.75 -0.1875 C 14.570312 0.289062 13.34375 0.53125 12.0625 0.53125 Z M 12.0625 0.53125 "/></g></g></g><g fill="#526479" fill-opacity="1"><g transform="translate(721.685593, 160.555714)"><g><path d="M 11.921875 0.53125 C 10.597656 0.53125 9.34375 0.28125 8.15625 -0.21875 C 6.96875 -0.71875 5.921875 -1.441406 5.015625 -2.390625 C 4.109375 -3.347656 3.382812 -4.523438 2.84375 -5.921875 C 2.300781 -7.316406 2.03125 -8.890625 2.03125 -10.640625 C 2.03125 -12.429688 2.300781 -14.023438 2.84375 -15.421875 C 3.382812 -16.816406 4.109375 -18 5.015625 -18.96875 C 5.921875 -19.9375 6.96875 -20.664062 8.15625 -21.15625 C 9.34375 -21.65625 10.597656 -21.90625 11.921875 -21.90625 C 13.242188 -21.90625 14.5 -21.65625 15.6875 -21.15625 C 16.875 -20.664062 17.921875 -19.9375 18.828125 -18.96875 C 19.742188 -18 20.472656 -16.816406 21.015625 -15.421875 C 21.554688 -14.023438 21.828125 -12.429688 21.828125 -10.640625 C 21.828125 -8.890625 21.554688 -7.316406 21.015625 -5.921875 C 20.472656 -4.523438 19.742188 -3.347656 18.828125 -2.390625 C 17.921875 -1.441406 16.875 -0.71875 15.6875 -0.21875 C 14.5 0.28125 13.242188 0.53125 11.921875 0.53125 Z M 11.921875 -2.46875 C 12.828125 -2.46875 13.660156 -2.664062 14.421875 -3.0625 C 15.191406 -3.457031 15.847656 -4.015625 16.390625 -4.734375 C 16.929688 -5.453125 17.347656 -6.304688 17.640625 -7.296875 C 17.929688 -8.296875 18.078125 -9.410156 18.078125 -10.640625 C 18.078125 -11.878906 17.929688 -13.003906 17.640625 -14.015625 C 17.347656 -15.023438 16.929688 -15.894531 16.390625 -16.625 C 15.847656 -17.363281 15.191406 -17.929688 14.421875 -18.328125 C 13.660156 -18.722656 12.828125 -18.921875 11.921875 -18.921875 C 11.015625 -18.921875 10.175781 -18.722656 9.40625 -18.328125 C 8.644531 -17.929688 7.992188 -17.363281 7.453125 -16.625 C 6.910156 -15.894531 6.492188 -15.023438 6.203125 -14.015625 C 5.910156 -13.003906 5.765625 -11.878906 5.765625 -10.640625 C 5.765625 -9.410156 5.910156 -8.296875 6.203125 -7.296875 C 6.492188 -6.304688 6.910156 -5.453125 7.453125 -4.734375 C 7.992188 -4.015625 8.644531 -3.457031 9.40625 -3.0625 C 10.175781 -2.664062 11.015625 -2.46875 11.921875 -2.46875 Z M 11.921875 -2.46875 "/></g></g></g><g fill="#526479" fill-opacity="1"><g transform="translate(745.529346, 160.555714)"><g><path d="M 3.609375 0 L 3.609375 -21.390625 L 6.59375 -21.390625 L 6.90625 -17.515625 L 7.046875 -17.515625 C 7.773438 -18.859375 8.660156 -19.925781 9.703125 -20.71875 C 10.742188 -21.507812 11.878906 -21.90625 13.109375 -21.90625 C 13.960938 -21.90625 14.726562 -21.757812 15.40625 -21.46875 L 14.703125 -18.296875 C 14.347656 -18.421875 14.019531 -18.507812 13.71875 -18.5625 C 13.425781 -18.625 13.0625 -18.65625 12.625 -18.65625 C 11.71875 -18.65625 10.769531 -18.285156 9.78125 -17.546875 C 8.800781 -16.816406 7.945312 -15.546875 7.21875 -13.734375 L 7.21875 0 Z M 3.609375 0 "/></g></g></g><g fill="#526479" fill-opacity="1"><g transform="translate(760.794631, 160.555714)"><g><path d="M 10.90625 0.53125 C 8.207031 0.53125 6.054688 -0.4375 4.453125 -2.375 C 2.859375 -4.3125 2.0625 -7.066406 2.0625 -10.640625 C 2.0625 -12.378906 2.316406 -13.941406 2.828125 -15.328125 C 3.347656 -16.722656 4.03125 -17.90625 4.875 -18.875 C 5.726562 -19.84375 6.710938 -20.585938 7.828125 -21.109375 C 8.941406 -21.640625 10.117188 -21.90625 11.359375 -21.90625 C 12.585938 -21.90625 13.65625 -21.6875 14.5625 -21.25 C 15.46875 -20.8125 16.394531 -20.210938 17.34375 -19.453125 L 17.15625 -23.09375 L 17.15625 -31.328125 L 20.8125 -31.328125 L 20.8125 0 L 17.8125 0 L 17.515625 -2.515625 L 17.375 -2.515625 C 16.53125 -1.691406 15.554688 -0.976562 14.453125 -0.375 C 13.347656 0.226562 12.164062 0.53125 10.90625 0.53125 Z M 11.703125 -2.515625 C 12.703125 -2.515625 13.640625 -2.753906 14.515625 -3.234375 C 15.398438 -3.710938 16.28125 -4.453125 17.15625 -5.453125 L 17.15625 -16.625 C 16.25 -17.445312 15.375 -18.023438 14.53125 -18.359375 C 13.695312 -18.703125 12.84375 -18.875 11.96875 -18.875 C 11.113281 -18.875 10.3125 -18.675781 9.5625 -18.28125 C 8.820312 -17.882812 8.171875 -17.328125 7.609375 -16.609375 C 7.054688 -15.890625 6.617188 -15.03125 6.296875 -14.03125 C 5.972656 -13.039062 5.8125 -11.925781 5.8125 -10.6875 C 5.8125 -8.101562 6.320312 -6.09375 7.34375 -4.65625 C 8.375 -3.226562 9.828125 -2.515625 11.703125 -2.515625 Z M 11.703125 -2.515625 "/></g></g></g></svg>