<svg xmlns="http://www.w3.org/2000/svg" xmlns:xlink="http://www.w3.org/1999/xlink" width="1920" zoomAndPan="magnify" viewBox="0 0 1440 809.999993" height="1080" preserveAspectRatio="xMidYMid meet" version="1.0"><defs><g/></defs><g fill="#526479" fill-opacity="1"><g transform="translate(390.679674, 204.85441)"><g><path d="M 9.078125 0 L 1.28125 -36.734375 L 6.109375 -36.734375 L 9.96875 -16.75 C 10.300781 -14.726562 10.65625 -12.742188 11.03125 -10.796875 C 11.40625 -8.859375 11.757812 -6.882812 12.09375 -4.875 L 12.3125 -4.875 C 12.726562 -6.882812 13.160156 -8.867188 13.609375 -10.828125 C 14.054688 -12.796875 14.484375 -14.769531 14.890625 -16.75 L 19.984375 -36.734375 L 24.25 -36.734375 L 29.34375 -16.75 C 29.789062 -14.800781 30.238281 -12.835938 30.6875 -10.859375 C 31.132812 -8.878906 31.582031 -6.882812 32.03125 -4.875 L 32.25 -4.875 C 32.59375 -6.882812 32.929688 -8.867188 33.265625 -10.828125 C 33.597656 -12.796875 33.953125 -14.769531 34.328125 -16.75 L 38.1875 -36.734375 L 42.671875 -36.734375 L 35.0625 0 L 29.453125 0 L 23.90625 -22.125 C 23.570312 -23.539062 23.265625 -24.929688 22.984375 -26.296875 C 22.703125 -27.660156 22.414062 -29.050781 22.125 -30.46875 L 21.890625 -30.46875 C 21.597656 -29.050781 21.289062 -27.660156 20.96875 -26.296875 C 20.65625 -24.929688 20.347656 -23.539062 20.046875 -22.125 L 14.609375 0 Z M 9.078125 0 "/></g></g></g><g fill="#526479" fill-opacity="1"><g transform="translate(434.689529, 204.85441)"><g><path d="M 15.171875 0.671875 C 13.492188 0.671875 11.898438 0.351562 10.390625 -0.28125 C 8.878906 -0.914062 7.539062 -1.835938 6.375 -3.046875 C 5.21875 -4.265625 4.296875 -5.757812 3.609375 -7.53125 C 2.921875 -9.300781 2.578125 -11.304688 2.578125 -13.546875 C 2.578125 -15.828125 2.921875 -17.851562 3.609375 -19.625 C 4.296875 -21.394531 5.21875 -22.894531 6.375 -24.125 C 7.539062 -25.363281 8.878906 -26.300781 10.390625 -26.9375 C 11.898438 -27.570312 13.492188 -27.890625 15.171875 -27.890625 C 16.859375 -27.890625 18.457031 -27.570312 19.96875 -26.9375 C 21.476562 -26.300781 22.8125 -25.363281 23.96875 -24.125 C 25.125 -22.894531 26.046875 -21.394531 26.734375 -19.625 C 27.429688 -17.851562 27.78125 -15.828125 27.78125 -13.546875 C 27.78125 -11.304688 27.429688 -9.300781 26.734375 -7.53125 C 26.046875 -5.757812 25.125 -4.265625 23.96875 -3.046875 C 22.8125 -1.835938 21.476562 -0.914062 19.96875 -0.28125 C 18.457031 0.351562 16.859375 0.671875 15.171875 0.671875 Z M 15.171875 -3.140625 C 16.328125 -3.140625 17.390625 -3.390625 18.359375 -3.890625 C 19.335938 -4.390625 20.171875 -5.097656 20.859375 -6.015625 C 21.546875 -6.929688 22.078125 -8.023438 22.453125 -9.296875 C 22.828125 -10.566406 23.015625 -11.984375 23.015625 -13.546875 C 23.015625 -15.117188 22.828125 -16.546875 22.453125 -17.828125 C 22.078125 -19.117188 21.546875 -20.226562 20.859375 -21.15625 C 20.171875 -22.09375 19.335938 -22.8125 18.359375 -23.3125 C 17.390625 -23.820312 16.328125 -24.078125 15.171875 -24.078125 C 14.015625 -24.078125 12.953125 -23.820312 11.984375 -23.3125 C 11.015625 -22.8125 10.179688 -22.09375 9.484375 -21.15625 C 8.796875 -20.226562 8.265625 -19.117188 7.890625 -17.828125 C 7.523438 -16.546875 7.34375 -15.117188 7.34375 -13.546875 C 7.34375 -11.984375 7.523438 -10.566406 7.890625 -9.296875 C 8.265625 -8.023438 8.796875 -6.929688 9.484375 -6.015625 C 10.179688 -5.097656 11.015625 -4.390625 11.984375 -3.890625 C 12.953125 -3.390625 14.015625 -3.140625 15.171875 -3.140625 Z M 15.171875 -3.140625 "/></g></g></g><g fill="#526479" fill-opacity="1"><g transform="translate(465.037291, 204.85441)"><g><path d="M 4.59375 0 L 4.59375 -27.21875 L 8.40625 -27.21875 L 8.796875 -22.28125 L 8.953125 -22.28125 C 9.890625 -24 11.019531 -25.363281 12.34375 -26.375 C 13.675781 -27.382812 15.125 -27.890625 16.6875 -27.890625 C 17.769531 -27.890625 18.738281 -27.703125 19.59375 -27.328125 L 18.703125 -23.296875 C 18.253906 -23.441406 17.84375 -23.550781 17.46875 -23.625 C 17.09375 -23.707031 16.628906 -23.75 16.078125 -23.75 C 14.921875 -23.75 13.710938 -23.28125 12.453125 -22.34375 C 11.203125 -21.40625 10.113281 -19.78125 9.1875 -17.46875 L 9.1875 0 Z M 4.59375 0 "/></g></g></g><g fill="#526479" fill-opacity="1"><g transform="translate(484.466577, 204.85441)"><g><path d="M 4.59375 0 L 4.59375 -39.875 L 9.125 -39.875 L 9.125 -12.875 L 9.296875 -12.875 L 20.890625 -27.21875 L 25.984375 -27.21875 L 16.859375 -16.296875 L 27.21875 0 L 22.171875 0 L 14.21875 -13.109375 L 9.125 -7.171875 L 9.125 0 Z M 4.59375 0 "/></g></g></g><g fill="#526479" fill-opacity="1"><g transform="translate(512.182712, 204.85441)"><g><path d="M 5.375 0 L 5.375 -23.46875 L 1.6875 -23.46875 L 1.6875 -26.9375 L 5.375 -27.21875 L 5.375 -31.53125 C 5.375 -34.332031 6.015625 -36.535156 7.296875 -38.140625 C 8.585938 -39.742188 10.597656 -40.546875 13.328125 -40.546875 C 14.179688 -40.546875 14.988281 -40.460938 15.75 -40.296875 C 16.519531 -40.128906 17.222656 -39.910156 17.859375 -39.640625 L 16.859375 -36.125 C 15.847656 -36.570312 14.820312 -36.796875 13.78125 -36.796875 C 11.238281 -36.796875 9.96875 -35.039062 9.96875 -31.53125 L 9.96875 -27.21875 L 15.734375 -27.21875 L 15.734375 -23.46875 L 9.96875 -23.46875 L 9.96875 0 Z M 5.375 0 "/></g></g></g><g fill="#526479" fill-opacity="1"><g transform="translate(528.532428, 204.85441)"><g><path d="M 9.46875 0.671875 C 7.707031 0.671875 6.453125 0.148438 5.703125 -0.890625 C 4.960938 -1.941406 4.59375 -3.472656 4.59375 -5.484375 L 4.59375 -39.875 L 9.1875 -39.875 L 9.1875 -5.15625 C 9.1875 -4.40625 9.316406 -3.878906 9.578125 -3.578125 C 9.835938 -3.285156 10.132812 -3.140625 10.46875 -3.140625 C 10.625 -3.140625 10.765625 -3.140625 10.890625 -3.140625 C 11.023438 -3.140625 11.222656 -3.175781 11.484375 -3.25 L 12.09375 0.21875 C 11.789062 0.375 11.4375 0.488281 11.03125 0.5625 C 10.625 0.632812 10.101562 0.671875 9.46875 0.671875 Z M 9.46875 0.671875 "/></g></g></g><g fill="#526479" fill-opacity="1"><g transform="translate(542.81043, 204.85441)"><g><path d="M 15.171875 0.671875 C 13.492188 0.671875 11.898438 0.351562 10.390625 -0.28125 C 8.878906 -0.914062 7.539062 -1.835938 6.375 -3.046875 C 5.21875 -4.265625 4.296875 -5.757812 3.609375 -7.53125 C 2.921875 -9.300781 2.578125 -11.304688 2.578125 -13.546875 C 2.578125 -15.828125 2.921875 -17.851562 3.609375 -19.625 C 4.296875 -21.394531 5.21875 -22.894531 6.375 -24.125 C 7.539062 -25.363281 8.878906 -26.300781 10.390625 -26.9375 C 11.898438 -27.570312 13.492188 -27.890625 15.171875 -27.890625 C 16.859375 -27.890625 18.457031 -27.570312 19.96875 -26.9375 C 21.476562 -26.300781 22.8125 -25.363281 23.96875 -24.125 C 25.125 -22.894531 26.046875 -21.394531 26.734375 -19.625 C 27.429688 -17.851562 27.78125 -15.828125 27.78125 -13.546875 C 27.78125 -11.304688 27.429688 -9.300781 26.734375 -7.53125 C 26.046875 -5.757812 25.125 -4.265625 23.96875 -3.046875 C 22.8125 -1.835938 21.476562 -0.914062 19.96875 -0.28125 C 18.457031 0.351562 16.859375 0.671875 15.171875 0.671875 Z M 15.171875 -3.140625 C 16.328125 -3.140625 17.390625 -3.390625 18.359375 -3.890625 C 19.335938 -4.390625 20.171875 -5.097656 20.859375 -6.015625 C 21.546875 -6.929688 22.078125 -8.023438 22.453125 -9.296875 C 22.828125 -10.566406 23.015625 -11.984375 23.015625 -13.546875 C 23.015625 -15.117188 22.828125 -16.546875 22.453125 -17.828125 C 22.078125 -19.117188 21.546875 -20.226562 20.859375 -21.15625 C 20.171875 -22.09375 19.335938 -22.8125 18.359375 -23.3125 C 17.390625 -23.820312 16.328125 -24.078125 15.171875 -24.078125 C 14.015625 -24.078125 12.953125 -23.820312 11.984375 -23.3125 C 11.015625 -22.8125 10.179688 -22.09375 9.484375 -21.15625 C 8.796875 -20.226562 8.265625 -19.117188 7.890625 -17.828125 C 7.523438 -16.546875 7.34375 -15.117188 7.34375 -13.546875 C 7.34375 -11.984375 7.523438 -10.566406 7.890625 -9.296875 C 8.265625 -8.023438 8.796875 -6.929688 9.484375 -6.015625 C 10.179688 -5.097656 11.015625 -4.390625 11.984375 -3.890625 C 12.953125 -3.390625 14.015625 -3.140625 15.171875 -3.140625 Z M 15.171875 -3.140625 "/></g></g></g><g fill="#526479" fill-opacity="1"><g transform="translate(573.158192, 204.85441)"><g><path d="M 8.90625 0 L 1.34375 -27.21875 L 6.046875 -27.21875 L 10.078125 -11.484375 C 10.378906 -10.171875 10.660156 -8.898438 10.921875 -7.671875 C 11.179688 -6.441406 11.441406 -5.191406 11.703125 -3.921875 L 11.921875 -3.921875 C 12.222656 -5.191406 12.519531 -6.453125 12.8125 -7.703125 C 13.113281 -8.953125 13.4375 -10.210938 13.78125 -11.484375 L 17.96875 -27.21875 L 22.453125 -27.21875 L 26.71875 -11.484375 C 27.050781 -10.171875 27.375 -8.898438 27.6875 -7.671875 C 28.007812 -6.441406 28.316406 -5.191406 28.609375 -3.921875 L 28.84375 -3.921875 C 29.132812 -5.191406 29.410156 -6.441406 29.671875 -7.671875 C 29.941406 -8.898438 30.222656 -10.171875 30.515625 -11.484375 L 34.5 -27.21875 L 38.859375 -27.21875 L 31.578125 0 L 25.984375 0 L 22.0625 -14.609375 C 21.726562 -15.921875 21.421875 -17.210938 21.140625 -18.484375 C 20.859375 -19.753906 20.550781 -21.078125 20.21875 -22.453125 L 19.984375 -22.453125 C 19.691406 -21.078125 19.394531 -19.742188 19.09375 -18.453125 C 18.789062 -17.160156 18.457031 -15.863281 18.09375 -14.5625 L 14.28125 0 Z M 8.90625 0 "/></g></g></g><g fill="#526479" fill-opacity="1"><g transform="translate(613.360586, 204.85441)"><g/></g></g><g fill="#526479" fill-opacity="1"><g transform="translate(624.559018, 204.85441)"><g><path d="M 13.15625 0.671875 C 11.695312 0.671875 10.472656 0.445312 9.484375 0 C 8.503906 -0.445312 7.703125 -1.0625 7.078125 -1.84375 C 6.460938 -2.632812 6.023438 -3.585938 5.765625 -4.703125 C 5.503906 -5.828125 5.375 -7.0625 5.375 -8.40625 L 5.375 -23.46875 L 1.34375 -23.46875 L 1.34375 -26.9375 L 5.59375 -27.21875 L 6.15625 -34.828125 L 10.03125 -34.828125 L 10.03125 -27.21875 L 17.359375 -27.21875 L 17.359375 -23.46875 L 10.03125 -23.46875 L 10.03125 -8.34375 C 10.03125 -6.664062 10.335938 -5.367188 10.953125 -4.453125 C 11.566406 -3.535156 12.65625 -3.078125 14.21875 -3.078125 C 14.707031 -3.078125 15.226562 -3.148438 15.78125 -3.296875 C 16.34375 -3.453125 16.847656 -3.625 17.296875 -3.8125 L 18.203125 -0.34375 C 17.453125 -0.0703125 16.640625 0.160156 15.765625 0.359375 C 14.890625 0.566406 14.019531 0.671875 13.15625 0.671875 Z M 13.15625 0.671875 "/></g></g></g><g fill="#526479" fill-opacity="1"><g transform="translate(643.484364, 204.85441)"><g><path d="M 15.171875 0.671875 C 13.492188 0.671875 11.898438 0.351562 10.390625 -0.28125 C 8.878906 -0.914062 7.539062 -1.835938 6.375 -3.046875 C 5.21875 -4.265625 4.296875 -5.757812 3.609375 -7.53125 C 2.921875 -9.300781 2.578125 -11.304688 2.578125 -13.546875 C 2.578125 -15.828125 2.921875 -17.851562 3.609375 -19.625 C 4.296875 -21.394531 5.21875 -22.894531 6.375 -24.125 C 7.539062 -25.363281 8.878906 -26.300781 10.390625 -26.9375 C 11.898438 -27.570312 13.492188 -27.890625 15.171875 -27.890625 C 16.859375 -27.890625 18.457031 -27.570312 19.96875 -26.9375 C 21.476562 -26.300781 22.8125 -25.363281 23.96875 -24.125 C 25.125 -22.894531 26.046875 -21.394531 26.734375 -19.625 C 27.429688 -17.851562 27.78125 -15.828125 27.78125 -13.546875 C 27.78125 -11.304688 27.429688 -9.300781 26.734375 -7.53125 C 26.046875 -5.757812 25.125 -4.265625 23.96875 -3.046875 C 22.8125 -1.835938 21.476562 -0.914062 19.96875 -0.28125 C 18.457031 0.351562 16.859375 0.671875 15.171875 0.671875 Z M 15.171875 -3.140625 C 16.328125 -3.140625 17.390625 -3.390625 18.359375 -3.890625 C 19.335938 -4.390625 20.171875 -5.097656 20.859375 -6.015625 C 21.546875 -6.929688 22.078125 -8.023438 22.453125 -9.296875 C 22.828125 -10.566406 23.015625 -11.984375 23.015625 -13.546875 C 23.015625 -15.117188 22.828125 -16.546875 22.453125 -17.828125 C 22.078125 -19.117188 21.546875 -20.226562 20.859375 -21.15625 C 20.171875 -22.09375 19.335938 -22.8125 18.359375 -23.3125 C 17.390625 -23.820312 16.328125 -24.078125 15.171875 -24.078125 C 14.015625 -24.078125 12.953125 -23.820312 11.984375 -23.3125 C 11.015625 -22.8125 10.179688 -22.09375 9.484375 -21.15625 C 8.796875 -20.226562 8.265625 -19.117188 7.890625 -17.828125 C 7.523438 -16.546875 7.34375 -15.117188 7.34375 -13.546875 C 7.34375 -11.984375 7.523438 -10.566406 7.890625 -9.296875 C 8.265625 -8.023438 8.796875 -6.929688 9.484375 -6.015625 C 10.179688 -5.097656 11.015625 -4.390625 11.984375 -3.890625 C 12.953125 -3.390625 14.015625 -3.140625 15.171875 -3.140625 Z M 15.171875 -3.140625 "/></g></g></g><g fill="#526479" fill-opacity="1"><g transform="translate(673.832125, 204.85441)"><g/></g></g><g fill="#526479" fill-opacity="1"><g transform="translate(685.030558, 204.85441)"><g><path d="M 15.34375 0.671875 C 13.550781 0.671875 11.867188 0.351562 10.296875 -0.28125 C 8.734375 -0.914062 7.378906 -1.835938 6.234375 -3.046875 C 5.097656 -4.265625 4.203125 -5.757812 3.546875 -7.53125 C 2.898438 -9.300781 2.578125 -11.304688 2.578125 -13.546875 C 2.578125 -15.828125 2.929688 -17.851562 3.640625 -19.625 C 4.347656 -21.394531 5.296875 -22.894531 6.484375 -24.125 C 7.679688 -25.363281 9.070312 -26.300781 10.65625 -26.9375 C 12.25 -27.570312 13.925781 -27.890625 15.6875 -27.890625 C 17.476562 -27.890625 19.003906 -27.570312 20.265625 -26.9375 C 21.535156 -26.300781 22.65625 -25.554688 23.625 -24.703125 L 21.28125 -21.671875 C 20.5 -22.378906 19.664062 -22.957031 18.78125 -23.40625 C 17.90625 -23.851562 16.925781 -24.078125 15.84375 -24.078125 C 14.613281 -24.078125 13.472656 -23.820312 12.421875 -23.3125 C 11.378906 -22.8125 10.484375 -22.09375 9.734375 -21.15625 C 8.992188 -20.226562 8.410156 -19.117188 7.984375 -17.828125 C 7.554688 -16.546875 7.34375 -15.117188 7.34375 -13.546875 C 7.34375 -11.984375 7.546875 -10.566406 7.953125 -9.296875 C 8.359375 -8.023438 8.925781 -6.929688 9.65625 -6.015625 C 10.382812 -5.097656 11.269531 -4.390625 12.3125 -3.890625 C 13.363281 -3.390625 14.503906 -3.140625 15.734375 -3.140625 C 17.003906 -3.140625 18.171875 -3.410156 19.234375 -3.953125 C 20.296875 -4.492188 21.257812 -5.132812 22.125 -5.875 L 24.140625 -2.796875 C 22.898438 -1.710938 21.535156 -0.863281 20.046875 -0.25 C 18.554688 0.363281 16.988281 0.671875 15.34375 0.671875 Z M 15.34375 0.671875 "/></g></g></g><g fill="#526479" fill-opacity="1"><g transform="translate(710.562989, 204.85441)"><g><path d="M 4.59375 0 L 4.59375 -27.21875 L 8.40625 -27.21875 L 8.796875 -22.28125 L 8.953125 -22.28125 C 9.890625 -24 11.019531 -25.363281 12.34375 -26.375 C 13.675781 -27.382812 15.125 -27.890625 16.6875 -27.890625 C 17.769531 -27.890625 18.738281 -27.703125 19.59375 -27.328125 L 18.703125 -23.296875 C 18.253906 -23.441406 17.84375 -23.550781 17.46875 -23.625 C 17.09375 -23.707031 16.628906 -23.75 16.078125 -23.75 C 14.921875 -23.75 13.710938 -23.28125 12.453125 -22.34375 C 11.203125 -21.40625 10.113281 -19.78125 9.1875 -17.46875 L 9.1875 0 Z M 4.59375 0 "/></g></g></g><g fill="#526479" fill-opacity="1"><g transform="translate(729.992263, 204.85441)"><g><path d="M 15.625 0.671875 C 13.789062 0.671875 12.082031 0.347656 10.5 -0.296875 C 8.914062 -0.953125 7.535156 -1.882812 6.359375 -3.09375 C 5.179688 -4.3125 4.253906 -5.796875 3.578125 -7.546875 C 2.910156 -9.304688 2.578125 -11.304688 2.578125 -13.546875 C 2.578125 -15.785156 2.921875 -17.789062 3.609375 -19.5625 C 4.296875 -21.34375 5.207031 -22.847656 6.34375 -24.078125 C 7.488281 -25.304688 8.789062 -26.25 10.25 -26.90625 C 11.707031 -27.5625 13.21875 -27.890625 14.78125 -27.890625 C 16.5 -27.890625 18.039062 -27.585938 19.40625 -26.984375 C 20.769531 -26.390625 21.90625 -25.53125 22.8125 -24.40625 C 23.726562 -23.289062 24.425781 -21.945312 24.90625 -20.375 C 25.394531 -18.8125 25.640625 -17.0625 25.640625 -15.125 C 25.640625 -14.632812 25.628906 -14.15625 25.609375 -13.6875 C 25.597656 -13.21875 25.554688 -12.816406 25.484375 -12.484375 L 7.109375 -12.484375 C 7.296875 -9.578125 8.203125 -7.273438 9.828125 -5.578125 C 11.453125 -3.878906 13.570312 -3.03125 16.1875 -3.03125 C 17.488281 -3.03125 18.691406 -3.222656 19.796875 -3.609375 C 20.898438 -4.003906 21.953125 -4.519531 22.953125 -5.15625 L 24.578125 -2.125 C 23.390625 -1.382812 22.066406 -0.734375 20.609375 -0.171875 C 19.148438 0.390625 17.488281 0.671875 15.625 0.671875 Z M 7.0625 -15.796875 L 21.609375 -15.796875 C 21.609375 -18.554688 21.019531 -20.65625 19.84375 -22.09375 C 18.675781 -23.53125 17.023438 -24.25 14.890625 -24.25 C 13.921875 -24.25 13 -24.0625 12.125 -23.6875 C 11.25 -23.3125 10.457031 -22.757812 9.75 -22.03125 C 9.039062 -21.300781 8.453125 -20.414062 7.984375 -19.375 C 7.515625 -18.332031 7.207031 -17.140625 7.0625 -15.796875 Z M 7.0625 -15.796875 "/></g></g></g><g fill="#526479" fill-opacity="1"><g transform="translate(757.764372, 204.85441)"><g><path d="M 10.859375 0.671875 C 8.585938 0.671875 6.691406 0 5.171875 -1.34375 C 3.660156 -2.6875 2.90625 -4.59375 2.90625 -7.0625 C 2.90625 -10.039062 4.226562 -12.320312 6.875 -13.90625 C 9.53125 -15.5 13.769531 -16.613281 19.59375 -17.25 C 19.59375 -18.101562 19.507812 -18.941406 19.34375 -19.765625 C 19.175781 -20.585938 18.882812 -21.316406 18.46875 -21.953125 C 18.0625 -22.585938 17.492188 -23.097656 16.765625 -23.484375 C 16.046875 -23.878906 15.125 -24.078125 14 -24.078125 C 12.425781 -24.078125 10.945312 -23.773438 9.5625 -23.171875 C 8.1875 -22.578125 6.957031 -21.910156 5.875 -21.171875 L 4.09375 -24.359375 C 5.351562 -25.179688 6.898438 -25.972656 8.734375 -26.734375 C 10.566406 -27.503906 12.582031 -27.890625 14.78125 -27.890625 C 18.101562 -27.890625 20.507812 -26.867188 22 -24.828125 C 23.5 -22.796875 24.25 -20.082031 24.25 -16.6875 L 24.25 0 L 20.4375 0 L 20.046875 -3.25 L 19.875 -3.25 C 18.570312 -2.164062 17.171875 -1.238281 15.671875 -0.46875 C 14.179688 0.289062 12.578125 0.671875 10.859375 0.671875 Z M 12.203125 -3.03125 C 13.515625 -3.03125 14.75 -3.335938 15.90625 -3.953125 C 17.0625 -4.566406 18.289062 -5.46875 19.59375 -6.65625 L 19.59375 -14.21875 C 17.320312 -13.925781 15.410156 -13.570312 13.859375 -13.15625 C 12.304688 -12.75 11.054688 -12.265625 10.109375 -11.703125 C 9.160156 -11.140625 8.46875 -10.492188 8.03125 -9.765625 C 7.601562 -9.046875 7.390625 -8.253906 7.390625 -7.390625 C 7.390625 -5.828125 7.851562 -4.707031 8.78125 -4.03125 C 9.71875 -3.363281 10.859375 -3.03125 12.203125 -3.03125 Z M 12.203125 -3.03125 "/></g></g></g><g fill="#526479" fill-opacity="1"><g transform="translate(785.984448, 204.85441)"><g><path d="M 13.15625 0.671875 C 11.695312 0.671875 10.472656 0.445312 9.484375 0 C 8.503906 -0.445312 7.703125 -1.0625 7.078125 -1.84375 C 6.460938 -2.632812 6.023438 -3.585938 5.765625 -4.703125 C 5.503906 -5.828125 5.375 -7.0625 5.375 -8.40625 L 5.375 -23.46875 L 1.34375 -23.46875 L 1.34375 -26.9375 L 5.59375 -27.21875 L 6.15625 -34.828125 L 10.03125 -34.828125 L 10.03125 -27.21875 L 17.359375 -27.21875 L 17.359375 -23.46875 L 10.03125 -23.46875 L 10.03125 -8.34375 C 10.03125 -6.664062 10.335938 -5.367188 10.953125 -4.453125 C 11.566406 -3.535156 12.65625 -3.078125 14.21875 -3.078125 C 14.707031 -3.078125 15.226562 -3.148438 15.78125 -3.296875 C 16.34375 -3.453125 16.847656 -3.625 17.296875 -3.8125 L 18.203125 -0.34375 C 17.453125 -0.0703125 16.640625 0.160156 15.765625 0.359375 C 14.890625 0.566406 14.019531 0.671875 13.15625 0.671875 Z M 13.15625 0.671875 "/></g></g></g><g fill="#526479" fill-opacity="1"><g transform="translate(804.909817, 204.85441)"><g><path d="M 15.625 0.671875 C 13.789062 0.671875 12.082031 0.347656 10.5 -0.296875 C 8.914062 -0.953125 7.535156 -1.882812 6.359375 -3.09375 C 5.179688 -4.3125 4.253906 -5.796875 3.578125 -7.546875 C 2.910156 -9.304688 2.578125 -11.304688 2.578125 -13.546875 C 2.578125 -15.785156 2.921875 -17.789062 3.609375 -19.5625 C 4.296875 -21.34375 5.207031 -22.847656 6.34375 -24.078125 C 7.488281 -25.304688 8.789062 -26.25 10.25 -26.90625 C 11.707031 -27.5625 13.21875 -27.890625 14.78125 -27.890625 C 16.5 -27.890625 18.039062 -27.585938 19.40625 -26.984375 C 20.769531 -26.390625 21.90625 -25.53125 22.8125 -24.40625 C 23.726562 -23.289062 24.425781 -21.945312 24.90625 -20.375 C 25.394531 -18.8125 25.640625 -17.0625 25.640625 -15.125 C 25.640625 -14.632812 25.628906 -14.15625 25.609375 -13.6875 C 25.597656 -13.21875 25.554688 -12.816406 25.484375 -12.484375 L 7.109375 -12.484375 C 7.296875 -9.578125 8.203125 -7.273438 9.828125 -5.578125 C 11.453125 -3.878906 13.570312 -3.03125 16.1875 -3.03125 C 17.488281 -3.03125 18.691406 -3.222656 19.796875 -3.609375 C 20.898438 -4.003906 21.953125 -4.519531 22.953125 -5.15625 L 24.578125 -2.125 C 23.390625 -1.382812 22.066406 -0.734375 20.609375 -0.171875 C 19.148438 0.390625 17.488281 0.671875 15.625 0.671875 Z M 7.0625 -15.796875 L 21.609375 -15.796875 C 21.609375 -18.554688 21.019531 -20.65625 19.84375 -22.09375 C 18.675781 -23.53125 17.023438 -24.25 14.890625 -24.25 C 13.921875 -24.25 13 -24.0625 12.125 -23.6875 C 11.25 -23.3125 10.457031 -22.757812 9.75 -22.03125 C 9.039062 -21.300781 8.453125 -20.414062 7.984375 -19.375 C 7.515625 -18.332031 7.207031 -17.140625 7.0625 -15.796875 Z M 7.0625 -15.796875 "/></g></g></g><g fill="#526479" fill-opacity="1"><g transform="translate(832.681925, 204.85441)"><g/></g></g><g fill="#526479" fill-opacity="1"><g transform="translate(843.880335, 204.85441)"><g><path d="M 10.859375 0.671875 C 8.585938 0.671875 6.691406 0 5.171875 -1.34375 C 3.660156 -2.6875 2.90625 -4.59375 2.90625 -7.0625 C 2.90625 -10.039062 4.226562 -12.320312 6.875 -13.90625 C 9.53125 -15.5 13.769531 -16.613281 19.59375 -17.25 C 19.59375 -18.101562 19.507812 -18.941406 19.34375 -19.765625 C 19.175781 -20.585938 18.882812 -21.316406 18.46875 -21.953125 C 18.0625 -22.585938 17.492188 -23.097656 16.765625 -23.484375 C 16.046875 -23.878906 15.125 -24.078125 14 -24.078125 C 12.425781 -24.078125 10.945312 -23.773438 9.5625 -23.171875 C 8.1875 -22.578125 6.957031 -21.910156 5.875 -21.171875 L 4.09375 -24.359375 C 5.351562 -25.179688 6.898438 -25.972656 8.734375 -26.734375 C 10.566406 -27.503906 12.582031 -27.890625 14.78125 -27.890625 C 18.101562 -27.890625 20.507812 -26.867188 22 -24.828125 C 23.5 -22.796875 24.25 -20.082031 24.25 -16.6875 L 24.25 0 L 20.4375 0 L 20.046875 -3.25 L 19.875 -3.25 C 18.570312 -2.164062 17.171875 -1.238281 15.671875 -0.46875 C 14.179688 0.289062 12.578125 0.671875 10.859375 0.671875 Z M 12.203125 -3.03125 C 13.515625 -3.03125 14.75 -3.335938 15.90625 -3.953125 C 17.0625 -4.566406 18.289062 -5.46875 19.59375 -6.65625 L 19.59375 -14.21875 C 17.320312 -13.925781 15.410156 -13.570312 13.859375 -13.15625 C 12.304688 -12.75 11.054688 -12.265625 10.109375 -11.703125 C 9.160156 -11.140625 8.46875 -10.492188 8.03125 -9.765625 C 7.601562 -9.046875 7.390625 -8.253906 7.390625 -7.390625 C 7.390625 -5.828125 7.851562 -4.707031 8.78125 -4.03125 C 9.71875 -3.363281 10.859375 -3.03125 12.203125 -3.03125 Z M 12.203125 -3.03125 "/></g></g></g><g fill="#526479" fill-opacity="1"><g transform="translate(872.100411, 204.85441)"><g/></g></g><g fill="#526479" fill-opacity="1"><g transform="translate(883.29882, 204.85441)"><g><path d="M 5.046875 0 L 5.046875 -36.734375 L 16.515625 -36.734375 C 18.378906 -36.734375 20.101562 -36.554688 21.6875 -36.203125 C 23.28125 -35.847656 24.644531 -35.257812 25.78125 -34.4375 C 26.925781 -33.613281 27.816406 -32.546875 28.453125 -31.234375 C 29.085938 -29.929688 29.40625 -28.332031 29.40625 -26.4375 C 29.40625 -23.5625 28.65625 -21.265625 27.15625 -19.546875 C 25.664062 -17.828125 23.648438 -16.648438 21.109375 -16.015625 L 30.46875 0 L 25.203125 0 L 16.359375 -15.515625 L 9.6875 -15.515625 L 9.6875 0 Z M 9.6875 -19.3125 L 15.84375 -19.3125 C 18.71875 -19.3125 20.921875 -19.898438 22.453125 -21.078125 C 23.984375 -22.253906 24.75 -24.039062 24.75 -26.4375 C 24.75 -28.863281 23.984375 -30.5625 22.453125 -31.53125 C 20.921875 -32.5 18.71875 -32.984375 15.84375 -32.984375 L 9.6875 -32.984375 Z M 9.6875 -19.3125 "/></g></g></g><g fill="#526479" fill-opacity="1"><g transform="translate(915.158346, 204.85441)"><g><path d="M 15.625 0.671875 C 13.789062 0.671875 12.082031 0.347656 10.5 -0.296875 C 8.914062 -0.953125 7.535156 -1.882812 6.359375 -3.09375 C 5.179688 -4.3125 4.253906 -5.796875 3.578125 -7.546875 C 2.910156 -9.304688 2.578125 -11.304688 2.578125 -13.546875 C 2.578125 -15.785156 2.921875 -17.789062 3.609375 -19.5625 C 4.296875 -21.34375 5.207031 -22.847656 6.34375 -24.078125 C 7.488281 -25.304688 8.789062 -26.25 10.25 -26.90625 C 11.707031 -27.5625 13.21875 -27.890625 14.78125 -27.890625 C 16.5 -27.890625 18.039062 -27.585938 19.40625 -26.984375 C 20.769531 -26.390625 21.90625 -25.53125 22.8125 -24.40625 C 23.726562 -23.289062 24.425781 -21.945312 24.90625 -20.375 C 25.394531 -18.8125 25.640625 -17.0625 25.640625 -15.125 C 25.640625 -14.632812 25.628906 -14.15625 25.609375 -13.6875 C 25.597656 -13.21875 25.554688 -12.816406 25.484375 -12.484375 L 7.109375 -12.484375 C 7.296875 -9.578125 8.203125 -7.273438 9.828125 -5.578125 C 11.453125 -3.878906 13.570312 -3.03125 16.1875 -3.03125 C 17.488281 -3.03125 18.691406 -3.222656 19.796875 -3.609375 C 20.898438 -4.003906 21.953125 -4.519531 22.953125 -5.15625 L 24.578125 -2.125 C 23.390625 -1.382812 22.066406 -0.734375 20.609375 -0.171875 C 19.148438 0.390625 17.488281 0.671875 15.625 0.671875 Z M 7.0625 -15.796875 L 21.609375 -15.796875 C 21.609375 -18.554688 21.019531 -20.65625 19.84375 -22.09375 C 18.675781 -23.53125 17.023438 -24.25 14.890625 -24.25 C 13.921875 -24.25 13 -24.0625 12.125 -23.6875 C 11.25 -23.3125 10.457031 -22.757812 9.75 -22.03125 C 9.039062 -21.300781 8.453125 -20.414062 7.984375 -19.375 C 7.515625 -18.332031 7.207031 -17.140625 7.0625 -15.796875 Z M 7.0625 -15.796875 "/></g></g></g><g fill="#526479" fill-opacity="1"><g transform="translate(942.930455, 204.85441)"><g><path d="M 15.34375 0.671875 C 13.550781 0.671875 11.867188 0.351562 10.296875 -0.28125 C 8.734375 -0.914062 7.378906 -1.835938 6.234375 -3.046875 C 5.097656 -4.265625 4.203125 -5.757812 3.546875 -7.53125 C 2.898438 -9.300781 2.578125 -11.304688 2.578125 -13.546875 C 2.578125 -15.828125 2.929688 -17.851562 3.640625 -19.625 C 4.347656 -21.394531 5.296875 -22.894531 6.484375 -24.125 C 7.679688 -25.363281 9.070312 -26.300781 10.65625 -26.9375 C 12.25 -27.570312 13.925781 -27.890625 15.6875 -27.890625 C 17.476562 -27.890625 19.003906 -27.570312 20.265625 -26.9375 C 21.535156 -26.300781 22.65625 -25.554688 23.625 -24.703125 L 21.28125 -21.671875 C 20.5 -22.378906 19.664062 -22.957031 18.78125 -23.40625 C 17.90625 -23.851562 16.925781 -24.078125 15.84375 -24.078125 C 14.613281 -24.078125 13.472656 -23.820312 12.421875 -23.3125 C 11.378906 -22.8125 10.484375 -22.09375 9.734375 -21.15625 C 8.992188 -20.226562 8.410156 -19.117188 7.984375 -17.828125 C 7.554688 -16.546875 7.34375 -15.117188 7.34375 -13.546875 C 7.34375 -11.984375 7.546875 -10.566406 7.953125 -9.296875 C 8.359375 -8.023438 8.925781 -6.929688 9.65625 -6.015625 C 10.382812 -5.097656 11.269531 -4.390625 12.3125 -3.890625 C 13.363281 -3.390625 14.503906 -3.140625 15.734375 -3.140625 C 17.003906 -3.140625 18.171875 -3.410156 19.234375 -3.953125 C 20.296875 -4.492188 21.257812 -5.132812 22.125 -5.875 L 24.140625 -2.796875 C 22.898438 -1.710938 21.535156 -0.863281 20.046875 -0.25 C 18.554688 0.363281 16.988281 0.671875 15.34375 0.671875 Z M 15.34375 0.671875 "/></g></g></g><g fill="#526479" fill-opacity="1"><g transform="translate(968.462909, 204.85441)"><g><path d="M 15.171875 0.671875 C 13.492188 0.671875 11.898438 0.351562 10.390625 -0.28125 C 8.878906 -0.914062 7.539062 -1.835938 6.375 -3.046875 C 5.21875 -4.265625 4.296875 -5.757812 3.609375 -7.53125 C 2.921875 -9.300781 2.578125 -11.304688 2.578125 -13.546875 C 2.578125 -15.828125 2.921875 -17.851562 3.609375 -19.625 C 4.296875 -21.394531 5.21875 -22.894531 6.375 -24.125 C 7.539062 -25.363281 8.878906 -26.300781 10.390625 -26.9375 C 11.898438 -27.570312 13.492188 -27.890625 15.171875 -27.890625 C 16.859375 -27.890625 18.457031 -27.570312 19.96875 -26.9375 C 21.476562 -26.300781 22.8125 -25.363281 23.96875 -24.125 C 25.125 -22.894531 26.046875 -21.394531 26.734375 -19.625 C 27.429688 -17.851562 27.78125 -15.828125 27.78125 -13.546875 C 27.78125 -11.304688 27.429688 -9.300781 26.734375 -7.53125 C 26.046875 -5.757812 25.125 -4.265625 23.96875 -3.046875 C 22.8125 -1.835938 21.476562 -0.914062 19.96875 -0.28125 C 18.457031 0.351562 16.859375 0.671875 15.171875 0.671875 Z M 15.171875 -3.140625 C 16.328125 -3.140625 17.390625 -3.390625 18.359375 -3.890625 C 19.335938 -4.390625 20.171875 -5.097656 20.859375 -6.015625 C 21.546875 -6.929688 22.078125 -8.023438 22.453125 -9.296875 C 22.828125 -10.566406 23.015625 -11.984375 23.015625 -13.546875 C 23.015625 -15.117188 22.828125 -16.546875 22.453125 -17.828125 C 22.078125 -19.117188 21.546875 -20.226562 20.859375 -21.15625 C 20.171875 -22.09375 19.335938 -22.8125 18.359375 -23.3125 C 17.390625 -23.820312 16.328125 -24.078125 15.171875 -24.078125 C 14.015625 -24.078125 12.953125 -23.820312 11.984375 -23.3125 C 11.015625 -22.8125 10.179688 -22.09375 9.484375 -21.15625 C 8.796875 -20.226562 8.265625 -19.117188 7.890625 -17.828125 C 7.523438 -16.546875 7.34375 -15.117188 7.34375 -13.546875 C 7.34375 -11.984375 7.523438 -10.566406 7.890625 -9.296875 C 8.265625 -8.023438 8.796875 -6.929688 9.484375 -6.015625 C 10.179688 -5.097656 11.015625 -4.390625 11.984375 -3.890625 C 12.953125 -3.390625 14.015625 -3.140625 15.171875 -3.140625 Z M 15.171875 -3.140625 "/></g></g></g><g fill="#526479" fill-opacity="1"><g transform="translate(998.81067, 204.85441)"><g><path d="M 4.59375 0 L 4.59375 -27.21875 L 8.40625 -27.21875 L 8.796875 -22.28125 L 8.953125 -22.28125 C 9.890625 -24 11.019531 -25.363281 12.34375 -26.375 C 13.675781 -27.382812 15.125 -27.890625 16.6875 -27.890625 C 17.769531 -27.890625 18.738281 -27.703125 19.59375 -27.328125 L 18.703125 -23.296875 C 18.253906 -23.441406 17.84375 -23.550781 17.46875 -23.625 C 17.09375 -23.707031 16.628906 -23.75 16.078125 -23.75 C 14.921875 -23.75 13.710938 -23.28125 12.453125 -22.34375 C 11.203125 -21.40625 10.113281 -19.78125 9.1875 -17.46875 L 9.1875 0 Z M 4.59375 0 "/></g></g></g><g fill="#526479" fill-opacity="1"><g transform="translate(1018.239945, 204.85441)"><g><path d="M 13.890625 0.671875 C 10.453125 0.671875 7.710938 -0.554688 5.671875 -3.015625 C 3.640625 -5.484375 2.625 -8.992188 2.625 -13.546875 C 2.625 -15.753906 2.953125 -17.742188 3.609375 -19.515625 C 4.265625 -21.285156 5.132812 -22.785156 6.21875 -24.015625 C 7.300781 -25.253906 8.550781 -26.207031 9.96875 -26.875 C 11.382812 -27.550781 12.878906 -27.890625 14.453125 -27.890625 C 16.015625 -27.890625 17.375 -27.609375 18.53125 -27.046875 C 19.6875 -26.484375 20.863281 -25.71875 22.0625 -24.75 L 21.84375 -29.40625 L 21.84375 -39.875 L 26.484375 -39.875 L 26.484375 0 L 22.6875 0 L 22.28125 -3.1875 L 22.125 -3.1875 C 21.039062 -2.144531 19.796875 -1.238281 18.390625 -0.46875 C 16.992188 0.289062 15.492188 0.671875 13.890625 0.671875 Z M 14.890625 -3.1875 C 16.160156 -3.1875 17.351562 -3.492188 18.46875 -4.109375 C 19.59375 -4.734375 20.71875 -5.675781 21.84375 -6.9375 L 21.84375 -21.171875 C 20.6875 -22.210938 19.570312 -22.945312 18.5 -23.375 C 17.4375 -23.8125 16.347656 -24.03125 15.234375 -24.03125 C 14.148438 -24.03125 13.128906 -23.773438 12.171875 -23.265625 C 11.222656 -22.765625 10.394531 -22.054688 9.6875 -21.140625 C 8.976562 -20.222656 8.414062 -19.128906 8 -17.859375 C 7.59375 -16.585938 7.390625 -15.171875 7.390625 -13.609375 C 7.390625 -10.328125 8.039062 -7.769531 9.34375 -5.9375 C 10.65625 -4.101562 12.503906 -3.1875 14.890625 -3.1875 Z M 14.890625 -3.1875 "/></g></g></g></svg>