<svg xmlns="http://www.w3.org/2000/svg" xmlns:xlink="http://www.w3.org/1999/xlink" width="1920" zoomAndPan="magnify" viewBox="0 0 1440 809.999993" height="1080" preserveAspectRatio="xMidYMid meet" version="1.0"><defs><g/><clipPath id="2ce3480f43"><path d="M 514.289062 460.535156 L 926 460.535156 L 926 627 L 514.289062 627 Z M 514.289062 460.535156 " clip-rule="nonzero"/></clipPath><clipPath id="01f3572315"><path d="M 552.539062 460.535156 L 887.589844 460.535156 C 908.714844 460.535156 925.839844 477.660156 925.839844 498.785156 L 925.839844 590.03125 C 925.839844 611.15625 908.714844 628.28125 887.589844 628.28125 L 552.539062 628.28125 C 531.414062 628.28125 514.289062 611.15625 514.289062 590.03125 L 514.289062 498.785156 C 514.289062 477.660156 531.414062 460.535156 552.539062 460.535156 " clip-rule="nonzero"/></clipPath><clipPath id="1c15e2a40d"><path d="M 514.296875 460.535156 L 926.039062 460.535156 L 926.039062 628.535156 L 514.296875 628.535156 Z M 514.296875 460.535156 " clip-rule="nonzero"/></clipPath><clipPath id="3ef015dfab"><path d="M 552.5625 460.535156 L 887.765625 460.535156 C 908.898438 460.535156 926.035156 477.6875 926.035156 498.84375 L 926.035156 590.226562 C 926.035156 611.382812 908.898438 628.535156 887.765625 628.535156 L 552.5625 628.535156 C 531.429688 628.535156 514.296875 611.382812 514.296875 590.226562 L 514.296875 498.84375 C 514.296875 477.6875 531.429688 460.535156 552.5625 460.535156 " clip-rule="nonzero"/></clipPath><clipPath id="40dcde53ac"><path d="M 46.363281 460.535156 L 458.109375 460.535156 L 458.109375 628.535156 L 46.363281 628.535156 Z M 46.363281 460.535156 " clip-rule="nonzero"/></clipPath><clipPath id="3dabb25c1f"><path d="M 84.632812 460.535156 L 419.835938 460.535156 C 440.96875 460.535156 458.101562 477.6875 458.101562 498.84375 L 458.101562 590.226562 C 458.101562 611.382812 440.96875 628.535156 419.835938 628.535156 L 84.632812 628.535156 C 63.496094 628.535156 46.363281 611.382812 46.363281 590.226562 L 46.363281 498.84375 C 46.363281 477.6875 63.496094 460.535156 84.632812 460.535156 " clip-rule="nonzero"/></clipPath></defs><g clip-path="url(#2ce3480f43)"><g clip-path="url(#01f3572315)"><path fill="#ececec" d="M 514.289062 460.535156 L 926.308594 460.535156 L 926.308594 626.855469 L 514.289062 626.855469 Z M 514.289062 460.535156 " fill-opacity="1" fill-rule="nonzero"/></g></g><g clip-path="url(#1c15e2a40d)"><g clip-path="url(#3ef015dfab)"><path stroke-linecap="butt" transform="matrix(0.750363, 0, 0, 0.751153, 514.295476, 460.535493)" fill="none" stroke-linejoin="miter" d="M 50.99801 -0.000448086 L 497.719248 -0.000448086 C 525.882697 -0.000448086 548.720599 22.834247 548.720599 50.999292 L 548.720599 172.656058 C 548.720599 200.821103 525.882697 223.655798 497.719248 223.655798 L 50.99801 223.655798 C 22.83456 223.655798 0.00186397 200.821103 0.00186397 172.656058 L 0.00186397 50.999292 C 0.00186397 22.834247 22.83456 -0.000448086 50.99801 -0.000448086 " stroke="#526479" stroke-width="6" stroke-opacity="1" stroke-miterlimit="4"/></g></g><g fill="#526479" fill-opacity="1"><g transform="translate(618.750265, 559.535488)"><g><path d="M 3.953125 0 L 3.953125 -28.859375 L 20.59375 -28.859375 L 20.59375 -25.78125 L 7.609375 -25.78125 L 7.609375 -16.71875 L 18.5625 -16.71875 L 18.5625 -13.59375 L 7.609375 -13.59375 L 7.609375 -3.125 L 21.03125 -3.125 L 21.03125 0 Z M 3.953125 0 "/></g></g></g><g fill="#526479" fill-opacity="1"><g transform="translate(641.934128, 559.535488)"><g><path d="M 10.90625 0.53125 C 8.207031 0.53125 6.054688 -0.4375 4.453125 -2.375 C 2.859375 -4.3125 2.0625 -7.066406 2.0625 -10.640625 C 2.0625 -12.378906 2.316406 -13.941406 2.828125 -15.328125 C 3.347656 -16.722656 4.03125 -17.90625 4.875 -18.875 C 5.726562 -19.84375 6.710938 -20.585938 7.828125 -21.109375 C 8.941406 -21.640625 10.117188 -21.90625 11.359375 -21.90625 C 12.585938 -21.90625 13.65625 -21.6875 14.5625 -21.25 C 15.46875 -20.8125 16.394531 -20.210938 17.34375 -19.453125 L 17.15625 -23.09375 L 17.15625 -31.328125 L 20.8125 -31.328125 L 20.8125 0 L 17.8125 0 L 17.515625 -2.515625 L 17.375 -2.515625 C 16.53125 -1.691406 15.554688 -0.976562 14.453125 -0.375 C 13.347656 0.226562 12.164062 0.53125 10.90625 0.53125 Z M 11.703125 -2.515625 C 12.703125 -2.515625 13.640625 -2.753906 14.515625 -3.234375 C 15.398438 -3.710938 16.28125 -4.453125 17.15625 -5.453125 L 17.15625 -16.625 C 16.25 -17.445312 15.375 -18.023438 14.53125 -18.359375 C 13.695312 -18.703125 12.84375 -18.875 11.96875 -18.875 C 11.113281 -18.875 10.3125 -18.675781 9.5625 -18.28125 C 8.820312 -17.882812 8.171875 -17.328125 7.609375 -16.609375 C 7.054688 -15.890625 6.617188 -15.03125 6.296875 -14.03125 C 5.972656 -13.039062 5.8125 -11.925781 5.8125 -10.6875 C 5.8125 -8.101562 6.320312 -6.09375 7.34375 -4.65625 C 8.375 -3.226562 9.828125 -2.515625 11.703125 -2.515625 Z M 11.703125 -2.515625 "/></g></g></g><g fill="#526479" fill-opacity="1"><g transform="translate(666.349776, 559.535488)"><g><path d="M 3.609375 0 L 3.609375 -21.390625 L 7.21875 -21.390625 L 7.21875 0 Z M 5.453125 -25.78125 C 4.753906 -25.78125 4.160156 -26 3.671875 -26.4375 C 3.191406 -26.882812 2.953125 -27.441406 2.953125 -28.109375 C 2.953125 -28.816406 3.191406 -29.382812 3.671875 -29.8125 C 4.160156 -30.238281 4.753906 -30.453125 5.453125 -30.453125 C 6.160156 -30.453125 6.753906 -30.238281 7.234375 -29.8125 C 7.722656 -29.382812 7.96875 -28.816406 7.96875 -28.109375 C 7.96875 -27.441406 7.722656 -26.882812 7.234375 -26.4375 C 6.753906 -26 6.160156 -25.78125 5.453125 -25.78125 Z M 5.453125 -25.78125 "/></g></g></g><g fill="#526479" fill-opacity="1"><g transform="translate(677.171846, 559.535488)"><g><path d="M 10.34375 0.53125 C 9.195312 0.53125 8.234375 0.351562 7.453125 0 C 6.679688 -0.351562 6.050781 -0.835938 5.5625 -1.453125 C 5.082031 -2.066406 4.738281 -2.8125 4.53125 -3.6875 C 4.320312 -4.570312 4.21875 -5.539062 4.21875 -6.59375 L 4.21875 -18.4375 L 1.0625 -18.4375 L 1.0625 -21.15625 L 4.40625 -21.390625 L 4.84375 -27.375 L 7.875 -27.375 L 7.875 -21.390625 L 13.640625 -21.390625 L 13.640625 -18.4375 L 7.875 -18.4375 L 7.875 -6.5625 C 7.875 -5.238281 8.113281 -4.21875 8.59375 -3.5 C 9.082031 -2.78125 9.941406 -2.421875 11.171875 -2.421875 C 11.554688 -2.421875 11.96875 -2.476562 12.40625 -2.59375 C 12.84375 -2.707031 13.238281 -2.835938 13.59375 -2.984375 L 14.296875 -0.265625 C 13.710938 -0.0546875 13.078125 0.125 12.390625 0.28125 C 11.703125 0.445312 11.019531 0.53125 10.34375 0.53125 Z M 10.34375 0.53125 "/></g></g></g><g fill="#526479" fill-opacity="1"><g transform="translate(692.0412, 559.535488)"><g/></g></g><g fill="#526479" fill-opacity="1"><g transform="translate(700.839635, 559.535488)"><g><path d="M 8.53125 0.53125 C 6.75 0.53125 5.257812 0.00390625 4.0625 -1.046875 C 2.875 -2.109375 2.28125 -3.609375 2.28125 -5.546875 C 2.28125 -7.890625 3.320312 -9.679688 5.40625 -10.921875 C 7.488281 -12.171875 10.820312 -13.046875 15.40625 -13.546875 C 15.40625 -14.222656 15.335938 -14.882812 15.203125 -15.53125 C 15.066406 -16.175781 14.835938 -16.75 14.515625 -17.25 C 14.191406 -17.75 13.742188 -18.148438 13.171875 -18.453125 C 12.597656 -18.765625 11.875 -18.921875 11 -18.921875 C 9.769531 -18.921875 8.609375 -18.6875 7.515625 -18.21875 C 6.429688 -17.75 5.46875 -17.21875 4.625 -16.625 L 3.21875 -19.140625 C 4.207031 -19.785156 5.421875 -20.40625 6.859375 -21 C 8.296875 -21.601562 9.878906 -21.90625 11.609375 -21.90625 C 14.222656 -21.90625 16.113281 -21.101562 17.28125 -19.5 C 18.457031 -17.90625 19.046875 -15.773438 19.046875 -13.109375 L 19.046875 0 L 16.0625 0 L 15.75 -2.546875 L 15.625 -2.546875 C 14.59375 -1.703125 13.488281 -0.976562 12.3125 -0.375 C 11.144531 0.226562 9.882812 0.53125 8.53125 0.53125 Z M 9.59375 -2.375 C 10.613281 -2.375 11.578125 -2.613281 12.484375 -3.09375 C 13.398438 -3.582031 14.375 -4.296875 15.40625 -5.234375 L 15.40625 -11.171875 C 13.613281 -10.941406 12.109375 -10.664062 10.890625 -10.34375 C 9.671875 -10.019531 8.6875 -9.632812 7.9375 -9.1875 C 7.1875 -8.75 6.644531 -8.242188 6.3125 -7.671875 C 5.976562 -7.097656 5.8125 -6.476562 5.8125 -5.8125 C 5.8125 -4.570312 6.175781 -3.6875 6.90625 -3.15625 C 7.644531 -2.632812 8.539062 -2.375 9.59375 -2.375 Z M 9.59375 -2.375 "/></g></g></g><g fill="#526479" fill-opacity="1"><g transform="translate(723.01168, 559.535488)"><g/></g></g><g fill="#526479" fill-opacity="1"><g transform="translate(731.810115, 559.535488)"><g><path d="M 10.90625 0.53125 C 8.207031 0.53125 6.054688 -0.4375 4.453125 -2.375 C 2.859375 -4.3125 2.0625 -7.066406 2.0625 -10.640625 C 2.0625 -12.378906 2.316406 -13.941406 2.828125 -15.328125 C 3.347656 -16.722656 4.03125 -17.90625 4.875 -18.875 C 5.726562 -19.84375 6.710938 -20.585938 7.828125 -21.109375 C 8.941406 -21.640625 10.117188 -21.90625 11.359375 -21.90625 C 12.585938 -21.90625 13.65625 -21.6875 14.5625 -21.25 C 15.46875 -20.8125 16.394531 -20.210938 17.34375 -19.453125 L 17.15625 -23.09375 L 17.15625 -31.328125 L 20.8125 -31.328125 L 20.8125 0 L 17.8125 0 L 17.515625 -2.515625 L 17.375 -2.515625 C 16.53125 -1.691406 15.554688 -0.976562 14.453125 -0.375 C 13.347656 0.226562 12.164062 0.53125 10.90625 0.53125 Z M 11.703125 -2.515625 C 12.703125 -2.515625 13.640625 -2.753906 14.515625 -3.234375 C 15.398438 -3.710938 16.28125 -4.453125 17.15625 -5.453125 L 17.15625 -16.625 C 16.25 -17.445312 15.375 -18.023438 14.53125 -18.359375 C 13.695312 -18.703125 12.84375 -18.875 11.96875 -18.875 C 11.113281 -18.875 10.3125 -18.675781 9.5625 -18.28125 C 8.820312 -17.882812 8.171875 -17.328125 7.609375 -16.609375 C 7.054688 -15.890625 6.617188 -15.03125 6.296875 -14.03125 C 5.972656 -13.039062 5.8125 -11.925781 5.8125 -10.6875 C 5.8125 -8.101562 6.320312 -6.09375 7.34375 -4.65625 C 8.375 -3.226562 9.828125 -2.515625 11.703125 -2.515625 Z M 11.703125 -2.515625 "/></g></g></g><g fill="#526479" fill-opacity="1"><g transform="translate(756.225763, 559.535488)"><g><path d="M 3.609375 0 L 3.609375 -21.390625 L 6.59375 -21.390625 L 6.90625 -17.515625 L 7.046875 -17.515625 C 7.773438 -18.859375 8.660156 -19.925781 9.703125 -20.71875 C 10.742188 -21.507812 11.878906 -21.90625 13.109375 -21.90625 C 13.960938 -21.90625 14.726562 -21.757812 15.40625 -21.46875 L 14.703125 -18.296875 C 14.347656 -18.421875 14.019531 -18.507812 13.71875 -18.5625 C 13.425781 -18.625 13.0625 -18.65625 12.625 -18.65625 C 11.71875 -18.65625 10.769531 -18.285156 9.78125 -17.546875 C 8.800781 -16.816406 7.945312 -15.546875 7.21875 -13.734375 L 7.21875 0 Z M 3.609375 0 "/></g></g></g><g fill="#526479" fill-opacity="1"><g transform="translate(771.491048, 559.535488)"><g><path d="M 8.53125 0.53125 C 6.75 0.53125 5.257812 0.00390625 4.0625 -1.046875 C 2.875 -2.109375 2.28125 -3.609375 2.28125 -5.546875 C 2.28125 -7.890625 3.320312 -9.679688 5.40625 -10.921875 C 7.488281 -12.171875 10.820312 -13.046875 15.40625 -13.546875 C 15.40625 -14.222656 15.335938 -14.882812 15.203125 -15.53125 C 15.066406 -16.175781 14.835938 -16.75 14.515625 -17.25 C 14.191406 -17.75 13.742188 -18.148438 13.171875 -18.453125 C 12.597656 -18.765625 11.875 -18.921875 11 -18.921875 C 9.769531 -18.921875 8.609375 -18.6875 7.515625 -18.21875 C 6.429688 -17.75 5.46875 -17.21875 4.625 -16.625 L 3.21875 -19.140625 C 4.207031 -19.785156 5.421875 -20.40625 6.859375 -21 C 8.296875 -21.601562 9.878906 -21.90625 11.609375 -21.90625 C 14.222656 -21.90625 16.113281 -21.101562 17.28125 -19.5 C 18.457031 -17.90625 19.046875 -15.773438 19.046875 -13.109375 L 19.046875 0 L 16.0625 0 L 15.75 -2.546875 L 15.625 -2.546875 C 14.59375 -1.703125 13.488281 -0.976562 12.3125 -0.375 C 11.144531 0.226562 9.882812 0.53125 8.53125 0.53125 Z M 9.59375 -2.375 C 10.613281 -2.375 11.578125 -2.613281 12.484375 -3.09375 C 13.398438 -3.582031 14.375 -4.296875 15.40625 -5.234375 L 15.40625 -11.171875 C 13.613281 -10.941406 12.109375 -10.664062 10.890625 -10.34375 C 9.671875 -10.019531 8.6875 -9.632812 7.9375 -9.1875 C 7.1875 -8.75 6.644531 -8.242188 6.3125 -7.671875 C 5.976562 -7.097656 5.8125 -6.476562 5.8125 -5.8125 C 5.8125 -4.570312 6.175781 -3.6875 6.90625 -3.15625 C 7.644531 -2.632812 8.539062 -2.375 9.59375 -2.375 Z M 9.59375 -2.375 "/></g></g></g><g fill="#526479" fill-opacity="1"><g transform="translate(793.663093, 559.535488)"><g><path d="M 4.21875 0 L 4.21875 -18.4375 L 1.3125 -18.4375 L 1.3125 -21.15625 L 4.21875 -21.390625 L 4.21875 -24.765625 C 4.21875 -26.972656 4.722656 -28.707031 5.734375 -29.96875 C 6.753906 -31.226562 8.332031 -31.859375 10.46875 -31.859375 C 11.144531 -31.859375 11.78125 -31.789062 12.375 -31.65625 C 12.976562 -31.519531 13.53125 -31.351562 14.03125 -31.15625 L 13.25 -28.375 C 12.457031 -28.726562 11.648438 -28.90625 10.828125 -28.90625 C 8.828125 -28.90625 7.828125 -27.523438 7.828125 -24.765625 L 7.828125 -21.390625 L 12.359375 -21.390625 L 12.359375 -18.4375 L 7.828125 -18.4375 L 7.828125 0 Z M 4.21875 0 "/></g></g></g><g fill="#526479" fill-opacity="1"><g transform="translate(806.5088, 559.535488)"><g><path d="M 10.34375 0.53125 C 9.195312 0.53125 8.234375 0.351562 7.453125 0 C 6.679688 -0.351562 6.050781 -0.835938 5.5625 -1.453125 C 5.082031 -2.066406 4.738281 -2.8125 4.53125 -3.6875 C 4.320312 -4.570312 4.21875 -5.539062 4.21875 -6.59375 L 4.21875 -18.4375 L 1.0625 -18.4375 L 1.0625 -21.15625 L 4.40625 -21.390625 L 4.84375 -27.375 L 7.875 -27.375 L 7.875 -21.390625 L 13.640625 -21.390625 L 13.640625 -18.4375 L 7.875 -18.4375 L 7.875 -6.5625 C 7.875 -5.238281 8.113281 -4.21875 8.59375 -3.5 C 9.082031 -2.78125 9.941406 -2.421875 11.171875 -2.421875 C 11.554688 -2.421875 11.96875 -2.476562 12.40625 -2.59375 C 12.84375 -2.707031 13.238281 -2.835938 13.59375 -2.984375 L 14.296875 -0.265625 C 13.710938 -0.0546875 13.078125 0.125 12.390625 0.28125 C 11.703125 0.445312 11.019531 0.53125 10.34375 0.53125 Z M 10.34375 0.53125 "/></g></g></g><path stroke-linecap="round" transform="matrix(0.748285, 0, 0, 0.75, 457.909543, 541.409177)" fill="none" stroke-linejoin="miter" d="M 3.999546 4.001306 L 69.174611 4.001306 " stroke="#526479" stroke-width="8" stroke-opacity="1" stroke-miterlimit="4"/><path stroke-linecap="round" transform="matrix(5.986281, 0, 0, 6, 514.160428, 544.409177)" fill="none" stroke-linejoin="round" d="M -2.499902 -1.499837 L -0.499886 0.000163273 L -2.499902 1.500163 " stroke="#526479" stroke-width="1" stroke-opacity="1" stroke-miterlimit="4"/><g fill="#526479" fill-opacity="1"><g transform="translate(390.679674, 204.85441)"><g><path d="M 9.078125 0 L 1.28125 -36.734375 L 6.109375 -36.734375 L 9.96875 -16.75 C 10.300781 -14.726562 10.65625 -12.742188 11.03125 -10.796875 C 11.40625 -8.859375 11.757812 -6.882812 12.09375 -4.875 L 12.3125 -4.875 C 12.726562 -6.882812 13.160156 -8.867188 13.609375 -10.828125 C 14.054688 -12.796875 14.484375 -14.769531 14.890625 -16.75 L 19.984375 -36.734375 L 24.25 -36.734375 L 29.34375 -16.75 C 29.789062 -14.800781 30.238281 -12.835938 30.6875 -10.859375 C 31.132812 -8.878906 31.582031 -6.882812 32.03125 -4.875 L 32.25 -4.875 C 32.59375 -6.882812 32.929688 -8.867188 33.265625 -10.828125 C 33.597656 -12.796875 33.953125 -14.769531 34.328125 -16.75 L 38.1875 -36.734375 L 42.671875 -36.734375 L 35.0625 0 L 29.453125 0 L 23.90625 -22.125 C 23.570312 -23.539062 23.265625 -24.929688 22.984375 -26.296875 C 22.703125 -27.660156 22.414062 -29.050781 22.125 -30.46875 L 21.890625 -30.46875 C 21.597656 -29.050781 21.289062 -27.660156 20.96875 -26.296875 C 20.65625 -24.929688 20.347656 -23.539062 20.046875 -22.125 L 14.609375 0 Z M 9.078125 0 "/></g></g></g><g fill="#526479" fill-opacity="1"><g transform="translate(434.689529, 204.85441)"><g><path d="M 15.171875 0.671875 C 13.492188 0.671875 11.898438 0.351562 10.390625 -0.28125 C 8.878906 -0.914062 7.539062 -1.835938 6.375 -3.046875 C 5.21875 -4.265625 4.296875 -5.757812 3.609375 -7.53125 C 2.921875 -9.300781 2.578125 -11.304688 2.578125 -13.546875 C 2.578125 -15.828125 2.921875 -17.851562 3.609375 -19.625 C 4.296875 -21.394531 5.21875 -22.894531 6.375 -24.125 C 7.539062 -25.363281 8.878906 -26.300781 10.390625 -26.9375 C 11.898438 -27.570312 13.492188 -27.890625 15.171875 -27.890625 C 16.859375 -27.890625 18.457031 -27.570312 19.96875 -26.9375 C 21.476562 -26.300781 22.8125 -25.363281 23.96875 -24.125 C 25.125 -22.894531 26.046875 -21.394531 26.734375 -19.625 C 27.429688 -17.851562 27.78125 -15.828125 27.78125 -13.546875 C 27.78125 -11.304688 27.429688 -9.300781 26.734375 -7.53125 C 26.046875 -5.757812 25.125 -4.265625 23.96875 -3.046875 C 22.8125 -1.835938 21.476562 -0.914062 19.96875 -0.28125 C 18.457031 0.351562 16.859375 0.671875 15.171875 0.671875 Z M 15.171875 -3.140625 C 16.328125 -3.140625 17.390625 -3.390625 18.359375 -3.890625 C 19.335938 -4.390625 20.171875 -5.097656 20.859375 -6.015625 C 21.546875 -6.929688 22.078125 -8.023438 22.453125 -9.296875 C 22.828125 -10.566406 23.015625 -11.984375 23.015625 -13.546875 C 23.015625 -15.117188 22.828125 -16.546875 22.453125 -17.828125 C 22.078125 -19.117188 21.546875 -20.226562 20.859375 -21.15625 C 20.171875 -22.09375 19.335938 -22.8125 18.359375 -23.3125 C 17.390625 -23.820312 16.328125 -24.078125 15.171875 -24.078125 C 14.015625 -24.078125 12.953125 -23.820312 11.984375 -23.3125 C 11.015625 -22.8125 10.179688 -22.09375 9.484375 -21.15625 C 8.796875 -20.226562 8.265625 -19.117188 7.890625 -17.828125 C 7.523438 -16.546875 7.34375 -15.117188 7.34375 -13.546875 C 7.34375 -11.984375 7.523438 -10.566406 7.890625 -9.296875 C 8.265625 -8.023438 8.796875 -6.929688 9.484375 -6.015625 C 10.179688 -5.097656 11.015625 -4.390625 11.984375 -3.890625 C 12.953125 -3.390625 14.015625 -3.140625 15.171875 -3.140625 Z M 15.171875 -3.140625 "/></g></g></g><g fill="#526479" fill-opacity="1"><g transform="translate(465.037291, 204.85441)"><g><path d="M 4.59375 0 L 4.59375 -27.21875 L 8.40625 -27.21875 L 8.796875 -22.28125 L 8.953125 -22.28125 C 9.890625 -24 11.019531 -25.363281 12.34375 -26.375 C 13.675781 -27.382812 15.125 -27.890625 16.6875 -27.890625 C 17.769531 -27.890625 18.738281 -27.703125 19.59375 -27.328125 L 18.703125 -23.296875 C 18.253906 -23.441406 17.84375 -23.550781 17.46875 -23.625 C 17.09375 -23.707031 16.628906 -23.75 16.078125 -23.75 C 14.921875 -23.75 13.710938 -23.28125 12.453125 -22.34375 C 11.203125 -21.40625 10.113281 -19.78125 9.1875 -17.46875 L 9.1875 0 Z M 4.59375 0 "/></g></g></g><g fill="#526479" fill-opacity="1"><g transform="translate(484.466577, 204.85441)"><g><path d="M 4.59375 0 L 4.59375 -39.875 L 9.125 -39.875 L 9.125 -12.875 L 9.296875 -12.875 L 20.890625 -27.21875 L 25.984375 -27.21875 L 16.859375 -16.296875 L 27.21875 0 L 22.171875 0 L 14.21875 -13.109375 L 9.125 -7.171875 L 9.125 0 Z M 4.59375 0 "/></g></g></g><g fill="#526479" fill-opacity="1"><g transform="translate(512.182712, 204.85441)"><g><path d="M 5.375 0 L 5.375 -23.46875 L 1.6875 -23.46875 L 1.6875 -26.9375 L 5.375 -27.21875 L 5.375 -31.53125 C 5.375 -34.332031 6.015625 -36.535156 7.296875 -38.140625 C 8.585938 -39.742188 10.597656 -40.546875 13.328125 -40.546875 C 14.179688 -40.546875 14.988281 -40.460938 15.75 -40.296875 C 16.519531 -40.128906 17.222656 -39.910156 17.859375 -39.640625 L 16.859375 -36.125 C 15.847656 -36.570312 14.820312 -36.796875 13.78125 -36.796875 C 11.238281 -36.796875 9.96875 -35.039062 9.96875 -31.53125 L 9.96875 -27.21875 L 15.734375 -27.21875 L 15.734375 -23.46875 L 9.96875 -23.46875 L 9.96875 0 Z M 5.375 0 "/></g></g></g><g fill="#526479" fill-opacity="1"><g transform="translate(528.532428, 204.85441)"><g><path d="M 9.46875 0.671875 C 7.707031 0.671875 6.453125 0.148438 5.703125 -0.890625 C 4.960938 -1.941406 4.59375 -3.472656 4.59375 -5.484375 L 4.59375 -39.875 L 9.1875 -39.875 L 9.1875 -5.15625 C 9.1875 -4.40625 9.316406 -3.878906 9.578125 -3.578125 C 9.835938 -3.285156 10.132812 -3.140625 10.46875 -3.140625 C 10.625 -3.140625 10.765625 -3.140625 10.890625 -3.140625 C 11.023438 -3.140625 11.222656 -3.175781 11.484375 -3.25 L 12.09375 0.21875 C 11.789062 0.375 11.4375 0.488281 11.03125 0.5625 C 10.625 0.632812 10.101562 0.671875 9.46875 0.671875 Z M 9.46875 0.671875 "/></g></g></g><g fill="#526479" fill-opacity="1"><g transform="translate(542.81043, 204.85441)"><g><path d="M 15.171875 0.671875 C 13.492188 0.671875 11.898438 0.351562 10.390625 -0.28125 C 8.878906 -0.914062 7.539062 -1.835938 6.375 -3.046875 C 5.21875 -4.265625 4.296875 -5.757812 3.609375 -7.53125 C 2.921875 -9.300781 2.578125 -11.304688 2.578125 -13.546875 C 2.578125 -15.828125 2.921875 -17.851562 3.609375 -19.625 C 4.296875 -21.394531 5.21875 -22.894531 6.375 -24.125 C 7.539062 -25.363281 8.878906 -26.300781 10.390625 -26.9375 C 11.898438 -27.570312 13.492188 -27.890625 15.171875 -27.890625 C 16.859375 -27.890625 18.457031 -27.570312 19.96875 -26.9375 C 21.476562 -26.300781 22.8125 -25.363281 23.96875 -24.125 C 25.125 -22.894531 26.046875 -21.394531 26.734375 -19.625 C 27.429688 -17.851562 27.78125 -15.828125 27.78125 -13.546875 C 27.78125 -11.304688 27.429688 -9.300781 26.734375 -7.53125 C 26.046875 -5.757812 25.125 -4.265625 23.96875 -3.046875 C 22.8125 -1.835938 21.476562 -0.914062 19.96875 -0.28125 C 18.457031 0.351562 16.859375 0.671875 15.171875 0.671875 Z M 15.171875 -3.140625 C 16.328125 -3.140625 17.390625 -3.390625 18.359375 -3.890625 C 19.335938 -4.390625 20.171875 -5.097656 20.859375 -6.015625 C 21.546875 -6.929688 22.078125 -8.023438 22.453125 -9.296875 C 22.828125 -10.566406 23.015625 -11.984375 23.015625 -13.546875 C 23.015625 -15.117188 22.828125 -16.546875 22.453125 -17.828125 C 22.078125 -19.117188 21.546875 -20.226562 20.859375 -21.15625 C 20.171875 -22.09375 19.335938 -22.8125 18.359375 -23.3125 C 17.390625 -23.820312 16.328125 -24.078125 15.171875 -24.078125 C 14.015625 -24.078125 12.953125 -23.820312 11.984375 -23.3125 C 11.015625 -22.8125 10.179688 -22.09375 9.484375 -21.15625 C 8.796875 -20.226562 8.265625 -19.117188 7.890625 -17.828125 C 7.523438 -16.546875 7.34375 -15.117188 7.34375 -13.546875 C 7.34375 -11.984375 7.523438 -10.566406 7.890625 -9.296875 C 8.265625 -8.023438 8.796875 -6.929688 9.484375 -6.015625 C 10.179688 -5.097656 11.015625 -4.390625 11.984375 -3.890625 C 12.953125 -3.390625 14.015625 -3.140625 15.171875 -3.140625 Z M 15.171875 -3.140625 "/></g></g></g><g fill="#526479" fill-opacity="1"><g transform="translate(573.158192, 204.85441)"><g><path d="M 8.90625 0 L 1.34375 -27.21875 L 6.046875 -27.21875 L 10.078125 -11.484375 C 10.378906 -10.171875 10.660156 -8.898438 10.921875 -7.671875 C 11.179688 -6.441406 11.441406 -5.191406 11.703125 -3.921875 L 11.921875 -3.921875 C 12.222656 -5.191406 12.519531 -6.453125 12.8125 -7.703125 C 13.113281 -8.953125 13.4375 -10.210938 13.78125 -11.484375 L 17.96875 -27.21875 L 22.453125 -27.21875 L 26.71875 -11.484375 C 27.050781 -10.171875 27.375 -8.898438 27.6875 -7.671875 C 28.007812 -6.441406 28.316406 -5.191406 28.609375 -3.921875 L 28.84375 -3.921875 C 29.132812 -5.191406 29.410156 -6.441406 29.671875 -7.671875 C 29.941406 -8.898438 30.222656 -10.171875 30.515625 -11.484375 L 34.5 -27.21875 L 38.859375 -27.21875 L 31.578125 0 L 25.984375 0 L 22.0625 -14.609375 C 21.726562 -15.921875 21.421875 -17.210938 21.140625 -18.484375 C 20.859375 -19.753906 20.550781 -21.078125 20.21875 -22.453125 L 19.984375 -22.453125 C 19.691406 -21.078125 19.394531 -19.742188 19.09375 -18.453125 C 18.789062 -17.160156 18.457031 -15.863281 18.09375 -14.5625 L 14.28125 0 Z M 8.90625 0 "/></g></g></g><g fill="#526479" fill-opacity="1"><g transform="translate(613.360586, 204.85441)"><g/></g></g><g fill="#526479" fill-opacity="1"><g transform="translate(624.559018, 204.85441)"><g><path d="M 13.15625 0.671875 C 11.695312 0.671875 10.472656 0.445312 9.484375 0 C 8.503906 -0.445312 7.703125 -1.0625 7.078125 -1.84375 C 6.460938 -2.632812 6.023438 -3.585938 5.765625 -4.703125 C 5.503906 -5.828125 5.375 -7.0625 5.375 -8.40625 L 5.375 -23.46875 L 1.34375 -23.46875 L 1.34375 -26.9375 L 5.59375 -27.21875 L 6.15625 -34.828125 L 10.03125 -34.828125 L 10.03125 -27.21875 L 17.359375 -27.21875 L 17.359375 -23.46875 L 10.03125 -23.46875 L 10.03125 -8.34375 C 10.03125 -6.664062 10.335938 -5.367188 10.953125 -4.453125 C 11.566406 -3.535156 12.65625 -3.078125 14.21875 -3.078125 C 14.707031 -3.078125 15.226562 -3.148438 15.78125 -3.296875 C 16.34375 -3.453125 16.847656 -3.625 17.296875 -3.8125 L 18.203125 -0.34375 C 17.453125 -0.0703125 16.640625 0.160156 15.765625 0.359375 C 14.890625 0.566406 14.019531 0.671875 13.15625 0.671875 Z M 13.15625 0.671875 "/></g></g></g><g fill="#526479" fill-opacity="1"><g transform="translate(643.484364, 204.85441)"><g><path d="M 15.171875 0.671875 C 13.492188 0.671875 11.898438 0.351562 10.390625 -0.28125 C 8.878906 -0.914062 7.539062 -1.835938 6.375 -3.046875 C 5.21875 -4.265625 4.296875 -5.757812 3.609375 -7.53125 C 2.921875 -9.300781 2.578125 -11.304688 2.578125 -13.546875 C 2.578125 -15.828125 2.921875 -17.851562 3.609375 -19.625 C 4.296875 -21.394531 5.21875 -22.894531 6.375 -24.125 C 7.539062 -25.363281 8.878906 -26.300781 10.390625 -26.9375 C 11.898438 -27.570312 13.492188 -27.890625 15.171875 -27.890625 C 16.859375 -27.890625 18.457031 -27.570312 19.96875 -26.9375 C 21.476562 -26.300781 22.8125 -25.363281 23.96875 -24.125 C 25.125 -22.894531 26.046875 -21.394531 26.734375 -19.625 C 27.429688 -17.851562 27.78125 -15.828125 27.78125 -13.546875 C 27.78125 -11.304688 27.429688 -9.300781 26.734375 -7.53125 C 26.046875 -5.757812 25.125 -4.265625 23.96875 -3.046875 C 22.8125 -1.835938 21.476562 -0.914062 19.96875 -0.28125 C 18.457031 0.351562 16.859375 0.671875 15.171875 0.671875 Z M 15.171875 -3.140625 C 16.328125 -3.140625 17.390625 -3.390625 18.359375 -3.890625 C 19.335938 -4.390625 20.171875 -5.097656 20.859375 -6.015625 C 21.546875 -6.929688 22.078125 -8.023438 22.453125 -9.296875 C 22.828125 -10.566406 23.015625 -11.984375 23.015625 -13.546875 C 23.015625 -15.117188 22.828125 -16.546875 22.453125 -17.828125 C 22.078125 -19.117188 21.546875 -20.226562 20.859375 -21.15625 C 20.171875 -22.09375 19.335938 -22.8125 18.359375 -23.3125 C 17.390625 -23.820312 16.328125 -24.078125 15.171875 -24.078125 C 14.015625 -24.078125 12.953125 -23.820312 11.984375 -23.3125 C 11.015625 -22.8125 10.179688 -22.09375 9.484375 -21.15625 C 8.796875 -20.226562 8.265625 -19.117188 7.890625 -17.828125 C 7.523438 -16.546875 7.34375 -15.117188 7.34375 -13.546875 C 7.34375 -11.984375 7.523438 -10.566406 7.890625 -9.296875 C 8.265625 -8.023438 8.796875 -6.929688 9.484375 -6.015625 C 10.179688 -5.097656 11.015625 -4.390625 11.984375 -3.890625 C 12.953125 -3.390625 14.015625 -3.140625 15.171875 -3.140625 Z M 15.171875 -3.140625 "/></g></g></g><g fill="#526479" fill-opacity="1"><g transform="translate(673.832125, 204.85441)"><g/></g></g><g fill="#526479" fill-opacity="1"><g transform="translate(685.030558, 204.85441)"><g><path d="M 15.34375 0.671875 C 13.550781 0.671875 11.867188 0.351562 10.296875 -0.28125 C 8.734375 -0.914062 7.378906 -1.835938 6.234375 -3.046875 C 5.097656 -4.265625 4.203125 -5.757812 3.546875 -7.53125 C 2.898438 -9.300781 2.578125 -11.304688 2.578125 -13.546875 C 2.578125 -15.828125 2.929688 -17.851562 3.640625 -19.625 C 4.347656 -21.394531 5.296875 -22.894531 6.484375 -24.125 C 7.679688 -25.363281 9.070312 -26.300781 10.65625 -26.9375 C 12.25 -27.570312 13.925781 -27.890625 15.6875 -27.890625 C 17.476562 -27.890625 19.003906 -27.570312 20.265625 -26.9375 C 21.535156 -26.300781 22.65625 -25.554688 23.625 -24.703125 L 21.28125 -21.671875 C 20.5 -22.378906 19.664062 -22.957031 18.78125 -23.40625 C 17.90625 -23.851562 16.925781 -24.078125 15.84375 -24.078125 C 14.613281 -24.078125 13.472656 -23.820312 12.421875 -23.3125 C 11.378906 -22.8125 10.484375 -22.09375 9.734375 -21.15625 C 8.992188 -20.226562 8.410156 -19.117188 7.984375 -17.828125 C 7.554688 -16.546875 7.34375 -15.117188 7.34375 -13.546875 C 7.34375 -11.984375 7.546875 -10.566406 7.953125 -9.296875 C 8.359375 -8.023438 8.925781 -6.929688 9.65625 -6.015625 C 10.382812 -5.097656 11.269531 -4.390625 12.3125 -3.890625 C 13.363281 -3.390625 14.503906 -3.140625 15.734375 -3.140625 C 17.003906 -3.140625 18.171875 -3.410156 19.234375 -3.953125 C 20.296875 -4.492188 21.257812 -5.132812 22.125 -5.875 L 24.140625 -2.796875 C 22.898438 -1.710938 21.535156 -0.863281 20.046875 -0.25 C 18.554688 0.363281 16.988281 0.671875 15.34375 0.671875 Z M 15.34375 0.671875 "/></g></g></g><g fill="#526479" fill-opacity="1"><g transform="translate(710.562989, 204.85441)"><g><path d="M 4.59375 0 L 4.59375 -27.21875 L 8.40625 -27.21875 L 8.796875 -22.28125 L 8.953125 -22.28125 C 9.890625 -24 11.019531 -25.363281 12.34375 -26.375 C 13.675781 -27.382812 15.125 -27.890625 16.6875 -27.890625 C 17.769531 -27.890625 18.738281 -27.703125 19.59375 -27.328125 L 18.703125 -23.296875 C 18.253906 -23.441406 17.84375 -23.550781 17.46875 -23.625 C 17.09375 -23.707031 16.628906 -23.75 16.078125 -23.75 C 14.921875 -23.75 13.710938 -23.28125 12.453125 -22.34375 C 11.203125 -21.40625 10.113281 -19.78125 9.1875 -17.46875 L 9.1875 0 Z M 4.59375 0 "/></g></g></g><g fill="#526479" fill-opacity="1"><g transform="translate(729.992263, 204.85441)"><g><path d="M 15.625 0.671875 C 13.789062 0.671875 12.082031 0.347656 10.5 -0.296875 C 8.914062 -0.953125 7.535156 -1.882812 6.359375 -3.09375 C 5.179688 -4.3125 4.253906 -5.796875 3.578125 -7.546875 C 2.910156 -9.304688 2.578125 -11.304688 2.578125 -13.546875 C 2.578125 -15.785156 2.921875 -17.789062 3.609375 -19.5625 C 4.296875 -21.34375 5.207031 -22.847656 6.34375 -24.078125 C 7.488281 -25.304688 8.789062 -26.25 10.25 -26.90625 C 11.707031 -27.5625 13.21875 -27.890625 14.78125 -27.890625 C 16.5 -27.890625 18.039062 -27.585938 19.40625 -26.984375 C 20.769531 -26.390625 21.90625 -25.53125 22.8125 -24.40625 C 23.726562 -23.289062 24.425781 -21.945312 24.90625 -20.375 C 25.394531 -18.8125 25.640625 -17.0625 25.640625 -15.125 C 25.640625 -14.632812 25.628906 -14.15625 25.609375 -13.6875 C 25.597656 -13.21875 25.554688 -12.816406 25.484375 -12.484375 L 7.109375 -12.484375 C 7.296875 -9.578125 8.203125 -7.273438 9.828125 -5.578125 C 11.453125 -3.878906 13.570312 -3.03125 16.1875 -3.03125 C 17.488281 -3.03125 18.691406 -3.222656 19.796875 -3.609375 C 20.898438 -4.003906 21.953125 -4.519531 22.953125 -5.15625 L 24.578125 -2.125 C 23.390625 -1.382812 22.066406 -0.734375 20.609375 -0.171875 C 19.148438 0.390625 17.488281 0.671875 15.625 0.671875 Z M 7.0625 -15.796875 L 21.609375 -15.796875 C 21.609375 -18.554688 21.019531 -20.65625 19.84375 -22.09375 C 18.675781 -23.53125 17.023438 -24.25 14.890625 -24.25 C 13.921875 -24.25 13 -24.0625 12.125 -23.6875 C 11.25 -23.3125 10.457031 -22.757812 9.75 -22.03125 C 9.039062 -21.300781 8.453125 -20.414062 7.984375 -19.375 C 7.515625 -18.332031 7.207031 -17.140625 7.0625 -15.796875 Z M 7.0625 -15.796875 "/></g></g></g><g fill="#526479" fill-opacity="1"><g transform="translate(757.764372, 204.85441)"><g><path d="M 10.859375 0.671875 C 8.585938 0.671875 6.691406 0 5.171875 -1.34375 C 3.660156 -2.6875 2.90625 -4.59375 2.90625 -7.0625 C 2.90625 -10.039062 4.226562 -12.320312 6.875 -13.90625 C 9.53125 -15.5 13.769531 -16.613281 19.59375 -17.25 C 19.59375 -18.101562 19.507812 -18.941406 19.34375 -19.765625 C 19.175781 -20.585938 18.882812 -21.316406 18.46875 -21.953125 C 18.0625 -22.585938 17.492188 -23.097656 16.765625 -23.484375 C 16.046875 -23.878906 15.125 -24.078125 14 -24.078125 C 12.425781 -24.078125 10.945312 -23.773438 9.5625 -23.171875 C 8.1875 -22.578125 6.957031 -21.910156 5.875 -21.171875 L 4.09375 -24.359375 C 5.351562 -25.179688 6.898438 -25.972656 8.734375 -26.734375 C 10.566406 -27.503906 12.582031 -27.890625 14.78125 -27.890625 C 18.101562 -27.890625 20.507812 -26.867188 22 -24.828125 C 23.5 -22.796875 24.25 -20.082031 24.25 -16.6875 L 24.25 0 L 20.4375 0 L 20.046875 -3.25 L 19.875 -3.25 C 18.570312 -2.164062 17.171875 -1.238281 15.671875 -0.46875 C 14.179688 0.289062 12.578125 0.671875 10.859375 0.671875 Z M 12.203125 -3.03125 C 13.515625 -3.03125 14.75 -3.335938 15.90625 -3.953125 C 17.0625 -4.566406 18.289062 -5.46875 19.59375 -6.65625 L 19.59375 -14.21875 C 17.320312 -13.925781 15.410156 -13.570312 13.859375 -13.15625 C 12.304688 -12.75 11.054688 -12.265625 10.109375 -11.703125 C 9.160156 -11.140625 8.46875 -10.492188 8.03125 -9.765625 C 7.601562 -9.046875 7.390625 -8.253906 7.390625 -7.390625 C 7.390625 -5.828125 7.851562 -4.707031 8.78125 -4.03125 C 9.71875 -3.363281 10.859375 -3.03125 12.203125 -3.03125 Z M 12.203125 -3.03125 "/></g></g></g><g fill="#526479" fill-opacity="1"><g transform="translate(785.984448, 204.85441)"><g><path d="M 13.15625 0.671875 C 11.695312 0.671875 10.472656 0.445312 9.484375 0 C 8.503906 -0.445312 7.703125 -1.0625 7.078125 -1.84375 C 6.460938 -2.632812 6.023438 -3.585938 5.765625 -4.703125 C 5.503906 -5.828125 5.375 -7.0625 5.375 -8.40625 L 5.375 -23.46875 L 1.34375 -23.46875 L 1.34375 -26.9375 L 5.59375 -27.21875 L 6.15625 -34.828125 L 10.03125 -34.828125 L 10.03125 -27.21875 L 17.359375 -27.21875 L 17.359375 -23.46875 L 10.03125 -23.46875 L 10.03125 -8.34375 C 10.03125 -6.664062 10.335938 -5.367188 10.953125 -4.453125 C 11.566406 -3.535156 12.65625 -3.078125 14.21875 -3.078125 C 14.707031 -3.078125 15.226562 -3.148438 15.78125 -3.296875 C 16.34375 -3.453125 16.847656 -3.625 17.296875 -3.8125 L 18.203125 -0.34375 C 17.453125 -0.0703125 16.640625 0.160156 15.765625 0.359375 C 14.890625 0.566406 14.019531 0.671875 13.15625 0.671875 Z M 13.15625 0.671875 "/></g></g></g><g fill="#526479" fill-opacity="1"><g transform="translate(804.909817, 204.85441)"><g><path d="M 15.625 0.671875 C 13.789062 0.671875 12.082031 0.347656 10.5 -0.296875 C 8.914062 -0.953125 7.535156 -1.882812 6.359375 -3.09375 C 5.179688 -4.3125 4.253906 -5.796875 3.578125 -7.546875 C 2.910156 -9.304688 2.578125 -11.304688 2.578125 -13.546875 C 2.578125 -15.785156 2.921875 -17.789062 3.609375 -19.5625 C 4.296875 -21.34375 5.207031 -22.847656 6.34375 -24.078125 C 7.488281 -25.304688 8.789062 -26.25 10.25 -26.90625 C 11.707031 -27.5625 13.21875 -27.890625 14.78125 -27.890625 C 16.5 -27.890625 18.039062 -27.585938 19.40625 -26.984375 C 20.769531 -26.390625 21.90625 -25.53125 22.8125 -24.40625 C 23.726562 -23.289062 24.425781 -21.945312 24.90625 -20.375 C 25.394531 -18.8125 25.640625 -17.0625 25.640625 -15.125 C 25.640625 -14.632812 25.628906 -14.15625 25.609375 -13.6875 C 25.597656 -13.21875 25.554688 -12.816406 25.484375 -12.484375 L 7.109375 -12.484375 C 7.296875 -9.578125 8.203125 -7.273438 9.828125 -5.578125 C 11.453125 -3.878906 13.570312 -3.03125 16.1875 -3.03125 C 17.488281 -3.03125 18.691406 -3.222656 19.796875 -3.609375 C 20.898438 -4.003906 21.953125 -4.519531 22.953125 -5.15625 L 24.578125 -2.125 C 23.390625 -1.382812 22.066406 -0.734375 20.609375 -0.171875 C 19.148438 0.390625 17.488281 0.671875 15.625 0.671875 Z M 7.0625 -15.796875 L 21.609375 -15.796875 C 21.609375 -18.554688 21.019531 -20.65625 19.84375 -22.09375 C 18.675781 -23.53125 17.023438 -24.25 14.890625 -24.25 C 13.921875 -24.25 13 -24.0625 12.125 -23.6875 C 11.25 -23.3125 10.457031 -22.757812 9.75 -22.03125 C 9.039062 -21.300781 8.453125 -20.414062 7.984375 -19.375 C 7.515625 -18.332031 7.207031 -17.140625 7.0625 -15.796875 Z M 7.0625 -15.796875 "/></g></g></g><g fill="#526479" fill-opacity="1"><g transform="translate(832.681925, 204.85441)"><g/></g></g><g fill="#526479" fill-opacity="1"><g transform="translate(843.880335, 204.85441)"><g><path d="M 10.859375 0.671875 C 8.585938 0.671875 6.691406 0 5.171875 -1.34375 C 3.660156 -2.6875 2.90625 -4.59375 2.90625 -7.0625 C 2.90625 -10.039062 4.226562 -12.320312 6.875 -13.90625 C 9.53125 -15.5 13.769531 -16.613281 19.59375 -17.25 C 19.59375 -18.101562 19.507812 -18.941406 19.34375 -19.765625 C 19.175781 -20.585938 18.882812 -21.316406 18.46875 -21.953125 C 18.0625 -22.585938 17.492188 -23.097656 16.765625 -23.484375 C 16.046875 -23.878906 15.125 -24.078125 14 -24.078125 C 12.425781 -24.078125 10.945312 -23.773438 9.5625 -23.171875 C 8.1875 -22.578125 6.957031 -21.910156 5.875 -21.171875 L 4.09375 -24.359375 C 5.351562 -25.179688 6.898438 -25.972656 8.734375 -26.734375 C 10.566406 -27.503906 12.582031 -27.890625 14.78125 -27.890625 C 18.101562 -27.890625 20.507812 -26.867188 22 -24.828125 C 23.5 -22.796875 24.25 -20.082031 24.25 -16.6875 L 24.25 0 L 20.4375 0 L 20.046875 -3.25 L 19.875 -3.25 C 18.570312 -2.164062 17.171875 -1.238281 15.671875 -0.46875 C 14.179688 0.289062 12.578125 0.671875 10.859375 0.671875 Z M 12.203125 -3.03125 C 13.515625 -3.03125 14.75 -3.335938 15.90625 -3.953125 C 17.0625 -4.566406 18.289062 -5.46875 19.59375 -6.65625 L 19.59375 -14.21875 C 17.320312 -13.925781 15.410156 -13.570312 13.859375 -13.15625 C 12.304688 -12.75 11.054688 -12.265625 10.109375 -11.703125 C 9.160156 -11.140625 8.46875 -10.492188 8.03125 -9.765625 C 7.601562 -9.046875 7.390625 -8.253906 7.390625 -7.390625 C 7.390625 -5.828125 7.851562 -4.707031 8.78125 -4.03125 C 9.71875 -3.363281 10.859375 -3.03125 12.203125 -3.03125 Z M 12.203125 -3.03125 "/></g></g></g><g fill="#526479" fill-opacity="1"><g transform="translate(872.100411, 204.85441)"><g/></g></g><g fill="#526479" fill-opacity="1"><g transform="translate(883.29882, 204.85441)"><g><path d="M 5.046875 0 L 5.046875 -36.734375 L 16.515625 -36.734375 C 18.378906 -36.734375 20.101562 -36.554688 21.6875 -36.203125 C 23.28125 -35.847656 24.644531 -35.257812 25.78125 -34.4375 C 26.925781 -33.613281 27.816406 -32.546875 28.453125 -31.234375 C 29.085938 -29.929688 29.40625 -28.332031 29.40625 -26.4375 C 29.40625 -23.5625 28.65625 -21.265625 27.15625 -19.546875 C 25.664062 -17.828125 23.648438 -16.648438 21.109375 -16.015625 L 30.46875 0 L 25.203125 0 L 16.359375 -15.515625 L 9.6875 -15.515625 L 9.6875 0 Z M 9.6875 -19.3125 L 15.84375 -19.3125 C 18.71875 -19.3125 20.921875 -19.898438 22.453125 -21.078125 C 23.984375 -22.253906 24.75 -24.039062 24.75 -26.4375 C 24.75 -28.863281 23.984375 -30.5625 22.453125 -31.53125 C 20.921875 -32.5 18.71875 -32.984375 15.84375 -32.984375 L 9.6875 -32.984375 Z M 9.6875 -19.3125 "/></g></g></g><g fill="#526479" fill-opacity="1"><g transform="translate(915.158346, 204.85441)"><g><path d="M 15.625 0.671875 C 13.789062 0.671875 12.082031 0.347656 10.5 -0.296875 C 8.914062 -0.953125 7.535156 -1.882812 6.359375 -3.09375 C 5.179688 -4.3125 4.253906 -5.796875 3.578125 -7.546875 C 2.910156 -9.304688 2.578125 -11.304688 2.578125 -13.546875 C 2.578125 -15.785156 2.921875 -17.789062 3.609375 -19.5625 C 4.296875 -21.34375 5.207031 -22.847656 6.34375 -24.078125 C 7.488281 -25.304688 8.789062 -26.25 10.25 -26.90625 C 11.707031 -27.5625 13.21875 -27.890625 14.78125 -27.890625 C 16.5 -27.890625 18.039062 -27.585938 19.40625 -26.984375 C 20.769531 -26.390625 21.90625 -25.53125 22.8125 -24.40625 C 23.726562 -23.289062 24.425781 -21.945312 24.90625 -20.375 C 25.394531 -18.8125 25.640625 -17.0625 25.640625 -15.125 C 25.640625 -14.632812 25.628906 -14.15625 25.609375 -13.6875 C 25.597656 -13.21875 25.554688 -12.816406 25.484375 -12.484375 L 7.109375 -12.484375 C 7.296875 -9.578125 8.203125 -7.273438 9.828125 -5.578125 C 11.453125 -3.878906 13.570312 -3.03125 16.1875 -3.03125 C 17.488281 -3.03125 18.691406 -3.222656 19.796875 -3.609375 C 20.898438 -4.003906 21.953125 -4.519531 22.953125 -5.15625 L 24.578125 -2.125 C 23.390625 -1.382812 22.066406 -0.734375 20.609375 -0.171875 C 19.148438 0.390625 17.488281 0.671875 15.625 0.671875 Z M 7.0625 -15.796875 L 21.609375 -15.796875 C 21.609375 -18.554688 21.019531 -20.65625 19.84375 -22.09375 C 18.675781 -23.53125 17.023438 -24.25 14.890625 -24.25 C 13.921875 -24.25 13 -24.0625 12.125 -23.6875 C 11.25 -23.3125 10.457031 -22.757812 9.75 -22.03125 C 9.039062 -21.300781 8.453125 -20.414062 7.984375 -19.375 C 7.515625 -18.332031 7.207031 -17.140625 7.0625 -15.796875 Z M 7.0625 -15.796875 "/></g></g></g><g fill="#526479" fill-opacity="1"><g transform="translate(942.930455, 204.85441)"><g><path d="M 15.34375 0.671875 C 13.550781 0.671875 11.867188 0.351562 10.296875 -0.28125 C 8.734375 -0.914062 7.378906 -1.835938 6.234375 -3.046875 C 5.097656 -4.265625 4.203125 -5.757812 3.546875 -7.53125 C 2.898438 -9.300781 2.578125 -11.304688 2.578125 -13.546875 C 2.578125 -15.828125 2.929688 -17.851562 3.640625 -19.625 C 4.347656 -21.394531 5.296875 -22.894531 6.484375 -24.125 C 7.679688 -25.363281 9.070312 -26.300781 10.65625 -26.9375 C 12.25 -27.570312 13.925781 -27.890625 15.6875 -27.890625 C 17.476562 -27.890625 19.003906 -27.570312 20.265625 -26.9375 C 21.535156 -26.300781 22.65625 -25.554688 23.625 -24.703125 L 21.28125 -21.671875 C 20.5 -22.378906 19.664062 -22.957031 18.78125 -23.40625 C 17.90625 -23.851562 16.925781 -24.078125 15.84375 -24.078125 C 14.613281 -24.078125 13.472656 -23.820312 12.421875 -23.3125 C 11.378906 -22.8125 10.484375 -22.09375 9.734375 -21.15625 C 8.992188 -20.226562 8.410156 -19.117188 7.984375 -17.828125 C 7.554688 -16.546875 7.34375 -15.117188 7.34375 -13.546875 C 7.34375 -11.984375 7.546875 -10.566406 7.953125 -9.296875 C 8.359375 -8.023438 8.925781 -6.929688 9.65625 -6.015625 C 10.382812 -5.097656 11.269531 -4.390625 12.3125 -3.890625 C 13.363281 -3.390625 14.503906 -3.140625 15.734375 -3.140625 C 17.003906 -3.140625 18.171875 -3.410156 19.234375 -3.953125 C 20.296875 -4.492188 21.257812 -5.132812 22.125 -5.875 L 24.140625 -2.796875 C 22.898438 -1.710938 21.535156 -0.863281 20.046875 -0.25 C 18.554688 0.363281 16.988281 0.671875 15.34375 0.671875 Z M 15.34375 0.671875 "/></g></g></g><g fill="#526479" fill-opacity="1"><g transform="translate(968.462909, 204.85441)"><g><path d="M 15.171875 0.671875 C 13.492188 0.671875 11.898438 0.351562 10.390625 -0.28125 C 8.878906 -0.914062 7.539062 -1.835938 6.375 -3.046875 C 5.21875 -4.265625 4.296875 -5.757812 3.609375 -7.53125 C 2.921875 -9.300781 2.578125 -11.304688 2.578125 -13.546875 C 2.578125 -15.828125 2.921875 -17.851562 3.609375 -19.625 C 4.296875 -21.394531 5.21875 -22.894531 6.375 -24.125 C 7.539062 -25.363281 8.878906 -26.300781 10.390625 -26.9375 C 11.898438 -27.570312 13.492188 -27.890625 15.171875 -27.890625 C 16.859375 -27.890625 18.457031 -27.570312 19.96875 -26.9375 C 21.476562 -26.300781 22.8125 -25.363281 23.96875 -24.125 C 25.125 -22.894531 26.046875 -21.394531 26.734375 -19.625 C 27.429688 -17.851562 27.78125 -15.828125 27.78125 -13.546875 C 27.78125 -11.304688 27.429688 -9.300781 26.734375 -7.53125 C 26.046875 -5.757812 25.125 -4.265625 23.96875 -3.046875 C 22.8125 -1.835938 21.476562 -0.914062 19.96875 -0.28125 C 18.457031 0.351562 16.859375 0.671875 15.171875 0.671875 Z M 15.171875 -3.140625 C 16.328125 -3.140625 17.390625 -3.390625 18.359375 -3.890625 C 19.335938 -4.390625 20.171875 -5.097656 20.859375 -6.015625 C 21.546875 -6.929688 22.078125 -8.023438 22.453125 -9.296875 C 22.828125 -10.566406 23.015625 -11.984375 23.015625 -13.546875 C 23.015625 -15.117188 22.828125 -16.546875 22.453125 -17.828125 C 22.078125 -19.117188 21.546875 -20.226562 20.859375 -21.15625 C 20.171875 -22.09375 19.335938 -22.8125 18.359375 -23.3125 C 17.390625 -23.820312 16.328125 -24.078125 15.171875 -24.078125 C 14.015625 -24.078125 12.953125 -23.820312 11.984375 -23.3125 C 11.015625 -22.8125 10.179688 -22.09375 9.484375 -21.15625 C 8.796875 -20.226562 8.265625 -19.117188 7.890625 -17.828125 C 7.523438 -16.546875 7.34375 -15.117188 7.34375 -13.546875 C 7.34375 -11.984375 7.523438 -10.566406 7.890625 -9.296875 C 8.265625 -8.023438 8.796875 -6.929688 9.484375 -6.015625 C 10.179688 -5.097656 11.015625 -4.390625 11.984375 -3.890625 C 12.953125 -3.390625 14.015625 -3.140625 15.171875 -3.140625 Z M 15.171875 -3.140625 "/></g></g></g><g fill="#526479" fill-opacity="1"><g transform="translate(998.81067, 204.85441)"><g><path d="M 4.59375 0 L 4.59375 -27.21875 L 8.40625 -27.21875 L 8.796875 -22.28125 L 8.953125 -22.28125 C 9.890625 -24 11.019531 -25.363281 12.34375 -26.375 C 13.675781 -27.382812 15.125 -27.890625 16.6875 -27.890625 C 17.769531 -27.890625 18.738281 -27.703125 19.59375 -27.328125 L 18.703125 -23.296875 C 18.253906 -23.441406 17.84375 -23.550781 17.46875 -23.625 C 17.09375 -23.707031 16.628906 -23.75 16.078125 -23.75 C 14.921875 -23.75 13.710938 -23.28125 12.453125 -22.34375 C 11.203125 -21.40625 10.113281 -19.78125 9.1875 -17.46875 L 9.1875 0 Z M 4.59375 0 "/></g></g></g><g fill="#526479" fill-opacity="1"><g transform="translate(1018.239945, 204.85441)"><g><path d="M 13.890625 0.671875 C 10.453125 0.671875 7.710938 -0.554688 5.671875 -3.015625 C 3.640625 -5.484375 2.625 -8.992188 2.625 -13.546875 C 2.625 -15.753906 2.953125 -17.742188 3.609375 -19.515625 C 4.265625 -21.285156 5.132812 -22.785156 6.21875 -24.015625 C 7.300781 -25.253906 8.550781 -26.207031 9.96875 -26.875 C 11.382812 -27.550781 12.878906 -27.890625 14.453125 -27.890625 C 16.015625 -27.890625 17.375 -27.609375 18.53125 -27.046875 C 19.6875 -26.484375 20.863281 -25.71875 22.0625 -24.75 L 21.84375 -29.40625 L 21.84375 -39.875 L 26.484375 -39.875 L 26.484375 0 L 22.6875 0 L 22.28125 -3.1875 L 22.125 -3.1875 C 21.039062 -2.144531 19.796875 -1.238281 18.390625 -0.46875 C 16.992188 0.289062 15.492188 0.671875 13.890625 0.671875 Z M 14.890625 -3.1875 C 16.160156 -3.1875 17.351562 -3.492188 18.46875 -4.109375 C 19.59375 -4.734375 20.71875 -5.675781 21.84375 -6.9375 L 21.84375 -21.171875 C 20.6875 -22.210938 19.570312 -22.945312 18.5 -23.375 C 17.4375 -23.8125 16.347656 -24.03125 15.234375 -24.03125 C 14.148438 -24.03125 13.128906 -23.773438 12.171875 -23.265625 C 11.222656 -22.765625 10.394531 -22.054688 9.6875 -21.140625 C 8.976562 -20.222656 8.414062 -19.128906 8 -17.859375 C 7.59375 -16.585938 7.390625 -15.171875 7.390625 -13.609375 C 7.390625 -10.328125 8.039062 -7.769531 9.34375 -5.9375 C 10.65625 -4.101562 12.503906 -3.1875 14.890625 -3.1875 Z M 14.890625 -3.1875 "/></g></g></g><g clip-path="url(#40dcde53ac)"><g clip-path="url(#3dabb25c1f)"><path stroke-linecap="butt" transform="matrix(0.750363, 0, 0, 0.751153, 46.364637, 460.535493)" fill="none" stroke-linejoin="miter" d="M 50.999545 -0.000448086 L 497.720783 -0.000448086 C 525.884232 -0.000448086 548.716929 22.834247 548.716929 50.999292 L 548.716929 172.656058 C 548.716929 200.821103 525.884232 223.655798 497.720783 223.655798 L 50.999545 223.655798 C 22.83089 223.655798 -0.00180638 200.821103 -0.00180638 172.656058 L -0.00180638 50.999292 C -0.00180638 22.834247 22.83089 -0.000448086 50.999545 -0.000448086 " stroke="#526479" stroke-width="6" stroke-opacity="1" stroke-miterlimit="4"/></g></g><g fill="#526479" fill-opacity="1"><g transform="translate(126.936626, 559.535488)"><g><path d="M 14.875 0.53125 C 13.050781 0.53125 11.375 0.191406 9.84375 -0.484375 C 8.320312 -1.160156 7 -2.132812 5.875 -3.40625 C 4.75 -4.6875 3.867188 -6.253906 3.234375 -8.109375 C 2.597656 -9.972656 2.28125 -12.082031 2.28125 -14.4375 C 2.28125 -16.75 2.601562 -18.828125 3.25 -20.671875 C 3.894531 -22.523438 4.789062 -24.097656 5.9375 -25.390625 C 7.082031 -26.679688 8.429688 -27.671875 9.984375 -28.359375 C 11.535156 -29.046875 13.238281 -29.390625 15.09375 -29.390625 C 16.851562 -29.390625 18.398438 -29.03125 19.734375 -28.3125 C 21.066406 -27.59375 22.160156 -26.765625 23.015625 -25.828125 L 21.03125 -23.453125 C 20.269531 -24.273438 19.40625 -24.9375 18.4375 -25.4375 C 17.46875 -25.9375 16.367188 -26.1875 15.140625 -26.1875 C 13.753906 -26.1875 12.503906 -25.910156 11.390625 -25.359375 C 10.273438 -24.816406 9.320312 -24.039062 8.53125 -23.03125 C 7.738281 -22.019531 7.128906 -20.796875 6.703125 -19.359375 C 6.285156 -17.921875 6.078125 -16.304688 6.078125 -14.515625 C 6.078125 -12.703125 6.285156 -11.066406 6.703125 -9.609375 C 7.128906 -8.160156 7.722656 -6.921875 8.484375 -5.890625 C 9.253906 -4.867188 10.1875 -4.078125 11.28125 -3.515625 C 12.382812 -2.960938 13.625 -2.6875 15 -2.6875 C 16.40625 -2.6875 17.632812 -2.972656 18.6875 -3.546875 C 19.75 -4.117188 20.75 -4.914062 21.6875 -5.9375 L 23.71875 -3.65625 C 22.570312 -2.332031 21.28125 -1.300781 19.84375 -0.5625 C 18.40625 0.164062 16.75 0.53125 14.875 0.53125 Z M 14.875 0.53125 "/></g></g></g><g fill="#526479" fill-opacity="1"><g transform="translate(152.056154, 559.535488)"><g><path d="M 3.609375 0 L 3.609375 -21.390625 L 6.59375 -21.390625 L 6.90625 -17.515625 L 7.046875 -17.515625 C 7.773438 -18.859375 8.660156 -19.925781 9.703125 -20.71875 C 10.742188 -21.507812 11.878906 -21.90625 13.109375 -21.90625 C 13.960938 -21.90625 14.726562 -21.757812 15.40625 -21.46875 L 14.703125 -18.296875 C 14.347656 -18.421875 14.019531 -18.507812 13.71875 -18.5625 C 13.425781 -18.625 13.0625 -18.65625 12.625 -18.65625 C 11.71875 -18.65625 10.769531 -18.285156 9.78125 -17.546875 C 8.800781 -16.816406 7.945312 -15.546875 7.21875 -13.734375 L 7.21875 0 Z M 3.609375 0 "/></g></g></g><g fill="#526479" fill-opacity="1"><g transform="translate(167.321439, 559.535488)"><g><path d="M 12.28125 0.53125 C 10.84375 0.53125 9.5 0.273438 8.25 -0.234375 C 7 -0.753906 5.910156 -1.488281 4.984375 -2.4375 C 4.066406 -3.394531 3.34375 -4.5625 2.8125 -5.9375 C 2.289062 -7.320312 2.03125 -8.890625 2.03125 -10.640625 C 2.03125 -12.398438 2.300781 -13.976562 2.84375 -15.375 C 3.382812 -16.769531 4.101562 -17.953125 5 -18.921875 C 5.894531 -19.890625 6.910156 -20.628906 8.046875 -21.140625 C 9.191406 -21.648438 10.378906 -21.90625 11.609375 -21.90625 C 12.960938 -21.90625 14.175781 -21.671875 15.25 -21.203125 C 16.320312 -20.734375 17.21875 -20.054688 17.9375 -19.171875 C 18.65625 -18.296875 19.203125 -17.242188 19.578125 -16.015625 C 19.960938 -14.785156 20.15625 -13.40625 20.15625 -11.875 C 20.15625 -11.5 20.144531 -11.125 20.125 -10.75 C 20.113281 -10.382812 20.078125 -10.070312 20.015625 -9.8125 L 5.59375 -9.8125 C 5.738281 -7.519531 6.445312 -5.707031 7.71875 -4.375 C 9 -3.039062 10.664062 -2.375 12.71875 -2.375 C 13.738281 -2.375 14.679688 -2.523438 15.546875 -2.828125 C 16.421875 -3.140625 17.253906 -3.546875 18.046875 -4.046875 L 19.3125 -1.671875 C 18.375 -1.085938 17.332031 -0.570312 16.1875 -0.125 C 15.039062 0.3125 13.738281 0.53125 12.28125 0.53125 Z M 5.546875 -12.40625 L 16.984375 -12.40625 C 16.984375 -14.570312 16.519531 -16.21875 15.59375 -17.34375 C 14.675781 -18.476562 13.378906 -19.046875 11.703125 -19.046875 C 10.941406 -19.046875 10.210938 -18.898438 9.515625 -18.609375 C 8.828125 -18.316406 8.203125 -17.882812 7.640625 -17.3125 C 7.085938 -16.738281 6.628906 -16.039062 6.265625 -15.21875 C 5.898438 -14.394531 5.660156 -13.457031 5.546875 -12.40625 Z M 5.546875 -12.40625 "/></g></g></g><g fill="#526479" fill-opacity="1"><g transform="translate(189.141556, 559.535488)"><g><path d="M 8.53125 0.53125 C 6.75 0.53125 5.257812 0.00390625 4.0625 -1.046875 C 2.875 -2.109375 2.28125 -3.609375 2.28125 -5.546875 C 2.28125 -7.890625 3.320312 -9.679688 5.40625 -10.921875 C 7.488281 -12.171875 10.820312 -13.046875 15.40625 -13.546875 C 15.40625 -14.222656 15.335938 -14.882812 15.203125 -15.53125 C 15.066406 -16.175781 14.835938 -16.75 14.515625 -17.25 C 14.191406 -17.75 13.742188 -18.148438 13.171875 -18.453125 C 12.597656 -18.765625 11.875 -18.921875 11 -18.921875 C 9.769531 -18.921875 8.609375 -18.6875 7.515625 -18.21875 C 6.429688 -17.75 5.46875 -17.21875 4.625 -16.625 L 3.21875 -19.140625 C 4.207031 -19.785156 5.421875 -20.40625 6.859375 -21 C 8.296875 -21.601562 9.878906 -21.90625 11.609375 -21.90625 C 14.222656 -21.90625 16.113281 -21.101562 17.28125 -19.5 C 18.457031 -17.90625 19.046875 -15.773438 19.046875 -13.109375 L 19.046875 0 L 16.0625 0 L 15.75 -2.546875 L 15.625 -2.546875 C 14.59375 -1.703125 13.488281 -0.976562 12.3125 -0.375 C 11.144531 0.226562 9.882812 0.53125 8.53125 0.53125 Z M 9.59375 -2.375 C 10.613281 -2.375 11.578125 -2.613281 12.484375 -3.09375 C 13.398438 -3.582031 14.375 -4.296875 15.40625 -5.234375 L 15.40625 -11.171875 C 13.613281 -10.941406 12.109375 -10.664062 10.890625 -10.34375 C 9.671875 -10.019531 8.6875 -9.632812 7.9375 -9.1875 C 7.1875 -8.75 6.644531 -8.242188 6.3125 -7.671875 C 5.976562 -7.097656 5.8125 -6.476562 5.8125 -5.8125 C 5.8125 -4.570312 6.175781 -3.6875 6.90625 -3.15625 C 7.644531 -2.632812 8.539062 -2.375 9.59375 -2.375 Z M 9.59375 -2.375 "/></g></g></g><g fill="#526479" fill-opacity="1"><g transform="translate(211.313601, 559.535488)"><g><path d="M 10.34375 0.53125 C 9.195312 0.53125 8.234375 0.351562 7.453125 0 C 6.679688 -0.351562 6.050781 -0.835938 5.5625 -1.453125 C 5.082031 -2.066406 4.738281 -2.8125 4.53125 -3.6875 C 4.320312 -4.570312 4.21875 -5.539062 4.21875 -6.59375 L 4.21875 -18.4375 L 1.0625 -18.4375 L 1.0625 -21.15625 L 4.40625 -21.390625 L 4.84375 -27.375 L 7.875 -27.375 L 7.875 -21.390625 L 13.640625 -21.390625 L 13.640625 -18.4375 L 7.875 -18.4375 L 7.875 -6.5625 C 7.875 -5.238281 8.113281 -4.21875 8.59375 -3.5 C 9.082031 -2.78125 9.941406 -2.421875 11.171875 -2.421875 C 11.554688 -2.421875 11.96875 -2.476562 12.40625 -2.59375 C 12.84375 -2.707031 13.238281 -2.835938 13.59375 -2.984375 L 14.296875 -0.265625 C 13.710938 -0.0546875 13.078125 0.125 12.390625 0.28125 C 11.703125 0.445312 11.019531 0.53125 10.34375 0.53125 Z M 10.34375 0.53125 "/></g></g></g><g fill="#526479" fill-opacity="1"><g transform="translate(226.182955, 559.535488)"><g><path d="M 12.28125 0.53125 C 10.84375 0.53125 9.5 0.273438 8.25 -0.234375 C 7 -0.753906 5.910156 -1.488281 4.984375 -2.4375 C 4.066406 -3.394531 3.34375 -4.5625 2.8125 -5.9375 C 2.289062 -7.320312 2.03125 -8.890625 2.03125 -10.640625 C 2.03125 -12.398438 2.300781 -13.976562 2.84375 -15.375 C 3.382812 -16.769531 4.101562 -17.953125 5 -18.921875 C 5.894531 -19.890625 6.910156 -20.628906 8.046875 -21.140625 C 9.191406 -21.648438 10.378906 -21.90625 11.609375 -21.90625 C 12.960938 -21.90625 14.175781 -21.671875 15.25 -21.203125 C 16.320312 -20.734375 17.21875 -20.054688 17.9375 -19.171875 C 18.65625 -18.296875 19.203125 -17.242188 19.578125 -16.015625 C 19.960938 -14.785156 20.15625 -13.40625 20.15625 -11.875 C 20.15625 -11.5 20.144531 -11.125 20.125 -10.75 C 20.113281 -10.382812 20.078125 -10.070312 20.015625 -9.8125 L 5.59375 -9.8125 C 5.738281 -7.519531 6.445312 -5.707031 7.71875 -4.375 C 9 -3.039062 10.664062 -2.375 12.71875 -2.375 C 13.738281 -2.375 14.679688 -2.523438 15.546875 -2.828125 C 16.421875 -3.140625 17.253906 -3.546875 18.046875 -4.046875 L 19.3125 -1.671875 C 18.375 -1.085938 17.332031 -0.570312 16.1875 -0.125 C 15.039062 0.3125 13.738281 0.53125 12.28125 0.53125 Z M 5.546875 -12.40625 L 16.984375 -12.40625 C 16.984375 -14.570312 16.519531 -16.21875 15.59375 -17.34375 C 14.675781 -18.476562 13.378906 -19.046875 11.703125 -19.046875 C 10.941406 -19.046875 10.210938 -18.898438 9.515625 -18.609375 C 8.828125 -18.316406 8.203125 -17.882812 7.640625 -17.3125 C 7.085938 -16.738281 6.628906 -16.039062 6.265625 -15.21875 C 5.898438 -14.394531 5.660156 -13.457031 5.546875 -12.40625 Z M 5.546875 -12.40625 "/></g></g></g><g fill="#526479" fill-opacity="1"><g transform="translate(248.003072, 559.535488)"><g/></g></g><g fill="#526479" fill-opacity="1"><g transform="translate(256.801507, 559.535488)"><g><path d="M 8.53125 0.53125 C 6.75 0.53125 5.257812 0.00390625 4.0625 -1.046875 C 2.875 -2.109375 2.28125 -3.609375 2.28125 -5.546875 C 2.28125 -7.890625 3.320312 -9.679688 5.40625 -10.921875 C 7.488281 -12.171875 10.820312 -13.046875 15.40625 -13.546875 C 15.40625 -14.222656 15.335938 -14.882812 15.203125 -15.53125 C 15.066406 -16.175781 14.835938 -16.75 14.515625 -17.25 C 14.191406 -17.75 13.742188 -18.148438 13.171875 -18.453125 C 12.597656 -18.765625 11.875 -18.921875 11 -18.921875 C 9.769531 -18.921875 8.609375 -18.6875 7.515625 -18.21875 C 6.429688 -17.75 5.46875 -17.21875 4.625 -16.625 L 3.21875 -19.140625 C 4.207031 -19.785156 5.421875 -20.40625 6.859375 -21 C 8.296875 -21.601562 9.878906 -21.90625 11.609375 -21.90625 C 14.222656 -21.90625 16.113281 -21.101562 17.28125 -19.5 C 18.457031 -17.90625 19.046875 -15.773438 19.046875 -13.109375 L 19.046875 0 L 16.0625 0 L 15.75 -2.546875 L 15.625 -2.546875 C 14.59375 -1.703125 13.488281 -0.976562 12.3125 -0.375 C 11.144531 0.226562 9.882812 0.53125 8.53125 0.53125 Z M 9.59375 -2.375 C 10.613281 -2.375 11.578125 -2.613281 12.484375 -3.09375 C 13.398438 -3.582031 14.375 -4.296875 15.40625 -5.234375 L 15.40625 -11.171875 C 13.613281 -10.941406 12.109375 -10.664062 10.890625 -10.34375 C 9.671875 -10.019531 8.6875 -9.632812 7.9375 -9.1875 C 7.1875 -8.75 6.644531 -8.242188 6.3125 -7.671875 C 5.976562 -7.097656 5.8125 -6.476562 5.8125 -5.8125 C 5.8125 -4.570312 6.175781 -3.6875 6.90625 -3.15625 C 7.644531 -2.632812 8.539062 -2.375 9.59375 -2.375 Z M 9.59375 -2.375 "/></g></g></g><g fill="#526479" fill-opacity="1"><g transform="translate(278.973553, 559.535488)"><g/></g></g><g fill="#526479" fill-opacity="1"><g transform="translate(287.771987, 559.535488)"><g><path d="M 10.90625 0.53125 C 8.207031 0.53125 6.054688 -0.4375 4.453125 -2.375 C 2.859375 -4.3125 2.0625 -7.066406 2.0625 -10.640625 C 2.0625 -12.378906 2.316406 -13.941406 2.828125 -15.328125 C 3.347656 -16.722656 4.03125 -17.90625 4.875 -18.875 C 5.726562 -19.84375 6.710938 -20.585938 7.828125 -21.109375 C 8.941406 -21.640625 10.117188 -21.90625 11.359375 -21.90625 C 12.585938 -21.90625 13.65625 -21.6875 14.5625 -21.25 C 15.46875 -20.8125 16.394531 -20.210938 17.34375 -19.453125 L 17.15625 -23.09375 L 17.15625 -31.328125 L 20.8125 -31.328125 L 20.8125 0 L 17.8125 0 L 17.515625 -2.515625 L 17.375 -2.515625 C 16.53125 -1.691406 15.554688 -0.976562 14.453125 -0.375 C 13.347656 0.226562 12.164062 0.53125 10.90625 0.53125 Z M 11.703125 -2.515625 C 12.703125 -2.515625 13.640625 -2.753906 14.515625 -3.234375 C 15.398438 -3.710938 16.28125 -4.453125 17.15625 -5.453125 L 17.15625 -16.625 C 16.25 -17.445312 15.375 -18.023438 14.53125 -18.359375 C 13.695312 -18.703125 12.84375 -18.875 11.96875 -18.875 C 11.113281 -18.875 10.3125 -18.675781 9.5625 -18.28125 C 8.820312 -17.882812 8.171875 -17.328125 7.609375 -16.609375 C 7.054688 -15.890625 6.617188 -15.03125 6.296875 -14.03125 C 5.972656 -13.039062 5.8125 -11.925781 5.8125 -10.6875 C 5.8125 -8.101562 6.320312 -6.09375 7.34375 -4.65625 C 8.375 -3.226562 9.828125 -2.515625 11.703125 -2.515625 Z M 11.703125 -2.515625 "/></g></g></g><g fill="#526479" fill-opacity="1"><g transform="translate(312.187635, 559.535488)"><g><path d="M 3.609375 0 L 3.609375 -21.390625 L 6.59375 -21.390625 L 6.90625 -17.515625 L 7.046875 -17.515625 C 7.773438 -18.859375 8.660156 -19.925781 9.703125 -20.71875 C 10.742188 -21.507812 11.878906 -21.90625 13.109375 -21.90625 C 13.960938 -21.90625 14.726562 -21.757812 15.40625 -21.46875 L 14.703125 -18.296875 C 14.347656 -18.421875 14.019531 -18.507812 13.71875 -18.5625 C 13.425781 -18.625 13.0625 -18.65625 12.625 -18.65625 C 11.71875 -18.65625 10.769531 -18.285156 9.78125 -17.546875 C 8.800781 -16.816406 7.945312 -15.546875 7.21875 -13.734375 L 7.21875 0 Z M 3.609375 0 "/></g></g></g><g fill="#526479" fill-opacity="1"><g transform="translate(327.45292, 559.535488)"><g><path d="M 8.53125 0.53125 C 6.75 0.53125 5.257812 0.00390625 4.0625 -1.046875 C 2.875 -2.109375 2.28125 -3.609375 2.28125 -5.546875 C 2.28125 -7.890625 3.320312 -9.679688 5.40625 -10.921875 C 7.488281 -12.171875 10.820312 -13.046875 15.40625 -13.546875 C 15.40625 -14.222656 15.335938 -14.882812 15.203125 -15.53125 C 15.066406 -16.175781 14.835938 -16.75 14.515625 -17.25 C 14.191406 -17.75 13.742188 -18.148438 13.171875 -18.453125 C 12.597656 -18.765625 11.875 -18.921875 11 -18.921875 C 9.769531 -18.921875 8.609375 -18.6875 7.515625 -18.21875 C 6.429688 -17.75 5.46875 -17.21875 4.625 -16.625 L 3.21875 -19.140625 C 4.207031 -19.785156 5.421875 -20.40625 6.859375 -21 C 8.296875 -21.601562 9.878906 -21.90625 11.609375 -21.90625 C 14.222656 -21.90625 16.113281 -21.101562 17.28125 -19.5 C 18.457031 -17.90625 19.046875 -15.773438 19.046875 -13.109375 L 19.046875 0 L 16.0625 0 L 15.75 -2.546875 L 15.625 -2.546875 C 14.59375 -1.703125 13.488281 -0.976562 12.3125 -0.375 C 11.144531 0.226562 9.882812 0.53125 8.53125 0.53125 Z M 9.59375 -2.375 C 10.613281 -2.375 11.578125 -2.613281 12.484375 -3.09375 C 13.398438 -3.582031 14.375 -4.296875 15.40625 -5.234375 L 15.40625 -11.171875 C 13.613281 -10.941406 12.109375 -10.664062 10.890625 -10.34375 C 9.671875 -10.019531 8.6875 -9.632812 7.9375 -9.1875 C 7.1875 -8.75 6.644531 -8.242188 6.3125 -7.671875 C 5.976562 -7.097656 5.8125 -6.476562 5.8125 -5.8125 C 5.8125 -4.570312 6.175781 -3.6875 6.90625 -3.15625 C 7.644531 -2.632812 8.539062 -2.375 9.59375 -2.375 Z M 9.59375 -2.375 "/></g></g></g><g fill="#526479" fill-opacity="1"><g transform="translate(349.624955, 559.535488)"><g><path d="M 4.21875 0 L 4.21875 -18.4375 L 1.3125 -18.4375 L 1.3125 -21.15625 L 4.21875 -21.390625 L 4.21875 -24.765625 C 4.21875 -26.972656 4.722656 -28.707031 5.734375 -29.96875 C 6.753906 -31.226562 8.332031 -31.859375 10.46875 -31.859375 C 11.144531 -31.859375 11.78125 -31.789062 12.375 -31.65625 C 12.976562 -31.519531 13.53125 -31.351562 14.03125 -31.15625 L 13.25 -28.375 C 12.457031 -28.726562 11.648438 -28.90625 10.828125 -28.90625 C 8.828125 -28.90625 7.828125 -27.523438 7.828125 -24.765625 L 7.828125 -21.390625 L 12.359375 -21.390625 L 12.359375 -18.4375 L 7.828125 -18.4375 L 7.828125 0 Z M 4.21875 0 "/></g></g></g><g fill="#526479" fill-opacity="1"><g transform="translate(362.470673, 559.535488)"><g><path d="M 10.34375 0.53125 C 9.195312 0.53125 8.234375 0.351562 7.453125 0 C 6.679688 -0.351562 6.050781 -0.835938 5.5625 -1.453125 C 5.082031 -2.066406 4.738281 -2.8125 4.53125 -3.6875 C 4.320312 -4.570312 4.21875 -5.539062 4.21875 -6.59375 L 4.21875 -18.4375 L 1.0625 -18.4375 L 1.0625 -21.15625 L 4.40625 -21.390625 L 4.84375 -27.375 L 7.875 -27.375 L 7.875 -21.390625 L 13.640625 -21.390625 L 13.640625 -18.4375 L 7.875 -18.4375 L 7.875 -6.5625 C 7.875 -5.238281 8.113281 -4.21875 8.59375 -3.5 C 9.082031 -2.78125 9.941406 -2.421875 11.171875 -2.421875 C 11.554688 -2.421875 11.96875 -2.476562 12.40625 -2.59375 C 12.84375 -2.707031 13.238281 -2.835938 13.59375 -2.984375 L 14.296875 -0.265625 C 13.710938 -0.0546875 13.078125 0.125 12.390625 0.28125 C 11.703125 0.445312 11.019531 0.53125 10.34375 0.53125 Z M 10.34375 0.53125 "/></g></g></g></svg>