<svg xmlns="http://www.w3.org/2000/svg" xmlns:xlink="http://www.w3.org/1999/xlink" width="1920" zoomAndPan="magnify" viewBox="0 0 1440 809.999993" height="1080" preserveAspectRatio="xMidYMid meet" version="1.0"><defs><g/><clipPath id="f3977cef97"><path d="M 122.980469 573.789062 L 1358.972656 573.789062 L 1358.972656 784.539062 L 122.980469 784.539062 Z M 122.980469 573.789062 " clip-rule="nonzero"/></clipPath><clipPath id="b2b01e6459"><path d="M 161.230469 573.789062 L 1320.714844 573.789062 C 1341.839844 573.789062 1358.964844 590.90625 1358.964844 612.015625 L 1358.964844 746.316406 C 1358.964844 767.425781 1341.839844 784.539062 1320.714844 784.539062 L 161.230469 784.539062 C 140.105469 784.539062 122.980469 767.425781 122.980469 746.316406 L 122.980469 612.015625 C 122.980469 590.90625 140.105469 573.789062 161.230469 573.789062 " clip-rule="nonzero"/></clipPath><clipPath id="159f5a48b7"><path d="M 476.683594 620 L 578 620 L 578 716.667969 L 476.683594 716.667969 Z M 476.683594 620 " clip-rule="nonzero"/></clipPath><clipPath id="52d06bd5ea"><path d="M 500 596 L 601.167969 596 L 601.167969 693 L 500 693 Z M 500 596 " clip-rule="nonzero"/></clipPath><clipPath id="bdf5995f13"><path d="M 476.683594 616 L 489 616 L 489 625 L 476.683594 625 Z M 476.683594 616 " clip-rule="nonzero"/></clipPath><clipPath id="f8c23a3ccc"><path d="M 500 592.1875 L 601.167969 592.1875 L 601.167969 601 L 500 601 Z M 500 592.1875 " clip-rule="nonzero"/></clipPath><clipPath id="f0cd445e7e"><path d="M 845.503906 592.1875 L 956.625 592.1875 L 956.625 716.667969 L 845.503906 716.667969 Z M 845.503906 592.1875 " clip-rule="nonzero"/></clipPath></defs><g clip-path="url(#f3977cef97)"><g clip-path="url(#b2b01e6459)"><path stroke-linecap="butt" transform="matrix(0.749986, 0, 0, 0.749542, 122.981294, 573.790479)" fill="none" stroke-linejoin="miter" d="M 50.999866 -0.00189 L 1597.008349 -0.00189 C 1625.175549 -0.00189 1648.009316 22.834987 1648.009316 50.998037 L 1648.009316 230.175279 C 1648.009316 258.338329 1625.175549 281.169994 1597.008349 281.169994 L 50.999866 281.169994 C 22.832665 281.169994 -0.00110093 258.338329 -0.00110093 230.175279 L -0.00110093 50.998037 C -0.00110093 22.834987 22.832665 -0.00189 50.999866 -0.00189 " stroke="#ff3131" stroke-width="8" stroke-opacity="1" stroke-miterlimit="4"/></g></g><g clip-path="url(#159f5a48b7)"><path fill="#e6e9ed" d="M 577.03125 620.300781 C 577.019531 620.300781 576.109375 620.300781 575.003906 620.300781 L 478.734375 620.300781 C 477.628906 620.300781 476.726562 621.199219 476.726562 622.308594 L 476.726562 622.328125 C 476.726562 623.429688 476.726562 625.234375 476.726562 626.34375 L 476.726562 630.359375 C 476.726562 631.460938 476.726562 633.265625 476.726562 634.375 L 476.726562 714.660156 C 476.726562 715.765625 477.628906 716.667969 478.734375 716.667969 L 562.960938 716.667969 C 564.066406 716.667969 565.871094 716.667969 566.976562 716.667969 L 575.046875 716.667969 C 576.152344 716.667969 577.054688 715.765625 577.054688 714.660156 L 577.054688 622.308594 C 577.054688 621.199219 577.046875 620.300781 577.03125 620.300781 Z M 577.03125 620.300781 " fill-opacity="1" fill-rule="nonzero"/></g><path fill="#ccd1d9" d="M 589.121094 610.277344 C 589.101562 610.277344 588.179688 610.277344 587.074219 610.277344 L 490.761719 610.277344 C 489.65625 610.277344 488.753906 611.171875 488.753906 612.273438 C 488.753906 613.371094 488.753906 615.171875 488.753906 616.28125 L 488.753906 620.296875 C 488.753906 621.398438 488.753906 623.203125 488.753906 624.3125 L 488.753906 702.605469 C 488.753906 703.714844 489.65625 704.613281 490.761719 704.613281 L 575.046875 704.613281 C 576.152344 704.613281 577.957031 704.613281 579.0625 704.613281 L 587.074219 704.613281 C 588.179688 704.613281 589.082031 703.714844 589.082031 702.605469 L 589.082031 694.65625 C 589.082031 693.550781 589.082031 692.628906 589.082031 692.609375 C 589.082031 692.589844 589.082031 691.667969 589.082031 690.558594 L 589.160156 612.285156 C 589.160156 611.175781 589.144531 610.277344 589.121094 610.277344 Z M 589.121094 610.277344 " fill-opacity="1" fill-rule="nonzero"/><g clip-path="url(#52d06bd5ea)"><path fill="#e6e9ed" d="M 601.148438 596.199219 C 601.136719 596.199219 600.226562 596.199219 599.121094 596.199219 L 502.847656 596.199219 C 501.742188 596.199219 500.839844 597.101562 500.839844 598.207031 L 500.839844 598.226562 C 500.839844 599.332031 500.839844 601.136719 500.839844 602.242188 L 500.839844 606.257812 C 500.839844 607.363281 500.839844 609.167969 500.839844 610.273438 L 500.839844 690.558594 C 500.839844 691.667969 501.742188 692.566406 502.847656 692.566406 L 587.074219 692.566406 C 588.179688 692.566406 589.984375 692.566406 591.089844 692.566406 L 599.160156 692.566406 C 600.265625 692.566406 601.167969 691.667969 601.167969 690.558594 L 601.167969 598.207031 C 601.167969 597.101562 601.160156 596.199219 601.148438 596.199219 Z M 601.148438 596.199219 " fill-opacity="1" fill-rule="nonzero"/></g><g clip-path="url(#bdf5995f13)"><path fill="#ccd1d9" d="M 476.683594 620.296875 C 476.683594 618.085938 478.472656 616.28125 480.699219 616.28125 L 488.753906 616.28125 L 488.753906 624.3125 L 476.683594 624.3125 Z M 476.683594 620.296875 " fill-opacity="1" fill-rule="nonzero"/></g><path fill="#aab2bd" d="M 488.710938 608.269531 C 488.710938 606.042969 490.515625 604.253906 492.726562 604.253906 L 500.839844 604.253906 L 500.839844 612.285156 L 488.710938 612.285156 Z M 488.710938 608.269531 " fill-opacity="1" fill-rule="nonzero"/><g clip-path="url(#f8c23a3ccc)"><path fill="#ccd1d9" d="M 601.128906 596.203125 L 601.128906 600.21875 L 500.820312 600.21875 L 500.820312 596.203125 C 500.820312 593.992188 502.609375 592.1875 504.835938 592.1875 L 597.113281 592.1875 C 599.339844 592.1875 601.128906 593.992188 601.128906 596.203125 Z M 601.128906 596.203125 " fill-opacity="1" fill-rule="nonzero"/></g><path fill="#ccd1d9" d="M 494.800781 610.277344 C 493.691406 610.277344 492.785156 609.378906 492.785156 608.269531 C 492.785156 607.15625 493.671875 606.261719 494.78125 606.261719 L 494.800781 606.261719 C 495.910156 606.261719 496.808594 607.15625 496.808594 608.269531 C 496.808594 609.378906 495.910156 610.277344 494.800781 610.277344 Z M 494.800781 610.277344 " fill-opacity="1" fill-rule="nonzero"/><path fill="#e6e9ed" d="M 482.765625 622.3125 C 481.65625 622.3125 480.75 621.414062 480.75 620.304688 C 480.75 619.191406 481.636719 618.296875 482.746094 618.296875 L 482.765625 618.296875 C 483.875 618.296875 484.773438 619.191406 484.773438 620.304688 C 484.773438 621.414062 483.875 622.3125 482.765625 622.3125 Z M 482.765625 622.3125 " fill-opacity="1" fill-rule="nonzero"/><path fill="#e6e9ed" d="M 506.894531 598.21875 C 505.785156 598.21875 504.875 597.320312 504.875 596.210938 C 504.875 595.097656 505.765625 594.203125 506.871094 594.203125 L 506.894531 594.203125 C 508.003906 594.203125 508.902344 595.097656 508.902344 596.210938 C 508.902344 597.320312 508.003906 598.21875 506.894531 598.21875 Z M 506.894531 598.21875 " fill-opacity="1" fill-rule="nonzero"/><path fill="#e6e9ed" d="M 512.917969 598.21875 C 511.808594 598.21875 510.898438 597.320312 510.898438 596.210938 C 510.898438 595.097656 511.789062 594.203125 512.894531 594.203125 L 512.917969 594.203125 C 514.027344 594.203125 514.925781 595.097656 514.925781 596.210938 C 514.925781 597.320312 514.027344 598.21875 512.917969 598.21875 Z M 512.917969 598.21875 " fill-opacity="1" fill-rule="nonzero"/><path fill="#e6e9ed" d="M 518.941406 598.21875 C 517.832031 598.21875 516.921875 597.320312 516.921875 596.210938 C 516.921875 595.097656 517.8125 594.203125 518.917969 594.203125 L 518.941406 594.203125 C 520.050781 594.203125 520.949219 595.097656 520.949219 596.210938 C 520.949219 597.320312 520.050781 598.21875 518.941406 598.21875 Z M 518.941406 598.21875 " fill-opacity="1" fill-rule="nonzero"/><path fill="#545c66" d="M 542.867188 638.75 C 541.867188 638.75 540.699219 638.625 539.332031 638.34375 C 535.605469 637.578125 531.152344 635.769531 526.789062 633.25 C 525.742188 632.648438 524.738281 632.019531 523.785156 631.386719 C 522.859375 630.773438 522.609375 629.523438 523.222656 628.601562 C 523.839844 627.679688 525.085938 627.425781 526.007812 628.042969 C 526.894531 628.632812 527.824219 629.210938 528.800781 629.773438 C 532.800781 632.082031 536.828125 633.730469 540.144531 634.410156 C 543.480469 635.097656 544.617188 634.5 544.703125 634.351562 C 544.734375 634.300781 544.777344 633.929688 544.425781 633.164062 C 544.1875 632.644531 543.828125 632.0625 543.355469 631.4375 C 542.683594 630.550781 542.859375 629.292969 543.742188 628.625 C 544.628906 627.949219 545.886719 628.132812 546.554688 629.011719 C 547.207031 629.875 547.71875 630.710938 548.078125 631.5 C 549.136719 633.824219 548.71875 635.425781 548.179688 636.359375 C 547.5 637.539062 546.027344 638.75 542.867188 638.75 Z M 542.867188 638.75 " fill-opacity="1" fill-rule="nonzero"/><path fill="#545c66" d="M 516.542969 624.308594 C 515.929688 624.308594 515.324219 624.027344 514.929688 623.496094 C 512.285156 619.933594 512.636719 617.605469 513.398438 616.28125 C 515.050781 613.421875 519.617188 613.109375 526.246094 615.421875 C 527.292969 615.785156 527.847656 616.925781 527.484375 617.972656 C 527.117188 619.023438 525.96875 619.582031 524.929688 619.210938 C 519.492188 617.320312 517.078125 617.941406 516.878906 618.285156 C 516.820312 618.386719 516.804688 619.285156 518.152344 621.101562 C 518.8125 621.988281 518.625 623.25 517.738281 623.90625 C 517.378906 624.179688 516.960938 624.308594 516.542969 624.308594 Z M 516.542969 624.308594 " fill-opacity="1" fill-rule="nonzero"/><path fill="#545c66" d="M 518.71875 638.753906 C 516.140625 638.753906 514.320312 637.949219 513.402344 636.359375 C 510.65625 631.601562 518.417969 624.222656 526.792969 619.390625 C 531.152344 616.871094 535.609375 615.0625 539.335938 614.292969 C 545.019531 613.113281 547.28125 614.726562 548.179688 616.28125 C 550.703125 620.652344 544.46875 626.953125 537.789062 631.390625 C 536.867188 632.003906 535.621094 631.757812 535.003906 630.832031 C 534.390625 629.90625 534.640625 628.660156 535.566406 628.046875 C 543.027344 623.085938 545.070312 618.929688 544.703125 618.289062 C 544.617188 618.144531 543.484375 617.539062 540.140625 618.226562 C 536.824219 618.910156 532.796875 620.558594 528.796875 622.867188 C 519.671875 628.140625 516.367188 633.464844 516.878906 634.351562 C 517.074219 634.699219 519.496094 635.320312 524.933594 633.429688 C 525.980469 633.0625 527.125 633.617188 527.488281 634.664062 C 527.851562 635.710938 527.296875 636.859375 526.25 637.222656 C 523.308594 638.242188 520.773438 638.753906 518.71875 638.753906 Z M 518.71875 638.753906 " fill-opacity="1" fill-rule="nonzero"/><path fill="#ccd1d9" d="M 546.957031 670.519531 L 512.824219 670.519531 C 511.714844 670.519531 510.816406 669.621094 510.816406 668.511719 C 510.816406 667.398438 511.714844 666.503906 512.824219 666.503906 L 546.957031 666.503906 C 548.066406 666.503906 548.964844 667.398438 548.964844 668.511719 C 548.964844 669.621094 548.066406 670.519531 546.957031 670.519531 Z M 546.957031 670.519531 " fill-opacity="1" fill-rule="nonzero"/><path fill="#ccd1d9" d="M 589.160156 670.519531 L 555.03125 670.519531 C 553.921875 670.519531 553.023438 669.621094 553.023438 668.511719 C 553.023438 667.398438 553.921875 666.503906 555.03125 666.503906 L 589.160156 666.503906 C 590.273438 666.503906 591.167969 667.398438 591.167969 668.511719 C 591.167969 669.621094 590.269531 670.519531 589.160156 670.519531 Z M 589.160156 670.519531 " fill-opacity="1" fill-rule="nonzero"/><path fill="#ccd1d9" d="M 546.957031 664.488281 L 512.824219 664.488281 C 511.714844 664.488281 510.816406 663.589844 510.816406 662.480469 C 510.816406 661.367188 511.714844 660.472656 512.824219 660.472656 L 546.957031 660.472656 C 548.066406 660.472656 548.964844 661.367188 548.964844 662.480469 C 548.964844 663.589844 548.066406 664.488281 546.957031 664.488281 Z M 546.957031 664.488281 " fill-opacity="1" fill-rule="nonzero"/><path fill="#ccd1d9" d="M 589.160156 664.488281 L 555.03125 664.488281 C 553.921875 664.488281 553.023438 663.589844 553.023438 662.480469 C 553.023438 661.367188 553.921875 660.472656 555.03125 660.472656 L 589.160156 660.472656 C 590.273438 660.472656 591.167969 661.367188 591.167969 662.480469 C 591.167969 663.589844 590.269531 664.488281 589.160156 664.488281 Z M 589.160156 664.488281 " fill-opacity="1" fill-rule="nonzero"/><path fill="#ccd1d9" d="M 546.957031 676.546875 L 512.824219 676.546875 C 511.714844 676.546875 510.816406 675.648438 510.816406 674.539062 C 510.816406 673.425781 511.714844 672.53125 512.824219 672.53125 L 546.957031 672.53125 C 548.066406 672.53125 548.964844 673.425781 548.964844 674.539062 C 548.964844 675.648438 548.066406 676.546875 546.957031 676.546875 Z M 546.957031 676.546875 " fill-opacity="1" fill-rule="nonzero"/><path fill="#ccd1d9" d="M 589.160156 676.546875 L 555.03125 676.546875 C 553.921875 676.546875 553.023438 675.648438 553.023438 674.539062 C 553.023438 673.425781 553.921875 672.53125 555.03125 672.53125 L 589.160156 672.53125 C 590.273438 672.53125 591.167969 673.425781 591.167969 674.539062 C 591.167969 675.648438 590.269531 676.546875 589.160156 676.546875 Z M 589.160156 676.546875 " fill-opacity="1" fill-rule="nonzero"/><path fill="#ccd1d9" d="M 528.890625 682.578125 L 512.824219 682.578125 C 511.714844 682.578125 510.816406 681.679688 510.816406 680.570312 C 510.816406 679.457031 511.714844 678.5625 512.824219 678.5625 L 528.890625 678.5625 C 530 678.5625 530.898438 679.457031 530.898438 680.570312 C 530.898438 681.679688 530 682.578125 528.890625 682.578125 Z M 528.890625 682.578125 " fill-opacity="1" fill-rule="nonzero"/><path fill="#ccd1d9" d="M 571.074219 682.578125 L 555.03125 682.578125 C 553.921875 682.578125 553.023438 681.679688 553.023438 680.570312 C 553.023438 679.457031 553.921875 678.5625 555.03125 678.5625 L 571.074219 678.5625 C 572.183594 678.5625 573.082031 679.457031 573.082031 680.570312 C 573.082031 681.679688 572.183594 682.578125 571.074219 682.578125 Z M 571.074219 682.578125 " fill-opacity="1" fill-rule="nonzero"/><path fill="#656d78" d="M 530.789062 646.402344 C 525.292969 646.402344 522.789062 635.992188 522.789062 626.324219 C 522.789062 616.652344 525.292969 606.242188 530.789062 606.242188 C 536.285156 606.242188 538.789062 616.652344 538.789062 626.324219 C 538.789062 635.992188 536.289062 646.402344 530.789062 646.402344 Z M 530.789062 610.257812 C 529.765625 610.257812 526.804688 615.78125 526.804688 626.324219 C 526.804688 636.859375 529.765625 642.386719 530.789062 642.386719 C 531.8125 642.386719 534.773438 636.859375 534.773438 626.324219 C 534.777344 615.78125 531.8125 610.257812 530.789062 610.257812 Z M 530.789062 610.257812 " fill-opacity="1" fill-rule="nonzero"/><path fill="#ed5565" d="M 530.847656 628.332031 C 529.738281 628.332031 528.832031 627.433594 528.832031 626.324219 C 528.832031 625.210938 529.71875 624.316406 530.828125 624.316406 L 530.847656 624.316406 C 531.957031 624.316406 532.855469 625.210938 532.855469 626.324219 C 532.855469 627.433594 531.957031 628.332031 530.847656 628.332031 Z M 530.847656 628.332031 " fill-opacity="1" fill-rule="nonzero"/><path fill="#ccd1d9" d="M 589.160156 618.300781 L 555.03125 618.300781 C 553.921875 618.300781 553.023438 617.402344 553.023438 616.292969 C 553.023438 615.179688 553.921875 614.285156 555.03125 614.285156 L 589.160156 614.285156 C 590.273438 614.285156 591.167969 615.179688 591.167969 616.292969 C 591.167969 617.402344 590.269531 618.300781 589.160156 618.300781 Z M 589.160156 618.300781 " fill-opacity="1" fill-rule="nonzero"/><path fill="#ccd1d9" d="M 589.160156 624.296875 L 555.03125 624.296875 C 553.921875 624.296875 553.023438 623.402344 553.023438 622.289062 C 553.023438 621.179688 553.921875 620.28125 555.03125 620.28125 L 589.160156 620.28125 C 590.273438 620.28125 591.167969 621.179688 591.167969 622.289062 C 591.167969 623.402344 590.269531 624.296875 589.160156 624.296875 Z M 589.160156 624.296875 " fill-opacity="1" fill-rule="nonzero"/><path fill="#ccd1d9" d="M 589.160156 630.328125 L 555.03125 630.328125 C 553.921875 630.328125 553.023438 629.433594 553.023438 628.324219 C 553.023438 627.210938 553.921875 626.316406 555.03125 626.316406 L 589.160156 626.316406 C 590.273438 626.316406 591.167969 627.210938 591.167969 628.324219 C 591.167969 629.433594 590.269531 630.328125 589.160156 630.328125 Z M 589.160156 630.328125 " fill-opacity="1" fill-rule="nonzero"/><path fill="#ccd1d9" d="M 589.160156 636.359375 L 555.03125 636.359375 C 553.921875 636.359375 553.023438 635.460938 553.023438 634.351562 C 553.023438 633.238281 553.921875 632.34375 555.03125 632.34375 L 589.160156 632.34375 C 590.273438 632.34375 591.167969 633.238281 591.167969 634.351562 C 591.167969 635.460938 590.269531 636.359375 589.160156 636.359375 Z M 589.160156 636.359375 " fill-opacity="1" fill-rule="nonzero"/><path fill="#ccd1d9" d="M 571.074219 642.375 L 555.03125 642.375 C 553.921875 642.375 553.023438 641.480469 553.023438 640.367188 C 553.023438 639.257812 553.921875 638.359375 555.03125 638.359375 L 571.074219 638.359375 C 572.183594 638.359375 573.082031 639.257812 573.082031 640.367188 C 573.082031 641.480469 572.183594 642.375 571.074219 642.375 Z M 571.074219 642.375 " fill-opacity="1" fill-rule="nonzero"/><path fill="#ffffff" d="M 589.125 654.425781 L 512.824219 654.425781 C 511.714844 654.425781 510.816406 653.53125 510.816406 652.417969 C 510.816406 651.308594 511.714844 650.410156 512.824219 650.410156 L 589.125 650.410156 C 590.234375 650.410156 591.132812 651.308594 591.132812 652.417969 C 591.132812 653.53125 590.234375 654.425781 589.125 654.425781 Z M 589.125 654.425781 " fill-opacity="1" fill-rule="nonzero"/><g fill="#526479" fill-opacity="1"><g transform="translate(489.633132, 757.040423)"><g><path d="M 7.8125 -11.21875 L 7.265625 -9.171875 L 12 -9.171875 L 11.484375 -11.21875 C 11.171875 -12.320312 10.863281 -13.5 10.5625 -14.75 C 10.269531 -16 9.976562 -17.203125 9.6875 -18.359375 L 9.546875 -18.359375 C 9.273438 -17.171875 9 -15.957031 8.71875 -14.71875 C 8.4375 -13.488281 8.132812 -12.320312 7.8125 -11.21875 Z M -0.203125 0 L 6.734375 -22.15625 L 12.75 -22.15625 L 19.671875 0 L 14.375 0 L 13.015625 -5.265625 L 6.25 -5.265625 L 4.890625 0 Z M -0.203125 0 "/></g></g></g><g fill="#526479" fill-opacity="1"><g transform="translate(509.10181, 757.040423)"><g><path d="M 2.203125 0 L 2.203125 -16.859375 L 6.28125 -16.859375 L 6.625 -13.90625 L 6.765625 -13.90625 C 7.378906 -15.0625 8.113281 -15.910156 8.96875 -16.453125 C 9.832031 -16.992188 10.695312 -17.265625 11.5625 -17.265625 C 12.03125 -17.265625 12.414062 -17.234375 12.71875 -17.171875 C 13.03125 -17.117188 13.3125 -17.035156 13.5625 -16.921875 L 12.75 -12.609375 C 12.425781 -12.703125 12.128906 -12.769531 11.859375 -12.8125 C 11.585938 -12.851562 11.269531 -12.875 10.90625 -12.875 C 10.269531 -12.875 9.609375 -12.644531 8.921875 -12.1875 C 8.234375 -11.738281 7.660156 -10.9375 7.203125 -9.78125 L 7.203125 0 Z M 2.203125 0 "/></g></g></g><g fill="#526479" fill-opacity="1"><g transform="translate(522.624556, 757.040423)"><g><path d="M 8.703125 0.40625 C 7.660156 0.40625 6.769531 0.25 6.03125 -0.0625 C 5.289062 -0.382812 4.6875 -0.828125 4.21875 -1.390625 C 3.757812 -1.960938 3.421875 -2.648438 3.203125 -3.453125 C 2.992188 -4.253906 2.890625 -5.144531 2.890625 -6.125 L 2.890625 -12.953125 L 0.578125 -12.953125 L 0.578125 -16.65625 L 3.15625 -16.859375 L 3.734375 -21.34375 L 7.890625 -21.34375 L 7.890625 -16.859375 L 11.921875 -16.859375 L 11.921875 -12.953125 L 7.890625 -12.953125 L 7.890625 -6.1875 C 7.890625 -5.238281 8.085938 -4.550781 8.484375 -4.125 C 8.878906 -3.707031 9.40625 -3.5 10.0625 -3.5 C 10.332031 -3.5 10.609375 -3.53125 10.890625 -3.59375 C 11.171875 -3.664062 11.425781 -3.75 11.65625 -3.84375 L 12.4375 -0.203125 C 11.988281 -0.0664062 11.457031 0.0664062 10.84375 0.203125 C 10.226562 0.335938 9.515625 0.40625 8.703125 0.40625 Z M 8.703125 0.40625 "/></g></g></g><g fill="#526479" fill-opacity="1"><g transform="translate(535.637652, 757.040423)"><g><path d="M 2.203125 0 L 2.203125 -16.859375 L 7.203125 -16.859375 L 7.203125 0 Z M 4.6875 -19.34375 C 3.851562 -19.34375 3.160156 -19.582031 2.609375 -20.0625 C 2.066406 -20.550781 1.796875 -21.179688 1.796875 -21.953125 C 1.796875 -22.722656 2.066406 -23.34375 2.609375 -23.8125 C 3.160156 -24.289062 3.851562 -24.53125 4.6875 -24.53125 C 5.550781 -24.53125 6.25 -24.289062 6.78125 -23.8125 C 7.3125 -23.34375 7.578125 -22.722656 7.578125 -21.953125 C 7.578125 -21.179688 7.3125 -20.550781 6.78125 -20.0625 C 6.25 -19.582031 5.550781 -19.34375 4.6875 -19.34375 Z M 4.6875 -19.34375 "/></g></g></g><g fill="#526479" fill-opacity="1"><g transform="translate(545.015238, 757.040423)"><g><path d="M 9.546875 0.40625 C 8.367188 0.40625 7.273438 0.207031 6.265625 -0.1875 C 5.265625 -0.582031 4.390625 -1.15625 3.640625 -1.90625 C 2.890625 -2.65625 2.296875 -3.578125 1.859375 -4.671875 C 1.429688 -5.773438 1.21875 -7.023438 1.21875 -8.421875 C 1.21875 -9.828125 1.457031 -11.078125 1.9375 -12.171875 C 2.414062 -13.273438 3.054688 -14.203125 3.859375 -14.953125 C 4.660156 -15.703125 5.59375 -16.273438 6.65625 -16.671875 C 7.726562 -17.066406 8.835938 -17.265625 9.984375 -17.265625 C 11.035156 -17.265625 11.960938 -17.09375 12.765625 -16.75 C 13.566406 -16.414062 14.285156 -15.988281 14.921875 -15.46875 L 12.578125 -12.234375 C 11.785156 -12.890625 11.023438 -13.21875 10.296875 -13.21875 C 9.078125 -13.21875 8.113281 -12.785156 7.40625 -11.921875 C 6.707031 -11.066406 6.359375 -9.898438 6.359375 -8.421875 C 6.359375 -6.953125 6.710938 -5.785156 7.421875 -4.921875 C 8.140625 -4.066406 9.039062 -3.640625 10.125 -3.640625 C 10.664062 -3.640625 11.191406 -3.753906 11.703125 -3.984375 C 12.210938 -4.222656 12.695312 -4.515625 13.15625 -4.859375 L 15.125 -1.59375 C 14.28125 -0.875 13.367188 -0.359375 12.390625 -0.046875 C 11.421875 0.253906 10.472656 0.40625 9.546875 0.40625 Z M 9.546875 0.40625 "/></g></g></g><g fill="#526479" fill-opacity="1"><g transform="translate(560.882383, 757.040423)"><g><path d="M 6.796875 0.40625 C 5.929688 0.40625 5.203125 0.269531 4.609375 0 C 4.023438 -0.269531 3.554688 -0.648438 3.203125 -1.140625 C 2.859375 -1.628906 2.601562 -2.21875 2.4375 -2.90625 C 2.28125 -3.59375 2.203125 -4.367188 2.203125 -5.234375 L 2.203125 -23.828125 L 7.203125 -23.828125 L 7.203125 -5.03125 C 7.203125 -4.507812 7.296875 -4.144531 7.484375 -3.9375 C 7.679688 -3.738281 7.882812 -3.640625 8.09375 -3.640625 C 8.207031 -3.640625 8.300781 -3.640625 8.375 -3.640625 C 8.457031 -3.640625 8.566406 -3.660156 8.703125 -3.703125 L 9.3125 0 C 9.039062 0.113281 8.691406 0.207031 8.265625 0.28125 C 7.847656 0.363281 7.359375 0.40625 6.796875 0.40625 Z M 6.796875 0.40625 "/></g></g></g><g fill="#526479" fill-opacity="1"><g transform="translate(570.599733, 757.040423)"><g><path d="M 9.75 0.40625 C 8.550781 0.40625 7.429688 0.207031 6.390625 -0.1875 C 5.347656 -0.582031 4.441406 -1.160156 3.671875 -1.921875 C 2.898438 -2.679688 2.296875 -3.601562 1.859375 -4.6875 C 1.429688 -5.78125 1.21875 -7.023438 1.21875 -8.421875 C 1.21875 -9.785156 1.441406 -11.015625 1.890625 -12.109375 C 2.347656 -13.210938 2.945312 -14.144531 3.6875 -14.90625 C 4.425781 -15.664062 5.269531 -16.25 6.21875 -16.65625 C 7.164062 -17.0625 8.148438 -17.265625 9.171875 -17.265625 C 10.378906 -17.265625 11.425781 -17.0625 12.3125 -16.65625 C 13.207031 -16.25 13.957031 -15.679688 14.5625 -14.953125 C 15.164062 -14.222656 15.613281 -13.363281 15.90625 -12.375 C 16.195312 -11.394531 16.34375 -10.328125 16.34375 -9.171875 C 16.34375 -8.722656 16.316406 -8.289062 16.265625 -7.875 C 16.222656 -7.46875 16.179688 -7.164062 16.140625 -6.96875 L 6.046875 -6.96875 C 6.273438 -5.738281 6.78125 -4.835938 7.5625 -4.265625 C 8.34375 -3.691406 9.300781 -3.40625 10.4375 -3.40625 C 11.632812 -3.40625 12.84375 -3.773438 14.0625 -4.515625 L 15.734375 -1.5 C 14.867188 -0.90625 13.910156 -0.4375 12.859375 -0.09375 C 11.804688 0.238281 10.769531 0.40625 9.75 0.40625 Z M 6.015625 -10.265625 L 12.09375 -10.265625 C 12.09375 -11.210938 11.878906 -11.976562 11.453125 -12.5625 C 11.023438 -13.15625 10.300781 -13.453125 9.28125 -13.453125 C 8.488281 -13.453125 7.789062 -13.191406 7.1875 -12.671875 C 6.582031 -12.148438 6.191406 -11.347656 6.015625 -10.265625 Z M 6.015625 -10.265625 "/></g></g></g><path fill="#f9f9f9" d="M 901.0625 593.535156 L 846.953125 620.539062 L 901.0625 647.542969 L 955.175781 620.539062 Z M 901.0625 593.535156 " fill-opacity="1" fill-rule="nonzero"/><path fill="#ececec" d="M 901.0625 647.542969 L 901.0625 715.050781 L 955.175781 688.046875 L 955.175781 620.539062 Z M 901.0625 647.542969 " fill-opacity="1" fill-rule="nonzero"/><path fill="#cccccc" d="M 901.0625 647.542969 L 901.0625 715.050781 L 846.953125 688.046875 L 846.953125 620.539062 Z M 901.0625 647.542969 " fill-opacity="1" fill-rule="nonzero"/><g clip-path="url(#f0cd445e7e)"><path stroke-linecap="butt" transform="matrix(2.705571, 0, 0, 2.700295, 819.897085, 587.15795)" fill="none" stroke-linejoin="miter" d="M 29.999368 2.374689 L 10.000123 12.375043 L 10.000123 37.375204 L 29.999368 47.375558 L 50.000057 37.375204 L 50.000057 12.375043 Z M 29.999368 2.374689 " stroke="#4d4d4d" stroke-width="1" stroke-opacity="1" stroke-miterlimit="4"/></g><g fill="#526479" fill-opacity="1"><g transform="translate(824.410756, 757.040423)"><g><path d="M 2.609375 0 L 2.609375 -22.15625 L 8.875 -22.15625 C 10.570312 -22.15625 12.097656 -21.9375 13.453125 -21.5 C 14.816406 -21.070312 15.984375 -20.410156 16.953125 -19.515625 C 17.929688 -18.628906 18.679688 -17.492188 19.203125 -16.109375 C 19.722656 -14.722656 19.984375 -13.082031 19.984375 -11.1875 C 19.984375 -9.28125 19.722656 -7.625 19.203125 -6.21875 C 18.679688 -4.8125 17.941406 -3.648438 16.984375 -2.734375 C 16.035156 -1.816406 14.898438 -1.128906 13.578125 -0.671875 C 12.253906 -0.222656 10.773438 0 9.140625 0 Z M 7.609375 -4.046875 L 8.5625 -4.046875 C 9.507812 -4.046875 10.367188 -4.171875 11.140625 -4.421875 C 11.910156 -4.671875 12.566406 -5.070312 13.109375 -5.625 C 13.660156 -6.175781 14.085938 -6.90625 14.390625 -7.8125 C 14.691406 -8.71875 14.84375 -9.84375 14.84375 -11.1875 C 14.84375 -12.5 14.691406 -13.601562 14.390625 -14.5 C 14.085938 -15.394531 13.660156 -16.109375 13.109375 -16.640625 C 12.566406 -17.171875 11.910156 -17.546875 11.140625 -17.765625 C 10.367188 -17.992188 9.507812 -18.109375 8.5625 -18.109375 L 7.609375 -18.109375 Z M 7.609375 -4.046875 "/></g></g></g><g fill="#526479" fill-opacity="1"><g transform="translate(845.985991, 757.040423)"><g><path d="M 6.453125 0.40625 C 5.679688 0.40625 4.984375 0.273438 4.359375 0.015625 C 3.742188 -0.242188 3.21875 -0.601562 2.78125 -1.0625 C 2.351562 -1.53125 2.019531 -2.070312 1.78125 -2.6875 C 1.539062 -3.300781 1.421875 -3.96875 1.421875 -4.6875 C 1.421875 -6.457031 2.164062 -7.835938 3.65625 -8.828125 C 5.15625 -9.828125 7.570312 -10.5 10.90625 -10.84375 C 10.863281 -11.59375 10.644531 -12.1875 10.25 -12.625 C 9.851562 -13.0625 9.191406 -13.28125 8.265625 -13.28125 C 7.535156 -13.28125 6.8125 -13.144531 6.09375 -12.875 C 5.382812 -12.601562 4.625 -12.234375 3.8125 -11.765625 L 2 -15.0625 C 3.09375 -15.71875 4.234375 -16.25 5.421875 -16.65625 C 6.609375 -17.0625 7.867188 -17.265625 9.203125 -17.265625 C 11.378906 -17.265625 13.039062 -16.644531 14.1875 -15.40625 C 15.332031 -14.175781 15.90625 -12.257812 15.90625 -9.65625 L 15.90625 0 L 11.828125 0 L 11.484375 -1.734375 L 11.34375 -1.734375 C 10.625 -1.097656 9.867188 -0.582031 9.078125 -0.1875 C 8.285156 0.207031 7.410156 0.40625 6.453125 0.40625 Z M 8.15625 -3.46875 C 8.71875 -3.46875 9.203125 -3.59375 9.609375 -3.84375 C 10.023438 -4.09375 10.457031 -4.441406 10.90625 -4.890625 L 10.90625 -7.84375 C 9.144531 -7.601562 7.921875 -7.242188 7.234375 -6.765625 C 6.554688 -6.285156 6.21875 -5.71875 6.21875 -5.0625 C 6.21875 -4.519531 6.390625 -4.117188 6.734375 -3.859375 C 7.085938 -3.597656 7.5625 -3.46875 8.15625 -3.46875 Z M 8.15625 -3.46875 "/></g></g></g><g fill="#526479" fill-opacity="1"><g transform="translate(863.89174, 757.040423)"><g><path d="M 8.703125 0.40625 C 7.660156 0.40625 6.769531 0.25 6.03125 -0.0625 C 5.289062 -0.382812 4.6875 -0.828125 4.21875 -1.390625 C 3.757812 -1.960938 3.421875 -2.648438 3.203125 -3.453125 C 2.992188 -4.253906 2.890625 -5.144531 2.890625 -6.125 L 2.890625 -12.953125 L 0.578125 -12.953125 L 0.578125 -16.65625 L 3.15625 -16.859375 L 3.734375 -21.34375 L 7.890625 -21.34375 L 7.890625 -16.859375 L 11.921875 -16.859375 L 11.921875 -12.953125 L 7.890625 -12.953125 L 7.890625 -6.1875 C 7.890625 -5.238281 8.085938 -4.550781 8.484375 -4.125 C 8.878906 -3.707031 9.40625 -3.5 10.0625 -3.5 C 10.332031 -3.5 10.609375 -3.53125 10.890625 -3.59375 C 11.171875 -3.664062 11.425781 -3.75 11.65625 -3.84375 L 12.4375 -0.203125 C 11.988281 -0.0664062 11.457031 0.0664062 10.84375 0.203125 C 10.226562 0.335938 9.515625 0.40625 8.703125 0.40625 Z M 8.703125 0.40625 "/></g></g></g><g fill="#526479" fill-opacity="1"><g transform="translate(876.904835, 757.040423)"><g><path d="M 6.453125 0.40625 C 5.679688 0.40625 4.984375 0.273438 4.359375 0.015625 C 3.742188 -0.242188 3.21875 -0.601562 2.78125 -1.0625 C 2.351562 -1.53125 2.019531 -2.070312 1.78125 -2.6875 C 1.539062 -3.300781 1.421875 -3.96875 1.421875 -4.6875 C 1.421875 -6.457031 2.164062 -7.835938 3.65625 -8.828125 C 5.15625 -9.828125 7.570312 -10.5 10.90625 -10.84375 C 10.863281 -11.59375 10.644531 -12.1875 10.25 -12.625 C 9.851562 -13.0625 9.191406 -13.28125 8.265625 -13.28125 C 7.535156 -13.28125 6.8125 -13.144531 6.09375 -12.875 C 5.382812 -12.601562 4.625 -12.234375 3.8125 -11.765625 L 2 -15.0625 C 3.09375 -15.71875 4.234375 -16.25 5.421875 -16.65625 C 6.609375 -17.0625 7.867188 -17.265625 9.203125 -17.265625 C 11.378906 -17.265625 13.039062 -16.644531 14.1875 -15.40625 C 15.332031 -14.175781 15.90625 -12.257812 15.90625 -9.65625 L 15.90625 0 L 11.828125 0 L 11.484375 -1.734375 L 11.34375 -1.734375 C 10.625 -1.097656 9.867188 -0.582031 9.078125 -0.1875 C 8.285156 0.207031 7.410156 0.40625 6.453125 0.40625 Z M 8.15625 -3.46875 C 8.71875 -3.46875 9.203125 -3.59375 9.609375 -3.84375 C 10.023438 -4.09375 10.457031 -4.441406 10.90625 -4.890625 L 10.90625 -7.84375 C 9.144531 -7.601562 7.921875 -7.242188 7.234375 -6.765625 C 6.554688 -6.285156 6.21875 -5.71875 6.21875 -5.0625 C 6.21875 -4.519531 6.390625 -4.117188 6.734375 -3.859375 C 7.085938 -3.597656 7.5625 -3.46875 8.15625 -3.46875 Z M 8.15625 -3.46875 "/></g></g></g><g fill="#526479" fill-opacity="1"><g transform="translate(894.810584, 757.040423)"><g/></g></g><g fill="#526479" fill-opacity="1"><g transform="translate(901.605939, 757.040423)"><g><path d="M 11.859375 0.40625 C 10.453125 0.40625 9.125 0.164062 7.875 -0.3125 C 6.632812 -0.800781 5.539062 -1.519531 4.59375 -2.46875 C 3.65625 -3.425781 2.914062 -4.613281 2.375 -6.03125 C 1.832031 -7.445312 1.5625 -9.082031 1.5625 -10.9375 C 1.5625 -12.78125 1.84375 -14.421875 2.40625 -15.859375 C 2.976562 -17.296875 3.738281 -18.507812 4.6875 -19.5 C 5.644531 -20.5 6.753906 -21.257812 8.015625 -21.78125 C 9.285156 -22.300781 10.625 -22.5625 12.03125 -22.5625 C 13.457031 -22.5625 14.734375 -22.269531 15.859375 -21.6875 C 16.992188 -21.113281 17.9375 -20.441406 18.6875 -19.671875 L 16.046875 -16.484375 C 15.472656 -17.003906 14.875 -17.425781 14.25 -17.75 C 13.632812 -18.082031 12.925781 -18.25 12.125 -18.25 C 11.382812 -18.25 10.675781 -18.082031 10 -17.75 C 9.332031 -17.425781 8.753906 -16.957031 8.265625 -16.34375 C 7.785156 -15.726562 7.398438 -14.976562 7.109375 -14.09375 C 6.828125 -13.21875 6.6875 -12.222656 6.6875 -11.109375 C 6.6875 -8.828125 7.175781 -7.054688 8.15625 -5.796875 C 9.132812 -4.535156 10.4375 -3.90625 12.0625 -3.90625 C 12.96875 -3.90625 13.773438 -4.101562 14.484375 -4.5 C 15.203125 -4.894531 15.832031 -5.390625 16.375 -5.984375 L 19.03125 -2.859375 C 17.175781 -0.679688 14.785156 0.40625 11.859375 0.40625 Z M 11.859375 0.40625 "/></g></g></g><g fill="#526479" fill-opacity="1"><g transform="translate(921.380413, 757.040423)"><g><path d="M 7.265625 0.40625 C 5.429688 0.40625 4.101562 -0.191406 3.28125 -1.390625 C 2.457031 -2.585938 2.046875 -4.253906 2.046875 -6.390625 L 2.046875 -16.859375 L 7.03125 -16.859375 L 7.03125 -7.03125 C 7.03125 -5.8125 7.195312 -4.972656 7.53125 -4.515625 C 7.875 -4.066406 8.410156 -3.84375 9.140625 -3.84375 C 9.773438 -3.84375 10.304688 -3.988281 10.734375 -4.28125 C 11.171875 -4.570312 11.632812 -5.046875 12.125 -5.703125 L 12.125 -16.859375 L 17.125 -16.859375 L 17.125 0 L 13.046875 0 L 12.671875 -2.34375 L 12.578125 -2.34375 C 11.847656 -1.476562 11.066406 -0.800781 10.234375 -0.3125 C 9.410156 0.164062 8.421875 0.40625 7.265625 0.40625 Z M 7.265625 0.40625 "/></g></g></g><g fill="#526479" fill-opacity="1"><g transform="translate(940.679213, 757.040423)"><g><path d="M 11.046875 0.40625 C 10.296875 0.40625 9.539062 0.21875 8.78125 -0.15625 C 8.019531 -0.53125 7.3125 -1.078125 6.65625 -1.796875 L 6.53125 -1.796875 L 6.125 0 L 2.203125 0 L 2.203125 -23.828125 L 7.203125 -23.828125 L 7.203125 -17.984375 L 7.0625 -15.390625 C 7.71875 -15.984375 8.425781 -16.441406 9.1875 -16.765625 C 9.945312 -17.097656 10.722656 -17.265625 11.515625 -17.265625 C 12.535156 -17.265625 13.453125 -17.0625 14.265625 -16.65625 C 15.085938 -16.25 15.785156 -15.675781 16.359375 -14.9375 C 16.941406 -14.195312 17.382812 -13.300781 17.6875 -12.25 C 17.988281 -11.195312 18.140625 -10.023438 18.140625 -8.734375 C 18.140625 -7.285156 17.941406 -5.992188 17.546875 -4.859375 C 17.148438 -3.722656 16.617188 -2.765625 15.953125 -1.984375 C 15.285156 -1.203125 14.523438 -0.609375 13.671875 -0.203125 C 12.828125 0.203125 11.953125 0.40625 11.046875 0.40625 Z M 9.890625 -3.671875 C 10.753906 -3.671875 11.488281 -4.0625 12.09375 -4.84375 C 12.707031 -5.625 13.015625 -6.882812 13.015625 -8.625 C 13.015625 -11.664062 12.039062 -13.1875 10.09375 -13.1875 C 9.09375 -13.1875 8.128906 -12.675781 7.203125 -11.65625 L 7.203125 -4.765625 C 7.660156 -4.347656 8.113281 -4.0625 8.5625 -3.90625 C 9.019531 -3.75 9.460938 -3.671875 9.890625 -3.671875 Z M 9.890625 -3.671875 "/></g></g></g><g fill="#526479" fill-opacity="1"><g transform="translate(960.147891, 757.040423)"><g><path d="M 9.75 0.40625 C 8.550781 0.40625 7.429688 0.207031 6.390625 -0.1875 C 5.347656 -0.582031 4.441406 -1.160156 3.671875 -1.921875 C 2.898438 -2.679688 2.296875 -3.601562 1.859375 -4.6875 C 1.429688 -5.78125 1.21875 -7.023438 1.21875 -8.421875 C 1.21875 -9.785156 1.441406 -11.015625 1.890625 -12.109375 C 2.347656 -13.210938 2.945312 -14.144531 3.6875 -14.90625 C 4.425781 -15.664062 5.269531 -16.25 6.21875 -16.65625 C 7.164062 -17.0625 8.148438 -17.265625 9.171875 -17.265625 C 10.378906 -17.265625 11.425781 -17.0625 12.3125 -16.65625 C 13.207031 -16.25 13.957031 -15.679688 14.5625 -14.953125 C 15.164062 -14.222656 15.613281 -13.363281 15.90625 -12.375 C 16.195312 -11.394531 16.34375 -10.328125 16.34375 -9.171875 C 16.34375 -8.722656 16.316406 -8.289062 16.265625 -7.875 C 16.222656 -7.46875 16.179688 -7.164062 16.140625 -6.96875 L 6.046875 -6.96875 C 6.273438 -5.738281 6.78125 -4.835938 7.5625 -4.265625 C 8.34375 -3.691406 9.300781 -3.40625 10.4375 -3.40625 C 11.632812 -3.40625 12.84375 -3.773438 14.0625 -4.515625 L 15.734375 -1.5 C 14.867188 -0.90625 13.910156 -0.4375 12.859375 -0.09375 C 11.804688 0.238281 10.769531 0.40625 9.75 0.40625 Z M 6.015625 -10.265625 L 12.09375 -10.265625 C 12.09375 -11.210938 11.878906 -11.976562 11.453125 -12.5625 C 11.023438 -13.15625 10.300781 -13.453125 9.28125 -13.453125 C 8.488281 -13.453125 7.789062 -13.191406 7.1875 -12.671875 C 6.582031 -12.148438 6.191406 -11.347656 6.015625 -10.265625 Z M 6.015625 -10.265625 "/></g></g></g><g fill="#526479" fill-opacity="1"><g transform="translate(641.572522, 562.43752)"><g><path d="M 3.390625 0 L 3.390625 -28.671875 L 13.71875 -28.671875 C 15.238281 -28.671875 16.664062 -28.519531 18 -28.21875 C 19.332031 -27.925781 20.5 -27.4375 21.5 -26.75 C 22.5 -26.0625 23.289062 -25.144531 23.875 -24 C 24.457031 -22.863281 24.75 -21.441406 24.75 -19.734375 C 24.75 -17.628906 24.285156 -15.894531 23.359375 -14.53125 C 22.441406 -13.164062 21.207031 -12.144531 19.65625 -11.46875 L 26.15625 0 L 18.90625 0 L 13.40625 -10.328125 L 9.84375 -10.328125 L 9.84375 0 Z M 9.84375 -15.484375 L 13.1875 -15.484375 C 14.882812 -15.484375 16.179688 -15.835938 17.078125 -16.546875 C 17.972656 -17.265625 18.421875 -18.328125 18.421875 -19.734375 C 18.421875 -21.148438 17.972656 -22.132812 17.078125 -22.6875 C 16.179688 -23.238281 14.882812 -23.515625 13.1875 -23.515625 L 9.84375 -23.515625 Z M 9.84375 -15.484375 "/></g></g></g><g fill="#526479" fill-opacity="1"><g transform="translate(668.51823, 562.43752)"><g><path d="M 12.625 0.53125 C 11.0625 0.53125 9.609375 0.273438 8.265625 -0.234375 C 6.921875 -0.753906 5.75 -1.503906 4.75 -2.484375 C 3.75 -3.460938 2.96875 -4.65625 2.40625 -6.0625 C 1.851562 -7.46875 1.578125 -9.082031 1.578125 -10.90625 C 1.578125 -12.664062 1.867188 -14.253906 2.453125 -15.671875 C 3.046875 -17.097656 3.816406 -18.300781 4.765625 -19.28125 C 5.722656 -20.257812 6.816406 -21.015625 8.046875 -21.546875 C 9.273438 -22.078125 10.550781 -22.34375 11.875 -22.34375 C 13.425781 -22.34375 14.78125 -22.078125 15.9375 -21.546875 C 17.09375 -21.015625 18.054688 -20.28125 18.828125 -19.34375 C 19.609375 -18.40625 20.191406 -17.296875 20.578125 -16.015625 C 20.960938 -14.742188 21.15625 -13.363281 21.15625 -11.875 C 21.15625 -11.28125 21.125 -10.71875 21.0625 -10.1875 C 21 -9.664062 20.941406 -9.273438 20.890625 -9.015625 L 7.828125 -9.015625 C 8.117188 -7.429688 8.769531 -6.265625 9.78125 -5.515625 C 10.789062 -4.765625 12.03125 -4.390625 13.5 -4.390625 C 15.050781 -4.390625 16.617188 -4.875 18.203125 -5.84375 L 20.359375 -1.9375 C 19.242188 -1.175781 18.003906 -0.570312 16.640625 -0.125 C 15.273438 0.3125 13.9375 0.53125 12.625 0.53125 Z M 7.78125 -13.28125 L 15.65625 -13.28125 C 15.65625 -14.507812 15.375 -15.503906 14.8125 -16.265625 C 14.257812 -17.023438 13.320312 -17.40625 12 -17.40625 C 10.976562 -17.40625 10.078125 -17.066406 9.296875 -16.390625 C 8.523438 -15.722656 8.019531 -14.6875 7.78125 -13.28125 Z M 7.78125 -13.28125 "/></g></g></g><g fill="#526479" fill-opacity="1"><g transform="translate(691.288012, 562.43752)"><g><path d="M 9.28125 0.53125 C 7.84375 0.53125 6.367188 0.253906 4.859375 -0.296875 C 3.347656 -0.859375 2.035156 -1.59375 0.921875 -2.5 L 3.828125 -6.546875 C 4.816406 -5.785156 5.765625 -5.210938 6.671875 -4.828125 C 7.585938 -4.453125 8.515625 -4.265625 9.453125 -4.265625 C 10.421875 -4.265625 11.125 -4.425781 11.5625 -4.75 C 12 -5.070312 12.21875 -5.523438 12.21875 -6.109375 C 12.21875 -6.460938 12.09375 -6.773438 11.84375 -7.046875 C 11.59375 -7.328125 11.253906 -7.582031 10.828125 -7.8125 C 10.410156 -8.050781 9.9375 -8.265625 9.40625 -8.453125 C 8.882812 -8.648438 8.34375 -8.863281 7.78125 -9.09375 C 7.101562 -9.363281 6.425781 -9.671875 5.75 -10.015625 C 5.082031 -10.367188 4.46875 -10.800781 3.90625 -11.3125 C 3.351562 -11.832031 2.898438 -12.4375 2.546875 -13.125 C 2.191406 -13.8125 2.015625 -14.609375 2.015625 -15.515625 C 2.015625 -16.515625 2.210938 -17.4375 2.609375 -18.28125 C 3.003906 -19.132812 3.566406 -19.851562 4.296875 -20.4375 C 5.035156 -21.03125 5.914062 -21.492188 6.9375 -21.828125 C 7.96875 -22.171875 9.113281 -22.34375 10.375 -22.34375 C 12.050781 -22.34375 13.519531 -22.054688 14.78125 -21.484375 C 16.039062 -20.910156 17.140625 -20.269531 18.078125 -19.5625 L 15.171875 -15.703125 C 14.378906 -16.285156 13.601562 -16.738281 12.84375 -17.0625 C 12.082031 -17.382812 11.316406 -17.546875 10.546875 -17.546875 C 8.910156 -17.546875 8.09375 -16.972656 8.09375 -15.828125 C 8.09375 -15.472656 8.207031 -15.171875 8.4375 -14.921875 C 8.675781 -14.671875 8.992188 -14.441406 9.390625 -14.234375 C 9.785156 -14.035156 10.238281 -13.835938 10.75 -13.640625 C 11.257812 -13.453125 11.796875 -13.257812 12.359375 -13.0625 C 13.054688 -12.789062 13.75 -12.488281 14.4375 -12.15625 C 15.132812 -11.820312 15.765625 -11.40625 16.328125 -10.90625 C 16.898438 -10.40625 17.363281 -9.796875 17.71875 -9.078125 C 18.070312 -8.359375 18.25 -7.5 18.25 -6.5 C 18.25 -5.507812 18.054688 -4.585938 17.671875 -3.734375 C 17.296875 -2.890625 16.722656 -2.148438 15.953125 -1.515625 C 15.191406 -0.890625 14.253906 -0.390625 13.140625 -0.015625 C 12.023438 0.347656 10.738281 0.53125 9.28125 0.53125 Z M 9.28125 0.53125 "/></g></g></g><g fill="#526479" fill-opacity="1"><g transform="translate(710.761014, 562.43752)"><g><path d="M 12.21875 0.53125 C 10.84375 0.53125 9.507812 0.273438 8.21875 -0.234375 C 6.925781 -0.753906 5.789062 -1.492188 4.8125 -2.453125 C 3.832031 -3.421875 3.046875 -4.613281 2.453125 -6.03125 C 1.867188 -7.457031 1.578125 -9.082031 1.578125 -10.90625 C 1.578125 -12.71875 1.867188 -14.332031 2.453125 -15.75 C 3.046875 -17.175781 3.832031 -18.375 4.8125 -19.34375 C 5.789062 -20.3125 6.925781 -21.050781 8.21875 -21.5625 C 9.507812 -22.082031 10.84375 -22.34375 12.21875 -22.34375 C 13.601562 -22.34375 14.929688 -22.082031 16.203125 -21.5625 C 17.472656 -21.050781 18.597656 -20.3125 19.578125 -19.34375 C 20.566406 -18.375 21.351562 -17.175781 21.9375 -15.75 C 22.519531 -14.332031 22.8125 -12.71875 22.8125 -10.90625 C 22.8125 -9.082031 22.519531 -7.457031 21.9375 -6.03125 C 21.351562 -4.613281 20.566406 -3.421875 19.578125 -2.453125 C 18.597656 -1.492188 17.472656 -0.753906 16.203125 -0.234375 C 14.929688 0.273438 13.601562 0.53125 12.21875 0.53125 Z M 12.21875 -4.703125 C 13.539062 -4.703125 14.535156 -5.257812 15.203125 -6.375 C 15.878906 -7.488281 16.21875 -9 16.21875 -10.90625 C 16.21875 -12.8125 15.878906 -14.320312 15.203125 -15.4375 C 14.535156 -16.550781 13.539062 -17.109375 12.21875 -17.109375 C 10.875 -17.109375 9.867188 -16.550781 9.203125 -15.4375 C 8.546875 -14.320312 8.21875 -12.8125 8.21875 -10.90625 C 8.21875 -9 8.546875 -7.488281 9.203125 -6.375 C 9.867188 -5.257812 10.875 -4.703125 12.21875 -4.703125 Z M 12.21875 -4.703125 "/></g></g></g><g fill="#526479" fill-opacity="1"><g transform="translate(735.157207, 562.43752)"><g><path d="M 9.40625 0.53125 C 7.03125 0.53125 5.304688 -0.242188 4.234375 -1.796875 C 3.171875 -3.359375 2.640625 -5.515625 2.640625 -8.265625 L 2.640625 -21.8125 L 9.09375 -21.8125 L 9.09375 -9.09375 C 9.09375 -7.519531 9.3125 -6.4375 9.75 -5.84375 C 10.195312 -5.257812 10.890625 -4.96875 11.828125 -4.96875 C 12.648438 -4.96875 13.335938 -5.15625 13.890625 -5.53125 C 14.453125 -5.914062 15.054688 -6.535156 15.703125 -7.390625 L 15.703125 -21.8125 L 22.15625 -21.8125 L 22.15625 0 L 16.890625 0 L 16.40625 -3.03125 L 16.265625 -3.03125 C 15.328125 -1.914062 14.320312 -1.039062 13.25 -0.40625 C 12.1875 0.21875 10.90625 0.53125 9.40625 0.53125 Z M 9.40625 0.53125 "/></g></g></g><g fill="#526479" fill-opacity="1"><g transform="translate(760.12485, 562.43752)"><g><path d="M 2.859375 0 L 2.859375 -21.8125 L 8.140625 -21.8125 L 8.578125 -17.984375 L 8.75 -17.984375 C 9.539062 -19.472656 10.492188 -20.570312 11.609375 -21.28125 C 12.722656 -21.988281 13.835938 -22.34375 14.953125 -22.34375 C 15.566406 -22.34375 16.070312 -22.300781 16.46875 -22.21875 C 16.863281 -22.144531 17.222656 -22.035156 17.546875 -21.890625 L 16.484375 -16.3125 C 16.078125 -16.425781 15.695312 -16.515625 15.34375 -16.578125 C 14.988281 -16.640625 14.578125 -16.671875 14.109375 -16.671875 C 13.296875 -16.671875 12.441406 -16.375 11.546875 -15.78125 C 10.648438 -15.195312 9.910156 -14.15625 9.328125 -12.65625 L 9.328125 0 Z M 2.859375 0 "/></g></g></g><g fill="#526479" fill-opacity="1"><g transform="translate(777.619776, 562.43752)"><g><path d="M 12.359375 0.53125 C 10.828125 0.53125 9.410156 0.273438 8.109375 -0.234375 C 6.804688 -0.753906 5.671875 -1.492188 4.703125 -2.453125 C 3.734375 -3.421875 2.96875 -4.613281 2.40625 -6.03125 C 1.851562 -7.457031 1.578125 -9.082031 1.578125 -10.90625 C 1.578125 -12.71875 1.882812 -14.332031 2.5 -15.75 C 3.113281 -17.175781 3.941406 -18.375 4.984375 -19.34375 C 6.023438 -20.3125 7.234375 -21.050781 8.609375 -21.5625 C 9.992188 -22.082031 11.429688 -22.34375 12.921875 -22.34375 C 14.273438 -22.34375 15.472656 -22.117188 16.515625 -21.671875 C 17.554688 -21.234375 18.484375 -20.675781 19.296875 -20 L 16.265625 -15.828125 C 15.242188 -16.679688 14.265625 -17.109375 13.328125 -17.109375 C 11.742188 -17.109375 10.492188 -16.550781 9.578125 -15.4375 C 8.671875 -14.320312 8.21875 -12.8125 8.21875 -10.90625 C 8.21875 -9 8.675781 -7.488281 9.59375 -6.375 C 10.519531 -5.257812 11.691406 -4.703125 13.109375 -4.703125 C 13.804688 -4.703125 14.484375 -4.851562 15.140625 -5.15625 C 15.804688 -5.46875 16.429688 -5.84375 17.015625 -6.28125 L 19.5625 -2.0625 C 18.476562 -1.125 17.304688 -0.457031 16.046875 -0.0625 C 14.785156 0.332031 13.554688 0.53125 12.359375 0.53125 Z M 12.359375 0.53125 "/></g></g></g><g fill="#526479" fill-opacity="1"><g transform="translate(798.147752, 562.43752)"><g><path d="M 12.625 0.53125 C 11.0625 0.53125 9.609375 0.273438 8.265625 -0.234375 C 6.921875 -0.753906 5.75 -1.503906 4.75 -2.484375 C 3.75 -3.460938 2.96875 -4.65625 2.40625 -6.0625 C 1.851562 -7.46875 1.578125 -9.082031 1.578125 -10.90625 C 1.578125 -12.664062 1.867188 -14.253906 2.453125 -15.671875 C 3.046875 -17.097656 3.816406 -18.300781 4.765625 -19.28125 C 5.722656 -20.257812 6.816406 -21.015625 8.046875 -21.546875 C 9.273438 -22.078125 10.550781 -22.34375 11.875 -22.34375 C 13.425781 -22.34375 14.78125 -22.078125 15.9375 -21.546875 C 17.09375 -21.015625 18.054688 -20.28125 18.828125 -19.34375 C 19.609375 -18.40625 20.191406 -17.296875 20.578125 -16.015625 C 20.960938 -14.742188 21.15625 -13.363281 21.15625 -11.875 C 21.15625 -11.28125 21.125 -10.71875 21.0625 -10.1875 C 21 -9.664062 20.941406 -9.273438 20.890625 -9.015625 L 7.828125 -9.015625 C 8.117188 -7.429688 8.769531 -6.265625 9.78125 -5.515625 C 10.789062 -4.765625 12.03125 -4.390625 13.5 -4.390625 C 15.050781 -4.390625 16.617188 -4.875 18.203125 -5.84375 L 20.359375 -1.9375 C 19.242188 -1.175781 18.003906 -0.570312 16.640625 -0.125 C 15.273438 0.3125 13.9375 0.53125 12.625 0.53125 Z M 7.78125 -13.28125 L 15.65625 -13.28125 C 15.65625 -14.507812 15.375 -15.503906 14.8125 -16.265625 C 14.257812 -17.023438 13.320312 -17.40625 12 -17.40625 C 10.976562 -17.40625 10.078125 -17.066406 9.296875 -16.390625 C 8.523438 -15.722656 8.019531 -14.6875 7.78125 -13.28125 Z M 7.78125 -13.28125 "/></g></g></g><g fill="#526479" fill-opacity="1"><g transform="translate(820.917534, 562.43752)"><g><path d="M 9.28125 0.53125 C 7.84375 0.53125 6.367188 0.253906 4.859375 -0.296875 C 3.347656 -0.859375 2.035156 -1.59375 0.921875 -2.5 L 3.828125 -6.546875 C 4.816406 -5.785156 5.765625 -5.210938 6.671875 -4.828125 C 7.585938 -4.453125 8.515625 -4.265625 9.453125 -4.265625 C 10.421875 -4.265625 11.125 -4.425781 11.5625 -4.75 C 12 -5.070312 12.21875 -5.523438 12.21875 -6.109375 C 12.21875 -6.460938 12.09375 -6.773438 11.84375 -7.046875 C 11.59375 -7.328125 11.253906 -7.582031 10.828125 -7.8125 C 10.410156 -8.050781 9.9375 -8.265625 9.40625 -8.453125 C 8.882812 -8.648438 8.34375 -8.863281 7.78125 -9.09375 C 7.101562 -9.363281 6.425781 -9.671875 5.75 -10.015625 C 5.082031 -10.367188 4.46875 -10.800781 3.90625 -11.3125 C 3.351562 -11.832031 2.898438 -12.4375 2.546875 -13.125 C 2.191406 -13.8125 2.015625 -14.609375 2.015625 -15.515625 C 2.015625 -16.515625 2.210938 -17.4375 2.609375 -18.28125 C 3.003906 -19.132812 3.566406 -19.851562 4.296875 -20.4375 C 5.035156 -21.03125 5.914062 -21.492188 6.9375 -21.828125 C 7.96875 -22.171875 9.113281 -22.34375 10.375 -22.34375 C 12.050781 -22.34375 13.519531 -22.054688 14.78125 -21.484375 C 16.039062 -20.910156 17.140625 -20.269531 18.078125 -19.5625 L 15.171875 -15.703125 C 14.378906 -16.285156 13.601562 -16.738281 12.84375 -17.0625 C 12.082031 -17.382812 11.316406 -17.546875 10.546875 -17.546875 C 8.910156 -17.546875 8.09375 -16.972656 8.09375 -15.828125 C 8.09375 -15.472656 8.207031 -15.171875 8.4375 -14.921875 C 8.675781 -14.671875 8.992188 -14.441406 9.390625 -14.234375 C 9.785156 -14.035156 10.238281 -13.835938 10.75 -13.640625 C 11.257812 -13.453125 11.796875 -13.257812 12.359375 -13.0625 C 13.054688 -12.789062 13.75 -12.488281 14.4375 -12.15625 C 15.132812 -11.820312 15.765625 -11.40625 16.328125 -10.90625 C 16.898438 -10.40625 17.363281 -9.796875 17.71875 -9.078125 C 18.070312 -8.359375 18.25 -7.5 18.25 -6.5 C 18.25 -5.507812 18.054688 -4.585938 17.671875 -3.734375 C 17.296875 -2.890625 16.722656 -2.148438 15.953125 -1.515625 C 15.191406 -0.890625 14.253906 -0.390625 13.140625 -0.015625 C 12.023438 0.347656 10.738281 0.53125 9.28125 0.53125 Z M 9.28125 0.53125 "/></g></g></g></svg>