<svg xmlns="http://www.w3.org/2000/svg" xmlns:xlink="http://www.w3.org/1999/xlink" width="1920" zoomAndPan="magnify" viewBox="0 0 1440 809.999993" height="1080" preserveAspectRatio="xMidYMid meet" version="1.0"><defs><g/><clipPath id="9728b904fe"><path d="M 593.160156 19.925781 L 857.8125 19.925781 L 857.8125 173 L 593.160156 173 Z M 593.160156 19.925781 " clip-rule="nonzero"/></clipPath><clipPath id="f9f5656add"><path d="M 724.421875 96.273438 L 857.4375 96.273438 L 857.4375 325.359375 L 724.421875 325.359375 Z M 724.421875 96.273438 " clip-rule="nonzero"/></clipPath><clipPath id="7b1aa9a256"><path d="M 593.160156 96.273438 L 725.738281 96.273438 L 725.738281 325.359375 L 593.160156 325.359375 Z M 593.160156 96.273438 " clip-rule="nonzero"/></clipPath><clipPath id="08d5d13be6"><path d="M 105.640625 448.382812 L 1334.140625 448.382812 L 1334.140625 776.132812 L 105.640625 776.132812 Z M 105.640625 448.382812 " clip-rule="nonzero"/></clipPath><clipPath id="1951b0247f"><path d="M 143.886719 448.382812 L 1295.898438 448.382812 C 1306.039062 448.382812 1315.769531 452.410156 1322.941406 459.585938 C 1330.113281 466.757812 1334.140625 476.484375 1334.140625 486.628906 L 1334.140625 737.882812 C 1334.140625 748.027344 1330.113281 757.757812 1322.941406 764.929688 C 1315.769531 772.101562 1306.039062 776.132812 1295.898438 776.132812 L 143.886719 776.132812 C 133.742188 776.132812 124.015625 772.101562 116.84375 764.929688 C 109.671875 757.757812 105.640625 748.027344 105.640625 737.882812 L 105.640625 486.628906 C 105.640625 476.484375 109.671875 466.757812 116.84375 459.585938 C 124.015625 452.410156 133.742188 448.382812 143.886719 448.382812 " clip-rule="nonzero"/></clipPath><clipPath id="5455b47ff9"><path d="M 419.480469 539 L 544 539 L 544 658.804688 L 419.480469 658.804688 Z M 419.480469 539 " clip-rule="nonzero"/></clipPath><clipPath id="a8ae92a1e5"><path d="M 449 510 L 573.230469 510 L 573.230469 630 L 449 630 Z M 449 510 " clip-rule="nonzero"/></clipPath><clipPath id="a5814f499a"><path d="M 419.480469 534 L 435 534 L 435 545 L 419.480469 545 Z M 419.480469 534 " clip-rule="nonzero"/></clipPath><clipPath id="eae3f179f6"><path d="M 449 505.054688 L 573.230469 505.054688 L 573.230469 515 L 449 515 Z M 449 505.054688 " clip-rule="nonzero"/></clipPath><clipPath id="0806199c66"><path d="M 875.007812 505.054688 L 1012.257812 505.054688 L 1012.257812 658.804688 L 875.007812 658.804688 Z M 875.007812 505.054688 " clip-rule="nonzero"/></clipPath></defs><g clip-path="url(#9728b904fe)"><path fill="#e8d6a2" d="M 725.484375 172.644531 L 857.8125 96.285156 L 725.484375 19.925781 L 593.160156 96.285156 L 725.484375 172.644531 " fill-opacity="1" fill-rule="nonzero"/></g><path fill="#b58850" d="M 779.5625 141.441406 L 803.738281 127.488281 L 671.410156 51.128906 L 647.234375 65.078125 L 779.5625 141.441406 " fill-opacity="1" fill-rule="nonzero"/><g clip-path="url(#f9f5656add)"><path fill="#b58850" d="M 857.023438 249.003906 L 724.695312 325.363281 L 724.695312 172.644531 L 857.023438 96.285156 L 857.023438 249.003906 " fill-opacity="1" fill-rule="nonzero"/></g><path fill="#815300" d="M 802.949219 280.210938 L 778.773438 294.160156 L 778.773438 272.84375 L 802.949219 258.890625 L 802.949219 280.210938 " fill-opacity="1" fill-rule="nonzero"/><path fill="#815300" d="M 802.949219 148.804688 L 778.773438 162.757812 L 778.773438 141.441406 L 802.949219 127.488281 L 802.949219 148.804688 " fill-opacity="1" fill-rule="nonzero"/><g clip-path="url(#7b1aa9a256)"><path fill="#d6b477" d="M 725.484375 325.363281 L 593.160156 249.003906 L 593.160156 96.285156 L 725.484375 172.644531 L 725.484375 325.363281 " fill-opacity="1" fill-rule="nonzero"/></g><path fill="#815300" d="M 650.207031 266.761719 L 626.433594 253.042969 L 626.433594 225.609375 L 650.207031 239.324219 Z M 625.210938 223.492188 L 625.210938 253.75 L 651.429688 268.878906 L 651.429688 238.621094 L 625.210938 223.492188 " fill-opacity="1" fill-rule="nonzero"/><path fill="#815300" d="M 632.058594 250.242188 L 635.417969 252.183594 L 635.417969 239.414062 L 637.328125 240.515625 L 633.738281 232.636719 L 630.148438 236.375 L 632.058594 237.476562 L 632.058594 250.242188 " fill-opacity="1" fill-rule="nonzero"/><path fill="#815300" d="M 641.222656 255.53125 L 644.582031 257.472656 L 644.582031 244.703125 L 646.492188 245.804688 L 642.902344 237.921875 L 639.3125 241.664062 L 641.222656 242.761719 L 641.222656 255.53125 " fill-opacity="1" fill-rule="nonzero"/><path fill="#815300" d="M 647.878906 260.847656 L 628.765625 249.820312 L 628.765625 252.3125 L 647.878906 263.34375 L 647.878906 260.847656 " fill-opacity="1" fill-rule="nonzero"/><path fill="#815300" d="M 680.757812 284.390625 L 656.984375 270.671875 L 656.984375 243.238281 L 680.757812 256.957031 Z M 655.761719 241.121094 L 655.761719 271.378906 L 681.976562 286.507812 L 681.976562 256.25 L 655.761719 241.121094 " fill-opacity="1" fill-rule="nonzero"/><path fill="#815300" d="M 667.96875 266.425781 L 667.96875 272.441406 L 665.191406 270.839844 C 664.714844 270.566406 664.328125 270.789062 664.328125 271.335938 L 664.328125 272.078125 L 673.410156 277.320312 L 673.410156 276.578125 C 673.410156 276.027344 673.023438 275.359375 672.546875 275.085938 L 669.773438 273.484375 L 669.773438 267.46875 C 672.734375 268.671875 675.007812 267.046875 675.007812 263.492188 L 675.007812 257.222656 L 671.574219 255.242188 L 670.339844 257.691406 L 673.210938 259.347656 L 668.039062 263.335938 L 669.722656 259.195312 L 667.058594 257.65625 L 668.835938 253.660156 L 662.734375 250.140625 L 662.734375 256.410156 C 662.734375 259.964844 665.007812 264.214844 667.96875 266.425781 " fill-opacity="1" fill-rule="nonzero"/><path fill="#815300" d="M 711.429688 302.089844 L 687.65625 288.375 L 687.65625 260.9375 L 711.429688 274.65625 Z M 686.4375 258.820312 L 686.4375 289.078125 L 712.652344 304.207031 L 712.652344 273.953125 L 686.4375 258.820312 " fill-opacity="1" fill-rule="nonzero"/><path fill="#815300" d="M 695.796875 279.859375 C 696.761719 279.898438 697.851562 279.925781 699.015625 280.449219 C 698.984375 280.511719 698.964844 280.59375 698.964844 280.691406 L 698.964844 289.242188 C 698.964844 290.0625 698.386719 290.394531 697.675781 289.984375 C 696.96875 289.574219 696.390625 288.574219 696.390625 287.753906 C 696.390625 287.386719 696.128906 286.9375 695.808594 286.75 C 695.488281 286.566406 695.230469 286.71875 695.230469 287.085938 C 695.230469 288.644531 696.328125 290.542969 697.675781 291.324219 C 699.027344 292.101562 700.125 291.46875 700.125 289.910156 L 700.125 281.359375 C 700.125 281.261719 700.105469 281.160156 700.074219 281.058594 C 701.238281 281.878906 702.328125 283.113281 703.292969 284.179688 C 704.394531 284.226562 705.28125 284.027344 706.644531 284.816406 C 707.390625 285.246094 708.5 286.355469 709.179688 286.9375 C 708.746094 282.257812 704.902344 276.199219 700.121094 273.152344 L 700.125 271.078125 C 700.125 270.707031 699.867188 270.257812 699.546875 270.074219 C 699.222656 269.890625 698.964844 270.039062 698.964844 270.410156 L 698.964844 272.46875 C 694.1875 270.015625 690.34375 271.640625 689.910156 275.816406 C 690.589844 276.023438 691.699219 276.191406 692.445312 276.621094 C 693.808594 277.410156 694.695312 278.628906 695.796875 279.859375 " fill-opacity="1" fill-rule="nonzero"/><g fill="#526479" fill-opacity="1"><g transform="translate(526.426367, 372.359128)"><g><path d="M 3.453125 0 L 3.453125 -29.28125 L 10.0625 -29.28125 L 10.0625 -17.28125 L 10.234375 -17.28125 L 18.953125 -29.28125 L 26.21875 -29.28125 L 17.375 -17.609375 L 27.84375 0 L 20.609375 0 L 13.46875 -12.34375 L 10.0625 -7.859375 L 10.0625 0 Z M 3.453125 0 "/></g></g></g><g fill="#526479" fill-opacity="1"><g transform="translate(553.997854, 372.359128)"><g><path d="M 2.921875 0 L 2.921875 -22.28125 L 8.3125 -22.28125 L 8.75 -19.4375 L 8.9375 -19.4375 C 9.894531 -20.34375 10.941406 -21.128906 12.078125 -21.796875 C 13.210938 -22.472656 14.546875 -22.8125 16.078125 -22.8125 C 18.503906 -22.8125 20.257812 -22.015625 21.34375 -20.421875 C 22.4375 -18.835938 22.984375 -16.640625 22.984375 -13.828125 L 22.984375 0 L 16.390625 0 L 16.390625 -12.984375 C 16.390625 -14.597656 16.171875 -15.703125 15.734375 -16.296875 C 15.304688 -16.898438 14.613281 -17.203125 13.65625 -17.203125 C 12.8125 -17.203125 12.085938 -17.015625 11.484375 -16.640625 C 10.890625 -16.265625 10.234375 -15.734375 9.515625 -15.046875 L 9.515625 0 Z M 2.921875 0 "/></g></g></g><g fill="#526479" fill-opacity="1"><g transform="translate(579.683342, 372.359128)"><g><path d="M 12.484375 0.53125 C 11.078125 0.53125 9.710938 0.269531 8.390625 -0.25 C 7.078125 -0.769531 5.914062 -1.523438 4.90625 -2.515625 C 3.90625 -3.503906 3.101562 -4.722656 2.5 -6.171875 C 1.90625 -7.628906 1.609375 -9.285156 1.609375 -11.140625 C 1.609375 -12.992188 1.90625 -14.644531 2.5 -16.09375 C 3.101562 -17.550781 3.90625 -18.769531 4.90625 -19.75 C 5.914062 -20.738281 7.078125 -21.492188 8.390625 -22.015625 C 9.710938 -22.546875 11.078125 -22.8125 12.484375 -22.8125 C 13.890625 -22.8125 15.242188 -22.546875 16.546875 -22.015625 C 17.847656 -21.492188 19 -20.738281 20 -19.75 C 21.007812 -18.769531 21.8125 -17.550781 22.40625 -16.09375 C 23.007812 -14.644531 23.3125 -12.992188 23.3125 -11.140625 C 23.3125 -9.285156 23.007812 -7.628906 22.40625 -6.171875 C 21.8125 -4.722656 21.007812 -3.503906 20 -2.515625 C 19 -1.523438 17.847656 -0.769531 16.546875 -0.25 C 15.242188 0.269531 13.890625 0.53125 12.484375 0.53125 Z M 12.484375 -4.8125 C 13.828125 -4.8125 14.84375 -5.378906 15.53125 -6.515625 C 16.226562 -7.648438 16.578125 -9.191406 16.578125 -11.140625 C 16.578125 -13.085938 16.226562 -14.628906 15.53125 -15.765625 C 14.84375 -16.898438 13.828125 -17.46875 12.484375 -17.46875 C 11.109375 -17.46875 10.082031 -16.898438 9.40625 -15.765625 C 8.726562 -14.628906 8.390625 -13.085938 8.390625 -11.140625 C 8.390625 -9.191406 8.726562 -7.648438 9.40625 -6.515625 C 10.082031 -5.378906 11.109375 -4.8125 12.484375 -4.8125 Z M 12.484375 -4.8125 "/></g></g></g><g fill="#526479" fill-opacity="1"><g transform="translate(604.60545, 372.359128)"><g><path d="M 6.640625 0 L 1.078125 -22.28125 L 7.640625 -22.28125 L 9.796875 -11.9375 C 9.972656 -10.832031 10.132812 -9.738281 10.28125 -8.65625 C 10.4375 -7.582031 10.601562 -6.476562 10.78125 -5.34375 L 10.953125 -5.34375 C 11.160156 -6.476562 11.363281 -7.597656 11.5625 -8.703125 C 11.757812 -9.816406 11.992188 -10.894531 12.265625 -11.9375 L 14.734375 -22.28125 L 20.4375 -22.28125 L 22.953125 -11.9375 C 23.210938 -10.832031 23.445312 -9.738281 23.65625 -8.65625 C 23.875 -7.582031 24.101562 -6.476562 24.34375 -5.34375 L 24.515625 -5.34375 C 24.722656 -6.476562 24.894531 -7.582031 25.03125 -8.65625 C 25.164062 -9.738281 25.335938 -10.832031 25.546875 -11.9375 L 27.65625 -22.28125 L 33.765625 -22.28125 L 28.421875 0 L 20.703125 0 L 18.6875 -8.890625 C 18.445312 -9.941406 18.234375 -10.988281 18.046875 -12.03125 C 17.867188 -13.082031 17.675781 -14.207031 17.46875 -15.40625 L 17.28125 -15.40625 C 17.070312 -14.207031 16.882812 -13.082031 16.71875 -12.03125 C 16.5625 -10.988281 16.378906 -9.941406 16.171875 -8.890625 L 14.1875 0 Z M 6.640625 0 "/></g></g></g><g fill="#526479" fill-opacity="1"><g transform="translate(639.451499, 372.359128)"><g><path d="M 8.984375 0.53125 C 7.847656 0.53125 6.890625 0.351562 6.109375 0 C 5.328125 -0.351562 4.703125 -0.851562 4.234375 -1.5 C 3.773438 -2.144531 3.441406 -2.921875 3.234375 -3.828125 C 3.023438 -4.742188 2.921875 -5.773438 2.921875 -6.921875 L 2.921875 -31.484375 L 9.515625 -31.484375 L 9.515625 -6.640625 C 9.515625 -5.953125 9.640625 -5.472656 9.890625 -5.203125 C 10.148438 -4.941406 10.414062 -4.8125 10.6875 -4.8125 C 10.832031 -4.8125 10.957031 -4.8125 11.0625 -4.8125 C 11.164062 -4.8125 11.3125 -4.835938 11.5 -4.890625 L 12.296875 0 C 11.941406 0.144531 11.488281 0.269531 10.9375 0.375 C 10.382812 0.476562 9.734375 0.53125 8.984375 0.53125 Z M 8.984375 0.53125 "/></g></g></g><g fill="#526479" fill-opacity="1"><g transform="translate(652.294243, 372.359128)"><g><path d="M 12.890625 0.53125 C 11.304688 0.53125 9.820312 0.269531 8.4375 -0.25 C 7.0625 -0.769531 5.863281 -1.53125 4.84375 -2.53125 C 3.832031 -3.539062 3.039062 -4.765625 2.46875 -6.203125 C 1.894531 -7.640625 1.609375 -9.285156 1.609375 -11.140625 C 1.609375 -12.929688 1.90625 -14.550781 2.5 -16 C 3.101562 -17.457031 3.890625 -18.6875 4.859375 -19.6875 C 5.835938 -20.695312 6.957031 -21.46875 8.21875 -22 C 9.476562 -22.539062 10.78125 -22.8125 12.125 -22.8125 C 13.707031 -22.8125 15.085938 -22.539062 16.265625 -22 C 17.453125 -21.46875 18.441406 -20.722656 19.234375 -19.765625 C 20.035156 -18.804688 20.628906 -17.675781 21.015625 -16.375 C 21.398438 -15.070312 21.59375 -13.65625 21.59375 -12.125 C 21.59375 -11.519531 21.5625 -10.945312 21.5 -10.40625 C 21.445312 -9.875 21.390625 -9.472656 21.328125 -9.203125 L 8 -9.203125 C 8.289062 -7.585938 8.953125 -6.394531 9.984375 -5.625 C 11.023438 -4.863281 12.289062 -4.484375 13.78125 -4.484375 C 15.375 -4.484375 16.976562 -4.976562 18.59375 -5.96875 L 20.796875 -1.96875 C 19.648438 -1.195312 18.378906 -0.585938 16.984375 -0.140625 C 15.597656 0.304688 14.234375 0.53125 12.890625 0.53125 Z M 7.953125 -13.5625 L 15.984375 -13.5625 C 15.984375 -14.820312 15.695312 -15.835938 15.125 -16.609375 C 14.5625 -17.390625 13.609375 -17.78125 12.265625 -17.78125 C 11.210938 -17.78125 10.289062 -17.4375 9.5 -16.75 C 8.707031 -16.0625 8.191406 -15 7.953125 -13.5625 Z M 7.953125 -13.5625 "/></g></g></g><g fill="#526479" fill-opacity="1"><g transform="translate(675.554874, 372.359128)"><g><path d="M 10.875 0.53125 C 9.488281 0.53125 8.234375 0.265625 7.109375 -0.265625 C 5.992188 -0.804688 5.035156 -1.578125 4.234375 -2.578125 C 3.441406 -3.585938 2.828125 -4.804688 2.390625 -6.234375 C 1.960938 -7.671875 1.75 -9.304688 1.75 -11.140625 C 1.75 -12.960938 2.007812 -14.59375 2.53125 -16.03125 C 3.0625 -17.46875 3.75 -18.6875 4.59375 -19.6875 C 5.445312 -20.695312 6.4375 -21.46875 7.5625 -22 C 8.6875 -22.539062 9.832031 -22.8125 11 -22.8125 C 12.257812 -22.8125 13.289062 -22.601562 14.09375 -22.1875 C 14.90625 -21.769531 15.703125 -21.203125 16.484375 -20.484375 L 16.21875 -23.890625 L 16.21875 -31.484375 L 22.8125 -31.484375 L 22.8125 0 L 17.421875 0 L 16.96875 -2.203125 L 16.796875 -2.203125 C 16.015625 -1.421875 15.097656 -0.769531 14.046875 -0.25 C 13.003906 0.269531 11.945312 0.53125 10.875 0.53125 Z M 12.578125 -4.84375 C 13.296875 -4.84375 13.945312 -4.992188 14.53125 -5.296875 C 15.113281 -5.597656 15.675781 -6.125 16.21875 -6.875 L 16.21875 -15.984375 C 15.613281 -16.523438 14.992188 -16.898438 14.359375 -17.109375 C 13.734375 -17.316406 13.125 -17.421875 12.53125 -17.421875 C 11.476562 -17.421875 10.546875 -16.921875 9.734375 -15.921875 C 8.929688 -14.921875 8.53125 -13.351562 8.53125 -11.21875 C 8.53125 -9.007812 8.878906 -7.394531 9.578125 -6.375 C 10.285156 -5.351562 11.285156 -4.84375 12.578125 -4.84375 Z M 12.578125 -4.84375 "/></g></g></g><g fill="#526479" fill-opacity="1"><g transform="translate(701.285264, 372.359128)"><g><path d="M 10.875 9.46875 C 9.550781 9.46875 8.328125 9.351562 7.203125 9.125 C 6.085938 8.90625 5.101562 8.570312 4.25 8.125 C 3.394531 7.675781 2.726562 7.09375 2.25 6.375 C 1.769531 5.65625 1.53125 4.800781 1.53125 3.8125 C 1.53125 2.019531 2.59375 0.523438 4.71875 -0.671875 L 4.71875 -0.859375 C 4.113281 -1.242188 3.617188 -1.734375 3.234375 -2.328125 C 2.847656 -2.929688 2.65625 -3.695312 2.65625 -4.625 C 2.65625 -5.4375 2.894531 -6.207031 3.375 -6.9375 C 3.851562 -7.664062 4.453125 -8.285156 5.171875 -8.796875 L 5.171875 -8.984375 C 4.390625 -9.523438 3.691406 -10.296875 3.078125 -11.296875 C 2.460938 -12.296875 2.15625 -13.457031 2.15625 -14.78125 C 2.15625 -16.125 2.410156 -17.296875 2.921875 -18.296875 C 3.429688 -19.296875 4.109375 -20.132812 4.953125 -20.8125 C 5.804688 -21.488281 6.785156 -21.988281 7.890625 -22.3125 C 9.003906 -22.644531 10.160156 -22.8125 11.359375 -22.8125 C 12.679688 -22.8125 13.832031 -22.632812 14.8125 -22.28125 L 22.953125 -22.28125 L 22.953125 -17.46875 L 19.40625 -17.46875 C 19.613281 -17.132812 19.785156 -16.710938 19.921875 -16.203125 C 20.054688 -15.703125 20.125 -15.148438 20.125 -14.546875 C 20.125 -13.265625 19.894531 -12.148438 19.4375 -11.203125 C 18.988281 -10.265625 18.367188 -9.488281 17.578125 -8.875 C 16.785156 -8.257812 15.859375 -7.800781 14.796875 -7.5 C 13.734375 -7.195312 12.585938 -7.046875 11.359375 -7.046875 C 10.492188 -7.046875 9.597656 -7.195312 8.671875 -7.5 C 8.367188 -7.257812 8.15625 -7.019531 8.03125 -6.78125 C 7.914062 -6.539062 7.859375 -6.226562 7.859375 -5.84375 C 7.859375 -5.269531 8.101562 -4.847656 8.59375 -4.578125 C 9.09375 -4.304688 9.96875 -4.171875 11.21875 -4.171875 L 14.8125 -4.171875 C 17.570312 -4.171875 19.675781 -3.726562 21.125 -2.84375 C 22.582031 -1.96875 23.3125 -0.523438 23.3125 1.484375 C 23.3125 2.648438 23.019531 3.71875 22.4375 4.6875 C 21.851562 5.664062 21.019531 6.503906 19.9375 7.203125 C 18.863281 7.910156 17.5625 8.460938 16.03125 8.859375 C 14.5 9.265625 12.78125 9.46875 10.875 9.46875 Z M 11.359375 -11.046875 C 12.222656 -11.046875 12.945312 -11.351562 13.53125 -11.96875 C 14.125 -12.582031 14.421875 -13.519531 14.421875 -14.78125 C 14.421875 -15.945312 14.125 -16.832031 13.53125 -17.4375 C 12.945312 -18.050781 12.222656 -18.359375 11.359375 -18.359375 C 10.492188 -18.359375 9.769531 -18.0625 9.1875 -17.46875 C 8.601562 -16.875 8.3125 -15.976562 8.3125 -14.78125 C 8.3125 -13.519531 8.601562 -12.582031 9.1875 -11.96875 C 9.769531 -11.351562 10.492188 -11.046875 11.359375 -11.046875 Z M 11.90625 5.34375 C 13.394531 5.34375 14.617188 5.078125 15.578125 4.546875 C 16.535156 4.023438 17.015625 3.378906 17.015625 2.609375 C 17.015625 1.921875 16.722656 1.457031 16.140625 1.21875 C 15.554688 0.976562 14.710938 0.859375 13.609375 0.859375 L 11.3125 0.859375 C 10.539062 0.859375 9.914062 0.832031 9.4375 0.78125 C 8.957031 0.738281 8.535156 0.671875 8.171875 0.578125 C 7.359375 1.296875 6.953125 2.03125 6.953125 2.78125 C 6.953125 3.625 7.398438 4.257812 8.296875 4.6875 C 9.203125 5.125 10.40625 5.34375 11.90625 5.34375 Z M 11.90625 5.34375 "/></g></g></g><g fill="#526479" fill-opacity="1"><g transform="translate(725.264361, 372.359128)"><g><path d="M 12.890625 0.53125 C 11.304688 0.53125 9.820312 0.269531 8.4375 -0.25 C 7.0625 -0.769531 5.863281 -1.53125 4.84375 -2.53125 C 3.832031 -3.539062 3.039062 -4.765625 2.46875 -6.203125 C 1.894531 -7.640625 1.609375 -9.285156 1.609375 -11.140625 C 1.609375 -12.929688 1.90625 -14.550781 2.5 -16 C 3.101562 -17.457031 3.890625 -18.6875 4.859375 -19.6875 C 5.835938 -20.695312 6.957031 -21.46875 8.21875 -22 C 9.476562 -22.539062 10.78125 -22.8125 12.125 -22.8125 C 13.707031 -22.8125 15.085938 -22.539062 16.265625 -22 C 17.453125 -21.46875 18.441406 -20.722656 19.234375 -19.765625 C 20.035156 -18.804688 20.628906 -17.675781 21.015625 -16.375 C 21.398438 -15.070312 21.59375 -13.65625 21.59375 -12.125 C 21.59375 -11.519531 21.5625 -10.945312 21.5 -10.40625 C 21.445312 -9.875 21.390625 -9.472656 21.328125 -9.203125 L 8 -9.203125 C 8.289062 -7.585938 8.953125 -6.394531 9.984375 -5.625 C 11.023438 -4.863281 12.289062 -4.484375 13.78125 -4.484375 C 15.375 -4.484375 16.976562 -4.976562 18.59375 -5.96875 L 20.796875 -1.96875 C 19.648438 -1.195312 18.378906 -0.585938 16.984375 -0.140625 C 15.597656 0.304688 14.234375 0.53125 12.890625 0.53125 Z M 7.953125 -13.5625 L 15.984375 -13.5625 C 15.984375 -14.820312 15.695312 -15.835938 15.125 -16.609375 C 14.5625 -17.390625 13.609375 -17.78125 12.265625 -17.78125 C 11.210938 -17.78125 10.289062 -17.4375 9.5 -16.75 C 8.707031 -16.0625 8.191406 -15 7.953125 -13.5625 Z M 7.953125 -13.5625 "/></g></g></g><g fill="#526479" fill-opacity="1"><g transform="translate(748.525003, 372.359128)"><g/></g></g><g fill="#526479" fill-opacity="1"><g transform="translate(757.505955, 372.359128)"><g><path d="M 3.453125 0 L 3.453125 -29.28125 L 13.515625 -29.28125 C 15.128906 -29.28125 16.640625 -29.117188 18.046875 -28.796875 C 19.453125 -28.484375 20.679688 -27.960938 21.734375 -27.234375 C 22.785156 -26.503906 23.613281 -25.53125 24.21875 -24.3125 C 24.832031 -23.101562 25.140625 -21.613281 25.140625 -19.84375 C 25.140625 -18.132812 24.832031 -16.648438 24.21875 -15.390625 C 23.613281 -14.140625 22.785156 -13.109375 21.734375 -12.296875 C 20.679688 -11.492188 19.46875 -10.894531 18.09375 -10.5 C 16.71875 -10.113281 15.253906 -9.921875 13.703125 -9.921875 L 10.0625 -9.921875 L 10.0625 0 Z M 10.0625 -15.171875 L 13.296875 -15.171875 C 16.890625 -15.171875 18.6875 -16.726562 18.6875 -19.84375 C 18.6875 -21.375 18.207031 -22.453125 17.25 -23.078125 C 16.289062 -23.710938 14.910156 -24.03125 13.109375 -24.03125 L 10.0625 -24.03125 Z M 10.0625 -15.171875 "/></g></g></g><g fill="#526479" fill-opacity="1"><g transform="translate(784.26916, 372.359128)"><g><path d="M 8.53125 0.53125 C 7.507812 0.53125 6.585938 0.359375 5.765625 0.015625 C 4.941406 -0.328125 4.242188 -0.800781 3.671875 -1.40625 C 3.109375 -2.019531 2.671875 -2.734375 2.359375 -3.546875 C 2.046875 -4.359375 1.890625 -5.242188 1.890625 -6.203125 C 1.890625 -8.535156 2.875 -10.359375 4.84375 -11.671875 C 6.820312 -12.992188 10.015625 -13.878906 14.421875 -14.328125 C 14.359375 -15.316406 14.0625 -16.101562 13.53125 -16.6875 C 13.007812 -17.269531 12.132812 -17.5625 10.90625 -17.5625 C 9.945312 -17.5625 8.992188 -17.378906 8.046875 -17.015625 C 7.109375 -16.660156 6.101562 -16.164062 5.03125 -15.53125 L 2.65625 -19.890625 C 4.09375 -20.765625 5.59375 -21.46875 7.15625 -22 C 8.726562 -22.539062 10.398438 -22.8125 12.171875 -22.8125 C 15.046875 -22.8125 17.238281 -21.992188 18.75 -20.359375 C 20.257812 -18.734375 21.015625 -16.195312 21.015625 -12.75 L 21.015625 0 L 15.625 0 L 15.171875 -2.296875 L 15 -2.296875 C 14.039062 -1.453125 13.035156 -0.769531 11.984375 -0.25 C 10.941406 0.269531 9.789062 0.53125 8.53125 0.53125 Z M 10.78125 -4.578125 C 11.53125 -4.578125 12.171875 -4.738281 12.703125 -5.0625 C 13.242188 -5.394531 13.816406 -5.863281 14.421875 -6.46875 L 14.421875 -10.375 C 12.078125 -10.039062 10.457031 -9.5625 9.5625 -8.9375 C 8.664062 -8.3125 8.21875 -7.5625 8.21875 -6.6875 C 8.21875 -5.96875 8.445312 -5.4375 8.90625 -5.09375 C 9.375 -4.75 10 -4.578125 10.78125 -4.578125 Z M 10.78125 -4.578125 "/></g></g></g><g fill="#526479" fill-opacity="1"><g transform="translate(807.933932, 372.359128)"><g><path d="M 12.625 0.53125 C 11.0625 0.53125 9.613281 0.269531 8.28125 -0.25 C 6.945312 -0.769531 5.785156 -1.523438 4.796875 -2.515625 C 3.816406 -3.503906 3.039062 -4.722656 2.46875 -6.171875 C 1.894531 -7.628906 1.609375 -9.285156 1.609375 -11.140625 C 1.609375 -12.992188 1.921875 -14.644531 2.546875 -16.09375 C 3.179688 -17.550781 4.03125 -18.769531 5.09375 -19.75 C 6.15625 -20.738281 7.390625 -21.492188 8.796875 -22.015625 C 10.203125 -22.546875 11.671875 -22.8125 13.203125 -22.8125 C 14.578125 -22.8125 15.796875 -22.585938 16.859375 -22.140625 C 17.921875 -21.691406 18.875 -21.125 19.71875 -20.4375 L 16.609375 -16.171875 C 15.566406 -17.035156 14.566406 -17.46875 13.609375 -17.46875 C 11.992188 -17.46875 10.71875 -16.898438 9.78125 -15.765625 C 8.851562 -14.628906 8.390625 -13.085938 8.390625 -11.140625 C 8.390625 -9.191406 8.859375 -7.648438 9.796875 -6.515625 C 10.742188 -5.378906 11.9375 -4.8125 13.375 -4.8125 C 14.09375 -4.8125 14.789062 -4.96875 15.46875 -5.28125 C 16.144531 -5.59375 16.78125 -5.972656 17.375 -6.421875 L 19.984375 -2.109375 C 18.878906 -1.148438 17.679688 -0.46875 16.390625 -0.0625 C 15.097656 0.332031 13.84375 0.53125 12.625 0.53125 Z M 12.625 0.53125 "/></g></g></g><g fill="#526479" fill-opacity="1"><g transform="translate(828.904422, 372.359128)"><g><path d="M 2.921875 0 L 2.921875 -31.484375 L 9.34375 -31.484375 L 9.34375 -13.421875 L 9.515625 -13.421875 L 16.578125 -22.28125 L 23.75 -22.28125 L 15.9375 -13.109375 L 24.34375 0 L 17.203125 0 L 12.171875 -8.671875 L 9.34375 -5.484375 L 9.34375 0 Z M 2.921875 0 "/></g></g></g><g fill="#526479" fill-opacity="1"><g transform="translate(853.512194, 372.359128)"><g><path d="M 8.53125 0.53125 C 7.507812 0.53125 6.585938 0.359375 5.765625 0.015625 C 4.941406 -0.328125 4.242188 -0.800781 3.671875 -1.40625 C 3.109375 -2.019531 2.671875 -2.734375 2.359375 -3.546875 C 2.046875 -4.359375 1.890625 -5.242188 1.890625 -6.203125 C 1.890625 -8.535156 2.875 -10.359375 4.84375 -11.671875 C 6.820312 -12.992188 10.015625 -13.878906 14.421875 -14.328125 C 14.359375 -15.316406 14.0625 -16.101562 13.53125 -16.6875 C 13.007812 -17.269531 12.132812 -17.5625 10.90625 -17.5625 C 9.945312 -17.5625 8.992188 -17.378906 8.046875 -17.015625 C 7.109375 -16.660156 6.101562 -16.164062 5.03125 -15.53125 L 2.65625 -19.890625 C 4.09375 -20.765625 5.59375 -21.46875 7.15625 -22 C 8.726562 -22.539062 10.398438 -22.8125 12.171875 -22.8125 C 15.046875 -22.8125 17.238281 -21.992188 18.75 -20.359375 C 20.257812 -18.734375 21.015625 -16.195312 21.015625 -12.75 L 21.015625 0 L 15.625 0 L 15.171875 -2.296875 L 15 -2.296875 C 14.039062 -1.453125 13.035156 -0.769531 11.984375 -0.25 C 10.941406 0.269531 9.789062 0.53125 8.53125 0.53125 Z M 10.78125 -4.578125 C 11.53125 -4.578125 12.171875 -4.738281 12.703125 -5.0625 C 13.242188 -5.394531 13.816406 -5.863281 14.421875 -6.46875 L 14.421875 -10.375 C 12.078125 -10.039062 10.457031 -9.5625 9.5625 -8.9375 C 8.664062 -8.3125 8.21875 -7.5625 8.21875 -6.6875 C 8.21875 -5.96875 8.445312 -5.4375 8.90625 -5.09375 C 9.375 -4.75 10 -4.578125 10.78125 -4.578125 Z M 10.78125 -4.578125 "/></g></g></g><g fill="#526479" fill-opacity="1"><g transform="translate(877.176987, 372.359128)"><g><path d="M 10.875 9.46875 C 9.550781 9.46875 8.328125 9.351562 7.203125 9.125 C 6.085938 8.90625 5.101562 8.570312 4.25 8.125 C 3.394531 7.675781 2.726562 7.09375 2.25 6.375 C 1.769531 5.65625 1.53125 4.800781 1.53125 3.8125 C 1.53125 2.019531 2.59375 0.523438 4.71875 -0.671875 L 4.71875 -0.859375 C 4.113281 -1.242188 3.617188 -1.734375 3.234375 -2.328125 C 2.847656 -2.929688 2.65625 -3.695312 2.65625 -4.625 C 2.65625 -5.4375 2.894531 -6.207031 3.375 -6.9375 C 3.851562 -7.664062 4.453125 -8.285156 5.171875 -8.796875 L 5.171875 -8.984375 C 4.390625 -9.523438 3.691406 -10.296875 3.078125 -11.296875 C 2.460938 -12.296875 2.15625 -13.457031 2.15625 -14.78125 C 2.15625 -16.125 2.410156 -17.296875 2.921875 -18.296875 C 3.429688 -19.296875 4.109375 -20.132812 4.953125 -20.8125 C 5.804688 -21.488281 6.785156 -21.988281 7.890625 -22.3125 C 9.003906 -22.644531 10.160156 -22.8125 11.359375 -22.8125 C 12.679688 -22.8125 13.832031 -22.632812 14.8125 -22.28125 L 22.953125 -22.28125 L 22.953125 -17.46875 L 19.40625 -17.46875 C 19.613281 -17.132812 19.785156 -16.710938 19.921875 -16.203125 C 20.054688 -15.703125 20.125 -15.148438 20.125 -14.546875 C 20.125 -13.265625 19.894531 -12.148438 19.4375 -11.203125 C 18.988281 -10.265625 18.367188 -9.488281 17.578125 -8.875 C 16.785156 -8.257812 15.859375 -7.800781 14.796875 -7.5 C 13.734375 -7.195312 12.585938 -7.046875 11.359375 -7.046875 C 10.492188 -7.046875 9.597656 -7.195312 8.671875 -7.5 C 8.367188 -7.257812 8.15625 -7.019531 8.03125 -6.78125 C 7.914062 -6.539062 7.859375 -6.226562 7.859375 -5.84375 C 7.859375 -5.269531 8.101562 -4.847656 8.59375 -4.578125 C 9.09375 -4.304688 9.96875 -4.171875 11.21875 -4.171875 L 14.8125 -4.171875 C 17.570312 -4.171875 19.675781 -3.726562 21.125 -2.84375 C 22.582031 -1.96875 23.3125 -0.523438 23.3125 1.484375 C 23.3125 2.648438 23.019531 3.71875 22.4375 4.6875 C 21.851562 5.664062 21.019531 6.503906 19.9375 7.203125 C 18.863281 7.910156 17.5625 8.460938 16.03125 8.859375 C 14.5 9.265625 12.78125 9.46875 10.875 9.46875 Z M 11.359375 -11.046875 C 12.222656 -11.046875 12.945312 -11.351562 13.53125 -11.96875 C 14.125 -12.582031 14.421875 -13.519531 14.421875 -14.78125 C 14.421875 -15.945312 14.125 -16.832031 13.53125 -17.4375 C 12.945312 -18.050781 12.222656 -18.359375 11.359375 -18.359375 C 10.492188 -18.359375 9.769531 -18.0625 9.1875 -17.46875 C 8.601562 -16.875 8.3125 -15.976562 8.3125 -14.78125 C 8.3125 -13.519531 8.601562 -12.582031 9.1875 -11.96875 C 9.769531 -11.351562 10.492188 -11.046875 11.359375 -11.046875 Z M 11.90625 5.34375 C 13.394531 5.34375 14.617188 5.078125 15.578125 4.546875 C 16.535156 4.023438 17.015625 3.378906 17.015625 2.609375 C 17.015625 1.921875 16.722656 1.457031 16.140625 1.21875 C 15.554688 0.976562 14.710938 0.859375 13.609375 0.859375 L 11.3125 0.859375 C 10.539062 0.859375 9.914062 0.832031 9.4375 0.78125 C 8.957031 0.738281 8.535156 0.671875 8.171875 0.578125 C 7.359375 1.296875 6.953125 2.03125 6.953125 2.78125 C 6.953125 3.625 7.398438 4.257812 8.296875 4.6875 C 9.203125 5.125 10.40625 5.34375 11.90625 5.34375 Z M 11.90625 5.34375 "/></g></g></g><g fill="#526479" fill-opacity="1"><g transform="translate(901.156106, 372.359128)"><g><path d="M 12.890625 0.53125 C 11.304688 0.53125 9.820312 0.269531 8.4375 -0.25 C 7.0625 -0.769531 5.863281 -1.53125 4.84375 -2.53125 C 3.832031 -3.539062 3.039062 -4.765625 2.46875 -6.203125 C 1.894531 -7.640625 1.609375 -9.285156 1.609375 -11.140625 C 1.609375 -12.929688 1.90625 -14.550781 2.5 -16 C 3.101562 -17.457031 3.890625 -18.6875 4.859375 -19.6875 C 5.835938 -20.695312 6.957031 -21.46875 8.21875 -22 C 9.476562 -22.539062 10.78125 -22.8125 12.125 -22.8125 C 13.707031 -22.8125 15.085938 -22.539062 16.265625 -22 C 17.453125 -21.46875 18.441406 -20.722656 19.234375 -19.765625 C 20.035156 -18.804688 20.628906 -17.675781 21.015625 -16.375 C 21.398438 -15.070312 21.59375 -13.65625 21.59375 -12.125 C 21.59375 -11.519531 21.5625 -10.945312 21.5 -10.40625 C 21.445312 -9.875 21.390625 -9.472656 21.328125 -9.203125 L 8 -9.203125 C 8.289062 -7.585938 8.953125 -6.394531 9.984375 -5.625 C 11.023438 -4.863281 12.289062 -4.484375 13.78125 -4.484375 C 15.375 -4.484375 16.976562 -4.976562 18.59375 -5.96875 L 20.796875 -1.96875 C 19.648438 -1.195312 18.378906 -0.585938 16.984375 -0.140625 C 15.597656 0.304688 14.234375 0.53125 12.890625 0.53125 Z M 7.953125 -13.5625 L 15.984375 -13.5625 C 15.984375 -14.820312 15.695312 -15.835938 15.125 -16.609375 C 14.5625 -17.390625 13.609375 -17.78125 12.265625 -17.78125 C 11.210938 -17.78125 10.289062 -17.4375 9.5 -16.75 C 8.707031 -16.0625 8.191406 -15 7.953125 -13.5625 Z M 7.953125 -13.5625 "/></g></g></g><g clip-path="url(#08d5d13be6)"><g clip-path="url(#1951b0247f)"><path stroke-linecap="butt" transform="matrix(0.749871, 0, 0, 0.749973, 105.641845, 448.381893)" fill="none" stroke-linejoin="miter" d="M 51.001922 0.00122545 L 1587.281324 0.00122545 C 1600.804479 0.00122545 1613.780665 5.371209 1623.344807 14.93926 C 1632.908949 24.502102 1638.279663 37.471315 1638.279663 50.997841 L 1638.279663 386.01503 C 1638.279663 399.541556 1632.908949 412.515978 1623.344807 422.07882 C 1613.780665 431.641662 1600.804479 437.016854 1587.281324 437.016854 L 51.001922 437.016854 C 37.473558 437.016854 24.502581 431.641662 14.938438 422.07882 C 5.374296 412.515978 -0.00162682 399.541556 -0.00162682 386.01503 L -0.00162682 50.997841 C -0.00162682 37.471315 5.374296 24.502102 14.938438 14.93926 C 24.502581 5.371209 37.473558 0.00122545 51.001922 0.00122545 " stroke="#cccccc" stroke-width="8" stroke-opacity="1" stroke-miterlimit="4"/></g></g><g clip-path="url(#5455b47ff9)"><path fill="#e6e9ed" d="M 543.421875 539.777344 C 543.40625 539.777344 542.28125 539.777344 540.917969 539.777344 L 422.011719 539.777344 C 420.648438 539.777344 419.53125 540.890625 419.53125 542.257812 L 419.53125 542.285156 C 419.53125 543.644531 419.53125 545.875 419.53125 547.242188 L 419.53125 552.203125 C 419.53125 553.5625 419.53125 555.796875 419.53125 557.164062 L 419.53125 656.324219 C 419.53125 657.6875 420.648438 658.804688 422.011719 658.804688 L 526.039062 658.804688 C 527.402344 658.804688 529.636719 658.804688 531 658.804688 L 540.96875 658.804688 C 542.332031 658.804688 543.449219 657.6875 543.449219 656.324219 L 543.449219 542.257812 C 543.445312 540.890625 543.4375 539.777344 543.421875 539.777344 Z M 543.421875 539.777344 " fill-opacity="1" fill-rule="nonzero"/></g><path fill="#ccd1d9" d="M 558.351562 527.398438 C 558.324219 527.398438 557.1875 527.398438 555.824219 527.398438 L 436.863281 527.398438 C 435.5 527.398438 434.386719 528.507812 434.386719 529.863281 C 434.386719 531.222656 434.386719 533.449219 434.386719 534.8125 L 434.386719 539.773438 C 434.386719 541.136719 434.386719 543.367188 434.386719 544.734375 L 434.386719 641.4375 C 434.386719 642.804688 435.5 643.917969 436.863281 643.917969 L 540.96875 643.917969 C 542.332031 643.917969 544.5625 643.917969 545.929688 643.917969 L 555.824219 643.917969 C 557.1875 643.917969 558.300781 642.804688 558.300781 641.4375 L 558.300781 631.621094 C 558.300781 630.253906 558.300781 629.113281 558.300781 629.085938 C 558.300781 629.0625 558.304688 627.925781 558.304688 626.558594 L 558.402344 529.878906 C 558.402344 528.511719 558.382812 527.398438 558.351562 527.398438 Z M 558.351562 527.398438 " fill-opacity="1" fill-rule="nonzero"/><g clip-path="url(#a8ae92a1e5)"><path fill="#e6e9ed" d="M 573.207031 510.011719 C 573.191406 510.011719 572.066406 510.011719 570.703125 510.011719 L 451.792969 510.011719 C 450.429688 510.011719 449.3125 511.128906 449.3125 512.492188 L 449.3125 512.515625 C 449.3125 513.882812 449.3125 516.113281 449.3125 517.476562 L 449.3125 522.433594 C 449.3125 523.800781 449.3125 526.03125 449.3125 527.394531 L 449.3125 626.558594 C 449.3125 627.925781 450.429688 629.039062 451.792969 629.039062 L 555.824219 629.039062 C 557.1875 629.039062 559.417969 629.039062 560.78125 629.039062 L 570.75 629.039062 C 572.117188 629.039062 573.230469 627.925781 573.230469 626.558594 L 573.230469 512.492188 C 573.230469 511.128906 573.222656 510.011719 573.207031 510.011719 Z M 573.207031 510.011719 " fill-opacity="1" fill-rule="nonzero"/></g><g clip-path="url(#a5814f499a)"><path fill="#ccd1d9" d="M 419.480469 539.773438 C 419.480469 537.046875 421.6875 534.8125 424.441406 534.8125 L 434.386719 534.8125 L 434.386719 544.734375 L 419.480469 544.734375 Z M 419.480469 539.773438 " fill-opacity="1" fill-rule="nonzero"/></g><path fill="#aab2bd" d="M 434.335938 524.917969 C 434.335938 522.167969 436.566406 519.960938 439.296875 519.960938 L 449.3125 519.960938 L 449.3125 529.878906 L 434.335938 529.878906 Z M 434.335938 524.917969 " fill-opacity="1" fill-rule="nonzero"/><g clip-path="url(#eae3f179f6)"><path fill="#ccd1d9" d="M 573.179688 510.015625 L 573.179688 514.976562 L 449.289062 514.976562 L 449.289062 510.015625 C 449.289062 507.289062 451.5 505.054688 454.25 505.054688 L 568.222656 505.054688 C 570.972656 505.054688 573.179688 507.289062 573.179688 510.015625 Z M 573.179688 510.015625 " fill-opacity="1" fill-rule="nonzero"/></g><path fill="#ccd1d9" d="M 441.855469 527.398438 C 440.484375 527.398438 439.363281 526.289062 439.363281 524.917969 C 439.363281 523.546875 440.460938 522.441406 441.828125 522.441406 L 441.855469 522.441406 C 443.226562 522.441406 444.335938 523.546875 444.335938 524.917969 C 444.335938 526.289062 443.226562 527.398438 441.855469 527.398438 Z M 441.855469 527.398438 " fill-opacity="1" fill-rule="nonzero"/><path fill="#e6e9ed" d="M 426.992188 542.261719 C 425.621094 542.261719 424.5 541.15625 424.5 539.785156 C 424.5 538.414062 425.597656 537.304688 426.964844 537.304688 L 426.992188 537.304688 C 428.363281 537.304688 429.472656 538.414062 429.472656 539.785156 C 429.472656 541.15625 428.363281 542.261719 426.992188 542.261719 Z M 426.992188 542.261719 " fill-opacity="1" fill-rule="nonzero"/><path fill="#e6e9ed" d="M 456.792969 512.503906 C 455.421875 512.503906 454.300781 511.398438 454.300781 510.027344 C 454.300781 508.652344 455.398438 507.546875 456.765625 507.546875 L 456.792969 507.546875 C 458.160156 507.546875 459.273438 508.652344 459.273438 510.027344 C 459.273438 511.398438 458.160156 512.503906 456.792969 512.503906 Z M 456.792969 512.503906 " fill-opacity="1" fill-rule="nonzero"/><path fill="#e6e9ed" d="M 464.230469 512.503906 C 462.859375 512.503906 461.738281 511.398438 461.738281 510.027344 C 461.738281 508.652344 462.835938 507.546875 464.203125 507.546875 L 464.230469 507.546875 C 465.601562 507.546875 466.710938 508.652344 466.710938 510.027344 C 466.710938 511.398438 465.601562 512.503906 464.230469 512.503906 Z M 464.230469 512.503906 " fill-opacity="1" fill-rule="nonzero"/><path fill="#e6e9ed" d="M 471.671875 512.503906 C 470.300781 512.503906 469.179688 511.398438 469.179688 510.027344 C 469.179688 508.652344 470.277344 507.546875 471.644531 507.546875 L 471.671875 507.546875 C 473.039062 507.546875 474.152344 508.652344 474.152344 510.027344 C 474.152344 511.398438 473.039062 512.503906 471.671875 512.503906 Z M 471.671875 512.503906 " fill-opacity="1" fill-rule="nonzero"/><path fill="#545c66" d="M 501.222656 562.566406 C 499.988281 562.566406 498.546875 562.414062 496.855469 562.066406 C 492.253906 561.117188 486.75 558.886719 481.367188 555.777344 C 480.074219 555.03125 478.832031 554.257812 477.652344 553.476562 C 476.511719 552.714844 476.203125 551.171875 476.960938 550.035156 C 477.722656 548.890625 479.261719 548.582031 480.402344 549.34375 C 481.496094 550.070312 482.644531 550.785156 483.847656 551.480469 C 488.789062 554.332031 493.765625 556.367188 497.859375 557.210938 C 501.980469 558.058594 503.386719 557.316406 503.492188 557.132812 C 503.527344 557.070312 503.578125 556.613281 503.148438 555.667969 C 502.851562 555.023438 502.410156 554.308594 501.824219 553.535156 C 501 552.441406 501.214844 550.886719 502.304688 550.0625 C 503.394531 549.230469 504.953125 549.453125 505.78125 550.542969 C 506.582031 551.609375 507.214844 552.640625 507.660156 553.609375 C 508.96875 556.484375 508.449219 558.460938 507.785156 559.613281 C 506.945312 561.070312 505.128906 562.566406 501.222656 562.566406 Z M 501.222656 562.566406 " fill-opacity="1" fill-rule="nonzero"/><path fill="#545c66" d="M 468.710938 544.726562 C 467.953125 544.726562 467.207031 544.382812 466.71875 543.726562 C 463.449219 539.324219 463.886719 536.449219 464.828125 534.8125 C 466.867188 531.28125 472.503906 530.902344 480.695312 533.753906 C 481.988281 534.203125 482.671875 535.613281 482.222656 536.90625 C 481.769531 538.203125 480.351562 538.890625 479.066406 538.433594 C 472.351562 536.101562 469.371094 536.863281 469.121094 537.292969 C 469.050781 537.417969 469.035156 538.527344 470.699219 540.769531 C 471.511719 541.867188 471.28125 543.421875 470.183594 544.234375 C 469.742188 544.570312 469.222656 544.726562 468.710938 544.726562 Z M 468.710938 544.726562 " fill-opacity="1" fill-rule="nonzero"/><path fill="#545c66" d="M 471.398438 562.570312 C 468.214844 562.570312 465.964844 561.578125 464.828125 559.613281 C 461.4375 553.738281 471.023438 544.625 481.367188 538.65625 C 486.753906 535.546875 492.257812 533.308594 496.859375 532.359375 C 503.878906 530.90625 506.675781 532.898438 507.785156 534.8125 C 510.902344 540.214844 503.199219 547.996094 494.953125 553.480469 C 493.8125 554.234375 492.273438 553.929688 491.511719 552.789062 C 490.753906 551.644531 491.0625 550.105469 492.203125 549.347656 C 501.421875 543.222656 503.945312 538.085938 503.488281 537.292969 C 503.382812 537.117188 501.984375 536.367188 497.855469 537.21875 C 493.761719 538.066406 488.78125 540.097656 483.84375 542.953125 C 472.570312 549.460938 468.492188 556.039062 469.121094 557.136719 C 469.367188 557.566406 472.355469 558.332031 479.070312 555.996094 C 480.363281 555.539062 481.777344 556.230469 482.226562 557.523438 C 482.675781 558.8125 481.992188 560.230469 480.699219 560.679688 C 477.066406 561.941406 473.933594 562.570312 471.398438 562.570312 Z M 471.398438 562.570312 " fill-opacity="1" fill-rule="nonzero"/><path fill="#ccd1d9" d="M 506.273438 601.804688 L 464.117188 601.804688 C 462.746094 601.804688 461.636719 600.695312 461.636719 599.324219 C 461.636719 597.953125 462.746094 596.84375 464.117188 596.84375 L 506.273438 596.84375 C 507.644531 596.84375 508.753906 597.953125 508.753906 599.324219 C 508.753906 600.695312 507.644531 601.804688 506.273438 601.804688 Z M 506.273438 601.804688 " fill-opacity="1" fill-rule="nonzero"/><path fill="#ccd1d9" d="M 558.402344 601.804688 L 516.246094 601.804688 C 514.875 601.804688 513.765625 600.695312 513.765625 599.324219 C 513.765625 597.953125 514.875 596.84375 516.246094 596.84375 L 558.402344 596.84375 C 559.773438 596.84375 560.882812 597.953125 560.882812 599.324219 C 560.882812 600.695312 559.769531 601.804688 558.402344 601.804688 Z M 558.402344 601.804688 " fill-opacity="1" fill-rule="nonzero"/><path fill="#ccd1d9" d="M 506.273438 594.355469 L 464.117188 594.355469 C 462.746094 594.355469 461.636719 593.246094 461.636719 591.875 C 461.636719 590.503906 462.746094 589.394531 464.117188 589.394531 L 506.273438 589.394531 C 507.644531 589.394531 508.753906 590.503906 508.753906 591.875 C 508.753906 593.246094 507.644531 594.355469 506.273438 594.355469 Z M 506.273438 594.355469 " fill-opacity="1" fill-rule="nonzero"/><path fill="#ccd1d9" d="M 558.402344 594.355469 L 516.246094 594.355469 C 514.875 594.355469 513.765625 593.246094 513.765625 591.875 C 513.765625 590.503906 514.875 589.394531 516.246094 589.394531 L 558.402344 589.394531 C 559.773438 589.394531 560.882812 590.503906 560.882812 591.875 C 560.882812 593.246094 559.769531 594.355469 558.402344 594.355469 Z M 558.402344 594.355469 " fill-opacity="1" fill-rule="nonzero"/><path fill="#ccd1d9" d="M 506.273438 609.25 L 464.117188 609.25 C 462.746094 609.25 461.636719 608.140625 461.636719 606.769531 C 461.636719 605.398438 462.746094 604.289062 464.117188 604.289062 L 506.273438 604.289062 C 507.644531 604.289062 508.753906 605.398438 508.753906 606.769531 C 508.753906 608.140625 507.644531 609.25 506.273438 609.25 Z M 506.273438 609.25 " fill-opacity="1" fill-rule="nonzero"/><path fill="#ccd1d9" d="M 558.402344 609.25 L 516.246094 609.25 C 514.875 609.25 513.765625 608.140625 513.765625 606.769531 C 513.765625 605.398438 514.875 604.289062 516.246094 604.289062 L 558.402344 604.289062 C 559.773438 604.289062 560.882812 605.398438 560.882812 606.769531 C 560.882812 608.140625 559.769531 609.25 558.402344 609.25 Z M 558.402344 609.25 " fill-opacity="1" fill-rule="nonzero"/><path fill="#ccd1d9" d="M 483.960938 616.699219 L 464.117188 616.699219 C 462.746094 616.699219 461.636719 615.589844 461.636719 614.21875 C 461.636719 612.847656 462.746094 611.738281 464.117188 611.738281 L 483.960938 611.738281 C 485.332031 611.738281 486.4375 612.847656 486.4375 614.21875 C 486.4375 615.589844 485.332031 616.699219 483.960938 616.699219 Z M 483.960938 616.699219 " fill-opacity="1" fill-rule="nonzero"/><path fill="#ccd1d9" d="M 536.0625 616.699219 L 516.246094 616.699219 C 514.875 616.699219 513.765625 615.589844 513.765625 614.21875 C 513.765625 612.847656 514.875 611.738281 516.246094 611.738281 L 536.0625 611.738281 C 537.433594 611.738281 538.539062 612.847656 538.539062 614.21875 C 538.539062 615.589844 537.429688 616.699219 536.0625 616.699219 Z M 536.0625 616.699219 " fill-opacity="1" fill-rule="nonzero"/><path fill="#656d78" d="M 486.304688 572.015625 C 479.515625 572.015625 476.421875 559.160156 476.421875 547.21875 C 476.421875 535.273438 479.515625 522.414062 486.304688 522.414062 C 493.09375 522.414062 496.1875 535.273438 496.1875 547.21875 C 496.1875 559.160156 493.097656 572.015625 486.304688 572.015625 Z M 486.304688 527.375 C 485.039062 527.375 481.382812 534.199219 481.382812 547.21875 C 481.382812 560.230469 485.042969 567.058594 486.304688 567.058594 C 487.566406 567.058594 491.226562 560.230469 491.226562 547.21875 C 491.230469 534.199219 487.570312 527.375 486.304688 527.375 Z M 486.304688 527.375 " fill-opacity="1" fill-rule="nonzero"/><path fill="#ed5565" d="M 486.378906 549.699219 C 485.007812 549.699219 483.886719 548.589844 483.886719 547.21875 C 483.886719 545.847656 484.984375 544.738281 486.351562 544.738281 L 486.378906 544.738281 C 487.75 544.738281 488.859375 545.847656 488.859375 547.21875 C 488.859375 548.589844 487.746094 549.699219 486.378906 549.699219 Z M 486.378906 549.699219 " fill-opacity="1" fill-rule="nonzero"/><path fill="#ccd1d9" d="M 558.402344 537.308594 L 516.246094 537.308594 C 514.875 537.308594 513.765625 536.199219 513.765625 534.828125 C 513.765625 533.457031 514.875 532.347656 516.246094 532.347656 L 558.402344 532.347656 C 559.773438 532.347656 560.882812 533.457031 560.882812 534.828125 C 560.882812 536.199219 559.769531 537.308594 558.402344 537.308594 Z M 558.402344 537.308594 " fill-opacity="1" fill-rule="nonzero"/><path fill="#ccd1d9" d="M 558.402344 544.71875 L 516.246094 544.71875 C 514.875 544.71875 513.765625 543.609375 513.765625 542.238281 C 513.765625 540.867188 514.875 539.757812 516.246094 539.757812 L 558.402344 539.757812 C 559.773438 539.757812 560.882812 540.867188 560.882812 542.238281 C 560.882812 543.609375 559.769531 544.71875 558.402344 544.71875 Z M 558.402344 544.71875 " fill-opacity="1" fill-rule="nonzero"/><path fill="#ccd1d9" d="M 558.402344 552.167969 L 516.246094 552.167969 C 514.875 552.167969 513.765625 551.058594 513.765625 549.6875 C 513.765625 548.316406 514.875 547.207031 516.246094 547.207031 L 558.402344 547.207031 C 559.773438 547.207031 560.882812 548.316406 560.882812 549.6875 C 560.882812 551.058594 559.769531 552.167969 558.402344 552.167969 Z M 558.402344 552.167969 " fill-opacity="1" fill-rule="nonzero"/><path fill="#ccd1d9" d="M 558.402344 559.613281 L 516.246094 559.613281 C 514.875 559.613281 513.765625 558.503906 513.765625 557.132812 C 513.765625 555.761719 514.875 554.652344 516.246094 554.652344 L 558.402344 554.652344 C 559.773438 554.652344 560.882812 555.761719 560.882812 557.132812 C 560.882812 558.503906 559.769531 559.613281 558.402344 559.613281 Z M 558.402344 559.613281 " fill-opacity="1" fill-rule="nonzero"/><path fill="#ccd1d9" d="M 536.0625 567.046875 L 516.246094 567.046875 C 514.875 567.046875 513.765625 565.9375 513.765625 564.566406 C 513.765625 563.195312 514.875 562.085938 516.246094 562.085938 L 536.0625 562.085938 C 537.433594 562.085938 538.539062 563.195312 538.539062 564.566406 C 538.539062 565.9375 537.429688 567.046875 536.0625 567.046875 Z M 536.0625 567.046875 " fill-opacity="1" fill-rule="nonzero"/><path fill="#ffffff" d="M 558.355469 581.929688 L 464.117188 581.929688 C 462.746094 581.929688 461.636719 580.824219 461.636719 579.449219 C 461.636719 578.078125 462.746094 576.972656 464.117188 576.972656 L 558.355469 576.972656 C 559.726562 576.972656 560.835938 578.078125 560.835938 579.449219 C 560.835938 580.824219 559.726562 581.929688 558.355469 581.929688 Z M 558.355469 581.929688 " fill-opacity="1" fill-rule="nonzero"/><g fill="#526479" fill-opacity="1"><g transform="translate(435.473305, 708.66824)"><g><path d="M 9.65625 -13.84375 L 8.984375 -11.328125 L 14.8125 -11.328125 L 14.1875 -13.84375 C 13.789062 -15.21875 13.410156 -16.671875 13.046875 -18.203125 C 12.679688 -19.742188 12.320312 -21.226562 11.96875 -22.65625 L 11.796875 -22.65625 C 11.460938 -21.207031 11.117188 -19.71875 10.765625 -18.1875 C 10.410156 -16.664062 10.039062 -15.21875 9.65625 -13.84375 Z M -0.25 0 L 8.3125 -27.359375 L 15.734375 -27.359375 L 24.296875 0 L 17.75 0 L 16.078125 -6.5 L 7.71875 -6.5 L 6.046875 0 Z M -0.25 0 "/></g></g></g><g fill="#526479" fill-opacity="1"><g transform="translate(459.519115, 708.66824)"><g><path d="M 2.734375 0 L 2.734375 -20.8125 L 7.765625 -20.8125 L 8.1875 -17.171875 L 8.359375 -17.171875 C 9.109375 -18.597656 10.015625 -19.644531 11.078125 -20.3125 C 12.140625 -20.976562 13.203125 -21.3125 14.265625 -21.3125 C 14.859375 -21.3125 15.34375 -21.273438 15.71875 -21.203125 C 16.09375 -21.140625 16.4375 -21.039062 16.75 -20.90625 L 15.734375 -15.578125 C 15.347656 -15.679688 14.984375 -15.757812 14.640625 -15.8125 C 14.304688 -15.875 13.914062 -15.90625 13.46875 -15.90625 C 12.6875 -15.90625 11.867188 -15.625 11.015625 -15.0625 C 10.160156 -14.507812 9.453125 -13.519531 8.890625 -12.09375 L 8.890625 0 Z M 2.734375 0 "/></g></g></g><g fill="#526479" fill-opacity="1"><g transform="translate(476.22109, 708.66824)"><g><path d="M 10.75 0.5 C 9.457031 0.5 8.351562 0.304688 7.4375 -0.078125 C 6.53125 -0.472656 5.789062 -1.019531 5.21875 -1.71875 C 4.644531 -2.414062 4.222656 -3.257812 3.953125 -4.25 C 3.691406 -5.25 3.5625 -6.347656 3.5625 -7.546875 L 3.5625 -15.984375 L 0.71875 -15.984375 L 0.71875 -20.5625 L 3.90625 -20.8125 L 4.609375 -26.359375 L 9.734375 -26.359375 L 9.734375 -20.8125 L 14.734375 -20.8125 L 14.734375 -15.984375 L 9.734375 -15.984375 L 9.734375 -7.640625 C 9.734375 -6.460938 9.976562 -5.613281 10.46875 -5.09375 C 10.957031 -4.582031 11.609375 -4.328125 12.421875 -4.328125 C 12.753906 -4.328125 13.09375 -4.367188 13.4375 -4.453125 C 13.789062 -4.535156 14.109375 -4.632812 14.390625 -4.75 L 15.359375 -0.25 C 14.796875 -0.0820312 14.132812 0.0820312 13.375 0.25 C 12.625 0.414062 11.75 0.5 10.75 0.5 Z M 10.75 0.5 "/></g></g></g><g fill="#526479" fill-opacity="1"><g transform="translate(492.293596, 708.66824)"><g><path d="M 2.734375 0 L 2.734375 -20.8125 L 8.890625 -20.8125 L 8.890625 0 Z M 5.796875 -23.875 C 4.753906 -23.875 3.894531 -24.175781 3.21875 -24.78125 C 2.550781 -25.382812 2.21875 -26.160156 2.21875 -27.109375 C 2.21875 -28.054688 2.550781 -28.820312 3.21875 -29.40625 C 3.894531 -30 4.753906 -30.296875 5.796875 -30.296875 C 6.859375 -30.296875 7.71875 -30 8.375 -29.40625 C 9.03125 -28.820312 9.359375 -28.054688 9.359375 -27.109375 C 9.359375 -26.160156 9.03125 -25.382812 8.375 -24.78125 C 7.71875 -24.175781 6.859375 -23.875 5.796875 -23.875 Z M 5.796875 -23.875 "/></g></g></g><g fill="#526479" fill-opacity="1"><g transform="translate(503.875874, 708.66824)"><g><path d="M 11.796875 0.5 C 10.335938 0.5 8.984375 0.253906 7.734375 -0.234375 C 6.492188 -0.722656 5.410156 -1.425781 4.484375 -2.34375 C 3.566406 -3.269531 2.84375 -4.410156 2.3125 -5.765625 C 1.78125 -7.128906 1.515625 -8.675781 1.515625 -10.40625 C 1.515625 -12.144531 1.804688 -13.691406 2.390625 -15.046875 C 2.984375 -16.398438 3.773438 -17.535156 4.765625 -18.453125 C 5.753906 -19.378906 6.90625 -20.085938 8.21875 -20.578125 C 9.539062 -21.066406 10.914062 -21.3125 12.34375 -21.3125 C 13.625 -21.3125 14.757812 -21.101562 15.75 -20.6875 C 16.75 -20.269531 17.640625 -19.738281 18.421875 -19.09375 L 15.53125 -15.109375 C 14.550781 -15.921875 13.613281 -16.328125 12.71875 -16.328125 C 11.207031 -16.328125 10.015625 -15.796875 9.140625 -14.734375 C 8.273438 -13.671875 7.84375 -12.226562 7.84375 -10.40625 C 7.84375 -8.59375 8.285156 -7.148438 9.171875 -6.078125 C 10.054688 -5.015625 11.164062 -4.484375 12.5 -4.484375 C 13.175781 -4.484375 13.828125 -4.628906 14.453125 -4.921875 C 15.085938 -5.222656 15.679688 -5.582031 16.234375 -6 L 18.671875 -1.96875 C 17.640625 -1.070312 16.519531 -0.4375 15.3125 -0.0625 C 14.113281 0.3125 12.941406 0.5 11.796875 0.5 Z M 11.796875 0.5 "/></g></g></g><g fill="#526479" fill-opacity="1"><g transform="translate(523.473423, 708.66824)"><g><path d="M 8.390625 0.5 C 7.328125 0.5 6.429688 0.332031 5.703125 0 C 4.972656 -0.332031 4.390625 -0.800781 3.953125 -1.40625 C 3.523438 -2.007812 3.210938 -2.738281 3.015625 -3.59375 C 2.828125 -4.445312 2.734375 -5.40625 2.734375 -6.46875 L 2.734375 -29.421875 L 8.890625 -29.421875 L 8.890625 -6.21875 C 8.890625 -5.570312 9.007812 -5.117188 9.25 -4.859375 C 9.488281 -4.609375 9.734375 -4.484375 9.984375 -4.484375 C 10.128906 -4.484375 10.25 -4.484375 10.34375 -4.484375 C 10.445312 -4.484375 10.582031 -4.515625 10.75 -4.578125 L 11.5 0 C 11.164062 0.132812 10.738281 0.25 10.21875 0.34375 C 9.695312 0.445312 9.085938 0.5 8.390625 0.5 Z M 8.390625 0.5 "/></g></g></g><g fill="#526479" fill-opacity="1"><g transform="translate(535.475345, 708.66824)"><g><path d="M 12.046875 0.5 C 10.566406 0.5 9.179688 0.253906 7.890625 -0.234375 C 6.597656 -0.722656 5.476562 -1.4375 4.53125 -2.375 C 3.582031 -3.3125 2.84375 -4.453125 2.3125 -5.796875 C 1.78125 -7.140625 1.515625 -8.675781 1.515625 -10.40625 C 1.515625 -12.082031 1.789062 -13.597656 2.34375 -14.953125 C 2.90625 -16.316406 3.640625 -17.46875 4.546875 -18.40625 C 5.460938 -19.34375 6.503906 -20.0625 7.671875 -20.5625 C 8.847656 -21.0625 10.066406 -21.3125 11.328125 -21.3125 C 12.816406 -21.3125 14.113281 -21.0625 15.21875 -20.5625 C 16.320312 -20.0625 17.242188 -19.363281 17.984375 -18.46875 C 18.722656 -17.570312 19.273438 -16.515625 19.640625 -15.296875 C 20.003906 -14.078125 20.1875 -12.753906 20.1875 -11.328125 C 20.1875 -10.773438 20.15625 -10.242188 20.09375 -9.734375 C 20.039062 -9.234375 19.988281 -8.859375 19.9375 -8.609375 L 7.46875 -8.609375 C 7.75 -7.097656 8.367188 -5.984375 9.328125 -5.265625 C 10.296875 -4.554688 11.484375 -4.203125 12.890625 -4.203125 C 14.367188 -4.203125 15.863281 -4.660156 17.375 -5.578125 L 19.4375 -1.84375 C 18.375 -1.113281 17.191406 -0.539062 15.890625 -0.125 C 14.585938 0.289062 13.304688 0.5 12.046875 0.5 Z M 7.421875 -12.671875 L 14.9375 -12.671875 C 14.9375 -13.847656 14.671875 -14.800781 14.140625 -15.53125 C 13.609375 -16.257812 12.710938 -16.625 11.453125 -16.625 C 10.472656 -16.625 9.613281 -16.300781 8.875 -15.65625 C 8.132812 -15.007812 7.648438 -14.015625 7.421875 -12.671875 Z M 7.421875 -12.671875 "/></g></g></g><path fill="#f9f9f9" d="M 943.632812 506.722656 L 876.800781 540.074219 L 943.632812 573.425781 L 1010.464844 540.074219 Z M 943.632812 506.722656 " fill-opacity="1" fill-rule="nonzero"/><path fill="#ececec" d="M 943.632812 573.425781 L 943.632812 656.804688 L 1010.464844 623.453125 L 1010.464844 540.074219 Z M 943.632812 573.425781 " fill-opacity="1" fill-rule="nonzero"/><path fill="#cccccc" d="M 943.632812 573.425781 L 943.632812 656.804688 L 876.800781 623.453125 L 876.800781 540.074219 Z M 943.632812 573.425781 " fill-opacity="1" fill-rule="nonzero"/><g clip-path="url(#0806199c66)"><path stroke-linecap="butt" transform="matrix(3.341657, 0, 0, 3.335141, 843.38322, 498.845971)" fill="none" stroke-linejoin="miter" d="M 29.999967 2.374609 L 10.000297 12.374655 L 10.000297 37.374771 L 29.999967 47.374818 L 49.999636 37.374771 L 49.999636 12.374655 Z M 29.999967 2.374609 " stroke="#4d4d4d" stroke-width="1" stroke-opacity="1" stroke-miterlimit="4"/></g><g fill="#526479" fill-opacity="1"><g transform="translate(848.957947, 708.66824)"><g><path d="M 3.234375 0 L 3.234375 -27.359375 L 10.953125 -27.359375 C 13.046875 -27.359375 14.929688 -27.09375 16.609375 -26.5625 C 18.296875 -26.03125 19.738281 -25.210938 20.9375 -24.109375 C 22.144531 -23.003906 23.066406 -21.597656 23.703125 -19.890625 C 24.347656 -18.179688 24.671875 -16.15625 24.671875 -13.8125 C 24.671875 -11.457031 24.347656 -9.410156 23.703125 -7.671875 C 23.066406 -5.941406 22.160156 -4.507812 20.984375 -3.375 C 19.804688 -2.238281 18.398438 -1.390625 16.765625 -0.828125 C 15.128906 -0.273438 13.304688 0 11.296875 0 Z M 9.40625 -5 L 10.578125 -5 C 11.753906 -5 12.816406 -5.148438 13.765625 -5.453125 C 14.710938 -5.765625 15.519531 -6.257812 16.1875 -6.9375 C 16.863281 -7.625 17.390625 -8.523438 17.765625 -9.640625 C 18.148438 -10.765625 18.34375 -12.15625 18.34375 -13.8125 C 18.34375 -15.425781 18.148438 -16.785156 17.765625 -17.890625 C 17.390625 -19.003906 16.863281 -19.890625 16.1875 -20.546875 C 15.519531 -21.203125 14.710938 -21.671875 13.765625 -21.953125 C 12.816406 -22.234375 11.753906 -22.375 10.578125 -22.375 L 9.40625 -22.375 Z M 9.40625 -5 "/></g></g></g><g fill="#526479" fill-opacity="1"><g transform="translate(875.605571, 708.66824)"><g><path d="M 7.96875 0.5 C 7.019531 0.5 6.160156 0.335938 5.390625 0.015625 C 4.617188 -0.304688 3.96875 -0.753906 3.4375 -1.328125 C 2.90625 -1.898438 2.492188 -2.5625 2.203125 -3.3125 C 1.910156 -4.070312 1.765625 -4.898438 1.765625 -5.796875 C 1.765625 -7.972656 2.6875 -9.675781 4.53125 -10.90625 C 6.375 -12.144531 9.351562 -12.972656 13.46875 -13.390625 C 13.414062 -14.304688 13.144531 -15.035156 12.65625 -15.578125 C 12.164062 -16.128906 11.347656 -16.40625 10.203125 -16.40625 C 9.304688 -16.40625 8.414062 -16.238281 7.53125 -15.90625 C 6.65625 -15.570312 5.710938 -15.109375 4.703125 -14.515625 L 2.46875 -18.59375 C 3.8125 -19.40625 5.21875 -20.0625 6.6875 -20.5625 C 8.15625 -21.0625 9.71875 -21.3125 11.375 -21.3125 C 14.0625 -21.3125 16.109375 -20.550781 17.515625 -19.03125 C 18.929688 -17.507812 19.640625 -15.140625 19.640625 -11.921875 L 19.640625 0 L 14.609375 0 L 14.1875 -2.140625 L 14.015625 -2.140625 C 13.117188 -1.359375 12.179688 -0.722656 11.203125 -0.234375 C 10.222656 0.253906 9.144531 0.5 7.96875 0.5 Z M 10.078125 -4.28125 C 10.773438 -4.28125 11.375 -4.429688 11.875 -4.734375 C 12.375 -5.046875 12.90625 -5.484375 13.46875 -6.046875 L 13.46875 -9.6875 C 11.289062 -9.382812 9.78125 -8.9375 8.9375 -8.34375 C 8.101562 -7.757812 7.6875 -7.0625 7.6875 -6.25 C 7.6875 -5.582031 7.898438 -5.085938 8.328125 -4.765625 C 8.765625 -4.441406 9.347656 -4.28125 10.078125 -4.28125 Z M 10.078125 -4.28125 "/></g></g></g><g fill="#526479" fill-opacity="1"><g transform="translate(897.721003, 708.66824)"><g><path d="M 10.75 0.5 C 9.457031 0.5 8.351562 0.304688 7.4375 -0.078125 C 6.53125 -0.472656 5.789062 -1.019531 5.21875 -1.71875 C 4.644531 -2.414062 4.222656 -3.257812 3.953125 -4.25 C 3.691406 -5.25 3.5625 -6.347656 3.5625 -7.546875 L 3.5625 -15.984375 L 0.71875 -15.984375 L 0.71875 -20.5625 L 3.90625 -20.8125 L 4.609375 -26.359375 L 9.734375 -26.359375 L 9.734375 -20.8125 L 14.734375 -20.8125 L 14.734375 -15.984375 L 9.734375 -15.984375 L 9.734375 -7.640625 C 9.734375 -6.460938 9.976562 -5.613281 10.46875 -5.09375 C 10.957031 -4.582031 11.609375 -4.328125 12.421875 -4.328125 C 12.753906 -4.328125 13.09375 -4.367188 13.4375 -4.453125 C 13.789062 -4.535156 14.109375 -4.632812 14.390625 -4.75 L 15.359375 -0.25 C 14.796875 -0.0820312 14.132812 0.0820312 13.375 0.25 C 12.625 0.414062 11.75 0.5 10.75 0.5 Z M 10.75 0.5 "/></g></g></g><g fill="#526479" fill-opacity="1"><g transform="translate(913.793508, 708.66824)"><g><path d="M 7.96875 0.5 C 7.019531 0.5 6.160156 0.335938 5.390625 0.015625 C 4.617188 -0.304688 3.96875 -0.753906 3.4375 -1.328125 C 2.90625 -1.898438 2.492188 -2.5625 2.203125 -3.3125 C 1.910156 -4.070312 1.765625 -4.898438 1.765625 -5.796875 C 1.765625 -7.972656 2.6875 -9.675781 4.53125 -10.90625 C 6.375 -12.144531 9.351562 -12.972656 13.46875 -13.390625 C 13.414062 -14.304688 13.144531 -15.035156 12.65625 -15.578125 C 12.164062 -16.128906 11.347656 -16.40625 10.203125 -16.40625 C 9.304688 -16.40625 8.414062 -16.238281 7.53125 -15.90625 C 6.65625 -15.570312 5.710938 -15.109375 4.703125 -14.515625 L 2.46875 -18.59375 C 3.8125 -19.40625 5.21875 -20.0625 6.6875 -20.5625 C 8.15625 -21.0625 9.71875 -21.3125 11.375 -21.3125 C 14.0625 -21.3125 16.109375 -20.550781 17.515625 -19.03125 C 18.929688 -17.507812 19.640625 -15.140625 19.640625 -11.921875 L 19.640625 0 L 14.609375 0 L 14.1875 -2.140625 L 14.015625 -2.140625 C 13.117188 -1.359375 12.179688 -0.722656 11.203125 -0.234375 C 10.222656 0.253906 9.144531 0.5 7.96875 0.5 Z M 10.078125 -4.28125 C 10.773438 -4.28125 11.375 -4.429688 11.875 -4.734375 C 12.375 -5.046875 12.90625 -5.484375 13.46875 -6.046875 L 13.46875 -9.6875 C 11.289062 -9.382812 9.78125 -8.9375 8.9375 -8.34375 C 8.101562 -7.757812 7.6875 -7.0625 7.6875 -6.25 C 7.6875 -5.582031 7.898438 -5.085938 8.328125 -4.765625 C 8.765625 -4.441406 9.347656 -4.28125 10.078125 -4.28125 Z M 10.078125 -4.28125 "/></g></g></g><g fill="#526479" fill-opacity="1"><g transform="translate(935.90894, 708.66824)"><g/></g></g><g fill="#526479" fill-opacity="1"><g transform="translate(944.301899, 708.66824)"><g><path d="M 14.640625 0.5 C 12.910156 0.5 11.273438 0.203125 9.734375 -0.390625 C 8.191406 -0.992188 6.835938 -1.882812 5.671875 -3.0625 C 4.515625 -4.238281 3.601562 -5.703125 2.9375 -7.453125 C 2.269531 -9.203125 1.9375 -11.222656 1.9375 -13.515625 C 1.9375 -15.773438 2.285156 -17.796875 2.984375 -19.578125 C 3.679688 -21.359375 4.613281 -22.863281 5.78125 -24.09375 C 6.957031 -25.320312 8.328125 -26.257812 9.890625 -26.90625 C 11.460938 -27.550781 13.117188 -27.875 14.859375 -27.875 C 16.617188 -27.875 18.195312 -27.515625 19.59375 -26.796875 C 21 -26.085938 22.160156 -25.253906 23.078125 -24.296875 L 19.8125 -20.359375 C 19.113281 -20.992188 18.378906 -21.515625 17.609375 -21.921875 C 16.835938 -22.328125 15.960938 -22.53125 14.984375 -22.53125 C 14.054688 -22.53125 13.179688 -22.328125 12.359375 -21.921875 C 11.535156 -21.515625 10.820312 -20.929688 10.21875 -20.171875 C 9.613281 -19.421875 9.132812 -18.5 8.78125 -17.40625 C 8.4375 -16.320312 8.265625 -15.09375 8.265625 -13.71875 C 8.265625 -10.894531 8.863281 -8.707031 10.0625 -7.15625 C 11.269531 -5.601562 12.882812 -4.828125 14.90625 -4.828125 C 16.019531 -4.828125 17.015625 -5.070312 17.890625 -5.5625 C 18.773438 -6.050781 19.554688 -6.660156 20.234375 -7.390625 L 23.5 -3.53125 C 21.207031 -0.84375 18.253906 0.5 14.640625 0.5 Z M 14.640625 0.5 "/></g></g></g><g fill="#526479" fill-opacity="1"><g transform="translate(968.725398, 708.66824)"><g><path d="M 8.984375 0.5 C 6.710938 0.5 5.066406 -0.238281 4.046875 -1.71875 C 3.023438 -3.195312 2.515625 -5.253906 2.515625 -7.890625 L 2.515625 -20.8125 L 8.6875 -20.8125 L 8.6875 -8.6875 C 8.6875 -7.175781 8.894531 -6.140625 9.3125 -5.578125 C 9.738281 -5.023438 10.398438 -4.75 11.296875 -4.75 C 12.078125 -4.75 12.734375 -4.925781 13.265625 -5.28125 C 13.796875 -5.644531 14.367188 -6.234375 14.984375 -7.046875 L 14.984375 -20.8125 L 21.15625 -20.8125 L 21.15625 0 L 16.109375 0 L 15.65625 -2.890625 L 15.53125 -2.890625 C 14.632812 -1.828125 13.675781 -0.992188 12.65625 -0.390625 C 11.632812 0.203125 10.410156 0.5 8.984375 0.5 Z M 8.984375 0.5 "/></g></g></g><g fill="#526479" fill-opacity="1"><g transform="translate(992.561391, 708.66824)"><g><path d="M 13.640625 0.5 C 12.710938 0.5 11.78125 0.269531 10.84375 -0.1875 C 9.90625 -0.644531 9.03125 -1.320312 8.21875 -2.21875 L 8.0625 -2.21875 L 7.546875 0 L 2.734375 0 L 2.734375 -29.421875 L 8.890625 -29.421875 L 8.890625 -22.203125 L 8.734375 -19.015625 C 9.546875 -19.742188 10.421875 -20.304688 11.359375 -20.703125 C 12.296875 -21.109375 13.253906 -21.3125 14.234375 -21.3125 C 15.484375 -21.3125 16.613281 -21.0625 17.625 -20.5625 C 18.632812 -20.0625 19.492188 -19.351562 20.203125 -18.4375 C 20.921875 -17.53125 21.46875 -16.425781 21.84375 -15.125 C 22.21875 -13.820312 22.40625 -12.375 22.40625 -10.78125 C 22.40625 -8.988281 22.160156 -7.394531 21.671875 -6 C 21.179688 -4.601562 20.523438 -3.421875 19.703125 -2.453125 C 18.878906 -1.484375 17.941406 -0.75 16.890625 -0.25 C 15.835938 0.25 14.753906 0.5 13.640625 0.5 Z M 12.21875 -4.53125 C 13.28125 -4.53125 14.1875 -5.007812 14.9375 -5.96875 C 15.695312 -6.9375 16.078125 -8.5 16.078125 -10.65625 C 16.078125 -14.40625 14.875 -16.28125 12.46875 -16.28125 C 11.238281 -16.28125 10.046875 -15.648438 8.890625 -14.390625 L 8.890625 -5.875 C 9.453125 -5.375 10.015625 -5.023438 10.578125 -4.828125 C 11.140625 -4.628906 11.6875 -4.53125 12.21875 -4.53125 Z M 12.21875 -4.53125 "/></g></g></g><g fill="#526479" fill-opacity="1"><g transform="translate(1016.607201, 708.66824)"><g><path d="M 12.046875 0.5 C 10.566406 0.5 9.179688 0.253906 7.890625 -0.234375 C 6.597656 -0.722656 5.476562 -1.4375 4.53125 -2.375 C 3.582031 -3.3125 2.84375 -4.453125 2.3125 -5.796875 C 1.78125 -7.140625 1.515625 -8.675781 1.515625 -10.40625 C 1.515625 -12.082031 1.789062 -13.597656 2.34375 -14.953125 C 2.90625 -16.316406 3.640625 -17.46875 4.546875 -18.40625 C 5.460938 -19.34375 6.503906 -20.0625 7.671875 -20.5625 C 8.847656 -21.0625 10.066406 -21.3125 11.328125 -21.3125 C 12.816406 -21.3125 14.113281 -21.0625 15.21875 -20.5625 C 16.320312 -20.0625 17.242188 -19.363281 17.984375 -18.46875 C 18.722656 -17.570312 19.273438 -16.515625 19.640625 -15.296875 C 20.003906 -14.078125 20.1875 -12.753906 20.1875 -11.328125 C 20.1875 -10.773438 20.15625 -10.242188 20.09375 -9.734375 C 20.039062 -9.234375 19.988281 -8.859375 19.9375 -8.609375 L 7.46875 -8.609375 C 7.75 -7.097656 8.367188 -5.984375 9.328125 -5.265625 C 10.296875 -4.554688 11.484375 -4.203125 12.890625 -4.203125 C 14.367188 -4.203125 15.863281 -4.660156 17.375 -5.578125 L 19.4375 -1.84375 C 18.375 -1.113281 17.191406 -0.539062 15.890625 -0.125 C 14.585938 0.289062 13.304688 0.5 12.046875 0.5 Z M 7.421875 -12.671875 L 14.9375 -12.671875 C 14.9375 -13.847656 14.671875 -14.800781 14.140625 -15.53125 C 13.609375 -16.257812 12.710938 -16.625 11.453125 -16.625 C 10.472656 -16.625 9.613281 -16.300781 8.875 -15.65625 C 8.132812 -15.007812 7.648438 -14.015625 7.421875 -12.671875 Z M 7.421875 -12.671875 "/></g></g></g><g fill="#00bf63" fill-opacity="1"><g transform="translate(617.303758, 418.570458)"><g><path d="M 7.546875 6.625 C 5.992188 4.082031 4.789062 1.445312 3.9375 -1.28125 C 3.082031 -4.019531 2.65625 -7.019531 2.65625 -10.28125 C 2.65625 -13.53125 3.082031 -16.519531 3.9375 -19.25 C 4.789062 -21.988281 5.992188 -24.628906 7.546875 -27.171875 L 10.9375 -25.765625 C 9.582031 -23.347656 8.597656 -20.820312 7.984375 -18.1875 C 7.367188 -15.550781 7.0625 -12.914062 7.0625 -10.28125 C 7.0625 -7.644531 7.367188 -5.003906 7.984375 -2.359375 C 8.597656 0.273438 9.582031 2.800781 10.9375 5.21875 Z M 7.546875 6.625 "/></g></g></g><g fill="#00bf63" fill-opacity="1"><g transform="translate(630.01835, 418.570458)"><g><path d="M 2.84375 0 L 2.84375 -24.109375 L 11.125 -24.109375 C 12.457031 -24.109375 13.703125 -23.976562 14.859375 -23.71875 C 16.015625 -23.457031 17.023438 -23.023438 17.890625 -22.421875 C 18.753906 -21.816406 19.4375 -21.015625 19.9375 -20.015625 C 20.445312 -19.015625 20.703125 -17.789062 20.703125 -16.34375 C 20.703125 -14.9375 20.445312 -13.710938 19.9375 -12.671875 C 19.4375 -11.640625 18.753906 -10.789062 17.890625 -10.125 C 17.023438 -9.457031 16.023438 -8.960938 14.890625 -8.640625 C 13.765625 -8.328125 12.5625 -8.171875 11.28125 -8.171875 L 8.28125 -8.171875 L 8.28125 0 Z M 8.28125 -12.5 L 10.9375 -12.5 C 13.894531 -12.5 15.375 -13.78125 15.375 -16.34375 C 15.375 -17.59375 14.976562 -18.476562 14.1875 -19 C 13.40625 -19.519531 12.273438 -19.78125 10.796875 -19.78125 L 8.28125 -19.78125 Z M 8.28125 -12.5 "/></g></g></g><g fill="#00bf63" fill-opacity="1"><g transform="translate(652.047115, 418.570458)"><g><path d="M 7.90625 0.4375 C 5.914062 0.4375 4.46875 -0.210938 3.5625 -1.515625 C 2.664062 -2.816406 2.21875 -4.628906 2.21875 -6.953125 L 2.21875 -18.34375 L 7.65625 -18.34375 L 7.65625 -7.65625 C 7.65625 -6.320312 7.835938 -5.40625 8.203125 -4.90625 C 8.578125 -4.414062 9.15625 -4.171875 9.9375 -4.171875 C 10.632812 -4.171875 11.21875 -4.332031 11.6875 -4.65625 C 12.15625 -4.976562 12.660156 -5.492188 13.203125 -6.203125 L 13.203125 -18.34375 L 18.625 -18.34375 L 18.625 0 L 14.203125 0 L 13.796875 -2.546875 L 13.671875 -2.546875 C 12.890625 -1.609375 12.046875 -0.875 11.140625 -0.34375 C 10.242188 0.175781 9.164062 0.4375 7.90625 0.4375 Z M 7.90625 0.4375 "/></g></g></g><g fill="#00bf63" fill-opacity="1"><g transform="translate(673.040969, 418.570458)"><g><path d="M 12.015625 0.4375 C 11.203125 0.4375 10.378906 0.234375 9.546875 -0.171875 C 8.722656 -0.578125 7.957031 -1.171875 7.25 -1.953125 L 7.09375 -1.953125 L 6.65625 0 L 2.40625 0 L 2.40625 -25.921875 L 7.84375 -25.921875 L 7.84375 -19.5625 L 7.6875 -16.75 C 8.40625 -17.382812 9.175781 -17.878906 10 -18.234375 C 10.820312 -18.597656 11.664062 -18.78125 12.53125 -18.78125 C 13.644531 -18.78125 14.644531 -18.554688 15.53125 -18.109375 C 16.414062 -17.671875 17.171875 -17.050781 17.796875 -16.25 C 18.429688 -15.445312 18.910156 -14.472656 19.234375 -13.328125 C 19.566406 -12.179688 19.734375 -10.90625 19.734375 -9.5 C 19.734375 -7.925781 19.519531 -6.519531 19.09375 -5.28125 C 18.664062 -4.050781 18.085938 -3.007812 17.359375 -2.15625 C 16.628906 -1.3125 15.800781 -0.664062 14.875 -0.21875 C 13.957031 0.21875 13.003906 0.4375 12.015625 0.4375 Z M 10.765625 -4 C 11.691406 -4 12.488281 -4.421875 13.15625 -5.265625 C 13.820312 -6.117188 14.15625 -7.492188 14.15625 -9.390625 C 14.15625 -12.691406 13.097656 -14.34375 10.984375 -14.34375 C 9.898438 -14.34375 8.851562 -13.789062 7.84375 -12.6875 L 7.84375 -5.171875 C 8.332031 -4.734375 8.820312 -4.425781 9.3125 -4.25 C 9.8125 -4.082031 10.296875 -4 10.765625 -4 Z M 10.765625 -4 "/></g></g></g><g fill="#00bf63" fill-opacity="1"><g transform="translate(694.219633, 418.570458)"><g><path d="M 7.390625 0.4375 C 6.453125 0.4375 5.660156 0.289062 5.015625 0 C 4.378906 -0.289062 3.867188 -0.703125 3.484375 -1.234375 C 3.109375 -1.765625 2.832031 -2.40625 2.65625 -3.15625 C 2.488281 -3.90625 2.40625 -4.75 2.40625 -5.6875 L 2.40625 -25.921875 L 7.84375 -25.921875 L 7.84375 -5.46875 C 7.84375 -4.90625 7.945312 -4.507812 8.15625 -4.28125 C 8.363281 -4.0625 8.578125 -3.953125 8.796875 -3.953125 C 8.921875 -3.953125 9.023438 -3.953125 9.109375 -3.953125 C 9.191406 -3.953125 9.3125 -3.976562 9.46875 -4.03125 L 10.125 0 C 9.832031 0.125 9.457031 0.226562 9 0.3125 C 8.539062 0.394531 8.003906 0.4375 7.390625 0.4375 Z M 7.390625 0.4375 "/></g></g></g><g fill="#00bf63" fill-opacity="1"><g transform="translate(704.790482, 418.570458)"><g><path d="M 2.40625 0 L 2.40625 -18.34375 L 7.84375 -18.34375 L 7.84375 0 Z M 5.109375 -21.03125 C 4.191406 -21.03125 3.4375 -21.296875 2.84375 -21.828125 C 2.25 -22.359375 1.953125 -23.039062 1.953125 -23.875 C 1.953125 -24.71875 2.25 -25.394531 2.84375 -25.90625 C 3.4375 -26.425781 4.191406 -26.6875 5.109375 -26.6875 C 6.035156 -26.6875 6.789062 -26.425781 7.375 -25.90625 C 7.957031 -25.394531 8.25 -24.71875 8.25 -23.875 C 8.25 -23.039062 7.957031 -22.359375 7.375 -21.828125 C 6.789062 -21.296875 6.035156 -21.03125 5.109375 -21.03125 Z M 5.109375 -21.03125 "/></g></g></g><g fill="#00bf63" fill-opacity="1"><g transform="translate(714.991722, 418.570458)"><g><path d="M 7.796875 0.4375 C 6.585938 0.4375 5.347656 0.203125 4.078125 -0.265625 C 2.816406 -0.734375 1.71875 -1.347656 0.78125 -2.109375 L 3.21875 -5.515625 C 4.050781 -4.867188 4.847656 -4.382812 5.609375 -4.0625 C 6.378906 -3.75 7.160156 -3.59375 7.953125 -3.59375 C 8.765625 -3.59375 9.351562 -3.726562 9.71875 -4 C 10.09375 -4.269531 10.28125 -4.648438 10.28125 -5.140625 C 10.28125 -5.429688 10.175781 -5.691406 9.96875 -5.921875 C 9.757812 -6.160156 9.472656 -6.378906 9.109375 -6.578125 C 8.753906 -6.773438 8.351562 -6.953125 7.90625 -7.109375 C 7.46875 -7.273438 7.015625 -7.457031 6.546875 -7.65625 C 5.972656 -7.875 5.40625 -8.128906 4.84375 -8.421875 C 4.28125 -8.722656 3.765625 -9.085938 3.296875 -9.515625 C 2.828125 -9.953125 2.441406 -10.457031 2.140625 -11.03125 C 1.847656 -11.613281 1.703125 -12.285156 1.703125 -13.046875 C 1.703125 -13.890625 1.867188 -14.664062 2.203125 -15.375 C 2.535156 -16.09375 3.007812 -16.695312 3.625 -17.1875 C 4.238281 -17.6875 4.976562 -18.078125 5.84375 -18.359375 C 6.707031 -18.640625 7.664062 -18.78125 8.71875 -18.78125 C 10.125 -18.78125 11.359375 -18.539062 12.421875 -18.0625 C 13.484375 -17.582031 14.40625 -17.046875 15.1875 -16.453125 L 12.75 -13.203125 C 12.082031 -13.691406 11.425781 -14.070312 10.78125 -14.34375 C 10.144531 -14.613281 9.507812 -14.75 8.875 -14.75 C 7.488281 -14.75 6.796875 -14.269531 6.796875 -13.3125 C 6.796875 -13.007812 6.894531 -12.753906 7.09375 -12.546875 C 7.289062 -12.335938 7.554688 -12.144531 7.890625 -11.96875 C 8.222656 -11.800781 8.601562 -11.632812 9.03125 -11.46875 C 9.46875 -11.3125 9.921875 -11.148438 10.390625 -10.984375 C 10.984375 -10.753906 11.566406 -10.5 12.140625 -10.21875 C 12.722656 -9.9375 13.253906 -9.585938 13.734375 -9.171875 C 14.210938 -8.753906 14.597656 -8.242188 14.890625 -7.640625 C 15.191406 -7.035156 15.34375 -6.3125 15.34375 -5.46875 C 15.34375 -4.632812 15.179688 -3.859375 14.859375 -3.140625 C 14.535156 -2.421875 14.050781 -1.796875 13.40625 -1.265625 C 12.769531 -0.742188 11.984375 -0.328125 11.046875 -0.015625 C 10.117188 0.285156 9.035156 0.4375 7.796875 0.4375 Z M 7.796875 0.4375 "/></g></g></g><g fill="#00bf63" fill-opacity="1"><g transform="translate(731.365448, 418.570458)"><g><path d="M 2.40625 0 L 2.40625 -25.921875 L 7.84375 -25.921875 L 7.84375 -19.5625 L 7.578125 -16.265625 C 8.265625 -16.878906 9.0625 -17.453125 9.96875 -17.984375 C 10.882812 -18.515625 11.972656 -18.78125 13.234375 -18.78125 C 15.234375 -18.78125 16.679688 -18.125 17.578125 -16.8125 C 18.472656 -15.507812 18.921875 -13.703125 18.921875 -11.390625 L 18.921875 0 L 13.5 0 L 13.5 -10.6875 C 13.5 -12.019531 13.316406 -12.929688 12.953125 -13.421875 C 12.597656 -13.910156 12.023438 -14.15625 11.234375 -14.15625 C 10.546875 -14.15625 9.953125 -14 9.453125 -13.6875 C 8.960938 -13.382812 8.425781 -12.953125 7.84375 -12.390625 L 7.84375 0 Z M 2.40625 0 "/></g></g></g><g fill="#00bf63" fill-opacity="1"><g transform="translate(752.470183, 418.570458)"><g><path d="M 10.609375 0.4375 C 9.304688 0.4375 8.085938 0.222656 6.953125 -0.203125 C 5.816406 -0.628906 4.828125 -1.253906 3.984375 -2.078125 C 3.148438 -2.910156 2.5 -3.914062 2.03125 -5.09375 C 1.5625 -6.28125 1.328125 -7.640625 1.328125 -9.171875 C 1.328125 -10.648438 1.570312 -11.984375 2.0625 -13.171875 C 2.5625 -14.367188 3.210938 -15.378906 4.015625 -16.203125 C 4.816406 -17.035156 5.734375 -17.671875 6.765625 -18.109375 C 7.796875 -18.554688 8.867188 -18.78125 9.984375 -18.78125 C 11.285156 -18.78125 12.421875 -18.554688 13.390625 -18.109375 C 14.367188 -17.671875 15.1875 -17.054688 15.84375 -16.265625 C 16.5 -15.472656 16.984375 -14.539062 17.296875 -13.46875 C 17.617188 -12.394531 17.78125 -11.234375 17.78125 -9.984375 C 17.78125 -9.484375 17.753906 -9.007812 17.703125 -8.5625 C 17.660156 -8.125 17.613281 -7.796875 17.5625 -7.578125 L 6.578125 -7.578125 C 6.828125 -6.242188 7.375 -5.265625 8.21875 -4.640625 C 9.070312 -4.015625 10.113281 -3.703125 11.34375 -3.703125 C 12.65625 -3.703125 13.976562 -4.109375 15.3125 -4.921875 L 17.109375 -1.625 C 16.179688 -0.988281 15.144531 -0.484375 14 -0.109375 C 12.851562 0.253906 11.722656 0.4375 10.609375 0.4375 Z M 6.546875 -11.171875 L 13.15625 -11.171875 C 13.15625 -12.203125 12.921875 -13.035156 12.453125 -13.671875 C 11.984375 -14.316406 11.195312 -14.640625 10.09375 -14.640625 C 9.226562 -14.640625 8.46875 -14.351562 7.8125 -13.78125 C 7.164062 -13.21875 6.742188 -12.347656 6.546875 -11.171875 Z M 6.546875 -11.171875 "/></g></g></g><g fill="#00bf63" fill-opacity="1"><g transform="translate(771.615987, 418.570458)"><g><path d="M 8.953125 0.4375 C 7.816406 0.4375 6.785156 0.21875 5.859375 -0.21875 C 4.929688 -0.664062 4.140625 -1.300781 3.484375 -2.125 C 2.835938 -2.945312 2.332031 -3.945312 1.96875 -5.125 C 1.613281 -6.3125 1.4375 -7.660156 1.4375 -9.171875 C 1.4375 -10.671875 1.648438 -12.007812 2.078125 -13.1875 C 2.515625 -14.375 3.082031 -15.378906 3.78125 -16.203125 C 4.488281 -17.035156 5.300781 -17.671875 6.21875 -18.109375 C 7.144531 -18.554688 8.09375 -18.78125 9.0625 -18.78125 C 10.09375 -18.78125 10.941406 -18.609375 11.609375 -18.265625 C 12.273438 -17.921875 12.925781 -17.453125 13.5625 -16.859375 L 13.34375 -19.671875 L 13.34375 -25.921875 L 18.78125 -25.921875 L 18.78125 0 L 14.34375 0 L 13.96875 -1.8125 L 13.828125 -1.8125 C 13.179688 -1.164062 12.425781 -0.628906 11.5625 -0.203125 C 10.707031 0.222656 9.835938 0.4375 8.953125 0.4375 Z M 10.34375 -4 C 10.9375 -4 11.472656 -4.117188 11.953125 -4.359375 C 12.441406 -4.609375 12.90625 -5.039062 13.34375 -5.65625 L 13.34375 -13.15625 C 12.851562 -13.601562 12.347656 -13.910156 11.828125 -14.078125 C 11.304688 -14.253906 10.800781 -14.34375 10.3125 -14.34375 C 9.445312 -14.34375 8.679688 -13.925781 8.015625 -13.09375 C 7.359375 -12.269531 7.03125 -10.984375 7.03125 -9.234375 C 7.03125 -7.410156 7.316406 -6.082031 7.890625 -5.25 C 8.472656 -4.414062 9.289062 -4 10.34375 -4 Z M 10.34375 -4 "/></g></g></g><g fill="#00bf63" fill-opacity="1"><g transform="translate(792.794651, 418.570458)"><g><path d="M 5.171875 6.625 L 1.78125 5.21875 C 3.15625 2.800781 4.148438 0.273438 4.765625 -2.359375 C 5.378906 -5.003906 5.6875 -7.644531 5.6875 -10.28125 C 5.6875 -12.914062 5.378906 -15.550781 4.765625 -18.1875 C 4.148438 -20.820312 3.15625 -23.347656 1.78125 -25.765625 L 5.171875 -27.171875 C 6.722656 -24.628906 7.925781 -21.988281 8.78125 -19.25 C 9.632812 -16.519531 10.0625 -13.53125 10.0625 -10.28125 C 10.0625 -7.019531 9.632812 -4.019531 8.78125 -1.28125 C 7.925781 1.445312 6.722656 4.082031 5.171875 6.625 Z M 5.171875 6.625 "/></g></g></g><g fill="#00bf63" fill-opacity="1"><g transform="translate(402.2452, 754.024086)"><g><path d="M 7.546875 6.625 C 5.992188 4.082031 4.789062 1.445312 3.9375 -1.28125 C 3.082031 -4.019531 2.65625 -7.019531 2.65625 -10.28125 C 2.65625 -13.53125 3.082031 -16.519531 3.9375 -19.25 C 4.789062 -21.988281 5.992188 -24.628906 7.546875 -27.171875 L 10.9375 -25.765625 C 9.582031 -23.347656 8.597656 -20.820312 7.984375 -18.1875 C 7.367188 -15.550781 7.0625 -12.914062 7.0625 -10.28125 C 7.0625 -7.644531 7.367188 -5.003906 7.984375 -2.359375 C 8.597656 0.273438 9.582031 2.800781 10.9375 5.21875 Z M 7.546875 6.625 "/></g></g></g><g fill="#00bf63" fill-opacity="1"><g transform="translate(414.959792, 754.024086)"><g><path d="M 2.84375 0 L 2.84375 -24.109375 L 11.125 -24.109375 C 12.457031 -24.109375 13.703125 -23.976562 14.859375 -23.71875 C 16.015625 -23.457031 17.023438 -23.023438 17.890625 -22.421875 C 18.753906 -21.816406 19.4375 -21.015625 19.9375 -20.015625 C 20.445312 -19.015625 20.703125 -17.789062 20.703125 -16.34375 C 20.703125 -14.9375 20.445312 -13.710938 19.9375 -12.671875 C 19.4375 -11.640625 18.753906 -10.789062 17.890625 -10.125 C 17.023438 -9.457031 16.023438 -8.960938 14.890625 -8.640625 C 13.765625 -8.328125 12.5625 -8.171875 11.28125 -8.171875 L 8.28125 -8.171875 L 8.28125 0 Z M 8.28125 -12.5 L 10.9375 -12.5 C 13.894531 -12.5 15.375 -13.78125 15.375 -16.34375 C 15.375 -17.59375 14.976562 -18.476562 14.1875 -19 C 13.40625 -19.519531 12.273438 -19.78125 10.796875 -19.78125 L 8.28125 -19.78125 Z M 8.28125 -12.5 "/></g></g></g><g fill="#00bf63" fill-opacity="1"><g transform="translate(436.988557, 754.024086)"><g><path d="M 7.90625 0.4375 C 5.914062 0.4375 4.46875 -0.210938 3.5625 -1.515625 C 2.664062 -2.816406 2.21875 -4.628906 2.21875 -6.953125 L 2.21875 -18.34375 L 7.65625 -18.34375 L 7.65625 -7.65625 C 7.65625 -6.320312 7.835938 -5.40625 8.203125 -4.90625 C 8.578125 -4.414062 9.15625 -4.171875 9.9375 -4.171875 C 10.632812 -4.171875 11.21875 -4.332031 11.6875 -4.65625 C 12.15625 -4.976562 12.660156 -5.492188 13.203125 -6.203125 L 13.203125 -18.34375 L 18.625 -18.34375 L 18.625 0 L 14.203125 0 L 13.796875 -2.546875 L 13.671875 -2.546875 C 12.890625 -1.609375 12.046875 -0.875 11.140625 -0.34375 C 10.242188 0.175781 9.164062 0.4375 7.90625 0.4375 Z M 7.90625 0.4375 "/></g></g></g><g fill="#00bf63" fill-opacity="1"><g transform="translate(457.982411, 754.024086)"><g><path d="M 12.015625 0.4375 C 11.203125 0.4375 10.378906 0.234375 9.546875 -0.171875 C 8.722656 -0.578125 7.957031 -1.171875 7.25 -1.953125 L 7.09375 -1.953125 L 6.65625 0 L 2.40625 0 L 2.40625 -25.921875 L 7.84375 -25.921875 L 7.84375 -19.5625 L 7.6875 -16.75 C 8.40625 -17.382812 9.175781 -17.878906 10 -18.234375 C 10.820312 -18.597656 11.664062 -18.78125 12.53125 -18.78125 C 13.644531 -18.78125 14.644531 -18.554688 15.53125 -18.109375 C 16.414062 -17.671875 17.171875 -17.050781 17.796875 -16.25 C 18.429688 -15.445312 18.910156 -14.472656 19.234375 -13.328125 C 19.566406 -12.179688 19.734375 -10.90625 19.734375 -9.5 C 19.734375 -7.925781 19.519531 -6.519531 19.09375 -5.28125 C 18.664062 -4.050781 18.085938 -3.007812 17.359375 -2.15625 C 16.628906 -1.3125 15.800781 -0.664062 14.875 -0.21875 C 13.957031 0.21875 13.003906 0.4375 12.015625 0.4375 Z M 10.765625 -4 C 11.691406 -4 12.488281 -4.421875 13.15625 -5.265625 C 13.820312 -6.117188 14.15625 -7.492188 14.15625 -9.390625 C 14.15625 -12.691406 13.097656 -14.34375 10.984375 -14.34375 C 9.898438 -14.34375 8.851562 -13.789062 7.84375 -12.6875 L 7.84375 -5.171875 C 8.332031 -4.734375 8.820312 -4.425781 9.3125 -4.25 C 9.8125 -4.082031 10.296875 -4 10.765625 -4 Z M 10.765625 -4 "/></g></g></g><g fill="#00bf63" fill-opacity="1"><g transform="translate(479.161075, 754.024086)"><g><path d="M 7.390625 0.4375 C 6.453125 0.4375 5.660156 0.289062 5.015625 0 C 4.378906 -0.289062 3.867188 -0.703125 3.484375 -1.234375 C 3.109375 -1.765625 2.832031 -2.40625 2.65625 -3.15625 C 2.488281 -3.90625 2.40625 -4.75 2.40625 -5.6875 L 2.40625 -25.921875 L 7.84375 -25.921875 L 7.84375 -5.46875 C 7.84375 -4.90625 7.945312 -4.507812 8.15625 -4.28125 C 8.363281 -4.0625 8.578125 -3.953125 8.796875 -3.953125 C 8.921875 -3.953125 9.023438 -3.953125 9.109375 -3.953125 C 9.191406 -3.953125 9.3125 -3.976562 9.46875 -4.03125 L 10.125 0 C 9.832031 0.125 9.457031 0.226562 9 0.3125 C 8.539062 0.394531 8.003906 0.4375 7.390625 0.4375 Z M 7.390625 0.4375 "/></g></g></g><g fill="#00bf63" fill-opacity="1"><g transform="translate(489.731924, 754.024086)"><g><path d="M 2.40625 0 L 2.40625 -18.34375 L 7.84375 -18.34375 L 7.84375 0 Z M 5.109375 -21.03125 C 4.191406 -21.03125 3.4375 -21.296875 2.84375 -21.828125 C 2.25 -22.359375 1.953125 -23.039062 1.953125 -23.875 C 1.953125 -24.71875 2.25 -25.394531 2.84375 -25.90625 C 3.4375 -26.425781 4.191406 -26.6875 5.109375 -26.6875 C 6.035156 -26.6875 6.789062 -26.425781 7.375 -25.90625 C 7.957031 -25.394531 8.25 -24.71875 8.25 -23.875 C 8.25 -23.039062 7.957031 -22.359375 7.375 -21.828125 C 6.789062 -21.296875 6.035156 -21.03125 5.109375 -21.03125 Z M 5.109375 -21.03125 "/></g></g></g><g fill="#00bf63" fill-opacity="1"><g transform="translate(499.933164, 754.024086)"><g><path d="M 7.796875 0.4375 C 6.585938 0.4375 5.347656 0.203125 4.078125 -0.265625 C 2.816406 -0.734375 1.71875 -1.347656 0.78125 -2.109375 L 3.21875 -5.515625 C 4.050781 -4.867188 4.847656 -4.382812 5.609375 -4.0625 C 6.378906 -3.75 7.160156 -3.59375 7.953125 -3.59375 C 8.765625 -3.59375 9.351562 -3.726562 9.71875 -4 C 10.09375 -4.269531 10.28125 -4.648438 10.28125 -5.140625 C 10.28125 -5.429688 10.175781 -5.691406 9.96875 -5.921875 C 9.757812 -6.160156 9.472656 -6.378906 9.109375 -6.578125 C 8.753906 -6.773438 8.351562 -6.953125 7.90625 -7.109375 C 7.46875 -7.273438 7.015625 -7.457031 6.546875 -7.65625 C 5.972656 -7.875 5.40625 -8.128906 4.84375 -8.421875 C 4.28125 -8.722656 3.765625 -9.085938 3.296875 -9.515625 C 2.828125 -9.953125 2.441406 -10.457031 2.140625 -11.03125 C 1.847656 -11.613281 1.703125 -12.285156 1.703125 -13.046875 C 1.703125 -13.890625 1.867188 -14.664062 2.203125 -15.375 C 2.535156 -16.09375 3.007812 -16.695312 3.625 -17.1875 C 4.238281 -17.6875 4.976562 -18.078125 5.84375 -18.359375 C 6.707031 -18.640625 7.664062 -18.78125 8.71875 -18.78125 C 10.125 -18.78125 11.359375 -18.539062 12.421875 -18.0625 C 13.484375 -17.582031 14.40625 -17.046875 15.1875 -16.453125 L 12.75 -13.203125 C 12.082031 -13.691406 11.425781 -14.070312 10.78125 -14.34375 C 10.144531 -14.613281 9.507812 -14.75 8.875 -14.75 C 7.488281 -14.75 6.796875 -14.269531 6.796875 -13.3125 C 6.796875 -13.007812 6.894531 -12.753906 7.09375 -12.546875 C 7.289062 -12.335938 7.554688 -12.144531 7.890625 -11.96875 C 8.222656 -11.800781 8.601562 -11.632812 9.03125 -11.46875 C 9.46875 -11.3125 9.921875 -11.148438 10.390625 -10.984375 C 10.984375 -10.753906 11.566406 -10.5 12.140625 -10.21875 C 12.722656 -9.9375 13.253906 -9.585938 13.734375 -9.171875 C 14.210938 -8.753906 14.597656 -8.242188 14.890625 -7.640625 C 15.191406 -7.035156 15.34375 -6.3125 15.34375 -5.46875 C 15.34375 -4.632812 15.179688 -3.859375 14.859375 -3.140625 C 14.535156 -2.421875 14.050781 -1.796875 13.40625 -1.265625 C 12.769531 -0.742188 11.984375 -0.328125 11.046875 -0.015625 C 10.117188 0.285156 9.035156 0.4375 7.796875 0.4375 Z M 7.796875 0.4375 "/></g></g></g><g fill="#00bf63" fill-opacity="1"><g transform="translate(516.30689, 754.024086)"><g><path d="M 2.40625 0 L 2.40625 -25.921875 L 7.84375 -25.921875 L 7.84375 -19.5625 L 7.578125 -16.265625 C 8.265625 -16.878906 9.0625 -17.453125 9.96875 -17.984375 C 10.882812 -18.515625 11.972656 -18.78125 13.234375 -18.78125 C 15.234375 -18.78125 16.679688 -18.125 17.578125 -16.8125 C 18.472656 -15.507812 18.921875 -13.703125 18.921875 -11.390625 L 18.921875 0 L 13.5 0 L 13.5 -10.6875 C 13.5 -12.019531 13.316406 -12.929688 12.953125 -13.421875 C 12.597656 -13.910156 12.023438 -14.15625 11.234375 -14.15625 C 10.546875 -14.15625 9.953125 -14 9.453125 -13.6875 C 8.960938 -13.382812 8.425781 -12.953125 7.84375 -12.390625 L 7.84375 0 Z M 2.40625 0 "/></g></g></g><g fill="#00bf63" fill-opacity="1"><g transform="translate(537.411625, 754.024086)"><g><path d="M 10.609375 0.4375 C 9.304688 0.4375 8.085938 0.222656 6.953125 -0.203125 C 5.816406 -0.628906 4.828125 -1.253906 3.984375 -2.078125 C 3.148438 -2.910156 2.5 -3.914062 2.03125 -5.09375 C 1.5625 -6.28125 1.328125 -7.640625 1.328125 -9.171875 C 1.328125 -10.648438 1.570312 -11.984375 2.0625 -13.171875 C 2.5625 -14.367188 3.210938 -15.378906 4.015625 -16.203125 C 4.816406 -17.035156 5.734375 -17.671875 6.765625 -18.109375 C 7.796875 -18.554688 8.867188 -18.78125 9.984375 -18.78125 C 11.285156 -18.78125 12.421875 -18.554688 13.390625 -18.109375 C 14.367188 -17.671875 15.1875 -17.054688 15.84375 -16.265625 C 16.5 -15.472656 16.984375 -14.539062 17.296875 -13.46875 C 17.617188 -12.394531 17.78125 -11.234375 17.78125 -9.984375 C 17.78125 -9.484375 17.753906 -9.007812 17.703125 -8.5625 C 17.660156 -8.125 17.613281 -7.796875 17.5625 -7.578125 L 6.578125 -7.578125 C 6.828125 -6.242188 7.375 -5.265625 8.21875 -4.640625 C 9.070312 -4.015625 10.113281 -3.703125 11.34375 -3.703125 C 12.65625 -3.703125 13.976562 -4.109375 15.3125 -4.921875 L 17.109375 -1.625 C 16.179688 -0.988281 15.144531 -0.484375 14 -0.109375 C 12.851562 0.253906 11.722656 0.4375 10.609375 0.4375 Z M 6.546875 -11.171875 L 13.15625 -11.171875 C 13.15625 -12.203125 12.921875 -13.035156 12.453125 -13.671875 C 11.984375 -14.316406 11.195312 -14.640625 10.09375 -14.640625 C 9.226562 -14.640625 8.46875 -14.351562 7.8125 -13.78125 C 7.164062 -13.21875 6.742188 -12.347656 6.546875 -11.171875 Z M 6.546875 -11.171875 "/></g></g></g><g fill="#00bf63" fill-opacity="1"><g transform="translate(556.557429, 754.024086)"><g><path d="M 8.953125 0.4375 C 7.816406 0.4375 6.785156 0.21875 5.859375 -0.21875 C 4.929688 -0.664062 4.140625 -1.300781 3.484375 -2.125 C 2.835938 -2.945312 2.332031 -3.945312 1.96875 -5.125 C 1.613281 -6.3125 1.4375 -7.660156 1.4375 -9.171875 C 1.4375 -10.671875 1.648438 -12.007812 2.078125 -13.1875 C 2.515625 -14.375 3.082031 -15.378906 3.78125 -16.203125 C 4.488281 -17.035156 5.300781 -17.671875 6.21875 -18.109375 C 7.144531 -18.554688 8.09375 -18.78125 9.0625 -18.78125 C 10.09375 -18.78125 10.941406 -18.609375 11.609375 -18.265625 C 12.273438 -17.921875 12.925781 -17.453125 13.5625 -16.859375 L 13.34375 -19.671875 L 13.34375 -25.921875 L 18.78125 -25.921875 L 18.78125 0 L 14.34375 0 L 13.96875 -1.8125 L 13.828125 -1.8125 C 13.179688 -1.164062 12.425781 -0.628906 11.5625 -0.203125 C 10.707031 0.222656 9.835938 0.4375 8.953125 0.4375 Z M 10.34375 -4 C 10.9375 -4 11.472656 -4.117188 11.953125 -4.359375 C 12.441406 -4.609375 12.90625 -5.039062 13.34375 -5.65625 L 13.34375 -13.15625 C 12.851562 -13.601562 12.347656 -13.910156 11.828125 -14.078125 C 11.304688 -14.253906 10.800781 -14.34375 10.3125 -14.34375 C 9.445312 -14.34375 8.679688 -13.925781 8.015625 -13.09375 C 7.359375 -12.269531 7.03125 -10.984375 7.03125 -9.234375 C 7.03125 -7.410156 7.316406 -6.082031 7.890625 -5.25 C 8.472656 -4.414062 9.289062 -4 10.34375 -4 Z M 10.34375 -4 "/></g></g></g><g fill="#00bf63" fill-opacity="1"><g transform="translate(577.736093, 754.024086)"><g><path d="M 5.171875 6.625 L 1.78125 5.21875 C 3.15625 2.800781 4.148438 0.273438 4.765625 -2.359375 C 5.378906 -5.003906 5.6875 -7.644531 5.6875 -10.28125 C 5.6875 -12.914062 5.378906 -15.550781 4.765625 -18.1875 C 4.148438 -20.820312 3.15625 -23.347656 1.78125 -25.765625 L 5.171875 -27.171875 C 6.722656 -24.628906 7.925781 -21.988281 8.78125 -19.25 C 9.632812 -16.519531 10.0625 -13.53125 10.0625 -10.28125 C 10.0625 -7.019531 9.632812 -4.019531 8.78125 -1.28125 C 7.925781 1.445312 6.722656 4.082031 5.171875 6.625 Z M 5.171875 6.625 "/></g></g></g><g fill="#00bf63" fill-opacity="1"><g transform="translate(849.550091, 754.024086)"><g><path d="M 7.546875 6.625 C 5.992188 4.082031 4.789062 1.445312 3.9375 -1.28125 C 3.082031 -4.019531 2.65625 -7.019531 2.65625 -10.28125 C 2.65625 -13.53125 3.082031 -16.519531 3.9375 -19.25 C 4.789062 -21.988281 5.992188 -24.628906 7.546875 -27.171875 L 10.9375 -25.765625 C 9.582031 -23.347656 8.597656 -20.820312 7.984375 -18.1875 C 7.367188 -15.550781 7.0625 -12.914062 7.0625 -10.28125 C 7.0625 -7.644531 7.367188 -5.003906 7.984375 -2.359375 C 8.597656 0.273438 9.582031 2.800781 10.9375 5.21875 Z M 7.546875 6.625 "/></g></g></g><g fill="#00bf63" fill-opacity="1"><g transform="translate(862.264682, 754.024086)"><g><path d="M 2.84375 0 L 2.84375 -24.109375 L 11.125 -24.109375 C 12.457031 -24.109375 13.703125 -23.976562 14.859375 -23.71875 C 16.015625 -23.457031 17.023438 -23.023438 17.890625 -22.421875 C 18.753906 -21.816406 19.4375 -21.015625 19.9375 -20.015625 C 20.445312 -19.015625 20.703125 -17.789062 20.703125 -16.34375 C 20.703125 -14.9375 20.445312 -13.710938 19.9375 -12.671875 C 19.4375 -11.640625 18.753906 -10.789062 17.890625 -10.125 C 17.023438 -9.457031 16.023438 -8.960938 14.890625 -8.640625 C 13.765625 -8.328125 12.5625 -8.171875 11.28125 -8.171875 L 8.28125 -8.171875 L 8.28125 0 Z M 8.28125 -12.5 L 10.9375 -12.5 C 13.894531 -12.5 15.375 -13.78125 15.375 -16.34375 C 15.375 -17.59375 14.976562 -18.476562 14.1875 -19 C 13.40625 -19.519531 12.273438 -19.78125 10.796875 -19.78125 L 8.28125 -19.78125 Z M 8.28125 -12.5 "/></g></g></g><g fill="#00bf63" fill-opacity="1"><g transform="translate(884.293447, 754.024086)"><g><path d="M 7.90625 0.4375 C 5.914062 0.4375 4.46875 -0.210938 3.5625 -1.515625 C 2.664062 -2.816406 2.21875 -4.628906 2.21875 -6.953125 L 2.21875 -18.34375 L 7.65625 -18.34375 L 7.65625 -7.65625 C 7.65625 -6.320312 7.835938 -5.40625 8.203125 -4.90625 C 8.578125 -4.414062 9.15625 -4.171875 9.9375 -4.171875 C 10.632812 -4.171875 11.21875 -4.332031 11.6875 -4.65625 C 12.15625 -4.976562 12.660156 -5.492188 13.203125 -6.203125 L 13.203125 -18.34375 L 18.625 -18.34375 L 18.625 0 L 14.203125 0 L 13.796875 -2.546875 L 13.671875 -2.546875 C 12.890625 -1.609375 12.046875 -0.875 11.140625 -0.34375 C 10.242188 0.175781 9.164062 0.4375 7.90625 0.4375 Z M 7.90625 0.4375 "/></g></g></g><g fill="#00bf63" fill-opacity="1"><g transform="translate(905.287301, 754.024086)"><g><path d="M 12.015625 0.4375 C 11.203125 0.4375 10.378906 0.234375 9.546875 -0.171875 C 8.722656 -0.578125 7.957031 -1.171875 7.25 -1.953125 L 7.09375 -1.953125 L 6.65625 0 L 2.40625 0 L 2.40625 -25.921875 L 7.84375 -25.921875 L 7.84375 -19.5625 L 7.6875 -16.75 C 8.40625 -17.382812 9.175781 -17.878906 10 -18.234375 C 10.820312 -18.597656 11.664062 -18.78125 12.53125 -18.78125 C 13.644531 -18.78125 14.644531 -18.554688 15.53125 -18.109375 C 16.414062 -17.671875 17.171875 -17.050781 17.796875 -16.25 C 18.429688 -15.445312 18.910156 -14.472656 19.234375 -13.328125 C 19.566406 -12.179688 19.734375 -10.90625 19.734375 -9.5 C 19.734375 -7.925781 19.519531 -6.519531 19.09375 -5.28125 C 18.664062 -4.050781 18.085938 -3.007812 17.359375 -2.15625 C 16.628906 -1.3125 15.800781 -0.664062 14.875 -0.21875 C 13.957031 0.21875 13.003906 0.4375 12.015625 0.4375 Z M 10.765625 -4 C 11.691406 -4 12.488281 -4.421875 13.15625 -5.265625 C 13.820312 -6.117188 14.15625 -7.492188 14.15625 -9.390625 C 14.15625 -12.691406 13.097656 -14.34375 10.984375 -14.34375 C 9.898438 -14.34375 8.851562 -13.789062 7.84375 -12.6875 L 7.84375 -5.171875 C 8.332031 -4.734375 8.820312 -4.425781 9.3125 -4.25 C 9.8125 -4.082031 10.296875 -4 10.765625 -4 Z M 10.765625 -4 "/></g></g></g><g fill="#00bf63" fill-opacity="1"><g transform="translate(926.465965, 754.024086)"><g><path d="M 7.390625 0.4375 C 6.453125 0.4375 5.660156 0.289062 5.015625 0 C 4.378906 -0.289062 3.867188 -0.703125 3.484375 -1.234375 C 3.109375 -1.765625 2.832031 -2.40625 2.65625 -3.15625 C 2.488281 -3.90625 2.40625 -4.75 2.40625 -5.6875 L 2.40625 -25.921875 L 7.84375 -25.921875 L 7.84375 -5.46875 C 7.84375 -4.90625 7.945312 -4.507812 8.15625 -4.28125 C 8.363281 -4.0625 8.578125 -3.953125 8.796875 -3.953125 C 8.921875 -3.953125 9.023438 -3.953125 9.109375 -3.953125 C 9.191406 -3.953125 9.3125 -3.976562 9.46875 -4.03125 L 10.125 0 C 9.832031 0.125 9.457031 0.226562 9 0.3125 C 8.539062 0.394531 8.003906 0.4375 7.390625 0.4375 Z M 7.390625 0.4375 "/></g></g></g><g fill="#00bf63" fill-opacity="1"><g transform="translate(937.036815, 754.024086)"><g><path d="M 2.40625 0 L 2.40625 -18.34375 L 7.84375 -18.34375 L 7.84375 0 Z M 5.109375 -21.03125 C 4.191406 -21.03125 3.4375 -21.296875 2.84375 -21.828125 C 2.25 -22.359375 1.953125 -23.039062 1.953125 -23.875 C 1.953125 -24.71875 2.25 -25.394531 2.84375 -25.90625 C 3.4375 -26.425781 4.191406 -26.6875 5.109375 -26.6875 C 6.035156 -26.6875 6.789062 -26.425781 7.375 -25.90625 C 7.957031 -25.394531 8.25 -24.71875 8.25 -23.875 C 8.25 -23.039062 7.957031 -22.359375 7.375 -21.828125 C 6.789062 -21.296875 6.035156 -21.03125 5.109375 -21.03125 Z M 5.109375 -21.03125 "/></g></g></g><g fill="#00bf63" fill-opacity="1"><g transform="translate(947.238055, 754.024086)"><g><path d="M 7.796875 0.4375 C 6.585938 0.4375 5.347656 0.203125 4.078125 -0.265625 C 2.816406 -0.734375 1.71875 -1.347656 0.78125 -2.109375 L 3.21875 -5.515625 C 4.050781 -4.867188 4.847656 -4.382812 5.609375 -4.0625 C 6.378906 -3.75 7.160156 -3.59375 7.953125 -3.59375 C 8.765625 -3.59375 9.351562 -3.726562 9.71875 -4 C 10.09375 -4.269531 10.28125 -4.648438 10.28125 -5.140625 C 10.28125 -5.429688 10.175781 -5.691406 9.96875 -5.921875 C 9.757812 -6.160156 9.472656 -6.378906 9.109375 -6.578125 C 8.753906 -6.773438 8.351562 -6.953125 7.90625 -7.109375 C 7.46875 -7.273438 7.015625 -7.457031 6.546875 -7.65625 C 5.972656 -7.875 5.40625 -8.128906 4.84375 -8.421875 C 4.28125 -8.722656 3.765625 -9.085938 3.296875 -9.515625 C 2.828125 -9.953125 2.441406 -10.457031 2.140625 -11.03125 C 1.847656 -11.613281 1.703125 -12.285156 1.703125 -13.046875 C 1.703125 -13.890625 1.867188 -14.664062 2.203125 -15.375 C 2.535156 -16.09375 3.007812 -16.695312 3.625 -17.1875 C 4.238281 -17.6875 4.976562 -18.078125 5.84375 -18.359375 C 6.707031 -18.640625 7.664062 -18.78125 8.71875 -18.78125 C 10.125 -18.78125 11.359375 -18.539062 12.421875 -18.0625 C 13.484375 -17.582031 14.40625 -17.046875 15.1875 -16.453125 L 12.75 -13.203125 C 12.082031 -13.691406 11.425781 -14.070312 10.78125 -14.34375 C 10.144531 -14.613281 9.507812 -14.75 8.875 -14.75 C 7.488281 -14.75 6.796875 -14.269531 6.796875 -13.3125 C 6.796875 -13.007812 6.894531 -12.753906 7.09375 -12.546875 C 7.289062 -12.335938 7.554688 -12.144531 7.890625 -11.96875 C 8.222656 -11.800781 8.601562 -11.632812 9.03125 -11.46875 C 9.46875 -11.3125 9.921875 -11.148438 10.390625 -10.984375 C 10.984375 -10.753906 11.566406 -10.5 12.140625 -10.21875 C 12.722656 -9.9375 13.253906 -9.585938 13.734375 -9.171875 C 14.210938 -8.753906 14.597656 -8.242188 14.890625 -7.640625 C 15.191406 -7.035156 15.34375 -6.3125 15.34375 -5.46875 C 15.34375 -4.632812 15.179688 -3.859375 14.859375 -3.140625 C 14.535156 -2.421875 14.050781 -1.796875 13.40625 -1.265625 C 12.769531 -0.742188 11.984375 -0.328125 11.046875 -0.015625 C 10.117188 0.285156 9.035156 0.4375 7.796875 0.4375 Z M 7.796875 0.4375 "/></g></g></g><g fill="#00bf63" fill-opacity="1"><g transform="translate(963.61178, 754.024086)"><g><path d="M 2.40625 0 L 2.40625 -25.921875 L 7.84375 -25.921875 L 7.84375 -19.5625 L 7.578125 -16.265625 C 8.265625 -16.878906 9.0625 -17.453125 9.96875 -17.984375 C 10.882812 -18.515625 11.972656 -18.78125 13.234375 -18.78125 C 15.234375 -18.78125 16.679688 -18.125 17.578125 -16.8125 C 18.472656 -15.507812 18.921875 -13.703125 18.921875 -11.390625 L 18.921875 0 L 13.5 0 L 13.5 -10.6875 C 13.5 -12.019531 13.316406 -12.929688 12.953125 -13.421875 C 12.597656 -13.910156 12.023438 -14.15625 11.234375 -14.15625 C 10.546875 -14.15625 9.953125 -14 9.453125 -13.6875 C 8.960938 -13.382812 8.425781 -12.953125 7.84375 -12.390625 L 7.84375 0 Z M 2.40625 0 "/></g></g></g><g fill="#00bf63" fill-opacity="1"><g transform="translate(984.716515, 754.024086)"><g><path d="M 10.609375 0.4375 C 9.304688 0.4375 8.085938 0.222656 6.953125 -0.203125 C 5.816406 -0.628906 4.828125 -1.253906 3.984375 -2.078125 C 3.148438 -2.910156 2.5 -3.914062 2.03125 -5.09375 C 1.5625 -6.28125 1.328125 -7.640625 1.328125 -9.171875 C 1.328125 -10.648438 1.570312 -11.984375 2.0625 -13.171875 C 2.5625 -14.367188 3.210938 -15.378906 4.015625 -16.203125 C 4.816406 -17.035156 5.734375 -17.671875 6.765625 -18.109375 C 7.796875 -18.554688 8.867188 -18.78125 9.984375 -18.78125 C 11.285156 -18.78125 12.421875 -18.554688 13.390625 -18.109375 C 14.367188 -17.671875 15.1875 -17.054688 15.84375 -16.265625 C 16.5 -15.472656 16.984375 -14.539062 17.296875 -13.46875 C 17.617188 -12.394531 17.78125 -11.234375 17.78125 -9.984375 C 17.78125 -9.484375 17.753906 -9.007812 17.703125 -8.5625 C 17.660156 -8.125 17.613281 -7.796875 17.5625 -7.578125 L 6.578125 -7.578125 C 6.828125 -6.242188 7.375 -5.265625 8.21875 -4.640625 C 9.070312 -4.015625 10.113281 -3.703125 11.34375 -3.703125 C 12.65625 -3.703125 13.976562 -4.109375 15.3125 -4.921875 L 17.109375 -1.625 C 16.179688 -0.988281 15.144531 -0.484375 14 -0.109375 C 12.851562 0.253906 11.722656 0.4375 10.609375 0.4375 Z M 6.546875 -11.171875 L 13.15625 -11.171875 C 13.15625 -12.203125 12.921875 -13.035156 12.453125 -13.671875 C 11.984375 -14.316406 11.195312 -14.640625 10.09375 -14.640625 C 9.226562 -14.640625 8.46875 -14.351562 7.8125 -13.78125 C 7.164062 -13.21875 6.742188 -12.347656 6.546875 -11.171875 Z M 6.546875 -11.171875 "/></g></g></g><g fill="#00bf63" fill-opacity="1"><g transform="translate(1003.862319, 754.024086)"><g><path d="M 8.953125 0.4375 C 7.816406 0.4375 6.785156 0.21875 5.859375 -0.21875 C 4.929688 -0.664062 4.140625 -1.300781 3.484375 -2.125 C 2.835938 -2.945312 2.332031 -3.945312 1.96875 -5.125 C 1.613281 -6.3125 1.4375 -7.660156 1.4375 -9.171875 C 1.4375 -10.671875 1.648438 -12.007812 2.078125 -13.1875 C 2.515625 -14.375 3.082031 -15.378906 3.78125 -16.203125 C 4.488281 -17.035156 5.300781 -17.671875 6.21875 -18.109375 C 7.144531 -18.554688 8.09375 -18.78125 9.0625 -18.78125 C 10.09375 -18.78125 10.941406 -18.609375 11.609375 -18.265625 C 12.273438 -17.921875 12.925781 -17.453125 13.5625 -16.859375 L 13.34375 -19.671875 L 13.34375 -25.921875 L 18.78125 -25.921875 L 18.78125 0 L 14.34375 0 L 13.96875 -1.8125 L 13.828125 -1.8125 C 13.179688 -1.164062 12.425781 -0.628906 11.5625 -0.203125 C 10.707031 0.222656 9.835938 0.4375 8.953125 0.4375 Z M 10.34375 -4 C 10.9375 -4 11.472656 -4.117188 11.953125 -4.359375 C 12.441406 -4.609375 12.90625 -5.039062 13.34375 -5.65625 L 13.34375 -13.15625 C 12.851562 -13.601562 12.347656 -13.910156 11.828125 -14.078125 C 11.304688 -14.253906 10.800781 -14.34375 10.3125 -14.34375 C 9.445312 -14.34375 8.679688 -13.925781 8.015625 -13.09375 C 7.359375 -12.269531 7.03125 -10.984375 7.03125 -9.234375 C 7.03125 -7.410156 7.316406 -6.082031 7.890625 -5.25 C 8.472656 -4.414062 9.289062 -4 10.34375 -4 Z M 10.34375 -4 "/></g></g></g><g fill="#00bf63" fill-opacity="1"><g transform="translate(1025.040983, 754.024086)"><g><path d="M 5.171875 6.625 L 1.78125 5.21875 C 3.15625 2.800781 4.148438 0.273438 4.765625 -2.359375 C 5.378906 -5.003906 5.6875 -7.644531 5.6875 -10.28125 C 5.6875 -12.914062 5.378906 -15.550781 4.765625 -18.1875 C 4.148438 -20.820312 3.15625 -23.347656 1.78125 -25.765625 L 5.171875 -27.171875 C 6.722656 -24.628906 7.925781 -21.988281 8.78125 -19.25 C 9.632812 -16.519531 10.0625 -13.53125 10.0625 -10.28125 C 10.0625 -7.019531 9.632812 -4.019531 8.78125 -1.28125 C 7.925781 1.445312 6.722656 4.082031 5.171875 6.625 Z M 5.171875 6.625 "/></g></g></g></svg>