<svg xmlns="http://www.w3.org/2000/svg" xmlns:xlink="http://www.w3.org/1999/xlink" width="1920" zoomAndPan="magnify" viewBox="0 0 1440 809.999993" height="1080" preserveAspectRatio="xMidYMid meet" version="1.0"><defs><g/><clipPath id="8b00eee2af"><path d="M 152.136719 72.75 L 1287.636719 72.75 L 1287.636719 737.25 L 152.136719 737.25 Z M 152.136719 72.75 " clip-rule="nonzero"/></clipPath><clipPath id="52da6e8386"><path d="M 190.378906 72.75 L 1249.394531 72.75 C 1259.535156 72.75 1269.261719 76.777344 1276.433594 83.953125 C 1283.605469 91.125 1287.636719 100.855469 1287.636719 111 L 1287.636719 699 C 1287.636719 709.144531 1283.605469 718.871094 1276.433594 726.046875 C 1269.261719 733.21875 1259.535156 737.25 1249.394531 737.25 L 190.378906 737.25 C 180.234375 737.25 170.507812 733.21875 163.335938 726.046875 C 156.164062 718.871094 152.136719 709.144531 152.136719 699 L 152.136719 111 C 152.136719 100.855469 156.164062 91.125 163.335938 83.953125 C 170.507812 76.777344 180.234375 72.75 190.378906 72.75 " clip-rule="nonzero"/></clipPath></defs><g fill="#526479" fill-opacity="1"><g transform="translate(564.56313, 112.051253)"><g><path d="M 3.234375 0 L 3.234375 -27.359375 L 12.625 -27.359375 C 14.144531 -27.359375 15.5625 -27.210938 16.875 -26.921875 C 18.1875 -26.628906 19.332031 -26.140625 20.3125 -25.453125 C 21.289062 -24.765625 22.066406 -23.851562 22.640625 -22.71875 C 23.210938 -21.59375 23.5 -20.203125 23.5 -18.546875 C 23.5 -16.953125 23.210938 -15.566406 22.640625 -14.390625 C 22.066406 -13.210938 21.289062 -12.242188 20.3125 -11.484375 C 19.332031 -10.734375 18.195312 -10.175781 16.90625 -9.8125 C 15.625 -9.457031 14.253906 -9.28125 12.796875 -9.28125 L 9.40625 -9.28125 L 9.40625 0 Z M 9.40625 -14.1875 L 12.421875 -14.1875 C 15.773438 -14.1875 17.453125 -15.640625 17.453125 -18.546875 C 17.453125 -19.972656 17.003906 -20.976562 16.109375 -21.5625 C 15.210938 -22.15625 13.925781 -22.453125 12.25 -22.453125 L 9.40625 -22.453125 Z M 9.40625 -14.1875 "/></g></g></g><g fill="#526479" fill-opacity="1"><g transform="translate(589.574134, 112.051253)"><g><path d="M 7.96875 0.5 C 7.019531 0.5 6.160156 0.335938 5.390625 0.015625 C 4.617188 -0.304688 3.96875 -0.753906 3.4375 -1.328125 C 2.90625 -1.898438 2.492188 -2.5625 2.203125 -3.3125 C 1.910156 -4.070312 1.765625 -4.898438 1.765625 -5.796875 C 1.765625 -7.972656 2.6875 -9.675781 4.53125 -10.90625 C 6.375 -12.144531 9.351562 -12.972656 13.46875 -13.390625 C 13.414062 -14.304688 13.144531 -15.035156 12.65625 -15.578125 C 12.164062 -16.128906 11.347656 -16.40625 10.203125 -16.40625 C 9.304688 -16.40625 8.414062 -16.238281 7.53125 -15.90625 C 6.65625 -15.570312 5.710938 -15.109375 4.703125 -14.515625 L 2.46875 -18.59375 C 3.8125 -19.40625 5.21875 -20.0625 6.6875 -20.5625 C 8.15625 -21.0625 9.71875 -21.3125 11.375 -21.3125 C 14.0625 -21.3125 16.109375 -20.550781 17.515625 -19.03125 C 18.929688 -17.507812 19.640625 -15.140625 19.640625 -11.921875 L 19.640625 0 L 14.609375 0 L 14.1875 -2.140625 L 14.015625 -2.140625 C 13.117188 -1.359375 12.179688 -0.722656 11.203125 -0.234375 C 10.222656 0.253906 9.144531 0.5 7.96875 0.5 Z M 10.078125 -4.28125 C 10.773438 -4.28125 11.375 -4.429688 11.875 -4.734375 C 12.375 -5.046875 12.90625 -5.484375 13.46875 -6.046875 L 13.46875 -9.6875 C 11.289062 -9.382812 9.78125 -8.9375 8.9375 -8.34375 C 8.101562 -7.757812 7.6875 -7.0625 7.6875 -6.25 C 7.6875 -5.582031 7.898438 -5.085938 8.328125 -4.765625 C 8.765625 -4.441406 9.347656 -4.28125 10.078125 -4.28125 Z M 10.078125 -4.28125 "/></g></g></g><g fill="#526479" fill-opacity="1"><g transform="translate(611.689566, 112.051253)"><g><path d="M 11.796875 0.5 C 10.335938 0.5 8.984375 0.253906 7.734375 -0.234375 C 6.492188 -0.722656 5.410156 -1.425781 4.484375 -2.34375 C 3.566406 -3.269531 2.84375 -4.410156 2.3125 -5.765625 C 1.78125 -7.128906 1.515625 -8.675781 1.515625 -10.40625 C 1.515625 -12.144531 1.804688 -13.691406 2.390625 -15.046875 C 2.984375 -16.398438 3.773438 -17.535156 4.765625 -18.453125 C 5.753906 -19.378906 6.90625 -20.085938 8.21875 -20.578125 C 9.539062 -21.066406 10.914062 -21.3125 12.34375 -21.3125 C 13.625 -21.3125 14.757812 -21.101562 15.75 -20.6875 C 16.75 -20.269531 17.640625 -19.738281 18.421875 -19.09375 L 15.53125 -15.109375 C 14.550781 -15.921875 13.613281 -16.328125 12.71875 -16.328125 C 11.207031 -16.328125 10.015625 -15.796875 9.140625 -14.734375 C 8.273438 -13.671875 7.84375 -12.226562 7.84375 -10.40625 C 7.84375 -8.59375 8.285156 -7.148438 9.171875 -6.078125 C 10.054688 -5.015625 11.164062 -4.484375 12.5 -4.484375 C 13.175781 -4.484375 13.828125 -4.628906 14.453125 -4.921875 C 15.085938 -5.222656 15.679688 -5.582031 16.234375 -6 L 18.671875 -1.96875 C 17.640625 -1.070312 16.519531 -0.4375 15.3125 -0.0625 C 14.113281 0.3125 12.941406 0.5 11.796875 0.5 Z M 11.796875 0.5 "/></g></g></g><g fill="#526479" fill-opacity="1"><g transform="translate(631.287115, 112.051253)"><g><path d="M 2.734375 0 L 2.734375 -29.421875 L 8.734375 -29.421875 L 8.734375 -12.546875 L 8.890625 -12.546875 L 15.484375 -20.8125 L 22.203125 -20.8125 L 14.90625 -12.25 L 22.75 0 L 16.078125 0 L 11.375 -8.09375 L 8.734375 -5.125 L 8.734375 0 Z M 2.734375 0 "/></g></g></g><g fill="#526479" fill-opacity="1"><g transform="translate(654.28381, 112.051253)"><g><path d="M 7.96875 0.5 C 7.019531 0.5 6.160156 0.335938 5.390625 0.015625 C 4.617188 -0.304688 3.96875 -0.753906 3.4375 -1.328125 C 2.90625 -1.898438 2.492188 -2.5625 2.203125 -3.3125 C 1.910156 -4.070312 1.765625 -4.898438 1.765625 -5.796875 C 1.765625 -7.972656 2.6875 -9.675781 4.53125 -10.90625 C 6.375 -12.144531 9.351562 -12.972656 13.46875 -13.390625 C 13.414062 -14.304688 13.144531 -15.035156 12.65625 -15.578125 C 12.164062 -16.128906 11.347656 -16.40625 10.203125 -16.40625 C 9.304688 -16.40625 8.414062 -16.238281 7.53125 -15.90625 C 6.65625 -15.570312 5.710938 -15.109375 4.703125 -14.515625 L 2.46875 -18.59375 C 3.8125 -19.40625 5.21875 -20.0625 6.6875 -20.5625 C 8.15625 -21.0625 9.71875 -21.3125 11.375 -21.3125 C 14.0625 -21.3125 16.109375 -20.550781 17.515625 -19.03125 C 18.929688 -17.507812 19.640625 -15.140625 19.640625 -11.921875 L 19.640625 0 L 14.609375 0 L 14.1875 -2.140625 L 14.015625 -2.140625 C 13.117188 -1.359375 12.179688 -0.722656 11.203125 -0.234375 C 10.222656 0.253906 9.144531 0.5 7.96875 0.5 Z M 10.078125 -4.28125 C 10.773438 -4.28125 11.375 -4.429688 11.875 -4.734375 C 12.375 -5.046875 12.90625 -5.484375 13.46875 -6.046875 L 13.46875 -9.6875 C 11.289062 -9.382812 9.78125 -8.9375 8.9375 -8.34375 C 8.101562 -7.757812 7.6875 -7.0625 7.6875 -6.25 C 7.6875 -5.582031 7.898438 -5.085938 8.328125 -4.765625 C 8.765625 -4.441406 9.347656 -4.28125 10.078125 -4.28125 Z M 10.078125 -4.28125 "/></g></g></g><g fill="#526479" fill-opacity="1"><g transform="translate(676.399242, 112.051253)"><g><path d="M 10.15625 8.859375 C 8.925781 8.859375 7.785156 8.75 6.734375 8.53125 C 5.679688 8.320312 4.753906 8.007812 3.953125 7.59375 C 3.160156 7.175781 2.539062 6.628906 2.09375 5.953125 C 1.644531 5.285156 1.421875 4.488281 1.421875 3.5625 C 1.421875 1.882812 2.414062 0.488281 4.40625 -0.625 L 4.40625 -0.796875 C 3.84375 -1.160156 3.378906 -1.617188 3.015625 -2.171875 C 2.648438 -2.734375 2.46875 -3.453125 2.46875 -4.328125 C 2.46875 -5.078125 2.691406 -5.796875 3.140625 -6.484375 C 3.585938 -7.171875 4.148438 -7.75 4.828125 -8.21875 L 4.828125 -8.390625 C 4.097656 -8.898438 3.445312 -9.625 2.875 -10.5625 C 2.300781 -11.5 2.015625 -12.582031 2.015625 -13.8125 C 2.015625 -15.070312 2.25 -16.171875 2.71875 -17.109375 C 3.195312 -18.046875 3.832031 -18.828125 4.625 -19.453125 C 5.425781 -20.078125 6.34375 -20.539062 7.375 -20.84375 C 8.414062 -21.15625 9.5 -21.3125 10.625 -21.3125 C 11.851562 -21.3125 12.925781 -21.144531 13.84375 -20.8125 L 21.453125 -20.8125 L 21.453125 -16.328125 L 18.125 -16.328125 C 18.320312 -16.015625 18.484375 -15.617188 18.609375 -15.140625 C 18.734375 -14.671875 18.796875 -14.15625 18.796875 -13.59375 C 18.796875 -12.394531 18.585938 -11.351562 18.171875 -10.46875 C 17.753906 -9.59375 17.171875 -8.863281 16.421875 -8.28125 C 15.679688 -7.707031 14.816406 -7.28125 13.828125 -7 C 12.835938 -6.726562 11.769531 -6.59375 10.625 -6.59375 C 9.8125 -6.59375 8.96875 -6.734375 8.09375 -7.015625 C 7.820312 -6.785156 7.628906 -6.554688 7.515625 -6.328125 C 7.398438 -6.109375 7.34375 -5.816406 7.34375 -5.453125 C 7.34375 -4.921875 7.570312 -4.53125 8.03125 -4.28125 C 8.5 -4.03125 9.320312 -3.90625 10.5 -3.90625 L 13.84375 -3.90625 C 16.414062 -3.90625 18.378906 -3.488281 19.734375 -2.65625 C 21.097656 -1.832031 21.78125 -0.484375 21.78125 1.390625 C 21.78125 2.472656 21.503906 3.46875 20.953125 4.375 C 20.410156 5.289062 19.632812 6.078125 18.625 6.734375 C 17.625 7.390625 16.410156 7.90625 14.984375 8.28125 C 13.554688 8.664062 11.945312 8.859375 10.15625 8.859375 Z M 10.625 -10.328125 C 11.425781 -10.328125 12.097656 -10.613281 12.640625 -11.1875 C 13.191406 -11.757812 13.46875 -12.632812 13.46875 -13.8125 C 13.46875 -14.894531 13.191406 -15.722656 12.640625 -16.296875 C 12.097656 -16.878906 11.425781 -17.171875 10.625 -17.171875 C 9.8125 -17.171875 9.128906 -16.890625 8.578125 -16.328125 C 8.035156 -15.765625 7.765625 -14.925781 7.765625 -13.8125 C 7.765625 -12.632812 8.035156 -11.757812 8.578125 -11.1875 C 9.128906 -10.613281 9.8125 -10.328125 10.625 -10.328125 Z M 11.125 5 C 12.519531 5 13.664062 4.753906 14.5625 4.265625 C 15.457031 3.773438 15.90625 3.164062 15.90625 2.4375 C 15.90625 1.789062 15.628906 1.351562 15.078125 1.125 C 14.535156 0.90625 13.75 0.796875 12.71875 0.796875 L 10.578125 0.796875 C 9.847656 0.796875 9.257812 0.773438 8.8125 0.734375 C 8.363281 0.691406 7.972656 0.628906 7.640625 0.546875 C 6.878906 1.210938 6.5 1.898438 6.5 2.609375 C 6.5 3.390625 6.914062 3.984375 7.75 4.390625 C 8.59375 4.796875 9.71875 5 11.125 5 Z M 11.125 5 "/></g></g></g><g fill="#526479" fill-opacity="1"><g transform="translate(698.808432, 112.051253)"><g><path d="M 12.046875 0.5 C 10.566406 0.5 9.179688 0.253906 7.890625 -0.234375 C 6.597656 -0.722656 5.476562 -1.4375 4.53125 -2.375 C 3.582031 -3.3125 2.84375 -4.453125 2.3125 -5.796875 C 1.78125 -7.140625 1.515625 -8.675781 1.515625 -10.40625 C 1.515625 -12.082031 1.789062 -13.597656 2.34375 -14.953125 C 2.90625 -16.316406 3.640625 -17.46875 4.546875 -18.40625 C 5.460938 -19.34375 6.503906 -20.0625 7.671875 -20.5625 C 8.847656 -21.0625 10.066406 -21.3125 11.328125 -21.3125 C 12.816406 -21.3125 14.113281 -21.0625 15.21875 -20.5625 C 16.320312 -20.0625 17.242188 -19.363281 17.984375 -18.46875 C 18.722656 -17.570312 19.273438 -16.515625 19.640625 -15.296875 C 20.003906 -14.078125 20.1875 -12.753906 20.1875 -11.328125 C 20.1875 -10.773438 20.15625 -10.242188 20.09375 -9.734375 C 20.039062 -9.234375 19.988281 -8.859375 19.9375 -8.609375 L 7.46875 -8.609375 C 7.75 -7.097656 8.367188 -5.984375 9.328125 -5.265625 C 10.296875 -4.554688 11.484375 -4.203125 12.890625 -4.203125 C 14.367188 -4.203125 15.863281 -4.660156 17.375 -5.578125 L 19.4375 -1.84375 C 18.375 -1.113281 17.191406 -0.539062 15.890625 -0.125 C 14.585938 0.289062 13.304688 0.5 12.046875 0.5 Z M 7.421875 -12.671875 L 14.9375 -12.671875 C 14.9375 -13.847656 14.671875 -14.800781 14.140625 -15.53125 C 13.609375 -16.257812 12.710938 -16.625 11.453125 -16.625 C 10.472656 -16.625 9.613281 -16.300781 8.875 -15.65625 C 8.132812 -15.007812 7.648438 -14.015625 7.421875 -12.671875 Z M 7.421875 -12.671875 "/></g></g></g><g fill="#526479" fill-opacity="1"><g transform="translate(720.546186, 112.051253)"><g/></g></g><g fill="#526479" fill-opacity="1"><g transform="translate(728.939145, 112.051253)"><g><path d="M 14.640625 0.5 C 12.910156 0.5 11.273438 0.203125 9.734375 -0.390625 C 8.191406 -0.992188 6.835938 -1.882812 5.671875 -3.0625 C 4.515625 -4.238281 3.601562 -5.703125 2.9375 -7.453125 C 2.269531 -9.203125 1.9375 -11.222656 1.9375 -13.515625 C 1.9375 -15.773438 2.285156 -17.796875 2.984375 -19.578125 C 3.679688 -21.359375 4.613281 -22.863281 5.78125 -24.09375 C 6.957031 -25.320312 8.328125 -26.257812 9.890625 -26.90625 C 11.460938 -27.550781 13.117188 -27.875 14.859375 -27.875 C 16.617188 -27.875 18.195312 -27.515625 19.59375 -26.796875 C 21 -26.085938 22.160156 -25.253906 23.078125 -24.296875 L 19.8125 -20.359375 C 19.113281 -20.992188 18.378906 -21.515625 17.609375 -21.921875 C 16.835938 -22.328125 15.960938 -22.53125 14.984375 -22.53125 C 14.054688 -22.53125 13.179688 -22.328125 12.359375 -21.921875 C 11.535156 -21.515625 10.820312 -20.929688 10.21875 -20.171875 C 9.613281 -19.421875 9.132812 -18.5 8.78125 -17.40625 C 8.4375 -16.320312 8.265625 -15.09375 8.265625 -13.71875 C 8.265625 -10.894531 8.863281 -8.707031 10.0625 -7.15625 C 11.269531 -5.601562 12.882812 -4.828125 14.90625 -4.828125 C 16.019531 -4.828125 17.015625 -5.070312 17.890625 -5.5625 C 18.773438 -6.050781 19.554688 -6.660156 20.234375 -7.390625 L 23.5 -3.53125 C 21.207031 -0.84375 18.253906 0.5 14.640625 0.5 Z M 14.640625 0.5 "/></g></g></g><g fill="#526479" fill-opacity="1"><g transform="translate(753.362644, 112.051253)"><g><path d="M 11.671875 0.5 C 10.347656 0.5 9.070312 0.253906 7.84375 -0.234375 C 6.613281 -0.722656 5.53125 -1.425781 4.59375 -2.34375 C 3.65625 -3.269531 2.90625 -4.410156 2.34375 -5.765625 C 1.789062 -7.128906 1.515625 -8.675781 1.515625 -10.40625 C 1.515625 -12.144531 1.789062 -13.691406 2.34375 -15.046875 C 2.90625 -16.398438 3.65625 -17.535156 4.59375 -18.453125 C 5.53125 -19.378906 6.613281 -20.085938 7.84375 -20.578125 C 9.070312 -21.066406 10.347656 -21.3125 11.671875 -21.3125 C 12.984375 -21.3125 14.25 -21.066406 15.46875 -20.578125 C 16.6875 -20.085938 17.765625 -19.378906 18.703125 -18.453125 C 19.640625 -17.535156 20.382812 -16.398438 20.9375 -15.046875 C 21.5 -13.691406 21.78125 -12.144531 21.78125 -10.40625 C 21.78125 -8.675781 21.5 -7.128906 20.9375 -5.765625 C 20.382812 -4.410156 19.640625 -3.269531 18.703125 -2.34375 C 17.765625 -1.425781 16.6875 -0.722656 15.46875 -0.234375 C 14.25 0.253906 12.984375 0.5 11.671875 0.5 Z M 11.671875 -4.484375 C 12.929688 -4.484375 13.878906 -5.015625 14.515625 -6.078125 C 15.160156 -7.148438 15.484375 -8.59375 15.484375 -10.40625 C 15.484375 -12.226562 15.160156 -13.671875 14.515625 -14.734375 C 13.878906 -15.796875 12.929688 -16.328125 11.671875 -16.328125 C 10.378906 -16.328125 9.414062 -15.796875 8.78125 -14.734375 C 8.15625 -13.671875 7.84375 -12.226562 7.84375 -10.40625 C 7.84375 -8.59375 8.15625 -7.148438 8.78125 -6.078125 C 9.414062 -5.015625 10.378906 -4.484375 11.671875 -4.484375 Z M 11.671875 -4.484375 "/></g></g></g><g fill="#526479" fill-opacity="1"><g transform="translate(776.653087, 112.051253)"><g><path d="M 2.734375 0 L 2.734375 -20.8125 L 7.765625 -20.8125 L 8.1875 -18.171875 L 8.359375 -18.171875 C 9.242188 -19.015625 10.21875 -19.75 11.28125 -20.375 C 12.351562 -21 13.601562 -21.3125 15.03125 -21.3125 C 17.289062 -21.3125 18.929688 -20.570312 19.953125 -19.09375 C 20.972656 -17.613281 21.484375 -15.554688 21.484375 -12.921875 L 21.484375 0 L 15.3125 0 L 15.3125 -12.125 C 15.3125 -13.632812 15.109375 -14.671875 14.703125 -15.234375 C 14.296875 -15.796875 13.648438 -16.078125 12.765625 -16.078125 C 11.972656 -16.078125 11.296875 -15.898438 10.734375 -15.546875 C 10.179688 -15.203125 9.566406 -14.707031 8.890625 -14.0625 L 8.890625 0 Z M 2.734375 0 "/></g></g></g><g fill="#526479" fill-opacity="1"><g transform="translate(800.656931, 112.051253)"><g><path d="M 10.75 0.5 C 9.457031 0.5 8.351562 0.304688 7.4375 -0.078125 C 6.53125 -0.472656 5.789062 -1.019531 5.21875 -1.71875 C 4.644531 -2.414062 4.222656 -3.257812 3.953125 -4.25 C 3.691406 -5.25 3.5625 -6.347656 3.5625 -7.546875 L 3.5625 -15.984375 L 0.71875 -15.984375 L 0.71875 -20.5625 L 3.90625 -20.8125 L 4.609375 -26.359375 L 9.734375 -26.359375 L 9.734375 -20.8125 L 14.734375 -20.8125 L 14.734375 -15.984375 L 9.734375 -15.984375 L 9.734375 -7.640625 C 9.734375 -6.460938 9.976562 -5.613281 10.46875 -5.09375 C 10.957031 -4.582031 11.609375 -4.328125 12.421875 -4.328125 C 12.753906 -4.328125 13.09375 -4.367188 13.4375 -4.453125 C 13.789062 -4.535156 14.109375 -4.632812 14.390625 -4.75 L 15.359375 -0.25 C 14.796875 -0.0820312 14.132812 0.0820312 13.375 0.25 C 12.625 0.414062 11.75 0.5 10.75 0.5 Z M 10.75 0.5 "/></g></g></g><g fill="#526479" fill-opacity="1"><g transform="translate(816.729425, 112.051253)"><g><path d="M 12.046875 0.5 C 10.566406 0.5 9.179688 0.253906 7.890625 -0.234375 C 6.597656 -0.722656 5.476562 -1.4375 4.53125 -2.375 C 3.582031 -3.3125 2.84375 -4.453125 2.3125 -5.796875 C 1.78125 -7.140625 1.515625 -8.675781 1.515625 -10.40625 C 1.515625 -12.082031 1.789062 -13.597656 2.34375 -14.953125 C 2.90625 -16.316406 3.640625 -17.46875 4.546875 -18.40625 C 5.460938 -19.34375 6.503906 -20.0625 7.671875 -20.5625 C 8.847656 -21.0625 10.066406 -21.3125 11.328125 -21.3125 C 12.816406 -21.3125 14.113281 -21.0625 15.21875 -20.5625 C 16.320312 -20.0625 17.242188 -19.363281 17.984375 -18.46875 C 18.722656 -17.570312 19.273438 -16.515625 19.640625 -15.296875 C 20.003906 -14.078125 20.1875 -12.753906 20.1875 -11.328125 C 20.1875 -10.773438 20.15625 -10.242188 20.09375 -9.734375 C 20.039062 -9.234375 19.988281 -8.859375 19.9375 -8.609375 L 7.46875 -8.609375 C 7.75 -7.097656 8.367188 -5.984375 9.328125 -5.265625 C 10.296875 -4.554688 11.484375 -4.203125 12.890625 -4.203125 C 14.367188 -4.203125 15.863281 -4.660156 17.375 -5.578125 L 19.4375 -1.84375 C 18.375 -1.113281 17.191406 -0.539062 15.890625 -0.125 C 14.585938 0.289062 13.304688 0.5 12.046875 0.5 Z M 7.421875 -12.671875 L 14.9375 -12.671875 C 14.9375 -13.847656 14.671875 -14.800781 14.140625 -15.53125 C 13.609375 -16.257812 12.710938 -16.625 11.453125 -16.625 C 10.472656 -16.625 9.613281 -16.300781 8.875 -15.65625 C 8.132812 -15.007812 7.648438 -14.015625 7.421875 -12.671875 Z M 7.421875 -12.671875 "/></g></g></g><g fill="#526479" fill-opacity="1"><g transform="translate(838.467178, 112.051253)"><g><path d="M 0.59375 0 L 6.96875 -10.828125 L 0.96875 -20.8125 L 7.59375 -20.8125 L 9.4375 -17.453125 C 9.71875 -16.867188 10.003906 -16.273438 10.296875 -15.671875 C 10.597656 -15.066406 10.898438 -14.472656 11.203125 -13.890625 L 11.375 -13.890625 C 11.59375 -14.472656 11.828125 -15.066406 12.078125 -15.671875 C 12.335938 -16.273438 12.578125 -16.867188 12.796875 -17.453125 L 14.234375 -20.8125 L 20.609375 -20.8125 L 14.5625 -10.109375 L 20.984375 0 L 14.359375 0 L 12.34375 -3.4375 C 12 -4.03125 11.664062 -4.632812 11.34375 -5.25 C 11.03125 -5.863281 10.703125 -6.460938 10.359375 -7.046875 L 10.203125 -7.046875 C 9.953125 -6.460938 9.6875 -5.867188 9.40625 -5.265625 C 9.125 -4.660156 8.859375 -4.050781 8.609375 -3.4375 L 6.96875 0 Z M 0.59375 0 "/></g></g></g><g fill="#526479" fill-opacity="1"><g transform="translate(860.03707, 112.051253)"><g><path d="M 10.75 0.5 C 9.457031 0.5 8.351562 0.304688 7.4375 -0.078125 C 6.53125 -0.472656 5.789062 -1.019531 5.21875 -1.71875 C 4.644531 -2.414062 4.222656 -3.257812 3.953125 -4.25 C 3.691406 -5.25 3.5625 -6.347656 3.5625 -7.546875 L 3.5625 -15.984375 L 0.71875 -15.984375 L 0.71875 -20.5625 L 3.90625 -20.8125 L 4.609375 -26.359375 L 9.734375 -26.359375 L 9.734375 -20.8125 L 14.734375 -20.8125 L 14.734375 -15.984375 L 9.734375 -15.984375 L 9.734375 -7.640625 C 9.734375 -6.460938 9.976562 -5.613281 10.46875 -5.09375 C 10.957031 -4.582031 11.609375 -4.328125 12.421875 -4.328125 C 12.753906 -4.328125 13.09375 -4.367188 13.4375 -4.453125 C 13.789062 -4.535156 14.109375 -4.632812 14.390625 -4.75 L 15.359375 -0.25 C 14.796875 -0.0820312 14.132812 0.0820312 13.375 0.25 C 12.625 0.414062 11.75 0.5 10.75 0.5 Z M 10.75 0.5 "/></g></g></g><g clip-path="url(#8b00eee2af)"><g clip-path="url(#52da6e8386)"><path fill="#526479" d="M 190.378906 70.5 L 203.875 70.5 L 203.875 75 L 190.378906 75 Z M 206.125 70.5 L 219.621094 70.5 L 219.621094 75 L 206.125 75 Z M 221.871094 70.5 L 235.371094 70.5 L 235.371094 75 L 221.871094 75 Z M 237.621094 70.5 L 251.117188 70.5 L 251.117188 75 L 237.621094 75 Z M 253.367188 70.5 L 266.863281 70.5 L 266.863281 75 L 253.367188 75 Z M 269.113281 70.5 L 282.609375 70.5 L 282.609375 75 L 269.113281 75 Z M 284.859375 70.5 L 298.355469 70.5 L 298.355469 75 L 284.859375 75 Z M 300.605469 70.5 L 314.105469 70.5 L 314.105469 75 L 300.605469 75 Z M 316.355469 70.5 L 329.851562 70.5 L 329.851562 75 L 316.355469 75 Z M 332.101562 70.5 L 345.597656 70.5 L 345.597656 75 L 332.101562 75 Z M 347.847656 70.5 L 361.34375 70.5 L 361.34375 75 L 347.847656 75 Z M 363.59375 70.5 L 377.09375 70.5 L 377.09375 75 L 363.59375 75 Z M 379.339844 70.5 L 392.839844 70.5 L 392.839844 75 L 379.339844 75 Z M 395.089844 70.5 L 408.585938 70.5 L 408.585938 75 L 395.089844 75 Z M 410.835938 70.5 L 424.332031 70.5 L 424.332031 75 L 410.835938 75 Z M 426.582031 70.5 L 440.078125 70.5 L 440.078125 75 L 426.582031 75 Z M 442.328125 70.5 L 455.828125 70.5 L 455.828125 75 L 442.328125 75 Z M 458.074219 70.5 L 471.574219 70.5 L 471.574219 75 L 458.074219 75 Z M 473.824219 70.5 L 487.320312 70.5 L 487.320312 75 L 473.824219 75 Z M 489.570312 70.5 L 503.066406 70.5 L 503.066406 75 L 489.570312 75 Z M 505.316406 70.5 L 518.8125 70.5 L 518.8125 75 L 505.316406 75 Z M 521.0625 70.5 L 534.5625 70.5 L 534.5625 75 L 521.0625 75 Z M 536.808594 70.5 L 550.308594 70.5 L 550.308594 75 L 536.808594 75 Z M 552.558594 70.5 L 566.054688 70.5 L 566.054688 75 L 552.558594 75 Z M 568.304688 70.5 L 581.800781 70.5 L 581.800781 75 L 568.304688 75 Z M 584.050781 70.5 L 597.546875 70.5 L 597.546875 75 L 584.050781 75 Z M 599.796875 70.5 L 613.296875 70.5 L 613.296875 75 L 599.796875 75 Z M 615.546875 70.5 L 629.042969 70.5 L 629.042969 75 L 615.546875 75 Z M 631.292969 70.5 L 644.789062 70.5 L 644.789062 75 L 631.292969 75 Z M 647.039062 70.5 L 660.535156 70.5 L 660.535156 75 L 647.039062 75 Z M 662.785156 70.5 L 676.28125 70.5 L 676.28125 75 L 662.785156 75 Z M 678.53125 70.5 L 692.03125 70.5 L 692.03125 75 L 678.53125 75 Z M 694.28125 70.5 L 707.777344 70.5 L 707.777344 75 L 694.28125 75 Z M 710.027344 70.5 L 723.523438 70.5 L 723.523438 75 L 710.027344 75 Z M 725.773438 70.5 L 739.269531 70.5 L 739.269531 75 L 725.773438 75 Z M 741.519531 70.5 L 755.019531 70.5 L 755.019531 75 L 741.519531 75 Z M 757.265625 70.5 L 770.765625 70.5 L 770.765625 75 L 757.265625 75 Z M 773.015625 70.5 L 786.511719 70.5 L 786.511719 75 L 773.015625 75 Z M 788.761719 70.5 L 802.257812 70.5 L 802.257812 75 L 788.761719 75 Z M 804.507812 70.5 L 818.003906 70.5 L 818.003906 75 L 804.507812 75 Z M 820.253906 70.5 L 833.753906 70.5 L 833.753906 75 L 820.253906 75 Z M 836 70.5 L 849.5 70.5 L 849.5 75 L 836 75 Z M 851.75 70.5 L 865.246094 70.5 L 865.246094 75 L 851.75 75 Z M 867.496094 70.5 L 880.992188 70.5 L 880.992188 75 L 867.496094 75 Z M 883.242188 70.5 L 896.738281 70.5 L 896.738281 75 L 883.242188 75 Z M 898.988281 70.5 L 912.488281 70.5 L 912.488281 75 L 898.988281 75 Z M 914.738281 70.5 L 928.234375 70.5 L 928.234375 75 L 914.738281 75 Z M 930.484375 70.5 L 943.980469 70.5 L 943.980469 75 L 930.484375 75 Z M 946.230469 70.5 L 959.726562 70.5 L 959.726562 75 L 946.230469 75 Z M 961.976562 70.5 L 975.472656 70.5 L 975.472656 75 L 961.976562 75 Z M 977.722656 70.5 L 991.222656 70.5 L 991.222656 75 L 977.722656 75 Z M 993.472656 70.5 L 1006.96875 70.5 L 1006.96875 75 L 993.472656 75 Z M 1009.21875 70.5 L 1022.714844 70.5 L 1022.714844 75 L 1009.21875 75 Z M 1024.964844 70.5 L 1038.460938 70.5 L 1038.460938 75 L 1024.964844 75 Z M 1040.710938 70.5 L 1054.210938 70.5 L 1054.210938 75 L 1040.710938 75 Z M 1056.457031 70.5 L 1069.957031 70.5 L 1069.957031 75 L 1056.457031 75 Z M 1072.207031 70.5 L 1085.703125 70.5 L 1085.703125 75 L 1072.207031 75 Z M 1087.953125 70.5 L 1101.449219 70.5 L 1101.449219 75 L 1087.953125 75 Z M 1103.699219 70.5 L 1117.195312 70.5 L 1117.195312 75 L 1103.699219 75 Z M 1119.445312 70.5 L 1132.945312 70.5 L 1132.945312 75 L 1119.445312 75 Z M 1135.191406 70.5 L 1148.691406 70.5 L 1148.691406 75 L 1135.191406 75 Z M 1150.941406 70.5 L 1164.4375 70.5 L 1164.4375 75 L 1150.941406 75 Z M 1166.6875 70.5 L 1180.183594 70.5 L 1180.183594 75 L 1166.6875 75 Z M 1182.433594 70.5 L 1195.929688 70.5 L 1195.929688 75 L 1182.433594 75 Z M 1198.179688 70.5 L 1211.679688 70.5 L 1211.679688 75 L 1198.179688 75 Z M 1213.925781 70.5 L 1227.425781 70.5 L 1227.425781 75 L 1213.925781 75 Z M 1229.675781 70.5 L 1243.171875 70.5 L 1243.171875 75 L 1229.675781 75 Z M 1245.421875 70.5 L 1249.394531 70.5 C 1252.78125 70.5 1256.113281 70.917969 1259.394531 71.753906 L 1258.285156 76.113281 C 1255.367188 75.371094 1252.402344 75 1249.394531 75 L 1245.421875 75 Z M 1261.6875 72.410156 C 1266.277344 73.875 1270.472656 76.082031 1274.269531 79.042969 L 1271.507812 82.59375 C 1268.128906 79.964844 1264.402344 78 1260.320312 76.699219 Z M 1276.109375 80.5625 C 1276.765625 81.140625 1277.40625 81.742188 1278.023438 82.359375 C 1280.804688 85.140625 1283.128906 88.257812 1285 91.710938 L 1281.042969 93.855469 C 1279.378906 90.785156 1277.3125 88.011719 1274.84375 85.542969 C 1274.292969 84.992188 1273.726562 84.457031 1273.140625 83.945312 Z M 1286.070312 93.839844 C 1288.113281 98.203125 1289.335938 102.785156 1289.742188 107.585938 L 1285.257812 107.964844 C 1284.898438 103.699219 1283.808594 99.625 1281.996094 95.746094 Z M 1289.871094 109.976562 C 1289.882812 110.320312 1289.886719 110.660156 1289.886719 111 L 1289.886719 123.539062 L 1285.386719 123.539062 L 1285.386719 111 C 1285.386719 110.695312 1285.382812 110.390625 1285.375 110.085938 Z M 1289.886719 125.789062 L 1289.886719 139.289062 L 1285.386719 139.289062 L 1285.386719 125.789062 Z M 1289.886719 141.539062 L 1289.886719 155.039062 L 1285.386719 155.039062 L 1285.386719 141.539062 Z M 1289.886719 157.289062 L 1289.886719 170.789062 L 1285.386719 170.789062 L 1285.386719 157.289062 Z M 1289.886719 173.039062 L 1289.886719 186.539062 L 1285.386719 186.539062 L 1285.386719 173.039062 Z M 1289.886719 188.789062 L 1289.886719 202.289062 L 1285.386719 202.289062 L 1285.386719 188.789062 Z M 1289.886719 204.539062 L 1289.886719 218.039062 L 1285.386719 218.039062 L 1285.386719 204.539062 Z M 1289.886719 220.289062 L 1289.886719 233.789062 L 1285.386719 233.789062 L 1285.386719 220.289062 Z M 1289.886719 236.039062 L 1289.886719 249.539062 L 1285.386719 249.539062 L 1285.386719 236.039062 Z M 1289.886719 251.789062 L 1289.886719 265.289062 L 1285.386719 265.289062 L 1285.386719 251.789062 Z M 1289.886719 267.539062 L 1289.886719 281.039062 L 1285.386719 281.039062 L 1285.386719 267.539062 Z M 1289.886719 283.289062 L 1289.886719 296.789062 L 1285.386719 296.789062 L 1285.386719 283.289062 Z M 1289.886719 299.039062 L 1289.886719 312.539062 L 1285.386719 312.539062 L 1285.386719 299.039062 Z M 1289.886719 314.789062 L 1289.886719 328.289062 L 1285.386719 328.289062 L 1285.386719 314.789062 Z M 1289.886719 330.539062 L 1289.886719 344.039062 L 1285.386719 344.039062 L 1285.386719 330.539062 Z M 1289.886719 346.289062 L 1289.886719 359.789062 L 1285.386719 359.789062 L 1285.386719 346.289062 Z M 1289.886719 362.039062 L 1289.886719 375.539062 L 1285.386719 375.539062 L 1285.386719 362.039062 Z M 1289.886719 377.789062 L 1289.886719 391.289062 L 1285.386719 391.289062 L 1285.386719 377.789062 Z M 1289.886719 393.539062 L 1289.886719 407.039062 L 1285.386719 407.039062 L 1285.386719 393.539062 Z M 1289.886719 409.289062 L 1289.886719 422.789062 L 1285.386719 422.789062 L 1285.386719 409.289062 Z M 1289.886719 425.039062 L 1289.886719 438.539062 L 1285.386719 438.539062 L 1285.386719 425.039062 Z M 1289.886719 440.789062 L 1289.886719 454.289062 L 1285.386719 454.289062 L 1285.386719 440.789062 Z M 1289.886719 456.539062 L 1289.886719 470.039062 L 1285.386719 470.039062 L 1285.386719 456.539062 Z M 1289.886719 472.289062 L 1289.886719 485.789062 L 1285.386719 485.789062 L 1285.386719 472.289062 Z M 1289.886719 488.039062 L 1289.886719 501.539062 L 1285.386719 501.539062 L 1285.386719 488.039062 Z M 1289.886719 503.789062 L 1289.886719 517.289062 L 1285.386719 517.289062 L 1285.386719 503.789062 Z M 1289.886719 519.539062 L 1289.886719 533.039062 L 1285.386719 533.039062 L 1285.386719 519.539062 Z M 1289.886719 535.289062 L 1289.886719 548.789062 L 1285.386719 548.789062 L 1285.386719 535.289062 Z M 1289.886719 551.039062 L 1289.886719 564.539062 L 1285.386719 564.539062 L 1285.386719 551.039062 Z M 1289.886719 566.789062 L 1289.886719 580.289062 L 1285.386719 580.289062 L 1285.386719 566.789062 Z M 1289.886719 582.539062 L 1289.886719 596.039062 L 1285.386719 596.039062 L 1285.386719 582.539062 Z M 1289.886719 598.289062 L 1289.886719 611.789062 L 1285.386719 611.789062 L 1285.386719 598.289062 Z M 1289.886719 614.039062 L 1289.886719 627.539062 L 1285.386719 627.539062 L 1285.386719 614.039062 Z M 1289.886719 629.789062 L 1289.886719 643.289062 L 1285.386719 643.289062 L 1285.386719 629.789062 Z M 1289.886719 645.539062 L 1289.886719 659.039062 L 1285.386719 659.039062 L 1285.386719 645.539062 Z M 1289.886719 661.289062 L 1289.886719 674.789062 L 1285.386719 674.789062 L 1285.386719 661.289062 Z M 1289.886719 677.039062 L 1289.886719 690.539062 L 1285.386719 690.539062 L 1285.386719 677.039062 Z M 1289.886719 692.789062 L 1289.886719 699 C 1289.886719 701.585938 1289.640625 704.148438 1289.148438 706.683594 L 1284.730469 705.832031 C 1285.167969 703.574219 1285.386719 701.296875 1285.386719 699 L 1285.386719 692.789062 Z M 1288.628906 709.015625 C 1287.433594 713.6875 1285.472656 718.003906 1282.738281 721.976562 L 1279.035156 719.421875 C 1281.464844 715.894531 1283.207031 712.054688 1284.269531 707.902344 Z M 1281.332031 723.890625 C 1280.308594 725.207031 1279.207031 726.457031 1278.023438 727.636719 C 1275.816406 729.847656 1273.382812 731.773438 1270.726562 733.421875 L 1268.359375 729.597656 C 1270.71875 728.132812 1272.878906 726.417969 1274.84375 724.453125 C 1275.894531 723.40625 1276.875 722.296875 1277.785156 721.125 Z M 1268.664062 734.617188 C 1264.425781 736.910156 1259.925781 738.398438 1255.160156 739.085938 L 1254.519531 734.632812 C 1258.753906 734.023438 1262.757812 732.699219 1266.523438 730.660156 Z M 1252.792969 739.355469 C 1251.660156 739.449219 1250.527344 739.5 1249.394531 739.5 L 1239.089844 739.5 L 1239.089844 735 L 1249.394531 735 C 1250.402344 735 1251.410156 734.957031 1252.414062 734.871094 Z M 1236.839844 739.5 L 1223.34375 739.5 L 1223.34375 735 L 1236.839844 735 Z M 1221.09375 739.5 L 1207.597656 739.5 L 1207.597656 735 L 1221.09375 735 Z M 1205.347656 739.5 L 1191.851562 739.5 L 1191.851562 735 L 1205.347656 735 Z M 1189.601562 739.5 L 1176.101562 739.5 L 1176.101562 735 L 1189.601562 735 Z M 1173.855469 739.5 L 1160.355469 739.5 L 1160.355469 735 L 1173.855469 735 Z M 1158.105469 739.5 L 1144.609375 739.5 L 1144.609375 735 L 1158.105469 735 Z M 1142.359375 739.5 L 1128.863281 739.5 L 1128.863281 735 L 1142.359375 735 Z M 1126.613281 739.5 L 1113.117188 739.5 L 1113.117188 735 L 1126.613281 735 Z M 1110.867188 739.5 L 1097.367188 739.5 L 1097.367188 735 L 1110.867188 735 Z M 1095.121094 739.5 L 1081.621094 739.5 L 1081.621094 735 L 1095.121094 735 Z M 1079.371094 739.5 L 1065.875 739.5 L 1065.875 735 L 1079.371094 735 Z M 1063.625 739.5 L 1050.128906 739.5 L 1050.128906 735 L 1063.625 735 Z M 1047.878906 739.5 L 1034.382812 739.5 L 1034.382812 735 L 1047.878906 735 Z M 1032.132812 739.5 L 1018.632812 739.5 L 1018.632812 735 L 1032.132812 735 Z M 1016.382812 739.5 L 1002.886719 739.5 L 1002.886719 735 L 1016.382812 735 Z M 1000.636719 739.5 L 987.140625 739.5 L 987.140625 735 L 1000.636719 735 Z M 984.890625 739.5 L 971.394531 739.5 L 971.394531 735 L 984.890625 735 Z M 969.144531 739.5 L 955.648438 739.5 L 955.648438 735 L 969.144531 735 Z M 953.398438 739.5 L 939.898438 739.5 L 939.898438 735 L 953.398438 735 Z M 937.648438 739.5 L 924.152344 739.5 L 924.152344 735 L 937.648438 735 Z M 921.902344 739.5 L 908.40625 739.5 L 908.40625 735 L 921.902344 735 Z M 906.15625 739.5 L 892.660156 739.5 L 892.660156 735 L 906.15625 735 Z M 890.410156 739.5 L 876.910156 739.5 L 876.910156 735 L 890.410156 735 Z M 874.664062 739.5 L 861.164062 739.5 L 861.164062 735 L 874.664062 735 Z M 858.914062 739.5 L 845.417969 739.5 L 845.417969 735 L 858.914062 735 Z M 843.167969 739.5 L 829.671875 739.5 L 829.671875 735 L 843.167969 735 Z M 827.421875 739.5 L 813.925781 739.5 L 813.925781 735 L 827.421875 735 Z M 811.675781 739.5 L 798.175781 739.5 L 798.175781 735 L 811.675781 735 Z M 795.929688 739.5 L 782.429688 739.5 L 782.429688 735 L 795.929688 735 Z M 780.179688 739.5 L 766.683594 739.5 L 766.683594 735 L 780.179688 735 Z M 764.433594 739.5 L 750.9375 739.5 L 750.9375 735 L 764.433594 735 Z M 748.6875 739.5 L 735.191406 739.5 L 735.191406 735 L 748.6875 735 Z M 732.941406 739.5 L 719.441406 739.5 L 719.441406 735 L 732.941406 735 Z M 717.195312 739.5 L 703.695312 739.5 L 703.695312 735 L 717.195312 735 Z M 701.445312 739.5 L 687.949219 739.5 L 687.949219 735 L 701.445312 735 Z M 685.699219 739.5 L 672.203125 739.5 L 672.203125 735 L 685.699219 735 Z M 669.953125 739.5 L 656.457031 739.5 L 656.457031 735 L 669.953125 735 Z M 654.207031 739.5 L 640.707031 739.5 L 640.707031 735 L 654.207031 735 Z M 638.457031 739.5 L 624.960938 739.5 L 624.960938 735 L 638.457031 735 Z M 622.710938 739.5 L 609.214844 739.5 L 609.214844 735 L 622.710938 735 Z M 606.964844 739.5 L 593.46875 739.5 L 593.46875 735 L 606.964844 735 Z M 591.21875 739.5 L 577.722656 739.5 L 577.722656 735 L 591.21875 735 Z M 575.472656 739.5 L 561.972656 739.5 L 561.972656 735 L 575.472656 735 Z M 559.722656 739.5 L 546.226562 739.5 L 546.226562 735 L 559.722656 735 Z M 543.976562 739.5 L 530.480469 739.5 L 530.480469 735 L 543.976562 735 Z M 528.230469 739.5 L 514.734375 739.5 L 514.734375 735 L 528.230469 735 Z M 512.484375 739.5 L 498.984375 739.5 L 498.984375 735 L 512.484375 735 Z M 496.738281 739.5 L 483.238281 739.5 L 483.238281 735 L 496.738281 735 Z M 480.988281 739.5 L 467.492188 739.5 L 467.492188 735 L 480.988281 735 Z M 465.242188 739.5 L 451.746094 739.5 L 451.746094 735 L 465.242188 735 Z M 449.496094 739.5 L 436 739.5 L 436 735 L 449.496094 735 Z M 433.75 739.5 L 420.25 739.5 L 420.25 735 L 433.75 735 Z M 418.003906 739.5 L 404.503906 739.5 L 404.503906 735 L 418.003906 735 Z M 402.253906 739.5 L 388.757812 739.5 L 388.757812 735 L 402.253906 735 Z M 386.507812 739.5 L 373.011719 739.5 L 373.011719 735 L 386.507812 735 Z M 370.761719 739.5 L 357.265625 739.5 L 357.265625 735 L 370.761719 735 Z M 355.015625 739.5 L 341.515625 739.5 L 341.515625 735 L 355.015625 735 Z M 339.265625 739.5 L 325.769531 739.5 L 325.769531 735 L 339.265625 735 Z M 323.519531 739.5 L 310.023438 739.5 L 310.023438 735 L 323.519531 735 Z M 307.773438 739.5 L 294.277344 739.5 L 294.277344 735 L 307.773438 735 Z M 292.027344 739.5 L 278.53125 739.5 L 278.53125 735 L 292.027344 735 Z M 276.28125 739.5 L 262.78125 739.5 L 262.78125 735 L 276.28125 735 Z M 260.53125 739.5 L 247.035156 739.5 L 247.035156 735 L 260.53125 735 Z M 244.785156 739.5 L 231.289062 739.5 L 231.289062 735 L 244.785156 735 Z M 229.039062 739.5 L 215.542969 739.5 L 215.542969 735 L 229.039062 735 Z M 213.292969 739.5 L 199.792969 739.5 L 199.792969 735 L 213.292969 735 Z M 197.546875 739.5 L 190.378906 739.5 C 188.132812 739.5 185.902344 739.3125 183.6875 738.941406 L 184.433594 734.503906 C 186.398438 734.832031 188.382812 735 190.378906 735 L 197.546875 735 Z M 181.351562 738.480469 C 176.652344 737.40625 172.285156 735.550781 168.25 732.914062 L 170.707031 729.148438 C 174.296875 731.488281 178.179688 733.136719 182.355469 734.09375 Z M 166.296875 731.558594 C 164.683594 730.363281 163.167969 729.058594 161.746094 727.636719 C 159.78125 725.667969 158.035156 723.523438 156.511719 721.199219 L 160.273438 718.730469 C 161.628906 720.796875 163.179688 722.707031 164.929688 724.453125 C 166.191406 725.71875 167.539062 726.878906 168.972656 727.941406 Z M 155.261719 719.160156 C 152.863281 714.980469 151.261719 710.515625 150.457031 705.765625 L 154.890625 705.015625 C 155.605469 709.238281 157.03125 713.207031 159.164062 716.921875 Z M 150.128906 703.410156 C 149.96875 701.945312 149.886719 700.472656 149.886719 699 L 149.886719 689.652344 L 154.386719 689.652344 L 154.386719 699 C 154.386719 700.308594 154.457031 701.617188 154.601562 702.921875 Z M 149.886719 687.402344 L 149.886719 673.902344 L 154.386719 673.902344 L 154.386719 687.402344 Z M 149.886719 671.652344 L 149.886719 658.152344 L 154.386719 658.152344 L 154.386719 671.652344 Z M 149.886719 655.902344 L 149.886719 642.402344 L 154.386719 642.402344 L 154.386719 655.902344 Z M 149.886719 640.152344 L 149.886719 626.652344 L 154.386719 626.652344 L 154.386719 640.152344 Z M 149.886719 624.402344 L 149.886719 610.902344 L 154.386719 610.902344 L 154.386719 624.402344 Z M 149.886719 608.652344 L 149.886719 595.152344 L 154.386719 595.152344 L 154.386719 608.652344 Z M 149.886719 592.902344 L 149.886719 579.402344 L 154.386719 579.402344 L 154.386719 592.902344 Z M 149.886719 577.152344 L 149.886719 563.652344 L 154.386719 563.652344 L 154.386719 577.152344 Z M 149.886719 561.402344 L 149.886719 547.902344 L 154.386719 547.902344 L 154.386719 561.402344 Z M 149.886719 545.652344 L 149.886719 532.152344 L 154.386719 532.152344 L 154.386719 545.652344 Z M 149.886719 529.902344 L 149.886719 516.402344 L 154.386719 516.402344 L 154.386719 529.902344 Z M 149.886719 514.152344 L 149.886719 500.652344 L 154.386719 500.652344 L 154.386719 514.152344 Z M 149.886719 498.402344 L 149.886719 484.902344 L 154.386719 484.902344 L 154.386719 498.402344 Z M 149.886719 482.652344 L 149.886719 469.152344 L 154.386719 469.152344 L 154.386719 482.652344 Z M 149.886719 466.902344 L 149.886719 453.402344 L 154.386719 453.402344 L 154.386719 466.902344 Z M 149.886719 451.152344 L 149.886719 437.652344 L 154.386719 437.652344 L 154.386719 451.152344 Z M 149.886719 435.402344 L 149.886719 421.902344 L 154.386719 421.902344 L 154.386719 435.402344 Z M 149.886719 419.652344 L 149.886719 406.152344 L 154.386719 406.152344 L 154.386719 419.652344 Z M 149.886719 403.902344 L 149.886719 390.402344 L 154.386719 390.402344 L 154.386719 403.902344 Z M 149.886719 388.152344 L 149.886719 374.652344 L 154.386719 374.652344 L 154.386719 388.152344 Z M 149.886719 372.402344 L 149.886719 358.902344 L 154.386719 358.902344 L 154.386719 372.402344 Z M 149.886719 356.652344 L 149.886719 343.152344 L 154.386719 343.152344 L 154.386719 356.652344 Z M 149.886719 340.902344 L 149.886719 327.402344 L 154.386719 327.402344 L 154.386719 340.902344 Z M 149.886719 325.152344 L 149.886719 311.652344 L 154.386719 311.652344 L 154.386719 325.152344 Z M 149.886719 309.402344 L 149.886719 295.902344 L 154.386719 295.902344 L 154.386719 309.402344 Z M 149.886719 293.652344 L 149.886719 280.152344 L 154.386719 280.152344 L 154.386719 293.652344 Z M 149.886719 277.902344 L 149.886719 264.402344 L 154.386719 264.402344 L 154.386719 277.902344 Z M 149.886719 262.152344 L 149.886719 248.652344 L 154.386719 248.652344 L 154.386719 262.152344 Z M 149.886719 246.402344 L 149.886719 232.902344 L 154.386719 232.902344 L 154.386719 246.402344 Z M 149.886719 230.652344 L 149.886719 217.152344 L 154.386719 217.152344 L 154.386719 230.652344 Z M 149.886719 214.902344 L 149.886719 201.402344 L 154.386719 201.402344 L 154.386719 214.902344 Z M 149.886719 199.152344 L 149.886719 185.652344 L 154.386719 185.652344 L 154.386719 199.152344 Z M 149.886719 183.402344 L 149.886719 169.902344 L 154.386719 169.902344 L 154.386719 183.402344 Z M 149.886719 167.652344 L 149.886719 154.152344 L 154.386719 154.152344 L 154.386719 167.652344 Z M 149.886719 151.902344 L 149.886719 138.402344 L 154.386719 138.402344 L 154.386719 151.902344 Z M 149.886719 136.152344 L 149.886719 122.652344 L 154.386719 122.652344 L 154.386719 136.152344 Z M 149.886719 120.402344 L 149.886719 111 C 149.886719 109.542969 149.964844 108.09375 150.121094 106.648438 L 154.59375 107.132812 C 154.453125 108.417969 154.386719 109.707031 154.386719 111 L 154.386719 120.402344 Z M 150.445312 104.292969 C 151.242188 99.542969 152.835938 95.074219 155.230469 90.890625 L 159.136719 93.125 C 157.007812 96.84375 155.589844 100.8125 154.882812 105.039062 Z M 156.476562 88.851562 C 158.007812 86.507812 159.765625 84.34375 161.746094 82.359375 C 163.152344 80.953125 164.652344 79.660156 166.246094 78.476562 L 168.929688 82.089844 C 167.511719 83.140625 166.175781 84.292969 164.929688 85.542969 C 163.167969 87.304688 161.605469 89.226562 160.242188 91.3125 Z M 168.195312 77.117188 C 172.226562 74.476562 176.59375 72.613281 181.289062 71.53125 L 182.300781 75.917969 C 178.125 76.878906 174.246094 78.535156 170.660156 80.882812 Z M 183.625 71.066406 C 185.859375 70.6875 188.109375 70.5 190.378906 70.5 L 190.378906 75 C 188.363281 75 186.363281 75.167969 184.375 75.503906 Z M 183.625 71.066406 " fill-opacity="1" fill-rule="nonzero"/></g></g></svg>