<svg xmlns="http://www.w3.org/2000/svg" xmlns:xlink="http://www.w3.org/1999/xlink" width="1920" zoomAndPan="magnify" viewBox="0 0 1440 809.999993" height="1080" preserveAspectRatio="xMidYMid meet" version="1.0"><defs><g/><clipPath id="f1c8ae054a"><path d="M 419.242188 269.28125 L 556.464844 269.28125 L 556.464844 348.621094 L 419.242188 348.621094 Z M 419.242188 269.28125 " clip-rule="nonzero"/></clipPath><clipPath id="ecd05847ad"><path d="M 487.300781 308.835938 L 556.269531 308.835938 L 556.269531 427.53125 L 487.300781 427.53125 Z M 487.300781 308.835938 " clip-rule="nonzero"/></clipPath><clipPath id="45307bb458"><path d="M 419.242188 308.835938 L 487.984375 308.835938 L 487.984375 427.53125 L 419.242188 427.53125 Z M 419.242188 308.835938 " clip-rule="nonzero"/></clipPath><clipPath id="853d88f059"><path d="M 418.082031 478.914062 L 552.296875 478.914062 L 552.296875 556.75 L 418.082031 556.75 Z M 418.082031 478.914062 " clip-rule="nonzero"/></clipPath><clipPath id="10d79c9b93"><path d="M 484.648438 517.71875 L 552 517.71875 L 552 634.164062 L 484.648438 634.164062 Z M 484.648438 517.71875 " clip-rule="nonzero"/></clipPath><clipPath id="70044eec7e"><path d="M 418.082031 517.71875 L 485.316406 517.71875 L 485.316406 634.164062 L 418.082031 634.164062 Z M 418.082031 517.71875 " clip-rule="nonzero"/></clipPath><clipPath id="0546584775"><path d="M 152.136719 72.75 L 1287.636719 72.75 L 1287.636719 737.25 L 152.136719 737.25 Z M 152.136719 72.75 " clip-rule="nonzero"/></clipPath><clipPath id="84103c5a29"><path d="M 190.378906 72.75 L 1249.394531 72.75 C 1259.535156 72.75 1269.261719 76.777344 1276.433594 83.953125 C 1283.605469 91.125 1287.636719 100.855469 1287.636719 111 L 1287.636719 699 C 1287.636719 709.144531 1283.605469 718.871094 1276.433594 726.046875 C 1269.261719 733.21875 1259.535156 737.25 1249.394531 737.25 L 190.378906 737.25 C 180.234375 737.25 170.507812 733.21875 163.335938 726.046875 C 156.164062 718.871094 152.136719 709.144531 152.136719 699 L 152.136719 111 C 152.136719 100.855469 156.164062 91.125 163.335938 83.953125 C 170.507812 76.777344 180.234375 72.75 190.378906 72.75 " clip-rule="nonzero"/></clipPath></defs><g fill="#526479" fill-opacity="1"><g transform="translate(564.56313, 112.051253)"><g><path d="M 3.234375 0 L 3.234375 -27.359375 L 12.625 -27.359375 C 14.144531 -27.359375 15.5625 -27.210938 16.875 -26.921875 C 18.1875 -26.628906 19.332031 -26.140625 20.3125 -25.453125 C 21.289062 -24.765625 22.066406 -23.851562 22.640625 -22.71875 C 23.210938 -21.59375 23.5 -20.203125 23.5 -18.546875 C 23.5 -16.953125 23.210938 -15.566406 22.640625 -14.390625 C 22.066406 -13.210938 21.289062 -12.242188 20.3125 -11.484375 C 19.332031 -10.734375 18.195312 -10.175781 16.90625 -9.8125 C 15.625 -9.457031 14.253906 -9.28125 12.796875 -9.28125 L 9.40625 -9.28125 L 9.40625 0 Z M 9.40625 -14.1875 L 12.421875 -14.1875 C 15.773438 -14.1875 17.453125 -15.640625 17.453125 -18.546875 C 17.453125 -19.972656 17.003906 -20.976562 16.109375 -21.5625 C 15.210938 -22.15625 13.925781 -22.453125 12.25 -22.453125 L 9.40625 -22.453125 Z M 9.40625 -14.1875 "/></g></g></g><g fill="#526479" fill-opacity="1"><g transform="translate(589.574134, 112.051253)"><g><path d="M 7.96875 0.5 C 7.019531 0.5 6.160156 0.335938 5.390625 0.015625 C 4.617188 -0.304688 3.96875 -0.753906 3.4375 -1.328125 C 2.90625 -1.898438 2.492188 -2.5625 2.203125 -3.3125 C 1.910156 -4.070312 1.765625 -4.898438 1.765625 -5.796875 C 1.765625 -7.972656 2.6875 -9.675781 4.53125 -10.90625 C 6.375 -12.144531 9.351562 -12.972656 13.46875 -13.390625 C 13.414062 -14.304688 13.144531 -15.035156 12.65625 -15.578125 C 12.164062 -16.128906 11.347656 -16.40625 10.203125 -16.40625 C 9.304688 -16.40625 8.414062 -16.238281 7.53125 -15.90625 C 6.65625 -15.570312 5.710938 -15.109375 4.703125 -14.515625 L 2.46875 -18.59375 C 3.8125 -19.40625 5.21875 -20.0625 6.6875 -20.5625 C 8.15625 -21.0625 9.71875 -21.3125 11.375 -21.3125 C 14.0625 -21.3125 16.109375 -20.550781 17.515625 -19.03125 C 18.929688 -17.507812 19.640625 -15.140625 19.640625 -11.921875 L 19.640625 0 L 14.609375 0 L 14.1875 -2.140625 L 14.015625 -2.140625 C 13.117188 -1.359375 12.179688 -0.722656 11.203125 -0.234375 C 10.222656 0.253906 9.144531 0.5 7.96875 0.5 Z M 10.078125 -4.28125 C 10.773438 -4.28125 11.375 -4.429688 11.875 -4.734375 C 12.375 -5.046875 12.90625 -5.484375 13.46875 -6.046875 L 13.46875 -9.6875 C 11.289062 -9.382812 9.78125 -8.9375 8.9375 -8.34375 C 8.101562 -7.757812 7.6875 -7.0625 7.6875 -6.25 C 7.6875 -5.582031 7.898438 -5.085938 8.328125 -4.765625 C 8.765625 -4.441406 9.347656 -4.28125 10.078125 -4.28125 Z M 10.078125 -4.28125 "/></g></g></g><g fill="#526479" fill-opacity="1"><g transform="translate(611.689566, 112.051253)"><g><path d="M 11.796875 0.5 C 10.335938 0.5 8.984375 0.253906 7.734375 -0.234375 C 6.492188 -0.722656 5.410156 -1.425781 4.484375 -2.34375 C 3.566406 -3.269531 2.84375 -4.410156 2.3125 -5.765625 C 1.78125 -7.128906 1.515625 -8.675781 1.515625 -10.40625 C 1.515625 -12.144531 1.804688 -13.691406 2.390625 -15.046875 C 2.984375 -16.398438 3.773438 -17.535156 4.765625 -18.453125 C 5.753906 -19.378906 6.90625 -20.085938 8.21875 -20.578125 C 9.539062 -21.066406 10.914062 -21.3125 12.34375 -21.3125 C 13.625 -21.3125 14.757812 -21.101562 15.75 -20.6875 C 16.75 -20.269531 17.640625 -19.738281 18.421875 -19.09375 L 15.53125 -15.109375 C 14.550781 -15.921875 13.613281 -16.328125 12.71875 -16.328125 C 11.207031 -16.328125 10.015625 -15.796875 9.140625 -14.734375 C 8.273438 -13.671875 7.84375 -12.226562 7.84375 -10.40625 C 7.84375 -8.59375 8.285156 -7.148438 9.171875 -6.078125 C 10.054688 -5.015625 11.164062 -4.484375 12.5 -4.484375 C 13.175781 -4.484375 13.828125 -4.628906 14.453125 -4.921875 C 15.085938 -5.222656 15.679688 -5.582031 16.234375 -6 L 18.671875 -1.96875 C 17.640625 -1.070312 16.519531 -0.4375 15.3125 -0.0625 C 14.113281 0.3125 12.941406 0.5 11.796875 0.5 Z M 11.796875 0.5 "/></g></g></g><g fill="#526479" fill-opacity="1"><g transform="translate(631.287115, 112.051253)"><g><path d="M 2.734375 0 L 2.734375 -29.421875 L 8.734375 -29.421875 L 8.734375 -12.546875 L 8.890625 -12.546875 L 15.484375 -20.8125 L 22.203125 -20.8125 L 14.90625 -12.25 L 22.75 0 L 16.078125 0 L 11.375 -8.09375 L 8.734375 -5.125 L 8.734375 0 Z M 2.734375 0 "/></g></g></g><g fill="#526479" fill-opacity="1"><g transform="translate(654.28381, 112.051253)"><g><path d="M 7.96875 0.5 C 7.019531 0.5 6.160156 0.335938 5.390625 0.015625 C 4.617188 -0.304688 3.96875 -0.753906 3.4375 -1.328125 C 2.90625 -1.898438 2.492188 -2.5625 2.203125 -3.3125 C 1.910156 -4.070312 1.765625 -4.898438 1.765625 -5.796875 C 1.765625 -7.972656 2.6875 -9.675781 4.53125 -10.90625 C 6.375 -12.144531 9.351562 -12.972656 13.46875 -13.390625 C 13.414062 -14.304688 13.144531 -15.035156 12.65625 -15.578125 C 12.164062 -16.128906 11.347656 -16.40625 10.203125 -16.40625 C 9.304688 -16.40625 8.414062 -16.238281 7.53125 -15.90625 C 6.65625 -15.570312 5.710938 -15.109375 4.703125 -14.515625 L 2.46875 -18.59375 C 3.8125 -19.40625 5.21875 -20.0625 6.6875 -20.5625 C 8.15625 -21.0625 9.71875 -21.3125 11.375 -21.3125 C 14.0625 -21.3125 16.109375 -20.550781 17.515625 -19.03125 C 18.929688 -17.507812 19.640625 -15.140625 19.640625 -11.921875 L 19.640625 0 L 14.609375 0 L 14.1875 -2.140625 L 14.015625 -2.140625 C 13.117188 -1.359375 12.179688 -0.722656 11.203125 -0.234375 C 10.222656 0.253906 9.144531 0.5 7.96875 0.5 Z M 10.078125 -4.28125 C 10.773438 -4.28125 11.375 -4.429688 11.875 -4.734375 C 12.375 -5.046875 12.90625 -5.484375 13.46875 -6.046875 L 13.46875 -9.6875 C 11.289062 -9.382812 9.78125 -8.9375 8.9375 -8.34375 C 8.101562 -7.757812 7.6875 -7.0625 7.6875 -6.25 C 7.6875 -5.582031 7.898438 -5.085938 8.328125 -4.765625 C 8.765625 -4.441406 9.347656 -4.28125 10.078125 -4.28125 Z M 10.078125 -4.28125 "/></g></g></g><g fill="#526479" fill-opacity="1"><g transform="translate(676.399242, 112.051253)"><g><path d="M 10.15625 8.859375 C 8.925781 8.859375 7.785156 8.75 6.734375 8.53125 C 5.679688 8.320312 4.753906 8.007812 3.953125 7.59375 C 3.160156 7.175781 2.539062 6.628906 2.09375 5.953125 C 1.644531 5.285156 1.421875 4.488281 1.421875 3.5625 C 1.421875 1.882812 2.414062 0.488281 4.40625 -0.625 L 4.40625 -0.796875 C 3.84375 -1.160156 3.378906 -1.617188 3.015625 -2.171875 C 2.648438 -2.734375 2.46875 -3.453125 2.46875 -4.328125 C 2.46875 -5.078125 2.691406 -5.796875 3.140625 -6.484375 C 3.585938 -7.171875 4.148438 -7.75 4.828125 -8.21875 L 4.828125 -8.390625 C 4.097656 -8.898438 3.445312 -9.625 2.875 -10.5625 C 2.300781 -11.5 2.015625 -12.582031 2.015625 -13.8125 C 2.015625 -15.070312 2.25 -16.171875 2.71875 -17.109375 C 3.195312 -18.046875 3.832031 -18.828125 4.625 -19.453125 C 5.425781 -20.078125 6.34375 -20.539062 7.375 -20.84375 C 8.414062 -21.15625 9.5 -21.3125 10.625 -21.3125 C 11.851562 -21.3125 12.925781 -21.144531 13.84375 -20.8125 L 21.453125 -20.8125 L 21.453125 -16.328125 L 18.125 -16.328125 C 18.320312 -16.015625 18.484375 -15.617188 18.609375 -15.140625 C 18.734375 -14.671875 18.796875 -14.15625 18.796875 -13.59375 C 18.796875 -12.394531 18.585938 -11.351562 18.171875 -10.46875 C 17.753906 -9.59375 17.171875 -8.863281 16.421875 -8.28125 C 15.679688 -7.707031 14.816406 -7.28125 13.828125 -7 C 12.835938 -6.726562 11.769531 -6.59375 10.625 -6.59375 C 9.8125 -6.59375 8.96875 -6.734375 8.09375 -7.015625 C 7.820312 -6.785156 7.628906 -6.554688 7.515625 -6.328125 C 7.398438 -6.109375 7.34375 -5.816406 7.34375 -5.453125 C 7.34375 -4.921875 7.570312 -4.53125 8.03125 -4.28125 C 8.5 -4.03125 9.320312 -3.90625 10.5 -3.90625 L 13.84375 -3.90625 C 16.414062 -3.90625 18.378906 -3.488281 19.734375 -2.65625 C 21.097656 -1.832031 21.78125 -0.484375 21.78125 1.390625 C 21.78125 2.472656 21.503906 3.46875 20.953125 4.375 C 20.410156 5.289062 19.632812 6.078125 18.625 6.734375 C 17.625 7.390625 16.410156 7.90625 14.984375 8.28125 C 13.554688 8.664062 11.945312 8.859375 10.15625 8.859375 Z M 10.625 -10.328125 C 11.425781 -10.328125 12.097656 -10.613281 12.640625 -11.1875 C 13.191406 -11.757812 13.46875 -12.632812 13.46875 -13.8125 C 13.46875 -14.894531 13.191406 -15.722656 12.640625 -16.296875 C 12.097656 -16.878906 11.425781 -17.171875 10.625 -17.171875 C 9.8125 -17.171875 9.128906 -16.890625 8.578125 -16.328125 C 8.035156 -15.765625 7.765625 -14.925781 7.765625 -13.8125 C 7.765625 -12.632812 8.035156 -11.757812 8.578125 -11.1875 C 9.128906 -10.613281 9.8125 -10.328125 10.625 -10.328125 Z M 11.125 5 C 12.519531 5 13.664062 4.753906 14.5625 4.265625 C 15.457031 3.773438 15.90625 3.164062 15.90625 2.4375 C 15.90625 1.789062 15.628906 1.351562 15.078125 1.125 C 14.535156 0.90625 13.75 0.796875 12.71875 0.796875 L 10.578125 0.796875 C 9.847656 0.796875 9.257812 0.773438 8.8125 0.734375 C 8.363281 0.691406 7.972656 0.628906 7.640625 0.546875 C 6.878906 1.210938 6.5 1.898438 6.5 2.609375 C 6.5 3.390625 6.914062 3.984375 7.75 4.390625 C 8.59375 4.796875 9.71875 5 11.125 5 Z M 11.125 5 "/></g></g></g><g fill="#526479" fill-opacity="1"><g transform="translate(698.808432, 112.051253)"><g><path d="M 12.046875 0.5 C 10.566406 0.5 9.179688 0.253906 7.890625 -0.234375 C 6.597656 -0.722656 5.476562 -1.4375 4.53125 -2.375 C 3.582031 -3.3125 2.84375 -4.453125 2.3125 -5.796875 C 1.78125 -7.140625 1.515625 -8.675781 1.515625 -10.40625 C 1.515625 -12.082031 1.789062 -13.597656 2.34375 -14.953125 C 2.90625 -16.316406 3.640625 -17.46875 4.546875 -18.40625 C 5.460938 -19.34375 6.503906 -20.0625 7.671875 -20.5625 C 8.847656 -21.0625 10.066406 -21.3125 11.328125 -21.3125 C 12.816406 -21.3125 14.113281 -21.0625 15.21875 -20.5625 C 16.320312 -20.0625 17.242188 -19.363281 17.984375 -18.46875 C 18.722656 -17.570312 19.273438 -16.515625 19.640625 -15.296875 C 20.003906 -14.078125 20.1875 -12.753906 20.1875 -11.328125 C 20.1875 -10.773438 20.15625 -10.242188 20.09375 -9.734375 C 20.039062 -9.234375 19.988281 -8.859375 19.9375 -8.609375 L 7.46875 -8.609375 C 7.75 -7.097656 8.367188 -5.984375 9.328125 -5.265625 C 10.296875 -4.554688 11.484375 -4.203125 12.890625 -4.203125 C 14.367188 -4.203125 15.863281 -4.660156 17.375 -5.578125 L 19.4375 -1.84375 C 18.375 -1.113281 17.191406 -0.539062 15.890625 -0.125 C 14.585938 0.289062 13.304688 0.5 12.046875 0.5 Z M 7.421875 -12.671875 L 14.9375 -12.671875 C 14.9375 -13.847656 14.671875 -14.800781 14.140625 -15.53125 C 13.609375 -16.257812 12.710938 -16.625 11.453125 -16.625 C 10.472656 -16.625 9.613281 -16.300781 8.875 -15.65625 C 8.132812 -15.007812 7.648438 -14.015625 7.421875 -12.671875 Z M 7.421875 -12.671875 "/></g></g></g><g fill="#526479" fill-opacity="1"><g transform="translate(720.546186, 112.051253)"><g/></g></g><g fill="#526479" fill-opacity="1"><g transform="translate(728.939145, 112.051253)"><g><path d="M 14.640625 0.5 C 12.910156 0.5 11.273438 0.203125 9.734375 -0.390625 C 8.191406 -0.992188 6.835938 -1.882812 5.671875 -3.0625 C 4.515625 -4.238281 3.601562 -5.703125 2.9375 -7.453125 C 2.269531 -9.203125 1.9375 -11.222656 1.9375 -13.515625 C 1.9375 -15.773438 2.285156 -17.796875 2.984375 -19.578125 C 3.679688 -21.359375 4.613281 -22.863281 5.78125 -24.09375 C 6.957031 -25.320312 8.328125 -26.257812 9.890625 -26.90625 C 11.460938 -27.550781 13.117188 -27.875 14.859375 -27.875 C 16.617188 -27.875 18.195312 -27.515625 19.59375 -26.796875 C 21 -26.085938 22.160156 -25.253906 23.078125 -24.296875 L 19.8125 -20.359375 C 19.113281 -20.992188 18.378906 -21.515625 17.609375 -21.921875 C 16.835938 -22.328125 15.960938 -22.53125 14.984375 -22.53125 C 14.054688 -22.53125 13.179688 -22.328125 12.359375 -21.921875 C 11.535156 -21.515625 10.820312 -20.929688 10.21875 -20.171875 C 9.613281 -19.421875 9.132812 -18.5 8.78125 -17.40625 C 8.4375 -16.320312 8.265625 -15.09375 8.265625 -13.71875 C 8.265625 -10.894531 8.863281 -8.707031 10.0625 -7.15625 C 11.269531 -5.601562 12.882812 -4.828125 14.90625 -4.828125 C 16.019531 -4.828125 17.015625 -5.070312 17.890625 -5.5625 C 18.773438 -6.050781 19.554688 -6.660156 20.234375 -7.390625 L 23.5 -3.53125 C 21.207031 -0.84375 18.253906 0.5 14.640625 0.5 Z M 14.640625 0.5 "/></g></g></g><g fill="#526479" fill-opacity="1"><g transform="translate(753.362644, 112.051253)"><g><path d="M 11.671875 0.5 C 10.347656 0.5 9.070312 0.253906 7.84375 -0.234375 C 6.613281 -0.722656 5.53125 -1.425781 4.59375 -2.34375 C 3.65625 -3.269531 2.90625 -4.410156 2.34375 -5.765625 C 1.789062 -7.128906 1.515625 -8.675781 1.515625 -10.40625 C 1.515625 -12.144531 1.789062 -13.691406 2.34375 -15.046875 C 2.90625 -16.398438 3.65625 -17.535156 4.59375 -18.453125 C 5.53125 -19.378906 6.613281 -20.085938 7.84375 -20.578125 C 9.070312 -21.066406 10.347656 -21.3125 11.671875 -21.3125 C 12.984375 -21.3125 14.25 -21.066406 15.46875 -20.578125 C 16.6875 -20.085938 17.765625 -19.378906 18.703125 -18.453125 C 19.640625 -17.535156 20.382812 -16.398438 20.9375 -15.046875 C 21.5 -13.691406 21.78125 -12.144531 21.78125 -10.40625 C 21.78125 -8.675781 21.5 -7.128906 20.9375 -5.765625 C 20.382812 -4.410156 19.640625 -3.269531 18.703125 -2.34375 C 17.765625 -1.425781 16.6875 -0.722656 15.46875 -0.234375 C 14.25 0.253906 12.984375 0.5 11.671875 0.5 Z M 11.671875 -4.484375 C 12.929688 -4.484375 13.878906 -5.015625 14.515625 -6.078125 C 15.160156 -7.148438 15.484375 -8.59375 15.484375 -10.40625 C 15.484375 -12.226562 15.160156 -13.671875 14.515625 -14.734375 C 13.878906 -15.796875 12.929688 -16.328125 11.671875 -16.328125 C 10.378906 -16.328125 9.414062 -15.796875 8.78125 -14.734375 C 8.15625 -13.671875 7.84375 -12.226562 7.84375 -10.40625 C 7.84375 -8.59375 8.15625 -7.148438 8.78125 -6.078125 C 9.414062 -5.015625 10.378906 -4.484375 11.671875 -4.484375 Z M 11.671875 -4.484375 "/></g></g></g><g fill="#526479" fill-opacity="1"><g transform="translate(776.653087, 112.051253)"><g><path d="M 2.734375 0 L 2.734375 -20.8125 L 7.765625 -20.8125 L 8.1875 -18.171875 L 8.359375 -18.171875 C 9.242188 -19.015625 10.21875 -19.75 11.28125 -20.375 C 12.351562 -21 13.601562 -21.3125 15.03125 -21.3125 C 17.289062 -21.3125 18.929688 -20.570312 19.953125 -19.09375 C 20.972656 -17.613281 21.484375 -15.554688 21.484375 -12.921875 L 21.484375 0 L 15.3125 0 L 15.3125 -12.125 C 15.3125 -13.632812 15.109375 -14.671875 14.703125 -15.234375 C 14.296875 -15.796875 13.648438 -16.078125 12.765625 -16.078125 C 11.972656 -16.078125 11.296875 -15.898438 10.734375 -15.546875 C 10.179688 -15.203125 9.566406 -14.707031 8.890625 -14.0625 L 8.890625 0 Z M 2.734375 0 "/></g></g></g><g fill="#526479" fill-opacity="1"><g transform="translate(800.656931, 112.051253)"><g><path d="M 10.75 0.5 C 9.457031 0.5 8.351562 0.304688 7.4375 -0.078125 C 6.53125 -0.472656 5.789062 -1.019531 5.21875 -1.71875 C 4.644531 -2.414062 4.222656 -3.257812 3.953125 -4.25 C 3.691406 -5.25 3.5625 -6.347656 3.5625 -7.546875 L 3.5625 -15.984375 L 0.71875 -15.984375 L 0.71875 -20.5625 L 3.90625 -20.8125 L 4.609375 -26.359375 L 9.734375 -26.359375 L 9.734375 -20.8125 L 14.734375 -20.8125 L 14.734375 -15.984375 L 9.734375 -15.984375 L 9.734375 -7.640625 C 9.734375 -6.460938 9.976562 -5.613281 10.46875 -5.09375 C 10.957031 -4.582031 11.609375 -4.328125 12.421875 -4.328125 C 12.753906 -4.328125 13.09375 -4.367188 13.4375 -4.453125 C 13.789062 -4.535156 14.109375 -4.632812 14.390625 -4.75 L 15.359375 -0.25 C 14.796875 -0.0820312 14.132812 0.0820312 13.375 0.25 C 12.625 0.414062 11.75 0.5 10.75 0.5 Z M 10.75 0.5 "/></g></g></g><g fill="#526479" fill-opacity="1"><g transform="translate(816.729425, 112.051253)"><g><path d="M 12.046875 0.5 C 10.566406 0.5 9.179688 0.253906 7.890625 -0.234375 C 6.597656 -0.722656 5.476562 -1.4375 4.53125 -2.375 C 3.582031 -3.3125 2.84375 -4.453125 2.3125 -5.796875 C 1.78125 -7.140625 1.515625 -8.675781 1.515625 -10.40625 C 1.515625 -12.082031 1.789062 -13.597656 2.34375 -14.953125 C 2.90625 -16.316406 3.640625 -17.46875 4.546875 -18.40625 C 5.460938 -19.34375 6.503906 -20.0625 7.671875 -20.5625 C 8.847656 -21.0625 10.066406 -21.3125 11.328125 -21.3125 C 12.816406 -21.3125 14.113281 -21.0625 15.21875 -20.5625 C 16.320312 -20.0625 17.242188 -19.363281 17.984375 -18.46875 C 18.722656 -17.570312 19.273438 -16.515625 19.640625 -15.296875 C 20.003906 -14.078125 20.1875 -12.753906 20.1875 -11.328125 C 20.1875 -10.773438 20.15625 -10.242188 20.09375 -9.734375 C 20.039062 -9.234375 19.988281 -8.859375 19.9375 -8.609375 L 7.46875 -8.609375 C 7.75 -7.097656 8.367188 -5.984375 9.328125 -5.265625 C 10.296875 -4.554688 11.484375 -4.203125 12.890625 -4.203125 C 14.367188 -4.203125 15.863281 -4.660156 17.375 -5.578125 L 19.4375 -1.84375 C 18.375 -1.113281 17.191406 -0.539062 15.890625 -0.125 C 14.585938 0.289062 13.304688 0.5 12.046875 0.5 Z M 7.421875 -12.671875 L 14.9375 -12.671875 C 14.9375 -13.847656 14.671875 -14.800781 14.140625 -15.53125 C 13.609375 -16.257812 12.710938 -16.625 11.453125 -16.625 C 10.472656 -16.625 9.613281 -16.300781 8.875 -15.65625 C 8.132812 -15.007812 7.648438 -14.015625 7.421875 -12.671875 Z M 7.421875 -12.671875 "/></g></g></g><g fill="#526479" fill-opacity="1"><g transform="translate(838.467178, 112.051253)"><g><path d="M 0.59375 0 L 6.96875 -10.828125 L 0.96875 -20.8125 L 7.59375 -20.8125 L 9.4375 -17.453125 C 9.71875 -16.867188 10.003906 -16.273438 10.296875 -15.671875 C 10.597656 -15.066406 10.898438 -14.472656 11.203125 -13.890625 L 11.375 -13.890625 C 11.59375 -14.472656 11.828125 -15.066406 12.078125 -15.671875 C 12.335938 -16.273438 12.578125 -16.867188 12.796875 -17.453125 L 14.234375 -20.8125 L 20.609375 -20.8125 L 14.5625 -10.109375 L 20.984375 0 L 14.359375 0 L 12.34375 -3.4375 C 12 -4.03125 11.664062 -4.632812 11.34375 -5.25 C 11.03125 -5.863281 10.703125 -6.460938 10.359375 -7.046875 L 10.203125 -7.046875 C 9.953125 -6.460938 9.6875 -5.867188 9.40625 -5.265625 C 9.125 -4.660156 8.859375 -4.050781 8.609375 -3.4375 L 6.96875 0 Z M 0.59375 0 "/></g></g></g><g fill="#526479" fill-opacity="1"><g transform="translate(860.03707, 112.051253)"><g><path d="M 10.75 0.5 C 9.457031 0.5 8.351562 0.304688 7.4375 -0.078125 C 6.53125 -0.472656 5.789062 -1.019531 5.21875 -1.71875 C 4.644531 -2.414062 4.222656 -3.257812 3.953125 -4.25 C 3.691406 -5.25 3.5625 -6.347656 3.5625 -7.546875 L 3.5625 -15.984375 L 0.71875 -15.984375 L 0.71875 -20.5625 L 3.90625 -20.8125 L 4.609375 -26.359375 L 9.734375 -26.359375 L 9.734375 -20.8125 L 14.734375 -20.8125 L 14.734375 -15.984375 L 9.734375 -15.984375 L 9.734375 -7.640625 C 9.734375 -6.460938 9.976562 -5.613281 10.46875 -5.09375 C 10.957031 -4.582031 11.609375 -4.328125 12.421875 -4.328125 C 12.753906 -4.328125 13.09375 -4.367188 13.4375 -4.453125 C 13.789062 -4.535156 14.109375 -4.632812 14.390625 -4.75 L 15.359375 -0.25 C 14.796875 -0.0820312 14.132812 0.0820312 13.375 0.25 C 12.625 0.414062 11.75 0.5 10.75 0.5 Z M 10.75 0.5 "/></g></g></g><g fill="#526479" fill-opacity="1"><g transform="translate(426.002974, 213.943339)"><g><path d="M 7.34375 0 L 0 -22.9375 L 3.109375 -22.9375 L 6.78125 -10.5625 C 7.195312 -9.1875 7.5625 -7.914062 7.875 -6.75 C 8.195312 -5.582031 8.578125 -4.320312 9.015625 -2.96875 L 9.15625 -2.96875 C 9.582031 -4.320312 9.957031 -5.582031 10.28125 -6.75 C 10.601562 -7.914062 10.960938 -9.1875 11.359375 -10.5625 L 15.03125 -22.9375 L 18.015625 -22.9375 L 10.734375 0 Z M 7.34375 0 "/></g></g></g><g fill="#526479" fill-opacity="1"><g transform="translate(444.005857, 213.943339)"><g><path d="M 9.75 0.421875 C 8.613281 0.421875 7.550781 0.21875 6.5625 -0.1875 C 5.570312 -0.59375 4.707031 -1.175781 3.96875 -1.9375 C 3.238281 -2.695312 2.660156 -3.625 2.234375 -4.71875 C 1.816406 -5.8125 1.609375 -7.0625 1.609375 -8.46875 C 1.609375 -9.863281 1.820312 -11.113281 2.25 -12.21875 C 2.6875 -13.320312 3.257812 -14.257812 3.96875 -15.03125 C 4.675781 -15.800781 5.484375 -16.390625 6.390625 -16.796875 C 7.304688 -17.210938 8.253906 -17.421875 9.234375 -17.421875 C 10.304688 -17.421875 11.265625 -17.234375 12.109375 -16.859375 C 12.960938 -16.484375 13.675781 -15.945312 14.25 -15.25 C 14.820312 -14.550781 15.257812 -13.710938 15.5625 -12.734375 C 15.863281 -11.753906 16.015625 -10.65625 16.015625 -9.4375 C 16.015625 -9.132812 16.007812 -8.835938 16 -8.546875 C 15.988281 -8.253906 15.957031 -8.003906 15.90625 -7.796875 L 4.4375 -7.796875 C 4.550781 -5.984375 5.113281 -4.546875 6.125 -3.484375 C 7.144531 -2.421875 8.472656 -1.890625 10.109375 -1.890625 C 10.921875 -1.890625 11.671875 -2.007812 12.359375 -2.25 C 13.046875 -2.5 13.707031 -2.820312 14.34375 -3.21875 L 15.34375 -1.328125 C 14.601562 -0.859375 13.773438 -0.445312 12.859375 -0.09375 C 11.953125 0.25 10.914062 0.421875 9.75 0.421875 Z M 4.40625 -9.859375 L 13.5 -9.859375 C 13.5 -11.585938 13.128906 -12.898438 12.390625 -13.796875 C 11.660156 -14.691406 10.628906 -15.140625 9.296875 -15.140625 C 8.691406 -15.140625 8.113281 -15.019531 7.5625 -14.78125 C 7.019531 -14.550781 6.523438 -14.207031 6.078125 -13.75 C 5.640625 -13.300781 5.273438 -12.75 4.984375 -12.09375 C 4.691406 -11.445312 4.5 -10.703125 4.40625 -9.859375 Z M 4.40625 -9.859375 "/></g></g></g><g fill="#526479" fill-opacity="1"><g transform="translate(461.344559, 213.943339)"><g><path d="M 2.875 0 L 2.875 -17 L 5.25 -17 L 5.484375 -13.921875 L 5.59375 -13.921875 C 6.175781 -14.992188 6.878906 -15.84375 7.703125 -16.46875 C 8.535156 -17.101562 9.441406 -17.421875 10.421875 -17.421875 C 11.097656 -17.421875 11.703125 -17.300781 12.234375 -17.0625 L 11.671875 -14.546875 C 11.398438 -14.640625 11.144531 -14.707031 10.90625 -14.75 C 10.675781 -14.800781 10.382812 -14.828125 10.03125 -14.828125 C 9.3125 -14.828125 8.5625 -14.535156 7.78125 -13.953125 C 7 -13.367188 6.316406 -12.351562 5.734375 -10.90625 L 5.734375 0 Z M 2.875 0 "/></g></g></g><g fill="#526479" fill-opacity="1"><g transform="translate(473.474655, 213.943339)"><g><path d="M 7.3125 0.421875 C 6.09375 0.421875 4.9375 0.203125 3.84375 -0.234375 C 2.75 -0.679688 1.796875 -1.242188 0.984375 -1.921875 L 2.40625 -3.84375 C 3.15625 -3.238281 3.921875 -2.75 4.703125 -2.375 C 5.484375 -2 6.382812 -1.8125 7.40625 -1.8125 C 8.53125 -1.8125 9.367188 -2.066406 9.921875 -2.578125 C 10.484375 -3.097656 10.765625 -3.726562 10.765625 -4.46875 C 10.765625 -4.914062 10.648438 -5.300781 10.421875 -5.625 C 10.191406 -5.957031 9.894531 -6.242188 9.53125 -6.484375 C 9.164062 -6.734375 8.75 -6.945312 8.28125 -7.125 C 7.820312 -7.3125 7.359375 -7.5 6.890625 -7.6875 C 6.285156 -7.90625 5.675781 -8.144531 5.0625 -8.40625 C 4.457031 -8.675781 3.914062 -9.003906 3.4375 -9.390625 C 2.96875 -9.773438 2.578125 -10.222656 2.265625 -10.734375 C 1.960938 -11.242188 1.8125 -11.863281 1.8125 -12.59375 C 1.8125 -13.269531 1.945312 -13.90625 2.21875 -14.5 C 2.488281 -15.09375 2.875 -15.601562 3.375 -16.03125 C 3.875 -16.46875 4.484375 -16.804688 5.203125 -17.046875 C 5.929688 -17.296875 6.75 -17.421875 7.65625 -17.421875 C 8.726562 -17.421875 9.710938 -17.234375 10.609375 -16.859375 C 11.503906 -16.484375 12.28125 -16.023438 12.9375 -15.484375 L 11.578125 -13.671875 C 10.992188 -14.117188 10.382812 -14.476562 9.75 -14.75 C 9.125 -15.03125 8.4375 -15.171875 7.6875 -15.171875 C 6.613281 -15.171875 5.828125 -14.925781 5.328125 -14.4375 C 4.828125 -13.945312 4.578125 -13.378906 4.578125 -12.734375 C 4.578125 -12.335938 4.679688 -11.992188 4.890625 -11.703125 C 5.097656 -11.410156 5.378906 -11.148438 5.734375 -10.921875 C 6.085938 -10.703125 6.488281 -10.503906 6.9375 -10.328125 C 7.394531 -10.160156 7.867188 -9.984375 8.359375 -9.796875 C 8.960938 -9.554688 9.570312 -9.304688 10.1875 -9.046875 C 10.8125 -8.796875 11.367188 -8.476562 11.859375 -8.09375 C 12.347656 -7.707031 12.75 -7.234375 13.0625 -6.671875 C 13.375 -6.117188 13.53125 -5.445312 13.53125 -4.65625 C 13.53125 -3.957031 13.394531 -3.300781 13.125 -2.6875 C 12.863281 -2.082031 12.46875 -1.546875 11.9375 -1.078125 C 11.414062 -0.617188 10.765625 -0.253906 9.984375 0.015625 C 9.203125 0.285156 8.3125 0.421875 7.3125 0.421875 Z M 7.3125 0.421875 "/></g></g></g><g fill="#526479" fill-opacity="1"><g transform="translate(488.121662, 213.943339)"><g><path d="M 2.875 0 L 2.875 -17 L 5.734375 -17 L 5.734375 0 Z M 4.34375 -20.484375 C 3.78125 -20.484375 3.304688 -20.660156 2.921875 -21.015625 C 2.535156 -21.367188 2.34375 -21.8125 2.34375 -22.34375 C 2.34375 -22.90625 2.535156 -23.351562 2.921875 -23.6875 C 3.304688 -24.03125 3.78125 -24.203125 4.34375 -24.203125 C 4.894531 -24.203125 5.363281 -24.03125 5.75 -23.6875 C 6.132812 -23.351562 6.328125 -22.90625 6.328125 -22.34375 C 6.328125 -21.8125 6.132812 -21.367188 5.75 -21.015625 C 5.363281 -20.660156 4.894531 -20.484375 4.34375 -20.484375 Z M 4.34375 -20.484375 "/></g></g></g><g fill="#526479" fill-opacity="1"><g transform="translate(496.721095, 213.943339)"><g><path d="M 9.46875 0.421875 C 8.425781 0.421875 7.429688 0.222656 6.484375 -0.171875 C 5.546875 -0.566406 4.710938 -1.144531 3.984375 -1.90625 C 3.265625 -2.664062 2.6875 -3.597656 2.25 -4.703125 C 1.820312 -5.804688 1.609375 -7.0625 1.609375 -8.46875 C 1.609375 -9.882812 1.820312 -11.144531 2.25 -12.25 C 2.6875 -13.363281 3.265625 -14.300781 3.984375 -15.0625 C 4.710938 -15.832031 5.546875 -16.414062 6.484375 -16.8125 C 7.429688 -17.21875 8.425781 -17.421875 9.46875 -17.421875 C 10.519531 -17.421875 11.515625 -17.21875 12.453125 -16.8125 C 13.398438 -16.414062 14.234375 -15.832031 14.953125 -15.0625 C 15.679688 -14.300781 16.257812 -13.363281 16.6875 -12.25 C 17.125 -11.144531 17.34375 -9.882812 17.34375 -8.46875 C 17.34375 -7.0625 17.125 -5.804688 16.6875 -4.703125 C 16.257812 -3.597656 15.679688 -2.664062 14.953125 -1.90625 C 14.234375 -1.144531 13.398438 -0.566406 12.453125 -0.171875 C 11.515625 0.222656 10.519531 0.421875 9.46875 0.421875 Z M 9.46875 -1.953125 C 10.195312 -1.953125 10.863281 -2.109375 11.46875 -2.421875 C 12.070312 -2.742188 12.585938 -3.1875 13.015625 -3.75 C 13.453125 -4.320312 13.785156 -5.003906 14.015625 -5.796875 C 14.253906 -6.597656 14.375 -7.488281 14.375 -8.46875 C 14.375 -9.445312 14.253906 -10.335938 14.015625 -11.140625 C 13.785156 -11.941406 13.453125 -12.632812 13.015625 -13.21875 C 12.585938 -13.800781 12.070312 -14.25 11.46875 -14.5625 C 10.863281 -14.875 10.195312 -15.03125 9.46875 -15.03125 C 8.75 -15.03125 8.085938 -14.875 7.484375 -14.5625 C 6.878906 -14.25 6.359375 -13.800781 5.921875 -13.21875 C 5.492188 -12.632812 5.160156 -11.941406 4.921875 -11.140625 C 4.691406 -10.335938 4.578125 -9.445312 4.578125 -8.46875 C 4.578125 -7.488281 4.691406 -6.597656 4.921875 -5.796875 C 5.160156 -5.003906 5.492188 -4.320312 5.921875 -3.75 C 6.359375 -3.1875 6.878906 -2.742188 7.484375 -2.421875 C 8.085938 -2.109375 8.75 -1.953125 9.46875 -1.953125 Z M 9.46875 -1.953125 "/></g></g></g><g fill="#526479" fill-opacity="1"><g transform="translate(515.667818, 213.943339)"><g><path d="M 2.875 0 L 2.875 -17 L 5.25 -17 L 5.484375 -14.546875 L 5.59375 -14.546875 C 6.40625 -15.359375 7.257812 -16.039062 8.15625 -16.59375 C 9.0625 -17.144531 10.109375 -17.421875 11.296875 -17.421875 C 13.085938 -17.421875 14.394531 -16.859375 15.21875 -15.734375 C 16.050781 -14.617188 16.46875 -12.960938 16.46875 -10.765625 L 16.46875 0 L 13.609375 0 L 13.609375 -10.390625 C 13.609375 -11.992188 13.347656 -13.148438 12.828125 -13.859375 C 12.316406 -14.578125 11.503906 -14.9375 10.390625 -14.9375 C 9.503906 -14.9375 8.722656 -14.710938 8.046875 -14.265625 C 7.367188 -13.828125 6.597656 -13.175781 5.734375 -12.3125 L 5.734375 0 Z M 2.875 0 "/></g></g></g><g fill="#526479" fill-opacity="1"><g transform="translate(534.789327, 213.943339)"><g><path d="M 7.3125 0.421875 C 6.09375 0.421875 4.9375 0.203125 3.84375 -0.234375 C 2.75 -0.679688 1.796875 -1.242188 0.984375 -1.921875 L 2.40625 -3.84375 C 3.15625 -3.238281 3.921875 -2.75 4.703125 -2.375 C 5.484375 -2 6.382812 -1.8125 7.40625 -1.8125 C 8.53125 -1.8125 9.367188 -2.066406 9.921875 -2.578125 C 10.484375 -3.097656 10.765625 -3.726562 10.765625 -4.46875 C 10.765625 -4.914062 10.648438 -5.300781 10.421875 -5.625 C 10.191406 -5.957031 9.894531 -6.242188 9.53125 -6.484375 C 9.164062 -6.734375 8.75 -6.945312 8.28125 -7.125 C 7.820312 -7.3125 7.359375 -7.5 6.890625 -7.6875 C 6.285156 -7.90625 5.675781 -8.144531 5.0625 -8.40625 C 4.457031 -8.675781 3.914062 -9.003906 3.4375 -9.390625 C 2.96875 -9.773438 2.578125 -10.222656 2.265625 -10.734375 C 1.960938 -11.242188 1.8125 -11.863281 1.8125 -12.59375 C 1.8125 -13.269531 1.945312 -13.90625 2.21875 -14.5 C 2.488281 -15.09375 2.875 -15.601562 3.375 -16.03125 C 3.875 -16.46875 4.484375 -16.804688 5.203125 -17.046875 C 5.929688 -17.296875 6.75 -17.421875 7.65625 -17.421875 C 8.726562 -17.421875 9.710938 -17.234375 10.609375 -16.859375 C 11.503906 -16.484375 12.28125 -16.023438 12.9375 -15.484375 L 11.578125 -13.671875 C 10.992188 -14.117188 10.382812 -14.476562 9.75 -14.75 C 9.125 -15.03125 8.4375 -15.171875 7.6875 -15.171875 C 6.613281 -15.171875 5.828125 -14.925781 5.328125 -14.4375 C 4.828125 -13.945312 4.578125 -13.378906 4.578125 -12.734375 C 4.578125 -12.335938 4.679688 -11.992188 4.890625 -11.703125 C 5.097656 -11.410156 5.378906 -11.148438 5.734375 -10.921875 C 6.085938 -10.703125 6.488281 -10.503906 6.9375 -10.328125 C 7.394531 -10.160156 7.867188 -9.984375 8.359375 -9.796875 C 8.960938 -9.554688 9.570312 -9.304688 10.1875 -9.046875 C 10.8125 -8.796875 11.367188 -8.476562 11.859375 -8.09375 C 12.347656 -7.707031 12.75 -7.234375 13.0625 -6.671875 C 13.375 -6.117188 13.53125 -5.445312 13.53125 -4.65625 C 13.53125 -3.957031 13.394531 -3.300781 13.125 -2.6875 C 12.863281 -2.082031 12.46875 -1.546875 11.9375 -1.078125 C 11.414062 -0.617188 10.765625 -0.253906 9.984375 0.015625 C 9.203125 0.285156 8.3125 0.421875 7.3125 0.421875 Z M 7.3125 0.421875 "/></g></g></g><g clip-path="url(#f1c8ae054a)"><path fill="#e8d6a2" d="M 487.851562 348.40625 L 556.464844 308.84375 L 487.851562 269.28125 L 419.242188 308.84375 L 487.851562 348.40625 " fill-opacity="1" fill-rule="nonzero"/></g><path fill="#b58850" d="M 515.890625 332.238281 L 528.425781 325.011719 L 459.816406 285.449219 L 447.28125 292.675781 L 515.890625 332.238281 " fill-opacity="1" fill-rule="nonzero"/><g clip-path="url(#ecd05847ad)"><path fill="#b58850" d="M 556.054688 387.96875 L 487.445312 427.53125 L 487.445312 348.40625 L 556.054688 308.84375 L 556.054688 387.96875 " fill-opacity="1" fill-rule="nonzero"/></g><path fill="#815300" d="M 528.015625 404.136719 L 515.484375 411.367188 L 515.484375 400.320312 L 528.015625 393.09375 L 528.015625 404.136719 " fill-opacity="1" fill-rule="nonzero"/><path fill="#815300" d="M 528.015625 336.054688 L 515.484375 343.285156 L 515.484375 332.238281 L 528.015625 325.011719 L 528.015625 336.054688 " fill-opacity="1" fill-rule="nonzero"/><g clip-path="url(#45307bb458)"><path fill="#d6b477" d="M 487.851562 427.53125 L 419.242188 387.96875 L 419.242188 308.84375 L 487.851562 348.40625 L 487.851562 427.53125 " fill-opacity="1" fill-rule="nonzero"/></g><path fill="#815300" d="M 448.820312 397.171875 L 436.496094 390.0625 L 436.496094 375.847656 L 448.820312 382.957031 Z M 435.863281 374.75 L 435.863281 390.429688 L 449.457031 398.265625 L 449.457031 382.589844 L 435.863281 374.75 " fill-opacity="1" fill-rule="nonzero"/><path fill="#815300" d="M 439.410156 388.613281 L 441.152344 389.617188 L 441.152344 383 L 442.144531 383.574219 L 440.28125 379.488281 L 438.421875 381.425781 L 439.410156 381.996094 L 439.410156 388.613281 " fill-opacity="1" fill-rule="nonzero"/><path fill="#815300" d="M 444.164062 391.351562 L 445.90625 392.355469 L 445.90625 385.742188 L 446.894531 386.3125 L 445.035156 382.230469 L 443.171875 384.167969 L 444.164062 384.738281 L 444.164062 391.351562 " fill-opacity="1" fill-rule="nonzero"/><path fill="#815300" d="M 447.613281 394.105469 L 437.703125 388.394531 L 437.703125 389.683594 L 447.613281 395.398438 L 447.613281 394.105469 " fill-opacity="1" fill-rule="nonzero"/><path fill="#815300" d="M 464.660156 406.304688 L 452.335938 399.195312 L 452.335938 384.980469 L 464.660156 392.089844 Z M 451.703125 383.886719 L 451.703125 399.5625 L 465.292969 407.398438 L 465.292969 391.722656 L 451.703125 383.886719 " fill-opacity="1" fill-rule="nonzero"/><path fill="#815300" d="M 458.03125 396.996094 L 458.03125 400.113281 L 456.589844 399.285156 C 456.34375 399.140625 456.144531 399.257812 456.144531 399.542969 L 456.144531 399.925781 L 460.851562 402.640625 L 460.851562 402.257812 C 460.851562 401.972656 460.652344 401.625 460.40625 401.484375 L 458.964844 400.652344 L 458.964844 397.535156 C 460.5 398.160156 461.679688 397.316406 461.679688 395.476562 L 461.679688 392.226562 L 459.902344 391.203125 L 459.261719 392.46875 L 460.75 393.328125 L 458.066406 395.394531 L 458.941406 393.25 L 457.558594 392.453125 L 458.480469 390.382812 L 455.316406 388.558594 L 455.316406 391.804688 C 455.316406 393.648438 456.496094 395.851562 458.03125 396.996094 " fill-opacity="1" fill-rule="nonzero"/><path fill="#815300" d="M 480.566406 415.476562 L 468.238281 408.367188 L 468.238281 394.152344 L 480.566406 401.261719 Z M 467.605469 393.054688 L 467.605469 408.734375 L 481.199219 416.570312 L 481.199219 400.894531 L 467.605469 393.054688 " fill-opacity="1" fill-rule="nonzero"/><path fill="#815300" d="M 472.460938 403.957031 C 472.957031 403.976562 473.523438 403.988281 474.128906 404.261719 C 474.113281 404.292969 474.101562 404.335938 474.101562 404.386719 L 474.101562 408.816406 C 474.101562 409.242188 473.804688 409.414062 473.433594 409.203125 C 473.066406 408.988281 472.765625 408.472656 472.765625 408.046875 C 472.765625 407.855469 472.632812 407.625 472.464844 407.527344 C 472.300781 407.429688 472.164062 407.507812 472.164062 407.699219 C 472.164062 408.507812 472.734375 409.492188 473.433594 409.894531 C 474.132812 410.296875 474.703125 409.972656 474.703125 409.164062 L 474.703125 404.734375 C 474.703125 404.683594 474.695312 404.628906 474.675781 404.578125 C 475.28125 405.003906 475.847656 405.640625 476.347656 406.195312 C 476.917969 406.21875 477.375 406.117188 478.085938 406.523438 C 478.472656 406.746094 479.046875 407.324219 479.398438 407.625 C 479.175781 405.199219 477.179688 402.058594 474.703125 400.480469 L 474.703125 399.40625 C 474.703125 399.214844 474.570312 398.984375 474.402344 398.886719 C 474.238281 398.789062 474.101562 398.867188 474.101562 399.058594 L 474.101562 400.128906 C 471.625 398.855469 469.632812 399.699219 469.40625 401.863281 C 469.761719 401.96875 470.335938 402.054688 470.722656 402.277344 C 471.429688 402.6875 471.886719 403.320312 472.460938 403.957031 " fill-opacity="1" fill-rule="nonzero"/><g fill="#004aad" fill-opacity="1"><g transform="translate(438.452942, 263.863528)"><g><path d="M 4.25 3.71875 C 3.375 2.289062 2.695312 0.8125 2.21875 -0.71875 C 1.738281 -2.257812 1.5 -3.945312 1.5 -5.78125 C 1.5 -7.613281 1.738281 -9.300781 2.21875 -10.84375 C 2.695312 -12.382812 3.375 -13.867188 4.25 -15.296875 L 6.15625 -14.5 C 5.394531 -13.144531 4.835938 -11.722656 4.484375 -10.234375 C 4.140625 -8.753906 3.96875 -7.269531 3.96875 -5.78125 C 3.96875 -4.300781 4.140625 -2.816406 4.484375 -1.328125 C 4.835938 0.148438 5.394531 1.570312 6.15625 2.9375 Z M 4.25 3.71875 "/></g></g></g><g fill="#004aad" fill-opacity="1"><g transform="translate(445.612446, 263.863528)"><g><path d="M 3.953125 0 L -0.140625 -13.5625 L 3.09375 -13.5625 L 4.71875 -7.25 C 4.925781 -6.5 5.109375 -5.769531 5.265625 -5.0625 C 5.429688 -4.363281 5.617188 -3.640625 5.828125 -2.890625 L 5.90625 -2.890625 C 6.101562 -3.640625 6.285156 -4.363281 6.453125 -5.0625 C 6.617188 -5.769531 6.800781 -6.5 7 -7.25 L 8.59375 -13.5625 L 11.71875 -13.5625 L 7.640625 0 Z M 3.953125 0 "/></g></g></g><g fill="#004aad" fill-opacity="1"><g transform="translate(457.184207, 263.863528)"><g><path d="M 5.96875 0.25 C 5.238281 0.25 4.550781 0.128906 3.90625 -0.109375 C 3.269531 -0.359375 2.71875 -0.710938 2.25 -1.171875 C 1.78125 -1.640625 1.410156 -2.207031 1.140625 -2.875 C 0.878906 -3.539062 0.75 -4.300781 0.75 -5.15625 C 0.75 -5.988281 0.882812 -6.738281 1.15625 -7.40625 C 1.4375 -8.082031 1.800781 -8.65625 2.25 -9.125 C 2.707031 -9.59375 3.226562 -9.953125 3.8125 -10.203125 C 4.394531 -10.453125 5 -10.578125 5.625 -10.578125 C 6.351562 -10.578125 6.988281 -10.453125 7.53125 -10.203125 C 8.082031 -9.953125 8.539062 -9.601562 8.90625 -9.15625 C 9.28125 -8.707031 9.554688 -8.179688 9.734375 -7.578125 C 9.921875 -6.984375 10.015625 -6.332031 10.015625 -5.625 C 10.015625 -5.34375 10 -5.078125 9.96875 -4.828125 C 9.9375 -4.578125 9.910156 -4.390625 9.890625 -4.265625 L 3.703125 -4.265625 C 3.835938 -3.515625 4.144531 -2.960938 4.625 -2.609375 C 5.101562 -2.253906 5.691406 -2.078125 6.390625 -2.078125 C 7.128906 -2.078125 7.867188 -2.304688 8.609375 -2.765625 L 9.640625 -0.921875 C 9.109375 -0.554688 8.519531 -0.269531 7.875 -0.0625 C 7.226562 0.144531 6.59375 0.25 5.96875 0.25 Z M 3.6875 -6.28125 L 7.40625 -6.28125 C 7.40625 -6.863281 7.273438 -7.332031 7.015625 -7.6875 C 6.753906 -8.050781 6.3125 -8.234375 5.6875 -8.234375 C 5.195312 -8.234375 4.765625 -8.070312 4.390625 -7.75 C 4.023438 -7.4375 3.789062 -6.945312 3.6875 -6.28125 Z M 3.6875 -6.28125 "/></g></g></g><g fill="#004aad" fill-opacity="1"><g transform="translate(467.965091, 263.863528)"><g><path d="M 1.359375 0 L 1.359375 -10.328125 L 3.84375 -10.328125 L 4.0625 -8.515625 L 4.140625 -8.515625 C 4.515625 -9.222656 4.960938 -9.742188 5.484375 -10.078125 C 6.015625 -10.410156 6.546875 -10.578125 7.078125 -10.578125 C 7.367188 -10.578125 7.609375 -10.554688 7.796875 -10.515625 C 7.984375 -10.484375 8.148438 -10.429688 8.296875 -10.359375 L 7.8125 -7.71875 C 7.613281 -7.78125 7.429688 -7.820312 7.265625 -7.84375 C 7.097656 -7.875 6.90625 -7.890625 6.6875 -7.890625 C 6.289062 -7.890625 5.878906 -7.75 5.453125 -7.46875 C 5.035156 -7.195312 4.6875 -6.707031 4.40625 -6 L 4.40625 0 Z M 1.359375 0 "/></g></g></g><g fill="#004aad" fill-opacity="1"><g transform="translate(476.248473, 263.863528)"><g><path d="M 4.390625 0.25 C 3.710938 0.25 3.015625 0.117188 2.296875 -0.140625 C 1.585938 -0.410156 0.96875 -0.757812 0.4375 -1.1875 L 1.8125 -3.09375 C 2.28125 -2.738281 2.726562 -2.46875 3.15625 -2.28125 C 3.59375 -2.101562 4.03125 -2.015625 4.46875 -2.015625 C 4.925781 -2.015625 5.257812 -2.09375 5.46875 -2.25 C 5.675781 -2.40625 5.78125 -2.617188 5.78125 -2.890625 C 5.78125 -3.054688 5.722656 -3.203125 5.609375 -3.328125 C 5.492188 -3.460938 5.332031 -3.585938 5.125 -3.703125 C 4.925781 -3.816406 4.703125 -3.914062 4.453125 -4 C 4.203125 -4.09375 3.945312 -4.195312 3.6875 -4.3125 C 3.363281 -4.4375 3.039062 -4.582031 2.71875 -4.75 C 2.40625 -4.914062 2.113281 -5.117188 1.84375 -5.359375 C 1.582031 -5.597656 1.367188 -5.878906 1.203125 -6.203125 C 1.035156 -6.535156 0.953125 -6.914062 0.953125 -7.34375 C 0.953125 -7.8125 1.046875 -8.25 1.234375 -8.65625 C 1.421875 -9.0625 1.6875 -9.398438 2.03125 -9.671875 C 2.382812 -9.953125 2.800781 -10.171875 3.28125 -10.328125 C 3.769531 -10.492188 4.3125 -10.578125 4.90625 -10.578125 C 5.695312 -10.578125 6.390625 -10.441406 6.984375 -10.171875 C 7.585938 -9.898438 8.109375 -9.597656 8.546875 -9.265625 L 7.1875 -7.4375 C 6.8125 -7.707031 6.441406 -7.914062 6.078125 -8.0625 C 5.710938 -8.21875 5.351562 -8.296875 5 -8.296875 C 4.21875 -8.296875 3.828125 -8.03125 3.828125 -7.5 C 3.828125 -7.332031 3.878906 -7.1875 3.984375 -7.0625 C 4.097656 -6.945312 4.25 -6.835938 4.4375 -6.734375 C 4.625 -6.640625 4.835938 -6.546875 5.078125 -6.453125 C 5.328125 -6.367188 5.582031 -6.28125 5.84375 -6.1875 C 6.175781 -6.0625 6.503906 -5.914062 6.828125 -5.75 C 7.160156 -5.59375 7.460938 -5.394531 7.734375 -5.15625 C 8.003906 -4.925781 8.222656 -4.640625 8.390625 -4.296875 C 8.554688 -3.953125 8.640625 -3.546875 8.640625 -3.078125 C 8.640625 -2.609375 8.546875 -2.171875 8.359375 -1.765625 C 8.179688 -1.367188 7.910156 -1.019531 7.546875 -0.71875 C 7.191406 -0.414062 6.75 -0.175781 6.21875 0 C 5.695312 0.164062 5.085938 0.25 4.390625 0.25 Z M 4.390625 0.25 "/></g></g></g><g fill="#004aad" fill-opacity="1"><g transform="translate(485.468416, 263.863528)"><g><path d="M 1.359375 0 L 1.359375 -10.328125 L 4.40625 -10.328125 L 4.40625 0 Z M 2.875 -11.84375 C 2.363281 -11.84375 1.941406 -11.988281 1.609375 -12.28125 C 1.273438 -12.582031 1.109375 -12.96875 1.109375 -13.4375 C 1.109375 -13.914062 1.273438 -14.300781 1.609375 -14.59375 C 1.941406 -14.882812 2.363281 -15.03125 2.875 -15.03125 C 3.394531 -15.03125 3.816406 -14.882812 4.140625 -14.59375 C 4.472656 -14.300781 4.640625 -13.914062 4.640625 -13.4375 C 4.640625 -12.96875 4.472656 -12.582031 4.140625 -12.28125 C 3.816406 -11.988281 3.394531 -11.84375 2.875 -11.84375 Z M 2.875 -11.84375 "/></g></g></g><g fill="#004aad" fill-opacity="1"><g transform="translate(491.212675, 263.863528)"><g><path d="M 5.78125 0.25 C 5.132812 0.25 4.503906 0.128906 3.890625 -0.109375 C 3.273438 -0.359375 2.734375 -0.710938 2.265625 -1.171875 C 1.804688 -1.628906 1.4375 -2.191406 1.15625 -2.859375 C 0.882812 -3.535156 0.75 -4.300781 0.75 -5.15625 C 0.75 -6.019531 0.882812 -6.785156 1.15625 -7.453125 C 1.4375 -8.128906 1.804688 -8.695312 2.265625 -9.15625 C 2.734375 -9.613281 3.273438 -9.960938 3.890625 -10.203125 C 4.503906 -10.453125 5.132812 -10.578125 5.78125 -10.578125 C 6.4375 -10.578125 7.066406 -10.453125 7.671875 -10.203125 C 8.273438 -9.960938 8.804688 -9.613281 9.265625 -9.15625 C 9.734375 -8.695312 10.101562 -8.128906 10.375 -7.453125 C 10.65625 -6.785156 10.796875 -6.019531 10.796875 -5.15625 C 10.796875 -4.300781 10.65625 -3.535156 10.375 -2.859375 C 10.101562 -2.191406 9.734375 -1.628906 9.265625 -1.171875 C 8.804688 -0.710938 8.273438 -0.359375 7.671875 -0.109375 C 7.066406 0.128906 6.4375 0.25 5.78125 0.25 Z M 5.78125 -2.234375 C 6.40625 -2.234375 6.878906 -2.492188 7.203125 -3.015625 C 7.523438 -3.546875 7.6875 -4.257812 7.6875 -5.15625 C 7.6875 -6.0625 7.523438 -6.773438 7.203125 -7.296875 C 6.878906 -7.828125 6.40625 -8.09375 5.78125 -8.09375 C 5.144531 -8.09375 4.671875 -7.828125 4.359375 -7.296875 C 4.046875 -6.773438 3.890625 -6.0625 3.890625 -5.15625 C 3.890625 -4.257812 4.046875 -3.546875 4.359375 -3.015625 C 4.671875 -2.492188 5.144531 -2.234375 5.78125 -2.234375 Z M 5.78125 -2.234375 "/></g></g></g><g fill="#004aad" fill-opacity="1"><g transform="translate(502.763619, 263.863528)"><g><path d="M 1.359375 0 L 1.359375 -10.328125 L 3.84375 -10.328125 L 4.0625 -9.015625 L 4.140625 -9.015625 C 4.585938 -9.429688 5.070312 -9.796875 5.59375 -10.109375 C 6.125 -10.421875 6.742188 -10.578125 7.453125 -10.578125 C 8.578125 -10.578125 9.390625 -10.207031 9.890625 -9.46875 C 10.398438 -8.726562 10.65625 -7.707031 10.65625 -6.40625 L 10.65625 0 L 7.59375 0 L 7.59375 -6.015625 C 7.59375 -6.765625 7.492188 -7.273438 7.296875 -7.546875 C 7.097656 -7.828125 6.773438 -7.96875 6.328125 -7.96875 C 5.941406 -7.96875 5.609375 -7.878906 5.328125 -7.703125 C 5.046875 -7.535156 4.738281 -7.289062 4.40625 -6.96875 L 4.40625 0 Z M 1.359375 0 "/></g></g></g><g fill="#004aad" fill-opacity="1"><g transform="translate(514.668381, 263.863528)"><g/></g></g><g fill="#004aad" fill-opacity="1"><g transform="translate(518.830883, 263.863528)"><g><path d="M 1.453125 0 L 1.453125 -2.484375 L 4.328125 -2.484375 L 4.328125 -10.109375 L 1.859375 -10.109375 L 1.859375 -12.015625 C 2.578125 -12.148438 3.1875 -12.3125 3.6875 -12.5 C 4.1875 -12.695312 4.671875 -12.9375 5.140625 -13.21875 L 7.390625 -13.21875 L 7.390625 -2.484375 L 9.859375 -2.484375 L 9.859375 0 Z M 1.453125 0 "/></g></g></g><g fill="#004aad" fill-opacity="1"><g transform="translate(529.819889, 263.863528)"><g><path d="M 2.90625 3.71875 L 1 2.9375 C 1.78125 1.570312 2.34375 0.148438 2.6875 -1.328125 C 3.03125 -2.816406 3.203125 -4.300781 3.203125 -5.78125 C 3.203125 -7.269531 3.03125 -8.753906 2.6875 -10.234375 C 2.34375 -11.722656 1.78125 -13.144531 1 -14.5 L 2.90625 -15.296875 C 3.78125 -13.867188 4.457031 -12.382812 4.9375 -10.84375 C 5.414062 -9.300781 5.65625 -7.613281 5.65625 -5.78125 C 5.65625 -3.945312 5.414062 -2.257812 4.9375 -0.71875 C 4.457031 0.8125 3.78125 2.289062 2.90625 3.71875 Z M 2.90625 3.71875 "/></g></g></g><g clip-path="url(#853d88f059)"><path fill="#e8d6a2" d="M 485.1875 556.539062 L 552.296875 517.726562 L 485.1875 478.914062 L 418.082031 517.726562 L 485.1875 556.539062 " fill-opacity="1" fill-rule="nonzero"/></g><path fill="#b58850" d="M 512.613281 540.679688 L 524.875 533.585938 L 457.765625 494.773438 L 445.503906 501.867188 L 512.613281 540.679688 " fill-opacity="1" fill-rule="nonzero"/><g clip-path="url(#10d79c9b93)"><path fill="#b58850" d="M 551.898438 595.351562 L 484.789062 634.164062 L 484.789062 556.539062 L 551.898438 517.726562 L 551.898438 595.351562 " fill-opacity="1" fill-rule="nonzero"/></g><path fill="#815300" d="M 524.472656 611.214844 L 512.214844 618.304688 L 512.214844 607.46875 L 524.472656 600.378906 L 524.472656 611.214844 " fill-opacity="1" fill-rule="nonzero"/><path fill="#815300" d="M 524.472656 544.421875 L 512.214844 551.511719 L 512.214844 540.679688 L 524.472656 533.585938 L 524.472656 544.421875 " fill-opacity="1" fill-rule="nonzero"/><g clip-path="url(#70044eec7e)"><path fill="#d6b477" d="M 485.1875 634.164062 L 418.082031 595.351562 L 418.082031 517.726562 L 485.1875 556.539062 L 485.1875 634.164062 " fill-opacity="1" fill-rule="nonzero"/></g><path fill="#815300" d="M 447.011719 604.378906 L 434.957031 597.40625 L 434.957031 583.460938 L 447.011719 590.433594 Z M 434.335938 582.382812 L 434.335938 597.765625 L 447.632812 605.453125 L 447.632812 590.074219 L 434.335938 582.382812 " fill-opacity="1" fill-rule="nonzero"/><path fill="#815300" d="M 437.808594 595.984375 L 439.511719 596.96875 L 439.511719 590.476562 L 440.480469 591.039062 L 438.660156 587.03125 L 436.839844 588.933594 L 437.808594 589.492188 L 437.808594 595.984375 " fill-opacity="1" fill-rule="nonzero"/><path fill="#815300" d="M 442.457031 598.671875 L 444.160156 599.65625 L 444.160156 593.167969 L 445.128906 593.726562 L 443.308594 589.71875 L 441.488281 591.621094 L 442.457031 592.179688 L 442.457031 598.671875 " fill-opacity="1" fill-rule="nonzero"/><path fill="#815300" d="M 445.832031 601.371094 L 436.136719 595.765625 L 436.136719 597.035156 L 445.832031 602.640625 L 445.832031 601.371094 " fill-opacity="1" fill-rule="nonzero"/><path fill="#815300" d="M 462.503906 613.339844 L 450.449219 606.367188 L 450.449219 592.421875 L 462.503906 599.394531 Z M 449.828125 591.347656 L 449.828125 606.726562 L 463.125 614.414062 L 463.125 599.035156 L 449.828125 591.347656 " fill-opacity="1" fill-rule="nonzero"/><path fill="#815300" d="M 456.019531 604.207031 L 456.019531 607.265625 L 454.609375 606.453125 C 454.371094 606.3125 454.171875 606.425781 454.171875 606.703125 L 454.171875 607.082031 L 458.78125 609.746094 L 458.78125 609.367188 C 458.78125 609.089844 458.582031 608.75 458.34375 608.609375 L 456.933594 607.796875 L 456.933594 604.738281 C 458.4375 605.351562 459.589844 604.523438 459.589844 602.714844 L 459.589844 599.53125 L 457.847656 598.523438 L 457.222656 599.769531 L 458.679688 600.609375 L 456.054688 602.636719 L 456.910156 600.53125 L 455.558594 599.75 L 456.460938 597.71875 L 453.363281 595.929688 L 453.363281 599.117188 C 453.363281 600.925781 454.519531 603.082031 456.019531 604.207031 " fill-opacity="1" fill-rule="nonzero"/><path fill="#815300" d="M 478.0625 622.335938 L 466.003906 615.363281 L 466.003906 601.417969 L 478.0625 608.390625 Z M 465.386719 600.34375 L 465.386719 615.722656 L 478.679688 623.410156 L 478.679688 608.03125 L 465.386719 600.34375 " fill-opacity="1" fill-rule="nonzero"/><path fill="#815300" d="M 470.132812 611.035156 C 470.621094 611.054688 471.175781 611.070312 471.765625 611.335938 C 471.75 611.367188 471.738281 611.410156 471.738281 611.457031 L 471.738281 615.804688 C 471.738281 616.222656 471.445312 616.390625 471.085938 616.183594 C 470.726562 615.972656 470.433594 615.464844 470.433594 615.046875 C 470.433594 614.863281 470.300781 614.632812 470.140625 614.539062 C 469.976562 614.445312 469.84375 614.523438 469.84375 614.710938 C 469.84375 615.5 470.402344 616.464844 471.085938 616.863281 C 471.769531 617.257812 472.328125 616.9375 472.328125 616.144531 L 472.328125 611.796875 C 472.328125 611.75 472.316406 611.699219 472.300781 611.644531 C 472.894531 612.0625 473.445312 612.691406 473.933594 613.230469 C 474.492188 613.257812 474.941406 613.15625 475.632812 613.554688 C 476.011719 613.773438 476.574219 614.339844 476.917969 614.632812 C 476.699219 612.253906 474.75 609.175781 472.328125 607.625 L 472.328125 606.570312 C 472.328125 606.382812 472.195312 606.15625 472.035156 606.0625 C 471.871094 605.96875 471.738281 606.042969 471.738281 606.230469 L 471.738281 607.28125 C 469.316406 606.03125 467.367188 606.859375 467.148438 608.980469 C 467.492188 609.085938 468.054688 609.171875 468.433594 609.390625 C 469.125 609.789062 469.574219 610.410156 470.132812 611.035156 " fill-opacity="1" fill-rule="nonzero"/><g fill="#00bf63" fill-opacity="1"><g transform="translate(437.9135, 473.459732)"><g><path d="M 4.171875 3.65625 C 3.316406 2.25 2.648438 0.789062 2.171875 -0.71875 C 1.703125 -2.226562 1.46875 -3.882812 1.46875 -5.6875 C 1.46875 -7.488281 1.703125 -9.144531 2.171875 -10.65625 C 2.648438 -12.164062 3.316406 -13.625 4.171875 -15.03125 L 6.046875 -14.25 C 5.296875 -12.914062 4.75 -11.519531 4.40625 -10.0625 C 4.070312 -8.601562 3.90625 -7.144531 3.90625 -5.6875 C 3.90625 -4.226562 4.070312 -2.769531 4.40625 -1.3125 C 4.75 0.144531 5.296875 1.546875 6.046875 2.890625 Z M 4.171875 3.65625 "/></g></g></g><g fill="#00bf63" fill-opacity="1"><g transform="translate(444.948011, 473.459732)"><g><path d="M 3.890625 0 L -0.140625 -13.328125 L 3.046875 -13.328125 L 4.640625 -7.125 C 4.847656 -6.382812 5.03125 -5.671875 5.1875 -4.984375 C 5.34375 -4.296875 5.523438 -3.582031 5.734375 -2.84375 L 5.8125 -2.84375 C 6 -3.582031 6.171875 -4.296875 6.328125 -4.984375 C 6.492188 -5.671875 6.675781 -6.382812 6.875 -7.125 L 8.453125 -13.328125 L 11.515625 -13.328125 L 7.5 0 Z M 3.890625 0 "/></g></g></g><g fill="#00bf63" fill-opacity="1"><g transform="translate(456.31775, 473.459732)"><g><path d="M 5.875 0.25 C 5.144531 0.25 4.46875 0.128906 3.84375 -0.109375 C 3.21875 -0.347656 2.671875 -0.695312 2.203125 -1.15625 C 1.742188 -1.613281 1.382812 -2.164062 1.125 -2.8125 C 0.863281 -3.46875 0.734375 -4.222656 0.734375 -5.078125 C 0.734375 -5.890625 0.867188 -6.625 1.140625 -7.28125 C 1.410156 -7.945312 1.769531 -8.507812 2.21875 -8.96875 C 2.664062 -9.425781 3.175781 -9.773438 3.75 -10.015625 C 4.320312 -10.265625 4.910156 -10.390625 5.515625 -10.390625 C 6.242188 -10.390625 6.875 -10.265625 7.40625 -10.015625 C 7.945312 -9.773438 8.398438 -9.4375 8.765625 -9 C 9.128906 -8.5625 9.398438 -8.046875 9.578125 -7.453125 C 9.753906 -6.859375 9.84375 -6.210938 9.84375 -5.515625 C 9.84375 -5.242188 9.828125 -4.984375 9.796875 -4.734375 C 9.765625 -4.492188 9.738281 -4.3125 9.71875 -4.1875 L 3.640625 -4.1875 C 3.773438 -3.457031 4.078125 -2.914062 4.546875 -2.5625 C 5.015625 -2.21875 5.59375 -2.046875 6.28125 -2.046875 C 7 -2.046875 7.726562 -2.269531 8.46875 -2.71875 L 9.46875 -0.90625 C 8.945312 -0.550781 8.367188 -0.269531 7.734375 -0.0625 C 7.109375 0.144531 6.488281 0.25 5.875 0.25 Z M 3.625 -6.171875 L 7.28125 -6.171875 C 7.28125 -6.742188 7.148438 -7.207031 6.890625 -7.5625 C 6.628906 -7.914062 6.191406 -8.09375 5.578125 -8.09375 C 5.109375 -8.09375 4.691406 -7.9375 4.328125 -7.625 C 3.960938 -7.3125 3.726562 -6.828125 3.625 -6.171875 Z M 3.625 -6.171875 "/></g></g></g><g fill="#00bf63" fill-opacity="1"><g transform="translate(466.910412, 473.459732)"><g><path d="M 1.328125 0 L 1.328125 -10.140625 L 3.78125 -10.140625 L 3.984375 -8.359375 L 4.0625 -8.359375 C 4.4375 -9.054688 4.878906 -9.566406 5.390625 -9.890625 C 5.910156 -10.222656 6.429688 -10.390625 6.953125 -10.390625 C 7.242188 -10.390625 7.476562 -10.367188 7.65625 -10.328125 C 7.84375 -10.296875 8.007812 -10.25 8.15625 -10.1875 L 7.671875 -7.59375 C 7.484375 -7.644531 7.304688 -7.679688 7.140625 -7.703125 C 6.972656 -7.734375 6.78125 -7.75 6.5625 -7.75 C 6.1875 -7.75 5.789062 -7.613281 5.375 -7.34375 C 4.957031 -7.070312 4.613281 -6.585938 4.34375 -5.890625 L 4.34375 0 Z M 1.328125 0 "/></g></g></g><g fill="#00bf63" fill-opacity="1"><g transform="translate(475.049175, 473.459732)"><g><path d="M 4.3125 0.25 C 3.644531 0.25 2.957031 0.117188 2.25 -0.140625 C 1.550781 -0.398438 0.941406 -0.742188 0.421875 -1.171875 L 1.78125 -3.046875 C 2.238281 -2.691406 2.679688 -2.425781 3.109375 -2.25 C 3.535156 -2.070312 3.960938 -1.984375 4.390625 -1.984375 C 4.847656 -1.984375 5.175781 -2.054688 5.375 -2.203125 C 5.582031 -2.359375 5.6875 -2.570312 5.6875 -2.84375 C 5.6875 -3.007812 5.628906 -3.15625 5.515625 -3.28125 C 5.398438 -3.414062 5.242188 -3.535156 5.046875 -3.640625 C 4.847656 -3.742188 4.625 -3.835938 4.375 -3.921875 C 4.132812 -4.015625 3.882812 -4.117188 3.625 -4.234375 C 3.3125 -4.359375 2.992188 -4.5 2.671875 -4.65625 C 2.359375 -4.820312 2.070312 -5.023438 1.8125 -5.265625 C 1.5625 -5.503906 1.351562 -5.78125 1.1875 -6.09375 C 1.019531 -6.414062 0.9375 -6.789062 0.9375 -7.21875 C 0.9375 -7.6875 1.03125 -8.117188 1.21875 -8.515625 C 1.40625 -8.910156 1.664062 -9.242188 2 -9.515625 C 2.34375 -9.785156 2.753906 -10 3.234375 -10.15625 C 3.710938 -10.3125 4.242188 -10.390625 4.828125 -10.390625 C 5.609375 -10.390625 6.289062 -10.253906 6.875 -9.984375 C 7.457031 -9.722656 7.96875 -9.429688 8.40625 -9.109375 L 7.0625 -7.296875 C 6.6875 -7.566406 6.320312 -7.773438 5.96875 -7.921875 C 5.613281 -8.078125 5.257812 -8.15625 4.90625 -8.15625 C 4.144531 -8.15625 3.765625 -7.890625 3.765625 -7.359375 C 3.765625 -7.203125 3.816406 -7.0625 3.921875 -6.9375 C 4.035156 -6.820312 4.179688 -6.71875 4.359375 -6.625 C 4.546875 -6.53125 4.757812 -6.4375 5 -6.34375 C 5.238281 -6.257812 5.488281 -6.171875 5.75 -6.078125 C 6.070312 -5.953125 6.394531 -5.8125 6.71875 -5.65625 C 7.039062 -5.5 7.332031 -5.300781 7.59375 -5.0625 C 7.863281 -4.832031 8.078125 -4.550781 8.234375 -4.21875 C 8.398438 -3.882812 8.484375 -3.488281 8.484375 -3.03125 C 8.484375 -2.5625 8.394531 -2.128906 8.21875 -1.734375 C 8.039062 -1.335938 7.773438 -0.992188 7.421875 -0.703125 C 7.066406 -0.410156 6.628906 -0.175781 6.109375 0 C 5.597656 0.164062 5 0.25 4.3125 0.25 Z M 4.3125 0.25 "/></g></g></g><g fill="#00bf63" fill-opacity="1"><g transform="translate(484.108158, 473.459732)"><g><path d="M 1.328125 0 L 1.328125 -10.140625 L 4.34375 -10.140625 L 4.34375 0 Z M 2.828125 -11.640625 C 2.316406 -11.640625 1.894531 -11.785156 1.5625 -12.078125 C 1.238281 -12.367188 1.078125 -12.75 1.078125 -13.21875 C 1.078125 -13.675781 1.238281 -14.046875 1.5625 -14.328125 C 1.894531 -14.617188 2.316406 -14.765625 2.828125 -14.765625 C 3.335938 -14.765625 3.753906 -14.617188 4.078125 -14.328125 C 4.398438 -14.046875 4.5625 -13.675781 4.5625 -13.21875 C 4.5625 -12.75 4.398438 -12.367188 4.078125 -12.078125 C 3.753906 -11.785156 3.335938 -11.640625 2.828125 -11.640625 Z M 2.828125 -11.640625 "/></g></g></g><g fill="#00bf63" fill-opacity="1"><g transform="translate(489.752132, 473.459732)"><g><path d="M 5.6875 0.25 C 5.039062 0.25 4.414062 0.128906 3.8125 -0.109375 C 3.21875 -0.347656 2.691406 -0.691406 2.234375 -1.140625 C 1.773438 -1.597656 1.410156 -2.15625 1.140625 -2.8125 C 0.867188 -3.46875 0.734375 -4.222656 0.734375 -5.078125 C 0.734375 -5.921875 0.867188 -6.671875 1.140625 -7.328125 C 1.410156 -7.992188 1.773438 -8.550781 2.234375 -9 C 2.691406 -9.445312 3.21875 -9.789062 3.8125 -10.03125 C 4.414062 -10.269531 5.039062 -10.390625 5.6875 -10.390625 C 6.320312 -10.390625 6.9375 -10.269531 7.53125 -10.03125 C 8.125 -9.789062 8.648438 -9.445312 9.109375 -9 C 9.566406 -8.550781 9.929688 -7.992188 10.203125 -7.328125 C 10.472656 -6.671875 10.609375 -5.921875 10.609375 -5.078125 C 10.609375 -4.222656 10.472656 -3.46875 10.203125 -2.8125 C 9.929688 -2.15625 9.566406 -1.597656 9.109375 -1.140625 C 8.648438 -0.691406 8.125 -0.347656 7.53125 -0.109375 C 6.9375 0.128906 6.320312 0.25 5.6875 0.25 Z M 5.6875 -2.1875 C 6.300781 -2.1875 6.765625 -2.445312 7.078125 -2.96875 C 7.390625 -3.488281 7.546875 -4.191406 7.546875 -5.078125 C 7.546875 -5.960938 7.390625 -6.660156 7.078125 -7.171875 C 6.765625 -7.691406 6.300781 -7.953125 5.6875 -7.953125 C 5.0625 -7.953125 4.59375 -7.691406 4.28125 -7.171875 C 3.976562 -6.660156 3.828125 -5.960938 3.828125 -5.078125 C 3.828125 -4.191406 3.976562 -3.488281 4.28125 -2.96875 C 4.59375 -2.445312 5.0625 -2.1875 5.6875 -2.1875 Z M 5.6875 -2.1875 "/></g></g></g><g fill="#00bf63" fill-opacity="1"><g transform="translate(501.10142, 473.459732)"><g><path d="M 1.328125 0 L 1.328125 -10.140625 L 3.78125 -10.140625 L 3.984375 -8.859375 L 4.0625 -8.859375 C 4.5 -9.265625 4.976562 -9.617188 5.5 -9.921875 C 6.019531 -10.234375 6.628906 -10.390625 7.328125 -10.390625 C 8.429688 -10.390625 9.226562 -10.023438 9.71875 -9.296875 C 10.21875 -8.578125 10.46875 -7.578125 10.46875 -6.296875 L 10.46875 0 L 7.46875 0 L 7.46875 -5.90625 C 7.46875 -6.644531 7.367188 -7.148438 7.171875 -7.421875 C 6.972656 -7.691406 6.65625 -7.828125 6.21875 -7.828125 C 5.832031 -7.828125 5.503906 -7.742188 5.234375 -7.578125 C 4.960938 -7.410156 4.664062 -7.171875 4.34375 -6.859375 L 4.34375 0 Z M 1.328125 0 "/></g></g></g><g fill="#00bf63" fill-opacity="1"><g transform="translate(512.798346, 473.459732)"><g/></g></g><g fill="#00bf63" fill-opacity="1"><g transform="translate(516.888178, 473.459732)"><g><path d="M 1.578125 0 L 1.578125 -13.328125 L 4.65625 -13.328125 L 8.140625 -6.703125 L 9.453125 -3.765625 L 9.53125 -3.765625 C 9.457031 -4.472656 9.375 -5.257812 9.28125 -6.125 C 9.195312 -7 9.15625 -7.832031 9.15625 -8.625 L 9.15625 -13.328125 L 12.03125 -13.328125 L 12.03125 0 L 8.9375 0 L 5.46875 -6.640625 L 4.15625 -9.546875 L 4.0625 -9.546875 C 4.132812 -8.816406 4.210938 -8.023438 4.296875 -7.171875 C 4.390625 -6.328125 4.4375 -5.507812 4.4375 -4.71875 L 4.4375 0 Z M 1.578125 0 "/></g></g></g><g fill="#00bf63" fill-opacity="1"><g transform="translate(530.486871, 473.459732)"><g><path d="M 2.859375 3.65625 L 0.984375 2.890625 C 1.742188 1.546875 2.296875 0.144531 2.640625 -1.3125 C 2.984375 -2.769531 3.15625 -4.226562 3.15625 -5.6875 C 3.15625 -7.144531 2.984375 -8.601562 2.640625 -10.0625 C 2.296875 -11.519531 1.742188 -12.914062 0.984375 -14.25 L 2.859375 -15.03125 C 3.722656 -13.625 4.390625 -12.164062 4.859375 -10.65625 C 5.328125 -9.144531 5.5625 -7.488281 5.5625 -5.6875 C 5.5625 -3.882812 5.328125 -2.226562 4.859375 -0.71875 C 4.390625 0.789062 3.722656 2.25 2.859375 3.65625 Z M 2.859375 3.65625 "/></g></g></g><g fill="#526479" fill-opacity="1"><g transform="translate(409.765826, 684.232594)"><g><path d="M 8.828125 0.3125 C 7.691406 0.3125 6.65625 0.109375 5.71875 -0.296875 C 4.78125 -0.703125 3.972656 -1.28125 3.296875 -2.03125 C 2.628906 -2.789062 2.109375 -3.710938 1.734375 -4.796875 C 1.367188 -5.890625 1.1875 -7.125 1.1875 -8.5 C 1.1875 -9.875 1.367188 -11.097656 1.734375 -12.171875 C 2.109375 -13.253906 2.628906 -14.160156 3.296875 -14.890625 C 3.972656 -15.617188 4.78125 -16.175781 5.71875 -16.5625 C 6.65625 -16.957031 7.691406 -17.15625 8.828125 -17.15625 C 9.960938 -17.15625 11 -16.957031 11.9375 -16.5625 C 12.882812 -16.175781 13.691406 -15.613281 14.359375 -14.875 C 15.035156 -14.132812 15.554688 -13.222656 15.921875 -12.140625 C 16.296875 -11.066406 16.484375 -9.851562 16.484375 -8.5 C 16.484375 -7.125 16.296875 -5.890625 15.921875 -4.796875 C 15.554688 -3.710938 15.035156 -2.789062 14.359375 -2.03125 C 13.691406 -1.28125 12.882812 -0.703125 11.9375 -0.296875 C 11 0.109375 9.960938 0.3125 8.828125 0.3125 Z M 8.828125 -2.96875 C 9.984375 -2.96875 10.894531 -3.460938 11.5625 -4.453125 C 12.238281 -5.441406 12.578125 -6.789062 12.578125 -8.5 C 12.578125 -10.1875 12.238281 -11.503906 11.5625 -12.453125 C 10.894531 -13.398438 9.984375 -13.875 8.828125 -13.875 C 7.679688 -13.875 6.769531 -13.398438 6.09375 -12.453125 C 5.425781 -11.503906 5.09375 -10.1875 5.09375 -8.5 C 5.09375 -6.789062 5.425781 -5.441406 6.09375 -4.453125 C 6.769531 -3.460938 7.679688 -2.96875 8.828125 -2.96875 Z M 8.828125 -2.96875 "/></g></g></g><g fill="#526479" fill-opacity="1"><g transform="translate(427.424275, 684.232594)"><g><path d="M 6.609375 0.3125 C 5.816406 0.3125 5.140625 0.191406 4.578125 -0.046875 C 4.023438 -0.285156 3.570312 -0.617188 3.21875 -1.046875 C 2.863281 -1.484375 2.601562 -2.003906 2.4375 -2.609375 C 2.28125 -3.222656 2.203125 -3.90625 2.203125 -4.65625 L 2.203125 -9.84375 L 0.4375 -9.84375 L 0.4375 -12.65625 L 2.40625 -12.8125 L 2.84375 -16.21875 L 5.984375 -16.21875 L 5.984375 -12.8125 L 9.0625 -12.8125 L 9.0625 -9.84375 L 5.984375 -9.84375 L 5.984375 -4.703125 C 5.984375 -3.972656 6.132812 -3.445312 6.4375 -3.125 C 6.738281 -2.8125 7.140625 -2.65625 7.640625 -2.65625 C 7.847656 -2.65625 8.054688 -2.679688 8.265625 -2.734375 C 8.484375 -2.785156 8.679688 -2.847656 8.859375 -2.921875 L 9.453125 -0.15625 C 9.109375 -0.0507812 8.703125 0.0507812 8.234375 0.15625 C 7.773438 0.257812 7.234375 0.3125 6.609375 0.3125 Z M 6.609375 0.3125 "/></g></g></g><g fill="#526479" fill-opacity="1"><g transform="translate(437.31197, 684.232594)"><g><path d="M 1.671875 0 L 1.671875 -18.109375 L 5.46875 -18.109375 L 5.46875 -13.65625 L 5.296875 -11.359375 C 5.773438 -11.796875 6.332031 -12.195312 6.96875 -12.5625 C 7.601562 -12.9375 8.363281 -13.125 9.25 -13.125 C 10.644531 -13.125 11.65625 -12.664062 12.28125 -11.75 C 12.90625 -10.84375 13.21875 -9.578125 13.21875 -7.953125 L 13.21875 0 L 9.421875 0 L 9.421875 -7.46875 C 9.421875 -8.394531 9.296875 -9.03125 9.046875 -9.375 C 8.796875 -9.71875 8.398438 -9.890625 7.859375 -9.890625 C 7.367188 -9.890625 6.953125 -9.78125 6.609375 -9.5625 C 6.265625 -9.351562 5.882812 -9.050781 5.46875 -8.65625 L 5.46875 0 Z M 1.671875 0 "/></g></g></g><g fill="#526479" fill-opacity="1"><g transform="translate(452.053161, 684.232594)"><g><path d="M 7.40625 0.3125 C 6.5 0.3125 5.648438 0.160156 4.859375 -0.140625 C 4.066406 -0.441406 3.375 -0.878906 2.78125 -1.453125 C 2.195312 -2.035156 1.742188 -2.738281 1.421875 -3.5625 C 1.097656 -4.382812 0.9375 -5.332031 0.9375 -6.40625 C 0.9375 -7.4375 1.109375 -8.367188 1.453125 -9.203125 C 1.796875 -10.035156 2.242188 -10.738281 2.796875 -11.3125 C 3.359375 -11.894531 4 -12.34375 4.71875 -12.65625 C 5.445312 -12.96875 6.195312 -13.125 6.96875 -13.125 C 7.882812 -13.125 8.679688 -12.96875 9.359375 -12.65625 C 10.046875 -12.34375 10.613281 -11.910156 11.0625 -11.359375 C 11.519531 -10.804688 11.859375 -10.15625 12.078125 -9.40625 C 12.304688 -8.664062 12.421875 -7.851562 12.421875 -6.96875 C 12.421875 -6.625 12.398438 -6.296875 12.359375 -5.984375 C 12.328125 -5.679688 12.296875 -5.453125 12.265625 -5.296875 L 4.59375 -5.296875 C 4.769531 -4.367188 5.15625 -3.679688 5.75 -3.234375 C 6.34375 -2.796875 7.066406 -2.578125 7.921875 -2.578125 C 8.835938 -2.578125 9.757812 -2.863281 10.6875 -3.4375 L 11.953125 -1.140625 C 11.304688 -0.691406 10.582031 -0.335938 9.78125 -0.078125 C 8.976562 0.179688 8.1875 0.3125 7.40625 0.3125 Z M 4.578125 -7.796875 L 9.1875 -7.796875 C 9.1875 -8.523438 9.023438 -9.113281 8.703125 -9.5625 C 8.378906 -10.007812 7.828125 -10.234375 7.046875 -10.234375 C 6.441406 -10.234375 5.910156 -10.035156 5.453125 -9.640625 C 5.003906 -9.242188 4.710938 -8.628906 4.578125 -7.796875 Z M 4.578125 -7.796875 "/></g></g></g><g fill="#526479" fill-opacity="1"><g transform="translate(465.426074, 684.232594)"><g><path d="M 1.671875 0 L 1.671875 -12.8125 L 4.78125 -12.8125 L 5.03125 -10.5625 L 5.140625 -10.5625 C 5.609375 -11.4375 6.164062 -12.082031 6.8125 -12.5 C 7.46875 -12.914062 8.125 -13.125 8.78125 -13.125 C 9.144531 -13.125 9.441406 -13.097656 9.671875 -13.046875 C 9.898438 -13.003906 10.113281 -12.941406 10.3125 -12.859375 L 9.6875 -9.578125 C 9.445312 -9.648438 9.222656 -9.703125 9.015625 -9.734375 C 8.804688 -9.765625 8.566406 -9.78125 8.296875 -9.78125 C 7.804688 -9.78125 7.296875 -9.609375 6.765625 -9.265625 C 6.242188 -8.921875 5.8125 -8.3125 5.46875 -7.4375 L 5.46875 0 Z M 1.671875 0 "/></g></g></g><g fill="#526479" fill-opacity="1"><g transform="translate(475.701014, 684.232594)"><g/></g></g><g fill="#526479" fill-opacity="1"><g transform="translate(480.864301, 684.232594)"><g><path d="M 4.625 0 L 0.3125 -12.8125 L 4.125 -12.8125 L 5.78125 -6.765625 C 5.957031 -6.128906 6.125 -5.476562 6.28125 -4.8125 C 6.445312 -4.15625 6.617188 -3.488281 6.796875 -2.8125 L 6.890625 -2.8125 C 7.046875 -3.488281 7.207031 -4.15625 7.375 -4.8125 C 7.539062 -5.476562 7.707031 -6.128906 7.875 -6.765625 L 9.5625 -12.8125 L 13.203125 -12.8125 L 9.015625 0 Z M 4.625 0 "/></g></g></g><g fill="#526479" fill-opacity="1"><g transform="translate(494.366303, 684.232594)"><g><path d="M 7.40625 0.3125 C 6.5 0.3125 5.648438 0.160156 4.859375 -0.140625 C 4.066406 -0.441406 3.375 -0.878906 2.78125 -1.453125 C 2.195312 -2.035156 1.742188 -2.738281 1.421875 -3.5625 C 1.097656 -4.382812 0.9375 -5.332031 0.9375 -6.40625 C 0.9375 -7.4375 1.109375 -8.367188 1.453125 -9.203125 C 1.796875 -10.035156 2.242188 -10.738281 2.796875 -11.3125 C 3.359375 -11.894531 4 -12.34375 4.71875 -12.65625 C 5.445312 -12.96875 6.195312 -13.125 6.96875 -13.125 C 7.882812 -13.125 8.679688 -12.96875 9.359375 -12.65625 C 10.046875 -12.34375 10.613281 -11.910156 11.0625 -11.359375 C 11.519531 -10.804688 11.859375 -10.15625 12.078125 -9.40625 C 12.304688 -8.664062 12.421875 -7.851562 12.421875 -6.96875 C 12.421875 -6.625 12.398438 -6.296875 12.359375 -5.984375 C 12.328125 -5.679688 12.296875 -5.453125 12.265625 -5.296875 L 4.59375 -5.296875 C 4.769531 -4.367188 5.15625 -3.679688 5.75 -3.234375 C 6.34375 -2.796875 7.066406 -2.578125 7.921875 -2.578125 C 8.835938 -2.578125 9.757812 -2.863281 10.6875 -3.4375 L 11.953125 -1.140625 C 11.304688 -0.691406 10.582031 -0.335938 9.78125 -0.078125 C 8.976562 0.179688 8.1875 0.3125 7.40625 0.3125 Z M 4.578125 -7.796875 L 9.1875 -7.796875 C 9.1875 -8.523438 9.023438 -9.113281 8.703125 -9.5625 C 8.378906 -10.007812 7.828125 -10.234375 7.046875 -10.234375 C 6.441406 -10.234375 5.910156 -10.035156 5.453125 -9.640625 C 5.003906 -9.242188 4.710938 -8.628906 4.578125 -7.796875 Z M 4.578125 -7.796875 "/></g></g></g><g fill="#526479" fill-opacity="1"><g transform="translate(507.739216, 684.232594)"><g><path d="M 1.671875 0 L 1.671875 -12.8125 L 4.78125 -12.8125 L 5.03125 -10.5625 L 5.140625 -10.5625 C 5.609375 -11.4375 6.164062 -12.082031 6.8125 -12.5 C 7.46875 -12.914062 8.125 -13.125 8.78125 -13.125 C 9.144531 -13.125 9.441406 -13.097656 9.671875 -13.046875 C 9.898438 -13.003906 10.113281 -12.941406 10.3125 -12.859375 L 9.6875 -9.578125 C 9.445312 -9.648438 9.222656 -9.703125 9.015625 -9.734375 C 8.804688 -9.765625 8.566406 -9.78125 8.296875 -9.78125 C 7.804688 -9.78125 7.296875 -9.609375 6.765625 -9.265625 C 6.242188 -8.921875 5.8125 -8.3125 5.46875 -7.4375 L 5.46875 0 Z M 1.671875 0 "/></g></g></g><g fill="#526479" fill-opacity="1"><g transform="translate(518.014156, 684.232594)"><g><path d="M 5.453125 0.3125 C 4.609375 0.3125 3.742188 0.148438 2.859375 -0.171875 C 1.972656 -0.503906 1.203125 -0.9375 0.546875 -1.46875 L 2.25 -3.84375 C 2.832031 -3.394531 3.390625 -3.054688 3.921875 -2.828125 C 4.453125 -2.609375 4.992188 -2.5 5.546875 -2.5 C 6.117188 -2.5 6.535156 -2.59375 6.796875 -2.78125 C 7.054688 -2.976562 7.1875 -3.25 7.1875 -3.59375 C 7.1875 -3.800781 7.109375 -3.984375 6.953125 -4.140625 C 6.804688 -4.304688 6.609375 -4.457031 6.359375 -4.59375 C 6.109375 -4.726562 5.828125 -4.851562 5.515625 -4.96875 C 5.210938 -5.082031 4.898438 -5.207031 4.578125 -5.34375 C 4.179688 -5.5 3.785156 -5.679688 3.390625 -5.890625 C 2.992188 -6.097656 2.628906 -6.351562 2.296875 -6.65625 C 1.972656 -6.957031 1.707031 -7.304688 1.5 -7.703125 C 1.289062 -8.109375 1.1875 -8.582031 1.1875 -9.125 C 1.1875 -9.707031 1.300781 -10.25 1.53125 -10.75 C 1.769531 -11.25 2.101562 -11.671875 2.53125 -12.015625 C 2.957031 -12.359375 3.472656 -12.628906 4.078125 -12.828125 C 4.679688 -13.023438 5.351562 -13.125 6.09375 -13.125 C 7.070312 -13.125 7.929688 -12.953125 8.671875 -12.609375 C 9.410156 -12.273438 10.054688 -11.90625 10.609375 -11.5 L 8.90625 -9.21875 C 8.445312 -9.5625 7.992188 -9.828125 7.546875 -10.015625 C 7.097656 -10.210938 6.648438 -10.3125 6.203125 -10.3125 C 5.234375 -10.3125 4.75 -9.972656 4.75 -9.296875 C 4.75 -9.085938 4.816406 -8.910156 4.953125 -8.765625 C 5.097656 -8.617188 5.285156 -8.484375 5.515625 -8.359375 C 5.742188 -8.242188 6.007812 -8.128906 6.3125 -8.015625 C 6.613281 -7.910156 6.925781 -7.796875 7.25 -7.671875 C 7.664062 -7.515625 8.078125 -7.335938 8.484375 -7.140625 C 8.890625 -6.941406 9.257812 -6.695312 9.59375 -6.40625 C 9.925781 -6.113281 10.195312 -5.753906 10.40625 -5.328125 C 10.613281 -4.910156 10.71875 -4.410156 10.71875 -3.828125 C 10.71875 -3.234375 10.601562 -2.6875 10.375 -2.1875 C 10.15625 -1.695312 9.820312 -1.265625 9.375 -0.890625 C 8.925781 -0.515625 8.375 -0.21875 7.71875 0 C 7.0625 0.207031 6.304688 0.3125 5.453125 0.3125 Z M 5.453125 0.3125 "/></g></g></g><g fill="#526479" fill-opacity="1"><g transform="translate(529.450843, 684.232594)"><g><path d="M 1.671875 0 L 1.671875 -12.8125 L 5.46875 -12.8125 L 5.46875 0 Z M 3.5625 -14.703125 C 2.925781 -14.703125 2.398438 -14.882812 1.984375 -15.25 C 1.578125 -15.625 1.375 -16.101562 1.375 -16.6875 C 1.375 -17.269531 1.578125 -17.738281 1.984375 -18.09375 C 2.398438 -18.457031 2.925781 -18.640625 3.5625 -18.640625 C 4.21875 -18.640625 4.75 -18.457031 5.15625 -18.09375 C 5.5625 -17.738281 5.765625 -17.269531 5.765625 -16.6875 C 5.765625 -16.101562 5.5625 -15.625 5.15625 -15.25 C 4.75 -14.882812 4.21875 -14.703125 3.5625 -14.703125 Z M 3.5625 -14.703125 "/></g></g></g><g fill="#526479" fill-opacity="1"><g transform="translate(536.576186, 684.232594)"><g><path d="M 7.1875 0.3125 C 6.375 0.3125 5.585938 0.160156 4.828125 -0.140625 C 4.066406 -0.441406 3.398438 -0.875 2.828125 -1.4375 C 2.253906 -2.007812 1.796875 -2.710938 1.453125 -3.546875 C 1.109375 -4.378906 0.9375 -5.332031 0.9375 -6.40625 C 0.9375 -7.46875 1.109375 -8.414062 1.453125 -9.25 C 1.796875 -10.09375 2.253906 -10.796875 2.828125 -11.359375 C 3.398438 -11.929688 4.066406 -12.367188 4.828125 -12.671875 C 5.585938 -12.972656 6.375 -13.125 7.1875 -13.125 C 7.988281 -13.125 8.765625 -12.972656 9.515625 -12.671875 C 10.265625 -12.367188 10.925781 -11.929688 11.5 -11.359375 C 12.082031 -10.796875 12.546875 -10.09375 12.890625 -9.25 C 13.234375 -8.414062 13.40625 -7.46875 13.40625 -6.40625 C 13.40625 -5.332031 13.234375 -4.378906 12.890625 -3.546875 C 12.546875 -2.710938 12.082031 -2.007812 11.5 -1.4375 C 10.925781 -0.875 10.265625 -0.441406 9.515625 -0.140625 C 8.765625 0.160156 7.988281 0.3125 7.1875 0.3125 Z M 7.1875 -2.765625 C 7.957031 -2.765625 8.539062 -3.085938 8.9375 -3.734375 C 9.332031 -4.390625 9.53125 -5.28125 9.53125 -6.40625 C 9.53125 -7.519531 9.332031 -8.40625 8.9375 -9.0625 C 8.539062 -9.71875 7.957031 -10.046875 7.1875 -10.046875 C 6.382812 -10.046875 5.789062 -9.71875 5.40625 -9.0625 C 5.019531 -8.40625 4.828125 -7.519531 4.828125 -6.40625 C 4.828125 -5.28125 5.019531 -4.390625 5.40625 -3.734375 C 5.789062 -3.085938 6.382812 -2.765625 7.1875 -2.765625 Z M 7.1875 -2.765625 "/></g></g></g><g fill="#526479" fill-opacity="1"><g transform="translate(550.904314, 684.232594)"><g><path d="M 1.671875 0 L 1.671875 -12.8125 L 4.78125 -12.8125 L 5.03125 -11.1875 L 5.140625 -11.1875 C 5.691406 -11.695312 6.289062 -12.144531 6.9375 -12.53125 C 7.59375 -12.925781 8.363281 -13.125 9.25 -13.125 C 10.644531 -13.125 11.65625 -12.664062 12.28125 -11.75 C 12.90625 -10.84375 13.21875 -9.578125 13.21875 -7.953125 L 13.21875 0 L 9.421875 0 L 9.421875 -7.46875 C 9.421875 -8.394531 9.296875 -9.03125 9.046875 -9.375 C 8.796875 -9.71875 8.398438 -9.890625 7.859375 -9.890625 C 7.367188 -9.890625 6.953125 -9.78125 6.609375 -9.5625 C 6.265625 -9.351562 5.882812 -9.050781 5.46875 -8.65625 L 5.46875 0 Z M 1.671875 0 "/></g></g></g><g clip-path="url(#0546584775)"><g clip-path="url(#84103c5a29)"><path fill="#526479" d="M 190.378906 70.5 L 203.875 70.5 L 203.875 75 L 190.378906 75 Z M 206.125 70.5 L 219.621094 70.5 L 219.621094 75 L 206.125 75 Z M 221.871094 70.5 L 235.371094 70.5 L 235.371094 75 L 221.871094 75 Z M 237.621094 70.5 L 251.117188 70.5 L 251.117188 75 L 237.621094 75 Z M 253.367188 70.5 L 266.863281 70.5 L 266.863281 75 L 253.367188 75 Z M 269.113281 70.5 L 282.609375 70.5 L 282.609375 75 L 269.113281 75 Z M 284.859375 70.5 L 298.355469 70.5 L 298.355469 75 L 284.859375 75 Z M 300.605469 70.5 L 314.105469 70.5 L 314.105469 75 L 300.605469 75 Z M 316.355469 70.5 L 329.851562 70.5 L 329.851562 75 L 316.355469 75 Z M 332.101562 70.5 L 345.597656 70.5 L 345.597656 75 L 332.101562 75 Z M 347.847656 70.5 L 361.34375 70.5 L 361.34375 75 L 347.847656 75 Z M 363.59375 70.5 L 377.09375 70.5 L 377.09375 75 L 363.59375 75 Z M 379.339844 70.5 L 392.839844 70.5 L 392.839844 75 L 379.339844 75 Z M 395.089844 70.5 L 408.585938 70.5 L 408.585938 75 L 395.089844 75 Z M 410.835938 70.5 L 424.332031 70.5 L 424.332031 75 L 410.835938 75 Z M 426.582031 70.5 L 440.078125 70.5 L 440.078125 75 L 426.582031 75 Z M 442.328125 70.5 L 455.828125 70.5 L 455.828125 75 L 442.328125 75 Z M 458.074219 70.5 L 471.574219 70.5 L 471.574219 75 L 458.074219 75 Z M 473.824219 70.5 L 487.320312 70.5 L 487.320312 75 L 473.824219 75 Z M 489.570312 70.5 L 503.066406 70.5 L 503.066406 75 L 489.570312 75 Z M 505.316406 70.5 L 518.8125 70.5 L 518.8125 75 L 505.316406 75 Z M 521.0625 70.5 L 534.5625 70.5 L 534.5625 75 L 521.0625 75 Z M 536.808594 70.5 L 550.308594 70.5 L 550.308594 75 L 536.808594 75 Z M 552.558594 70.5 L 566.054688 70.5 L 566.054688 75 L 552.558594 75 Z M 568.304688 70.5 L 581.800781 70.5 L 581.800781 75 L 568.304688 75 Z M 584.050781 70.5 L 597.546875 70.5 L 597.546875 75 L 584.050781 75 Z M 599.796875 70.5 L 613.296875 70.5 L 613.296875 75 L 599.796875 75 Z M 615.546875 70.5 L 629.042969 70.5 L 629.042969 75 L 615.546875 75 Z M 631.292969 70.5 L 644.789062 70.5 L 644.789062 75 L 631.292969 75 Z M 647.039062 70.5 L 660.535156 70.5 L 660.535156 75 L 647.039062 75 Z M 662.785156 70.5 L 676.28125 70.5 L 676.28125 75 L 662.785156 75 Z M 678.53125 70.5 L 692.03125 70.5 L 692.03125 75 L 678.53125 75 Z M 694.28125 70.5 L 707.777344 70.5 L 707.777344 75 L 694.28125 75 Z M 710.027344 70.5 L 723.523438 70.5 L 723.523438 75 L 710.027344 75 Z M 725.773438 70.5 L 739.269531 70.5 L 739.269531 75 L 725.773438 75 Z M 741.519531 70.5 L 755.019531 70.5 L 755.019531 75 L 741.519531 75 Z M 757.265625 70.5 L 770.765625 70.5 L 770.765625 75 L 757.265625 75 Z M 773.015625 70.5 L 786.511719 70.5 L 786.511719 75 L 773.015625 75 Z M 788.761719 70.5 L 802.257812 70.5 L 802.257812 75 L 788.761719 75 Z M 804.507812 70.5 L 818.003906 70.5 L 818.003906 75 L 804.507812 75 Z M 820.253906 70.5 L 833.753906 70.5 L 833.753906 75 L 820.253906 75 Z M 836 70.5 L 849.5 70.5 L 849.5 75 L 836 75 Z M 851.75 70.5 L 865.246094 70.5 L 865.246094 75 L 851.75 75 Z M 867.496094 70.5 L 880.992188 70.5 L 880.992188 75 L 867.496094 75 Z M 883.242188 70.5 L 896.738281 70.5 L 896.738281 75 L 883.242188 75 Z M 898.988281 70.5 L 912.488281 70.5 L 912.488281 75 L 898.988281 75 Z M 914.738281 70.5 L 928.234375 70.5 L 928.234375 75 L 914.738281 75 Z M 930.484375 70.5 L 943.980469 70.5 L 943.980469 75 L 930.484375 75 Z M 946.230469 70.5 L 959.726562 70.5 L 959.726562 75 L 946.230469 75 Z M 961.976562 70.5 L 975.472656 70.5 L 975.472656 75 L 961.976562 75 Z M 977.722656 70.5 L 991.222656 70.5 L 991.222656 75 L 977.722656 75 Z M 993.472656 70.5 L 1006.96875 70.5 L 1006.96875 75 L 993.472656 75 Z M 1009.21875 70.5 L 1022.714844 70.5 L 1022.714844 75 L 1009.21875 75 Z M 1024.964844 70.5 L 1038.460938 70.5 L 1038.460938 75 L 1024.964844 75 Z M 1040.710938 70.5 L 1054.210938 70.5 L 1054.210938 75 L 1040.710938 75 Z M 1056.457031 70.5 L 1069.957031 70.5 L 1069.957031 75 L 1056.457031 75 Z M 1072.207031 70.5 L 1085.703125 70.5 L 1085.703125 75 L 1072.207031 75 Z M 1087.953125 70.5 L 1101.449219 70.5 L 1101.449219 75 L 1087.953125 75 Z M 1103.699219 70.5 L 1117.195312 70.5 L 1117.195312 75 L 1103.699219 75 Z M 1119.445312 70.5 L 1132.945312 70.5 L 1132.945312 75 L 1119.445312 75 Z M 1135.191406 70.5 L 1148.691406 70.5 L 1148.691406 75 L 1135.191406 75 Z M 1150.941406 70.5 L 1164.4375 70.5 L 1164.4375 75 L 1150.941406 75 Z M 1166.6875 70.5 L 1180.183594 70.5 L 1180.183594 75 L 1166.6875 75 Z M 1182.433594 70.5 L 1195.929688 70.5 L 1195.929688 75 L 1182.433594 75 Z M 1198.179688 70.5 L 1211.679688 70.5 L 1211.679688 75 L 1198.179688 75 Z M 1213.925781 70.5 L 1227.425781 70.5 L 1227.425781 75 L 1213.925781 75 Z M 1229.675781 70.5 L 1243.171875 70.5 L 1243.171875 75 L 1229.675781 75 Z M 1245.421875 70.5 L 1249.394531 70.5 C 1252.78125 70.5 1256.113281 70.917969 1259.394531 71.753906 L 1258.285156 76.113281 C 1255.367188 75.371094 1252.402344 75 1249.394531 75 L 1245.421875 75 Z M 1261.6875 72.410156 C 1266.277344 73.875 1270.472656 76.082031 1274.269531 79.042969 L 1271.507812 82.59375 C 1268.128906 79.964844 1264.402344 78 1260.320312 76.699219 Z M 1276.109375 80.5625 C 1276.765625 81.140625 1277.40625 81.742188 1278.023438 82.359375 C 1280.804688 85.140625 1283.128906 88.257812 1285 91.710938 L 1281.042969 93.855469 C 1279.378906 90.785156 1277.3125 88.011719 1274.84375 85.542969 C 1274.292969 84.992188 1273.726562 84.457031 1273.140625 83.945312 Z M 1286.070312 93.839844 C 1288.113281 98.203125 1289.335938 102.785156 1289.742188 107.585938 L 1285.257812 107.964844 C 1284.898438 103.699219 1283.808594 99.625 1281.996094 95.746094 Z M 1289.871094 109.976562 C 1289.882812 110.320312 1289.886719 110.660156 1289.886719 111 L 1289.886719 123.539062 L 1285.386719 123.539062 L 1285.386719 111 C 1285.386719 110.695312 1285.382812 110.390625 1285.375 110.085938 Z M 1289.886719 125.789062 L 1289.886719 139.289062 L 1285.386719 139.289062 L 1285.386719 125.789062 Z M 1289.886719 141.539062 L 1289.886719 155.039062 L 1285.386719 155.039062 L 1285.386719 141.539062 Z M 1289.886719 157.289062 L 1289.886719 170.789062 L 1285.386719 170.789062 L 1285.386719 157.289062 Z M 1289.886719 173.039062 L 1289.886719 186.539062 L 1285.386719 186.539062 L 1285.386719 173.039062 Z M 1289.886719 188.789062 L 1289.886719 202.289062 L 1285.386719 202.289062 L 1285.386719 188.789062 Z M 1289.886719 204.539062 L 1289.886719 218.039062 L 1285.386719 218.039062 L 1285.386719 204.539062 Z M 1289.886719 220.289062 L 1289.886719 233.789062 L 1285.386719 233.789062 L 1285.386719 220.289062 Z M 1289.886719 236.039062 L 1289.886719 249.539062 L 1285.386719 249.539062 L 1285.386719 236.039062 Z M 1289.886719 251.789062 L 1289.886719 265.289062 L 1285.386719 265.289062 L 1285.386719 251.789062 Z M 1289.886719 267.539062 L 1289.886719 281.039062 L 1285.386719 281.039062 L 1285.386719 267.539062 Z M 1289.886719 283.289062 L 1289.886719 296.789062 L 1285.386719 296.789062 L 1285.386719 283.289062 Z M 1289.886719 299.039062 L 1289.886719 312.539062 L 1285.386719 312.539062 L 1285.386719 299.039062 Z M 1289.886719 314.789062 L 1289.886719 328.289062 L 1285.386719 328.289062 L 1285.386719 314.789062 Z M 1289.886719 330.539062 L 1289.886719 344.039062 L 1285.386719 344.039062 L 1285.386719 330.539062 Z M 1289.886719 346.289062 L 1289.886719 359.789062 L 1285.386719 359.789062 L 1285.386719 346.289062 Z M 1289.886719 362.039062 L 1289.886719 375.539062 L 1285.386719 375.539062 L 1285.386719 362.039062 Z M 1289.886719 377.789062 L 1289.886719 391.289062 L 1285.386719 391.289062 L 1285.386719 377.789062 Z M 1289.886719 393.539062 L 1289.886719 407.039062 L 1285.386719 407.039062 L 1285.386719 393.539062 Z M 1289.886719 409.289062 L 1289.886719 422.789062 L 1285.386719 422.789062 L 1285.386719 409.289062 Z M 1289.886719 425.039062 L 1289.886719 438.539062 L 1285.386719 438.539062 L 1285.386719 425.039062 Z M 1289.886719 440.789062 L 1289.886719 454.289062 L 1285.386719 454.289062 L 1285.386719 440.789062 Z M 1289.886719 456.539062 L 1289.886719 470.039062 L 1285.386719 470.039062 L 1285.386719 456.539062 Z M 1289.886719 472.289062 L 1289.886719 485.789062 L 1285.386719 485.789062 L 1285.386719 472.289062 Z M 1289.886719 488.039062 L 1289.886719 501.539062 L 1285.386719 501.539062 L 1285.386719 488.039062 Z M 1289.886719 503.789062 L 1289.886719 517.289062 L 1285.386719 517.289062 L 1285.386719 503.789062 Z M 1289.886719 519.539062 L 1289.886719 533.039062 L 1285.386719 533.039062 L 1285.386719 519.539062 Z M 1289.886719 535.289062 L 1289.886719 548.789062 L 1285.386719 548.789062 L 1285.386719 535.289062 Z M 1289.886719 551.039062 L 1289.886719 564.539062 L 1285.386719 564.539062 L 1285.386719 551.039062 Z M 1289.886719 566.789062 L 1289.886719 580.289062 L 1285.386719 580.289062 L 1285.386719 566.789062 Z M 1289.886719 582.539062 L 1289.886719 596.039062 L 1285.386719 596.039062 L 1285.386719 582.539062 Z M 1289.886719 598.289062 L 1289.886719 611.789062 L 1285.386719 611.789062 L 1285.386719 598.289062 Z M 1289.886719 614.039062 L 1289.886719 627.539062 L 1285.386719 627.539062 L 1285.386719 614.039062 Z M 1289.886719 629.789062 L 1289.886719 643.289062 L 1285.386719 643.289062 L 1285.386719 629.789062 Z M 1289.886719 645.539062 L 1289.886719 659.039062 L 1285.386719 659.039062 L 1285.386719 645.539062 Z M 1289.886719 661.289062 L 1289.886719 674.789062 L 1285.386719 674.789062 L 1285.386719 661.289062 Z M 1289.886719 677.039062 L 1289.886719 690.539062 L 1285.386719 690.539062 L 1285.386719 677.039062 Z M 1289.886719 692.789062 L 1289.886719 699 C 1289.886719 701.585938 1289.640625 704.148438 1289.148438 706.683594 L 1284.730469 705.832031 C 1285.167969 703.574219 1285.386719 701.296875 1285.386719 699 L 1285.386719 692.789062 Z M 1288.628906 709.015625 C 1287.433594 713.6875 1285.472656 718.003906 1282.738281 721.976562 L 1279.035156 719.421875 C 1281.464844 715.894531 1283.207031 712.054688 1284.269531 707.902344 Z M 1281.332031 723.890625 C 1280.308594 725.207031 1279.207031 726.457031 1278.023438 727.636719 C 1275.816406 729.847656 1273.382812 731.773438 1270.726562 733.421875 L 1268.359375 729.597656 C 1270.71875 728.132812 1272.878906 726.417969 1274.84375 724.453125 C 1275.894531 723.40625 1276.875 722.296875 1277.785156 721.125 Z M 1268.664062 734.617188 C 1264.425781 736.910156 1259.925781 738.398438 1255.160156 739.085938 L 1254.519531 734.632812 C 1258.753906 734.023438 1262.757812 732.699219 1266.523438 730.660156 Z M 1252.792969 739.355469 C 1251.660156 739.449219 1250.527344 739.5 1249.394531 739.5 L 1239.089844 739.5 L 1239.089844 735 L 1249.394531 735 C 1250.402344 735 1251.410156 734.957031 1252.414062 734.871094 Z M 1236.839844 739.5 L 1223.34375 739.5 L 1223.34375 735 L 1236.839844 735 Z M 1221.09375 739.5 L 1207.597656 739.5 L 1207.597656 735 L 1221.09375 735 Z M 1205.347656 739.5 L 1191.851562 739.5 L 1191.851562 735 L 1205.347656 735 Z M 1189.601562 739.5 L 1176.101562 739.5 L 1176.101562 735 L 1189.601562 735 Z M 1173.855469 739.5 L 1160.355469 739.5 L 1160.355469 735 L 1173.855469 735 Z M 1158.105469 739.5 L 1144.609375 739.5 L 1144.609375 735 L 1158.105469 735 Z M 1142.359375 739.5 L 1128.863281 739.5 L 1128.863281 735 L 1142.359375 735 Z M 1126.613281 739.5 L 1113.117188 739.5 L 1113.117188 735 L 1126.613281 735 Z M 1110.867188 739.5 L 1097.367188 739.5 L 1097.367188 735 L 1110.867188 735 Z M 1095.121094 739.5 L 1081.621094 739.5 L 1081.621094 735 L 1095.121094 735 Z M 1079.371094 739.5 L 1065.875 739.5 L 1065.875 735 L 1079.371094 735 Z M 1063.625 739.5 L 1050.128906 739.5 L 1050.128906 735 L 1063.625 735 Z M 1047.878906 739.5 L 1034.382812 739.5 L 1034.382812 735 L 1047.878906 735 Z M 1032.132812 739.5 L 1018.632812 739.5 L 1018.632812 735 L 1032.132812 735 Z M 1016.382812 739.5 L 1002.886719 739.5 L 1002.886719 735 L 1016.382812 735 Z M 1000.636719 739.5 L 987.140625 739.5 L 987.140625 735 L 1000.636719 735 Z M 984.890625 739.5 L 971.394531 739.5 L 971.394531 735 L 984.890625 735 Z M 969.144531 739.5 L 955.648438 739.5 L 955.648438 735 L 969.144531 735 Z M 953.398438 739.5 L 939.898438 739.5 L 939.898438 735 L 953.398438 735 Z M 937.648438 739.5 L 924.152344 739.5 L 924.152344 735 L 937.648438 735 Z M 921.902344 739.5 L 908.40625 739.5 L 908.40625 735 L 921.902344 735 Z M 906.15625 739.5 L 892.660156 739.5 L 892.660156 735 L 906.15625 735 Z M 890.410156 739.5 L 876.910156 739.5 L 876.910156 735 L 890.410156 735 Z M 874.664062 739.5 L 861.164062 739.5 L 861.164062 735 L 874.664062 735 Z M 858.914062 739.5 L 845.417969 739.5 L 845.417969 735 L 858.914062 735 Z M 843.167969 739.5 L 829.671875 739.5 L 829.671875 735 L 843.167969 735 Z M 827.421875 739.5 L 813.925781 739.5 L 813.925781 735 L 827.421875 735 Z M 811.675781 739.5 L 798.175781 739.5 L 798.175781 735 L 811.675781 735 Z M 795.929688 739.5 L 782.429688 739.5 L 782.429688 735 L 795.929688 735 Z M 780.179688 739.5 L 766.683594 739.5 L 766.683594 735 L 780.179688 735 Z M 764.433594 739.5 L 750.9375 739.5 L 750.9375 735 L 764.433594 735 Z M 748.6875 739.5 L 735.191406 739.5 L 735.191406 735 L 748.6875 735 Z M 732.941406 739.5 L 719.441406 739.5 L 719.441406 735 L 732.941406 735 Z M 717.195312 739.5 L 703.695312 739.5 L 703.695312 735 L 717.195312 735 Z M 701.445312 739.5 L 687.949219 739.5 L 687.949219 735 L 701.445312 735 Z M 685.699219 739.5 L 672.203125 739.5 L 672.203125 735 L 685.699219 735 Z M 669.953125 739.5 L 656.457031 739.5 L 656.457031 735 L 669.953125 735 Z M 654.207031 739.5 L 640.707031 739.5 L 640.707031 735 L 654.207031 735 Z M 638.457031 739.5 L 624.960938 739.5 L 624.960938 735 L 638.457031 735 Z M 622.710938 739.5 L 609.214844 739.5 L 609.214844 735 L 622.710938 735 Z M 606.964844 739.5 L 593.46875 739.5 L 593.46875 735 L 606.964844 735 Z M 591.21875 739.5 L 577.722656 739.5 L 577.722656 735 L 591.21875 735 Z M 575.472656 739.5 L 561.972656 739.5 L 561.972656 735 L 575.472656 735 Z M 559.722656 739.5 L 546.226562 739.5 L 546.226562 735 L 559.722656 735 Z M 543.976562 739.5 L 530.480469 739.5 L 530.480469 735 L 543.976562 735 Z M 528.230469 739.5 L 514.734375 739.5 L 514.734375 735 L 528.230469 735 Z M 512.484375 739.5 L 498.984375 739.5 L 498.984375 735 L 512.484375 735 Z M 496.738281 739.5 L 483.238281 739.5 L 483.238281 735 L 496.738281 735 Z M 480.988281 739.5 L 467.492188 739.5 L 467.492188 735 L 480.988281 735 Z M 465.242188 739.5 L 451.746094 739.5 L 451.746094 735 L 465.242188 735 Z M 449.496094 739.5 L 436 739.5 L 436 735 L 449.496094 735 Z M 433.75 739.5 L 420.25 739.5 L 420.25 735 L 433.75 735 Z M 418.003906 739.5 L 404.503906 739.5 L 404.503906 735 L 418.003906 735 Z M 402.253906 739.5 L 388.757812 739.5 L 388.757812 735 L 402.253906 735 Z M 386.507812 739.5 L 373.011719 739.5 L 373.011719 735 L 386.507812 735 Z M 370.761719 739.5 L 357.265625 739.5 L 357.265625 735 L 370.761719 735 Z M 355.015625 739.5 L 341.515625 739.5 L 341.515625 735 L 355.015625 735 Z M 339.265625 739.5 L 325.769531 739.5 L 325.769531 735 L 339.265625 735 Z M 323.519531 739.5 L 310.023438 739.5 L 310.023438 735 L 323.519531 735 Z M 307.773438 739.5 L 294.277344 739.5 L 294.277344 735 L 307.773438 735 Z M 292.027344 739.5 L 278.53125 739.5 L 278.53125 735 L 292.027344 735 Z M 276.28125 739.5 L 262.78125 739.5 L 262.78125 735 L 276.28125 735 Z M 260.53125 739.5 L 247.035156 739.5 L 247.035156 735 L 260.53125 735 Z M 244.785156 739.5 L 231.289062 739.5 L 231.289062 735 L 244.785156 735 Z M 229.039062 739.5 L 215.542969 739.5 L 215.542969 735 L 229.039062 735 Z M 213.292969 739.5 L 199.792969 739.5 L 199.792969 735 L 213.292969 735 Z M 197.546875 739.5 L 190.378906 739.5 C 188.132812 739.5 185.902344 739.3125 183.6875 738.941406 L 184.433594 734.503906 C 186.398438 734.832031 188.382812 735 190.378906 735 L 197.546875 735 Z M 181.351562 738.480469 C 176.652344 737.40625 172.285156 735.550781 168.25 732.914062 L 170.707031 729.148438 C 174.296875 731.488281 178.179688 733.136719 182.355469 734.09375 Z M 166.296875 731.558594 C 164.683594 730.363281 163.167969 729.058594 161.746094 727.636719 C 159.78125 725.667969 158.035156 723.523438 156.511719 721.199219 L 160.273438 718.730469 C 161.628906 720.796875 163.179688 722.707031 164.929688 724.453125 C 166.191406 725.71875 167.539062 726.878906 168.972656 727.941406 Z M 155.261719 719.160156 C 152.863281 714.980469 151.261719 710.515625 150.457031 705.765625 L 154.890625 705.015625 C 155.605469 709.238281 157.03125 713.207031 159.164062 716.921875 Z M 150.128906 703.410156 C 149.96875 701.945312 149.886719 700.472656 149.886719 699 L 149.886719 689.652344 L 154.386719 689.652344 L 154.386719 699 C 154.386719 700.308594 154.457031 701.617188 154.601562 702.921875 Z M 149.886719 687.402344 L 149.886719 673.902344 L 154.386719 673.902344 L 154.386719 687.402344 Z M 149.886719 671.652344 L 149.886719 658.152344 L 154.386719 658.152344 L 154.386719 671.652344 Z M 149.886719 655.902344 L 149.886719 642.402344 L 154.386719 642.402344 L 154.386719 655.902344 Z M 149.886719 640.152344 L 149.886719 626.652344 L 154.386719 626.652344 L 154.386719 640.152344 Z M 149.886719 624.402344 L 149.886719 610.902344 L 154.386719 610.902344 L 154.386719 624.402344 Z M 149.886719 608.652344 L 149.886719 595.152344 L 154.386719 595.152344 L 154.386719 608.652344 Z M 149.886719 592.902344 L 149.886719 579.402344 L 154.386719 579.402344 L 154.386719 592.902344 Z M 149.886719 577.152344 L 149.886719 563.652344 L 154.386719 563.652344 L 154.386719 577.152344 Z M 149.886719 561.402344 L 149.886719 547.902344 L 154.386719 547.902344 L 154.386719 561.402344 Z M 149.886719 545.652344 L 149.886719 532.152344 L 154.386719 532.152344 L 154.386719 545.652344 Z M 149.886719 529.902344 L 149.886719 516.402344 L 154.386719 516.402344 L 154.386719 529.902344 Z M 149.886719 514.152344 L 149.886719 500.652344 L 154.386719 500.652344 L 154.386719 514.152344 Z M 149.886719 498.402344 L 149.886719 484.902344 L 154.386719 484.902344 L 154.386719 498.402344 Z M 149.886719 482.652344 L 149.886719 469.152344 L 154.386719 469.152344 L 154.386719 482.652344 Z M 149.886719 466.902344 L 149.886719 453.402344 L 154.386719 453.402344 L 154.386719 466.902344 Z M 149.886719 451.152344 L 149.886719 437.652344 L 154.386719 437.652344 L 154.386719 451.152344 Z M 149.886719 435.402344 L 149.886719 421.902344 L 154.386719 421.902344 L 154.386719 435.402344 Z M 149.886719 419.652344 L 149.886719 406.152344 L 154.386719 406.152344 L 154.386719 419.652344 Z M 149.886719 403.902344 L 149.886719 390.402344 L 154.386719 390.402344 L 154.386719 403.902344 Z M 149.886719 388.152344 L 149.886719 374.652344 L 154.386719 374.652344 L 154.386719 388.152344 Z M 149.886719 372.402344 L 149.886719 358.902344 L 154.386719 358.902344 L 154.386719 372.402344 Z M 149.886719 356.652344 L 149.886719 343.152344 L 154.386719 343.152344 L 154.386719 356.652344 Z M 149.886719 340.902344 L 149.886719 327.402344 L 154.386719 327.402344 L 154.386719 340.902344 Z M 149.886719 325.152344 L 149.886719 311.652344 L 154.386719 311.652344 L 154.386719 325.152344 Z M 149.886719 309.402344 L 149.886719 295.902344 L 154.386719 295.902344 L 154.386719 309.402344 Z M 149.886719 293.652344 L 149.886719 280.152344 L 154.386719 280.152344 L 154.386719 293.652344 Z M 149.886719 277.902344 L 149.886719 264.402344 L 154.386719 264.402344 L 154.386719 277.902344 Z M 149.886719 262.152344 L 149.886719 248.652344 L 154.386719 248.652344 L 154.386719 262.152344 Z M 149.886719 246.402344 L 149.886719 232.902344 L 154.386719 232.902344 L 154.386719 246.402344 Z M 149.886719 230.652344 L 149.886719 217.152344 L 154.386719 217.152344 L 154.386719 230.652344 Z M 149.886719 214.902344 L 149.886719 201.402344 L 154.386719 201.402344 L 154.386719 214.902344 Z M 149.886719 199.152344 L 149.886719 185.652344 L 154.386719 185.652344 L 154.386719 199.152344 Z M 149.886719 183.402344 L 149.886719 169.902344 L 154.386719 169.902344 L 154.386719 183.402344 Z M 149.886719 167.652344 L 149.886719 154.152344 L 154.386719 154.152344 L 154.386719 167.652344 Z M 149.886719 151.902344 L 149.886719 138.402344 L 154.386719 138.402344 L 154.386719 151.902344 Z M 149.886719 136.152344 L 149.886719 122.652344 L 154.386719 122.652344 L 154.386719 136.152344 Z M 149.886719 120.402344 L 149.886719 111 C 149.886719 109.542969 149.964844 108.09375 150.121094 106.648438 L 154.59375 107.132812 C 154.453125 108.417969 154.386719 109.707031 154.386719 111 L 154.386719 120.402344 Z M 150.445312 104.292969 C 151.242188 99.542969 152.835938 95.074219 155.230469 90.890625 L 159.136719 93.125 C 157.007812 96.84375 155.589844 100.8125 154.882812 105.039062 Z M 156.476562 88.851562 C 158.007812 86.507812 159.765625 84.34375 161.746094 82.359375 C 163.152344 80.953125 164.652344 79.660156 166.246094 78.476562 L 168.929688 82.089844 C 167.511719 83.140625 166.175781 84.292969 164.929688 85.542969 C 163.167969 87.304688 161.605469 89.226562 160.242188 91.3125 Z M 168.195312 77.117188 C 172.226562 74.476562 176.59375 72.613281 181.289062 71.53125 L 182.300781 75.917969 C 178.125 76.878906 174.246094 78.535156 170.660156 80.882812 Z M 183.625 71.066406 C 185.859375 70.6875 188.109375 70.5 190.378906 70.5 L 190.378906 75 C 188.363281 75 186.363281 75.167969 184.375 75.503906 Z M 183.625 71.066406 " fill-opacity="1" fill-rule="nonzero"/></g></g></svg>