<svg xmlns="http://www.w3.org/2000/svg" xmlns:xlink="http://www.w3.org/1999/xlink" width="1920" zoomAndPan="magnify" viewBox="0 0 1440 809.999993" height="1080" preserveAspectRatio="xMidYMid meet" version="1.0"><defs><g/><clipPath id="f7c0976ef9"><path d="M 597.121094 22.75 L 860.316406 22.75 L 860.316406 175 L 597.121094 175 Z M 597.121094 22.75 " clip-rule="nonzero"/></clipPath><clipPath id="916a8f17cb"><path d="M 727.660156 98.675781 L 859.945312 98.675781 L 859.945312 326.5 L 727.660156 326.5 Z M 727.660156 98.675781 " clip-rule="nonzero"/></clipPath><clipPath id="e6967f1065"><path d="M 597.121094 98.675781 L 728.96875 98.675781 L 728.96875 326.5 L 597.121094 326.5 Z M 597.121094 98.675781 " clip-rule="nonzero"/></clipPath></defs><g clip-path="url(#f7c0976ef9)"><path fill="#e8d6a2" d="M 728.71875 174.625 L 860.316406 98.6875 L 728.71875 22.75 L 597.121094 98.6875 L 728.71875 174.625 " fill-opacity="1" fill-rule="nonzero"/></g><path fill="#b58850" d="M 782.496094 143.59375 L 806.539062 129.71875 L 674.941406 53.78125 L 650.898438 67.652344 L 782.496094 143.59375 " fill-opacity="1" fill-rule="nonzero"/><g clip-path="url(#916a8f17cb)"><path fill="#b58850" d="M 859.53125 250.5625 L 727.933594 326.503906 L 727.933594 174.625 L 859.53125 98.6875 L 859.53125 250.5625 " fill-opacity="1" fill-rule="nonzero"/></g><path fill="#815300" d="M 805.753906 281.597656 L 781.710938 295.46875 L 781.710938 274.269531 L 805.753906 260.398438 L 805.753906 281.597656 " fill-opacity="1" fill-rule="nonzero"/><path fill="#815300" d="M 805.753906 150.917969 L 781.710938 164.792969 L 781.710938 143.59375 L 805.753906 129.71875 L 805.753906 150.917969 " fill-opacity="1" fill-rule="nonzero"/><g clip-path="url(#e6967f1065)"><path fill="#d6b477" d="M 728.71875 326.503906 L 597.121094 250.5625 L 597.121094 98.6875 L 728.71875 174.625 L 728.71875 326.503906 " fill-opacity="1" fill-rule="nonzero"/></g><path fill="#815300" d="M 653.855469 268.222656 L 630.210938 254.582031 L 630.210938 227.296875 L 653.855469 240.9375 Z M 628.996094 225.191406 L 628.996094 255.28125 L 655.070312 270.328125 L 655.070312 240.238281 L 628.996094 225.191406 " fill-opacity="1" fill-rule="nonzero"/><path fill="#815300" d="M 635.804688 251.796875 L 639.148438 253.726562 L 639.148438 241.027344 L 641.046875 242.121094 L 637.476562 234.285156 L 633.90625 238.003906 L 635.804688 239.097656 L 635.804688 251.796875 " fill-opacity="1" fill-rule="nonzero"/><path fill="#815300" d="M 644.917969 257.054688 L 648.261719 258.984375 L 648.261719 246.285156 L 650.160156 247.382812 L 646.589844 239.542969 L 643.019531 243.261719 L 644.917969 244.359375 L 644.917969 257.054688 " fill-opacity="1" fill-rule="nonzero"/><path fill="#815300" d="M 651.539062 262.34375 L 632.53125 251.375 L 632.53125 253.855469 L 651.539062 264.824219 L 651.539062 262.34375 " fill-opacity="1" fill-rule="nonzero"/><path fill="#815300" d="M 684.234375 285.753906 L 660.59375 272.113281 L 660.59375 244.828125 L 684.234375 258.472656 Z M 659.378906 242.722656 L 659.378906 272.816406 L 685.449219 287.859375 L 685.449219 257.769531 L 659.378906 242.722656 " fill-opacity="1" fill-rule="nonzero"/><path fill="#815300" d="M 671.515625 267.890625 L 671.515625 273.871094 L 668.757812 272.28125 C 668.285156 272.007812 667.898438 272.226562 667.898438 272.773438 L 667.898438 273.511719 L 676.929688 278.722656 L 676.929688 277.984375 C 676.929688 277.4375 676.546875 276.773438 676.070312 276.5 L 673.3125 274.90625 L 673.3125 268.925781 C 676.257812 270.125 678.519531 268.507812 678.519531 264.96875 L 678.519531 258.738281 L 675.105469 256.769531 L 673.875 259.203125 L 676.730469 260.847656 L 671.589844 264.816406 L 673.261719 260.699219 L 670.613281 259.167969 L 672.378906 255.195312 L 666.3125 251.695312 L 666.3125 257.925781 C 666.3125 261.464844 668.574219 265.691406 671.515625 267.890625 " fill-opacity="1" fill-rule="nonzero"/><path fill="#815300" d="M 714.742188 303.359375 L 691.097656 289.714844 L 691.097656 262.429688 L 714.742188 276.074219 Z M 689.882812 260.328125 L 689.882812 290.417969 L 715.957031 305.460938 L 715.957031 275.375 L 689.882812 260.328125 " fill-opacity="1" fill-rule="nonzero"/><path fill="#815300" d="M 699.195312 281.246094 C 700.152344 281.289062 701.234375 281.3125 702.394531 281.835938 C 702.363281 281.898438 702.34375 281.976562 702.34375 282.074219 L 702.34375 290.578125 C 702.34375 291.394531 701.769531 291.726562 701.0625 291.316406 C 700.355469 290.910156 699.78125 289.917969 699.78125 289.101562 C 699.78125 288.734375 699.523438 288.285156 699.207031 288.101562 C 698.886719 287.917969 698.628906 288.070312 698.628906 288.433594 C 698.628906 289.984375 699.722656 291.871094 701.0625 292.648438 C 702.40625 293.421875 703.496094 292.792969 703.496094 291.242188 L 703.496094 282.738281 C 703.496094 282.644531 703.476562 282.542969 703.445312 282.441406 C 704.605469 283.257812 705.691406 284.484375 706.648438 285.546875 C 707.746094 285.59375 708.625 285.394531 709.980469 286.175781 C 710.722656 286.605469 711.824219 287.710938 712.5 288.285156 C 712.070312 283.636719 708.25 277.609375 703.496094 274.578125 L 703.496094 272.515625 C 703.496094 272.148438 703.238281 271.703125 702.921875 271.515625 C 702.601562 271.332031 702.34375 271.480469 702.34375 271.851562 L 702.34375 273.902344 C 697.589844 271.457031 693.769531 273.074219 693.335938 277.226562 C 694.015625 277.433594 695.117188 277.601562 695.859375 278.027344 C 697.21875 278.8125 698.097656 280.023438 699.195312 281.246094 " fill-opacity="1" fill-rule="nonzero"/><g fill="#526479" fill-opacity="1"><g transform="translate(532.971722, 373.035059)"><g><path d="M 3.40625 0 L 3.40625 -28.796875 L 9.890625 -28.796875 L 9.890625 -17 L 10.078125 -17 L 18.640625 -28.796875 L 25.796875 -28.796875 L 17.09375 -17.3125 L 27.390625 0 L 20.28125 0 L 13.25 -12.140625 L 9.890625 -7.734375 L 9.890625 0 Z M 3.40625 0 "/></g></g></g><g fill="#526479" fill-opacity="1"><g transform="translate(560.083701, 373.035059)"><g><path d="M 2.875 0 L 2.875 -21.90625 L 8.171875 -21.90625 L 8.609375 -19.125 L 8.796875 -19.125 C 9.734375 -20.007812 10.757812 -20.78125 11.875 -21.4375 C 13 -22.101562 14.3125 -22.4375 15.8125 -22.4375 C 18.195312 -22.4375 19.925781 -21.65625 21 -20.09375 C 22.070312 -18.53125 22.609375 -16.367188 22.609375 -13.609375 L 22.609375 0 L 16.125 0 L 16.125 -12.765625 C 16.125 -14.359375 15.910156 -15.445312 15.484375 -16.03125 C 15.054688 -16.625 14.367188 -16.921875 13.421875 -16.921875 C 12.597656 -16.921875 11.890625 -16.734375 11.296875 -16.359375 C 10.710938 -15.992188 10.066406 -15.472656 9.359375 -14.796875 L 9.359375 0 Z M 2.875 0 "/></g></g></g><g fill="#526479" fill-opacity="1"><g transform="translate(585.341108, 373.035059)"><g><path d="M 12.28125 0.53125 C 10.894531 0.53125 9.550781 0.273438 8.25 -0.234375 C 6.957031 -0.753906 5.816406 -1.5 4.828125 -2.46875 C 3.847656 -3.445312 3.0625 -4.648438 2.46875 -6.078125 C 1.882812 -7.503906 1.59375 -9.128906 1.59375 -10.953125 C 1.59375 -12.773438 1.882812 -14.398438 2.46875 -15.828125 C 3.0625 -17.265625 3.847656 -18.46875 4.828125 -19.4375 C 5.816406 -20.40625 6.957031 -21.144531 8.25 -21.65625 C 9.550781 -22.175781 10.894531 -22.4375 12.28125 -22.4375 C 13.664062 -22.4375 15 -22.175781 16.28125 -21.65625 C 17.5625 -21.144531 18.691406 -20.40625 19.671875 -19.4375 C 20.660156 -18.46875 21.445312 -17.265625 22.03125 -15.828125 C 22.625 -14.398438 22.921875 -12.773438 22.921875 -10.953125 C 22.921875 -9.128906 22.625 -7.503906 22.03125 -6.078125 C 21.445312 -4.648438 20.660156 -3.445312 19.671875 -2.46875 C 18.691406 -1.5 17.5625 -0.753906 16.28125 -0.234375 C 15 0.273438 13.664062 0.53125 12.28125 0.53125 Z M 12.28125 -4.71875 C 13.601562 -4.71875 14.601562 -5.273438 15.28125 -6.390625 C 15.957031 -7.515625 16.296875 -9.035156 16.296875 -10.953125 C 16.296875 -12.867188 15.957031 -14.382812 15.28125 -15.5 C 14.601562 -16.625 13.601562 -17.1875 12.28125 -17.1875 C 10.925781 -17.1875 9.914062 -16.625 9.25 -15.5 C 8.59375 -14.382812 8.265625 -12.867188 8.265625 -10.953125 C 8.265625 -9.035156 8.59375 -7.515625 9.25 -6.390625 C 9.914062 -5.273438 10.925781 -4.71875 12.28125 -4.71875 Z M 12.28125 -4.71875 "/></g></g></g><g fill="#526479" fill-opacity="1"><g transform="translate(609.847862, 373.035059)"><g><path d="M 6.53125 0 L 1.0625 -21.90625 L 7.515625 -21.90625 L 9.625 -11.75 C 9.800781 -10.65625 9.960938 -9.578125 10.109375 -8.515625 C 10.265625 -7.460938 10.425781 -6.375 10.59375 -5.25 L 10.78125 -5.25 C 10.988281 -6.375 11.1875 -7.476562 11.375 -8.5625 C 11.5625 -9.65625 11.789062 -10.71875 12.0625 -11.75 L 14.484375 -21.90625 L 20.09375 -21.90625 L 22.578125 -11.75 C 22.835938 -10.65625 23.070312 -9.578125 23.28125 -8.515625 C 23.488281 -7.460938 23.707031 -6.375 23.9375 -5.25 L 24.125 -5.25 C 24.320312 -6.375 24.488281 -7.460938 24.625 -8.515625 C 24.757812 -9.578125 24.929688 -10.65625 25.140625 -11.75 L 27.203125 -21.90625 L 33.21875 -21.90625 L 27.953125 0 L 20.359375 0 L 18.375 -8.75 C 18.132812 -9.78125 17.925781 -10.8125 17.75 -11.84375 C 17.570312 -12.875 17.382812 -13.976562 17.1875 -15.15625 L 17 -15.15625 C 16.800781 -13.976562 16.617188 -12.875 16.453125 -11.84375 C 16.296875 -10.8125 16.113281 -9.78125 15.90625 -8.75 L 13.953125 0 Z M 6.53125 0 "/></g></g></g><g fill="#526479" fill-opacity="1"><g transform="translate(644.113165, 373.035059)"><g><path d="M 8.828125 0.53125 C 7.710938 0.53125 6.769531 0.351562 6 0 C 5.238281 -0.351562 4.628906 -0.84375 4.171875 -1.46875 C 3.710938 -2.101562 3.378906 -2.867188 3.171875 -3.765625 C 2.972656 -4.671875 2.875 -5.679688 2.875 -6.796875 L 2.875 -30.96875 L 9.359375 -30.96875 L 9.359375 -6.53125 C 9.359375 -5.851562 9.484375 -5.378906 9.734375 -5.109375 C 9.984375 -4.847656 10.242188 -4.71875 10.515625 -4.71875 C 10.660156 -4.71875 10.785156 -4.71875 10.890625 -4.71875 C 10.992188 -4.71875 11.132812 -4.75 11.3125 -4.8125 L 12.109375 0 C 11.753906 0.144531 11.300781 0.269531 10.75 0.375 C 10.207031 0.476562 9.566406 0.53125 8.828125 0.53125 Z M 8.828125 0.53125 "/></g></g></g><g fill="#526479" fill-opacity="1"><g transform="translate(656.741868, 373.035059)"><g><path d="M 12.671875 0.53125 C 11.117188 0.53125 9.660156 0.273438 8.296875 -0.234375 C 6.941406 -0.753906 5.765625 -1.503906 4.765625 -2.484375 C 3.765625 -3.472656 2.984375 -4.675781 2.421875 -6.09375 C 1.867188 -7.507812 1.59375 -9.128906 1.59375 -10.953125 C 1.59375 -12.722656 1.882812 -14.320312 2.46875 -15.75 C 3.0625 -17.175781 3.835938 -18.378906 4.796875 -19.359375 C 5.753906 -20.347656 6.847656 -21.109375 8.078125 -21.640625 C 9.316406 -22.171875 10.597656 -22.4375 11.921875 -22.4375 C 13.484375 -22.4375 14.84375 -22.171875 16 -21.640625 C 17.164062 -21.109375 18.140625 -20.367188 18.921875 -19.421875 C 19.703125 -18.484375 20.285156 -17.375 20.671875 -16.09375 C 21.054688 -14.8125 21.25 -13.421875 21.25 -11.921875 C 21.25 -11.335938 21.21875 -10.78125 21.15625 -10.25 C 21.09375 -9.71875 21.035156 -9.320312 20.984375 -9.0625 L 7.859375 -9.0625 C 8.148438 -7.46875 8.804688 -6.296875 9.828125 -5.546875 C 10.847656 -4.796875 12.09375 -4.421875 13.5625 -4.421875 C 15.125 -4.421875 16.695312 -4.90625 18.28125 -5.875 L 20.453125 -1.9375 C 19.328125 -1.175781 18.082031 -0.570312 16.71875 -0.125 C 15.351562 0.3125 14.003906 0.53125 12.671875 0.53125 Z M 7.8125 -13.34375 L 15.71875 -13.34375 C 15.71875 -14.570312 15.4375 -15.566406 14.875 -16.328125 C 14.320312 -17.097656 13.382812 -17.484375 12.0625 -17.484375 C 11.03125 -17.484375 10.125 -17.144531 9.34375 -16.46875 C 8.5625 -15.789062 8.050781 -14.75 7.8125 -13.34375 Z M 7.8125 -13.34375 "/></g></g></g><g fill="#526479" fill-opacity="1"><g transform="translate(679.614841, 373.035059)"><g><path d="M 10.6875 0.53125 C 9.332031 0.53125 8.101562 0.265625 7 -0.265625 C 5.894531 -0.796875 4.953125 -1.550781 4.171875 -2.53125 C 3.390625 -3.519531 2.785156 -4.722656 2.359375 -6.140625 C 1.929688 -7.554688 1.71875 -9.160156 1.71875 -10.953125 C 1.71875 -12.753906 1.972656 -14.359375 2.484375 -15.765625 C 3.003906 -17.179688 3.679688 -18.378906 4.515625 -19.359375 C 5.359375 -20.347656 6.332031 -21.109375 7.4375 -21.640625 C 8.539062 -22.171875 9.671875 -22.4375 10.828125 -22.4375 C 12.054688 -22.4375 13.066406 -22.226562 13.859375 -21.8125 C 14.660156 -21.40625 15.445312 -20.847656 16.21875 -20.140625 L 15.953125 -23.5 L 15.953125 -30.96875 L 22.4375 -30.96875 L 22.4375 0 L 17.140625 0 L 16.703125 -2.171875 L 16.515625 -2.171875 C 15.753906 -1.398438 14.859375 -0.753906 13.828125 -0.234375 C 12.796875 0.273438 11.75 0.53125 10.6875 0.53125 Z M 12.375 -4.765625 C 13.070312 -4.765625 13.707031 -4.910156 14.28125 -5.203125 C 14.863281 -5.503906 15.421875 -6.023438 15.953125 -6.765625 L 15.953125 -15.71875 C 15.359375 -16.25 14.75 -16.617188 14.125 -16.828125 C 13.507812 -17.035156 12.910156 -17.140625 12.328125 -17.140625 C 11.296875 -17.140625 10.378906 -16.644531 9.578125 -15.65625 C 8.785156 -14.664062 8.390625 -13.128906 8.390625 -11.046875 C 8.390625 -8.867188 8.734375 -7.273438 9.421875 -6.265625 C 10.117188 -5.265625 11.101562 -4.765625 12.375 -4.765625 Z M 12.375 -4.765625 "/></g></g></g><g fill="#526479" fill-opacity="1"><g transform="translate(704.916411, 373.035059)"><g><path d="M 10.6875 9.3125 C 9.394531 9.3125 8.195312 9.203125 7.09375 8.984375 C 5.988281 8.765625 5.015625 8.429688 4.171875 7.984375 C 3.335938 7.546875 2.679688 6.972656 2.203125 6.265625 C 1.734375 5.566406 1.5 4.726562 1.5 3.75 C 1.5 1.988281 2.546875 0.519531 4.640625 -0.65625 L 4.640625 -0.84375 C 4.046875 -1.21875 3.554688 -1.703125 3.171875 -2.296875 C 2.796875 -2.890625 2.609375 -3.640625 2.609375 -4.546875 C 2.609375 -5.347656 2.84375 -6.109375 3.3125 -6.828125 C 3.78125 -7.546875 4.367188 -8.15625 5.078125 -8.65625 L 5.078125 -8.828125 C 4.316406 -9.359375 3.632812 -10.117188 3.03125 -11.109375 C 2.425781 -12.097656 2.125 -13.238281 2.125 -14.53125 C 2.125 -15.851562 2.375 -17.007812 2.875 -18 C 3.375 -18.988281 4.039062 -19.8125 4.875 -20.46875 C 5.71875 -21.132812 6.679688 -21.628906 7.765625 -21.953125 C 8.859375 -22.273438 9.992188 -22.4375 11.171875 -22.4375 C 12.472656 -22.4375 13.609375 -22.257812 14.578125 -21.90625 L 22.578125 -21.90625 L 22.578125 -17.1875 L 19.078125 -17.1875 C 19.285156 -16.863281 19.453125 -16.445312 19.578125 -15.9375 C 19.710938 -15.4375 19.78125 -14.894531 19.78125 -14.3125 C 19.78125 -13.039062 19.5625 -11.941406 19.125 -11.015625 C 18.6875 -10.085938 18.078125 -9.320312 17.296875 -8.71875 C 16.515625 -8.113281 15.597656 -7.664062 14.546875 -7.375 C 13.503906 -7.082031 12.378906 -6.9375 11.171875 -6.9375 C 10.316406 -6.9375 9.4375 -7.082031 8.53125 -7.375 C 8.226562 -7.132812 8.019531 -6.894531 7.90625 -6.65625 C 7.789062 -6.425781 7.734375 -6.125 7.734375 -5.75 C 7.734375 -5.1875 7.972656 -4.769531 8.453125 -4.5 C 8.941406 -4.238281 9.804688 -4.109375 11.046875 -4.109375 L 14.578125 -4.109375 C 17.285156 -4.109375 19.351562 -3.671875 20.78125 -2.796875 C 22.207031 -1.929688 22.921875 -0.515625 22.921875 1.453125 C 22.921875 2.609375 22.632812 3.660156 22.0625 4.609375 C 21.488281 5.566406 20.671875 6.390625 19.609375 7.078125 C 18.546875 7.773438 17.265625 8.320312 15.765625 8.71875 C 14.265625 9.113281 12.570312 9.3125 10.6875 9.3125 Z M 11.171875 -10.859375 C 12.023438 -10.859375 12.738281 -11.160156 13.3125 -11.765625 C 13.882812 -12.367188 14.171875 -13.289062 14.171875 -14.53125 C 14.171875 -15.675781 13.882812 -16.550781 13.3125 -17.15625 C 12.738281 -17.757812 12.023438 -18.0625 11.171875 -18.0625 C 10.316406 -18.0625 9.601562 -17.765625 9.03125 -17.171875 C 8.457031 -16.585938 8.171875 -15.707031 8.171875 -14.53125 C 8.171875 -13.289062 8.457031 -12.367188 9.03125 -11.765625 C 9.601562 -11.160156 10.316406 -10.859375 11.171875 -10.859375 Z M 11.703125 5.25 C 13.179688 5.25 14.390625 4.988281 15.328125 4.46875 C 16.265625 3.957031 16.734375 3.320312 16.734375 2.5625 C 16.734375 1.882812 16.445312 1.425781 15.875 1.1875 C 15.300781 0.957031 14.472656 0.84375 13.390625 0.84375 L 11.125 0.84375 C 10.363281 0.84375 9.742188 0.816406 9.265625 0.765625 C 8.796875 0.722656 8.390625 0.660156 8.046875 0.578125 C 7.242188 1.285156 6.84375 2.003906 6.84375 2.734375 C 6.84375 3.554688 7.285156 4.179688 8.171875 4.609375 C 9.054688 5.035156 10.234375 5.25 11.703125 5.25 Z M 11.703125 5.25 "/></g></g></g><g fill="#526479" fill-opacity="1"><g transform="translate(728.495897, 373.035059)"><g><path d="M 12.671875 0.53125 C 11.117188 0.53125 9.660156 0.273438 8.296875 -0.234375 C 6.941406 -0.753906 5.765625 -1.503906 4.765625 -2.484375 C 3.765625 -3.472656 2.984375 -4.675781 2.421875 -6.09375 C 1.867188 -7.507812 1.59375 -9.128906 1.59375 -10.953125 C 1.59375 -12.722656 1.882812 -14.320312 2.46875 -15.75 C 3.0625 -17.175781 3.835938 -18.378906 4.796875 -19.359375 C 5.753906 -20.347656 6.847656 -21.109375 8.078125 -21.640625 C 9.316406 -22.171875 10.597656 -22.4375 11.921875 -22.4375 C 13.484375 -22.4375 14.84375 -22.171875 16 -21.640625 C 17.164062 -21.109375 18.140625 -20.367188 18.921875 -19.421875 C 19.703125 -18.484375 20.285156 -17.375 20.671875 -16.09375 C 21.054688 -14.8125 21.25 -13.421875 21.25 -11.921875 C 21.25 -11.335938 21.21875 -10.78125 21.15625 -10.25 C 21.09375 -9.71875 21.035156 -9.320312 20.984375 -9.0625 L 7.859375 -9.0625 C 8.148438 -7.46875 8.804688 -6.296875 9.828125 -5.546875 C 10.847656 -4.796875 12.09375 -4.421875 13.5625 -4.421875 C 15.125 -4.421875 16.695312 -4.90625 18.28125 -5.875 L 20.453125 -1.9375 C 19.328125 -1.175781 18.082031 -0.570312 16.71875 -0.125 C 15.351562 0.3125 14.003906 0.53125 12.671875 0.53125 Z M 7.8125 -13.34375 L 15.71875 -13.34375 C 15.71875 -14.570312 15.4375 -15.566406 14.875 -16.328125 C 14.320312 -17.097656 13.382812 -17.484375 12.0625 -17.484375 C 11.03125 -17.484375 10.125 -17.144531 9.34375 -16.46875 C 8.5625 -15.789062 8.050781 -14.75 7.8125 -13.34375 Z M 7.8125 -13.34375 "/></g></g></g><g fill="#526479" fill-opacity="1"><g transform="translate(751.368881, 373.035059)"><g/></g></g><g fill="#526479" fill-opacity="1"><g transform="translate(760.200149, 373.035059)"><g><path d="M 3.40625 0 L 3.40625 -28.796875 L 13.296875 -28.796875 C 14.890625 -28.796875 16.375 -28.640625 17.75 -28.328125 C 19.132812 -28.023438 20.34375 -27.507812 21.375 -26.78125 C 22.40625 -26.0625 23.222656 -25.101562 23.828125 -23.90625 C 24.429688 -22.71875 24.734375 -21.257812 24.734375 -19.53125 C 24.734375 -17.84375 24.429688 -16.378906 23.828125 -15.140625 C 23.222656 -13.910156 22.40625 -12.894531 21.375 -12.09375 C 20.34375 -11.300781 19.148438 -10.710938 17.796875 -10.328125 C 16.441406 -9.953125 15 -9.765625 13.46875 -9.765625 L 9.890625 -9.765625 L 9.890625 0 Z M 9.890625 -14.9375 L 13.078125 -14.9375 C 16.609375 -14.9375 18.375 -16.46875 18.375 -19.53125 C 18.375 -21.03125 17.898438 -22.085938 16.953125 -22.703125 C 16.015625 -23.316406 14.660156 -23.625 12.890625 -23.625 L 9.890625 -23.625 Z M 9.890625 -14.9375 "/></g></g></g><g fill="#526479" fill-opacity="1"><g transform="translate(786.517302, 373.035059)"><g><path d="M 8.390625 0.53125 C 7.390625 0.53125 6.484375 0.359375 5.671875 0.015625 C 4.867188 -0.316406 4.1875 -0.785156 3.625 -1.390625 C 3.0625 -1.992188 2.625 -2.691406 2.3125 -3.484375 C 2.007812 -4.285156 1.859375 -5.15625 1.859375 -6.09375 C 1.859375 -8.394531 2.828125 -10.191406 4.765625 -11.484375 C 6.710938 -12.773438 9.847656 -13.644531 14.171875 -14.09375 C 14.117188 -15.0625 13.832031 -15.832031 13.3125 -16.40625 C 12.800781 -16.976562 11.941406 -17.265625 10.734375 -17.265625 C 9.785156 -17.265625 8.847656 -17.085938 7.921875 -16.734375 C 6.992188 -16.390625 6.003906 -15.90625 4.953125 -15.28125 L 2.609375 -19.5625 C 4.015625 -20.414062 5.488281 -21.109375 7.03125 -21.640625 C 8.582031 -22.171875 10.226562 -22.4375 11.96875 -22.4375 C 14.800781 -22.4375 16.957031 -21.632812 18.4375 -20.03125 C 19.925781 -18.425781 20.671875 -15.929688 20.671875 -12.546875 L 20.671875 0 L 15.375 0 L 14.9375 -2.25 L 14.75 -2.25 C 13.8125 -1.425781 12.828125 -0.753906 11.796875 -0.234375 C 10.765625 0.273438 9.628906 0.53125 8.390625 0.53125 Z M 10.59375 -4.5 C 11.332031 -4.5 11.96875 -4.660156 12.5 -4.984375 C 13.03125 -5.316406 13.585938 -5.773438 14.171875 -6.359375 L 14.171875 -10.203125 C 11.878906 -9.878906 10.289062 -9.40625 9.40625 -8.78125 C 8.519531 -8.164062 8.078125 -7.429688 8.078125 -6.578125 C 8.078125 -5.867188 8.304688 -5.34375 8.765625 -5 C 9.222656 -4.664062 9.832031 -4.5 10.59375 -4.5 Z M 10.59375 -4.5 "/></g></g></g><g fill="#526479" fill-opacity="1"><g transform="translate(809.787672, 373.035059)"><g><path d="M 12.40625 0.53125 C 10.875 0.53125 9.453125 0.273438 8.140625 -0.234375 C 6.835938 -0.753906 5.695312 -1.5 4.71875 -2.46875 C 3.75 -3.445312 2.984375 -4.648438 2.421875 -6.078125 C 1.867188 -7.503906 1.59375 -9.128906 1.59375 -10.953125 C 1.59375 -12.773438 1.898438 -14.398438 2.515625 -15.828125 C 3.140625 -17.265625 3.972656 -18.46875 5.015625 -19.4375 C 6.054688 -20.40625 7.269531 -21.144531 8.65625 -21.65625 C 10.039062 -22.175781 11.484375 -22.4375 12.984375 -22.4375 C 14.335938 -22.4375 15.535156 -22.210938 16.578125 -21.765625 C 17.628906 -21.328125 18.566406 -20.769531 19.390625 -20.09375 L 16.34375 -15.90625 C 15.3125 -16.757812 14.328125 -17.1875 13.390625 -17.1875 C 11.796875 -17.1875 10.539062 -16.625 9.625 -15.5 C 8.71875 -14.382812 8.265625 -12.867188 8.265625 -10.953125 C 8.265625 -9.035156 8.726562 -7.515625 9.65625 -6.390625 C 10.582031 -5.273438 11.75 -4.71875 13.15625 -4.71875 C 13.863281 -4.71875 14.550781 -4.875 15.21875 -5.1875 C 15.882812 -5.5 16.507812 -5.875 17.09375 -6.3125 L 19.65625 -2.078125 C 18.5625 -1.128906 17.378906 -0.457031 16.109375 -0.0625 C 14.847656 0.332031 13.613281 0.53125 12.40625 0.53125 Z M 12.40625 0.53125 "/></g></g></g><g fill="#526479" fill-opacity="1"><g transform="translate(830.408665, 373.035059)"><g><path d="M 2.875 0 L 2.875 -30.96875 L 9.1875 -30.96875 L 9.1875 -13.203125 L 9.359375 -13.203125 L 16.296875 -21.90625 L 23.359375 -21.90625 L 15.6875 -12.890625 L 23.9375 0 L 16.921875 0 L 11.96875 -8.53125 L 9.1875 -5.390625 L 9.1875 0 Z M 2.875 0 "/></g></g></g><g fill="#526479" fill-opacity="1"><g transform="translate(854.606326, 373.035059)"><g><path d="M 8.390625 0.53125 C 7.390625 0.53125 6.484375 0.359375 5.671875 0.015625 C 4.867188 -0.316406 4.1875 -0.785156 3.625 -1.390625 C 3.0625 -1.992188 2.625 -2.691406 2.3125 -3.484375 C 2.007812 -4.285156 1.859375 -5.15625 1.859375 -6.09375 C 1.859375 -8.394531 2.828125 -10.191406 4.765625 -11.484375 C 6.710938 -12.773438 9.847656 -13.644531 14.171875 -14.09375 C 14.117188 -15.0625 13.832031 -15.832031 13.3125 -16.40625 C 12.800781 -16.976562 11.941406 -17.265625 10.734375 -17.265625 C 9.785156 -17.265625 8.847656 -17.085938 7.921875 -16.734375 C 6.992188 -16.390625 6.003906 -15.90625 4.953125 -15.28125 L 2.609375 -19.5625 C 4.015625 -20.414062 5.488281 -21.109375 7.03125 -21.640625 C 8.582031 -22.171875 10.226562 -22.4375 11.96875 -22.4375 C 14.800781 -22.4375 16.957031 -21.632812 18.4375 -20.03125 C 19.925781 -18.425781 20.671875 -15.929688 20.671875 -12.546875 L 20.671875 0 L 15.375 0 L 14.9375 -2.25 L 14.75 -2.25 C 13.8125 -1.425781 12.828125 -0.753906 11.796875 -0.234375 C 10.765625 0.273438 9.628906 0.53125 8.390625 0.53125 Z M 10.59375 -4.5 C 11.332031 -4.5 11.96875 -4.660156 12.5 -4.984375 C 13.03125 -5.316406 13.585938 -5.773438 14.171875 -6.359375 L 14.171875 -10.203125 C 11.878906 -9.878906 10.289062 -9.40625 9.40625 -8.78125 C 8.519531 -8.164062 8.078125 -7.429688 8.078125 -6.578125 C 8.078125 -5.867188 8.304688 -5.34375 8.765625 -5 C 9.222656 -4.664062 9.832031 -4.5 10.59375 -4.5 Z M 10.59375 -4.5 "/></g></g></g><g fill="#526479" fill-opacity="1"><g transform="translate(877.876718, 373.035059)"><g><path d="M 10.6875 9.3125 C 9.394531 9.3125 8.195312 9.203125 7.09375 8.984375 C 5.988281 8.765625 5.015625 8.429688 4.171875 7.984375 C 3.335938 7.546875 2.679688 6.972656 2.203125 6.265625 C 1.734375 5.566406 1.5 4.726562 1.5 3.75 C 1.5 1.988281 2.546875 0.519531 4.640625 -0.65625 L 4.640625 -0.84375 C 4.046875 -1.21875 3.554688 -1.703125 3.171875 -2.296875 C 2.796875 -2.890625 2.609375 -3.640625 2.609375 -4.546875 C 2.609375 -5.347656 2.84375 -6.109375 3.3125 -6.828125 C 3.78125 -7.546875 4.367188 -8.15625 5.078125 -8.65625 L 5.078125 -8.828125 C 4.316406 -9.359375 3.632812 -10.117188 3.03125 -11.109375 C 2.425781 -12.097656 2.125 -13.238281 2.125 -14.53125 C 2.125 -15.851562 2.375 -17.007812 2.875 -18 C 3.375 -18.988281 4.039062 -19.8125 4.875 -20.46875 C 5.71875 -21.132812 6.679688 -21.628906 7.765625 -21.953125 C 8.859375 -22.273438 9.992188 -22.4375 11.171875 -22.4375 C 12.472656 -22.4375 13.609375 -22.257812 14.578125 -21.90625 L 22.578125 -21.90625 L 22.578125 -17.1875 L 19.078125 -17.1875 C 19.285156 -16.863281 19.453125 -16.445312 19.578125 -15.9375 C 19.710938 -15.4375 19.78125 -14.894531 19.78125 -14.3125 C 19.78125 -13.039062 19.5625 -11.941406 19.125 -11.015625 C 18.6875 -10.085938 18.078125 -9.320312 17.296875 -8.71875 C 16.515625 -8.113281 15.597656 -7.664062 14.546875 -7.375 C 13.503906 -7.082031 12.378906 -6.9375 11.171875 -6.9375 C 10.316406 -6.9375 9.4375 -7.082031 8.53125 -7.375 C 8.226562 -7.132812 8.019531 -6.894531 7.90625 -6.65625 C 7.789062 -6.425781 7.734375 -6.125 7.734375 -5.75 C 7.734375 -5.1875 7.972656 -4.769531 8.453125 -4.5 C 8.941406 -4.238281 9.804688 -4.109375 11.046875 -4.109375 L 14.578125 -4.109375 C 17.285156 -4.109375 19.351562 -3.671875 20.78125 -2.796875 C 22.207031 -1.929688 22.921875 -0.515625 22.921875 1.453125 C 22.921875 2.609375 22.632812 3.660156 22.0625 4.609375 C 21.488281 5.566406 20.671875 6.390625 19.609375 7.078125 C 18.546875 7.773438 17.265625 8.320312 15.765625 8.71875 C 14.265625 9.113281 12.570312 9.3125 10.6875 9.3125 Z M 11.171875 -10.859375 C 12.023438 -10.859375 12.738281 -11.160156 13.3125 -11.765625 C 13.882812 -12.367188 14.171875 -13.289062 14.171875 -14.53125 C 14.171875 -15.675781 13.882812 -16.550781 13.3125 -17.15625 C 12.738281 -17.757812 12.023438 -18.0625 11.171875 -18.0625 C 10.316406 -18.0625 9.601562 -17.765625 9.03125 -17.171875 C 8.457031 -16.585938 8.171875 -15.707031 8.171875 -14.53125 C 8.171875 -13.289062 8.457031 -12.367188 9.03125 -11.765625 C 9.601562 -11.160156 10.316406 -10.859375 11.171875 -10.859375 Z M 11.703125 5.25 C 13.179688 5.25 14.390625 4.988281 15.328125 4.46875 C 16.265625 3.957031 16.734375 3.320312 16.734375 2.5625 C 16.734375 1.882812 16.445312 1.425781 15.875 1.1875 C 15.300781 0.957031 14.472656 0.84375 13.390625 0.84375 L 11.125 0.84375 C 10.363281 0.84375 9.742188 0.816406 9.265625 0.765625 C 8.796875 0.722656 8.390625 0.660156 8.046875 0.578125 C 7.242188 1.285156 6.84375 2.003906 6.84375 2.734375 C 6.84375 3.554688 7.285156 4.179688 8.171875 4.609375 C 9.054688 5.035156 10.234375 5.25 11.703125 5.25 Z M 11.703125 5.25 "/></g></g></g><g fill="#526479" fill-opacity="1"><g transform="translate(901.456193, 373.035059)"><g><path d="M 12.671875 0.53125 C 11.117188 0.53125 9.660156 0.273438 8.296875 -0.234375 C 6.941406 -0.753906 5.765625 -1.503906 4.765625 -2.484375 C 3.765625 -3.472656 2.984375 -4.675781 2.421875 -6.09375 C 1.867188 -7.507812 1.59375 -9.128906 1.59375 -10.953125 C 1.59375 -12.722656 1.882812 -14.320312 2.46875 -15.75 C 3.0625 -17.175781 3.835938 -18.378906 4.796875 -19.359375 C 5.753906 -20.347656 6.847656 -21.109375 8.078125 -21.640625 C 9.316406 -22.171875 10.597656 -22.4375 11.921875 -22.4375 C 13.484375 -22.4375 14.84375 -22.171875 16 -21.640625 C 17.164062 -21.109375 18.140625 -20.367188 18.921875 -19.421875 C 19.703125 -18.484375 20.285156 -17.375 20.671875 -16.09375 C 21.054688 -14.8125 21.25 -13.421875 21.25 -11.921875 C 21.25 -11.335938 21.21875 -10.78125 21.15625 -10.25 C 21.09375 -9.71875 21.035156 -9.320312 20.984375 -9.0625 L 7.859375 -9.0625 C 8.148438 -7.46875 8.804688 -6.296875 9.828125 -5.546875 C 10.847656 -4.796875 12.09375 -4.421875 13.5625 -4.421875 C 15.125 -4.421875 16.695312 -4.90625 18.28125 -5.875 L 20.453125 -1.9375 C 19.328125 -1.175781 18.082031 -0.570312 16.71875 -0.125 C 15.351562 0.3125 14.003906 0.53125 12.671875 0.53125 Z M 7.8125 -13.34375 L 15.71875 -13.34375 C 15.71875 -14.570312 15.4375 -15.566406 14.875 -16.328125 C 14.320312 -17.097656 13.382812 -17.484375 12.0625 -17.484375 C 11.03125 -17.484375 10.125 -17.144531 9.34375 -16.46875 C 8.5625 -15.789062 8.050781 -14.75 7.8125 -13.34375 Z M 7.8125 -13.34375 "/></g></g></g></svg>